<?xml version="1.0" encoding="utf-8"?>
<!-- Generator: Adobe Illustrator 16.0.0, SVG Export Plug-In . SVG Version: 6.00 Build 0)  -->
<!DOCTYPE svg PUBLIC "-//W3C//DTD SVG 1.1//EN" "http://www.w3.org/Graphics/SVG/1.1/DTD/svg11.dtd">
<svg version="1.1" id="Layer_1" xmlns="http://www.w3.org/2000/svg" xmlns:xlink="http://www.w3.org/1999/xlink" x="0px" y="0px"
	 width="286.047px" height="76.224px" viewBox="0 0 286.047 76.224" enable-background="new 0 0 286.047 76.224"
	 xml:space="preserve">
<g>
	<g>
		<g>
			<g>
				<path fill="#009BDE" d="M193.021,0H170.77c-1.521,0-2.816,1.107-3.053,2.609l-8.998,57.053
					c-0.177,1.126,0.692,2.145,1.832,2.145h11.417c1.064,0,1.972-0.775,2.137-1.827l2.552-16.175
					c0.237-1.503,1.532-2.609,3.054-2.609h7.041c14.655,0,23.113-7.093,25.324-21.151c0.995-6.148,0.04-10.979-2.839-14.361
					C206.073,1.966,200.464,0,193.021,0z M195.588,20.837c-1.216,7.987-7.315,7.987-13.216,7.987h-3.356l2.354-14.912
					c0.143-0.901,0.92-1.565,1.832-1.565h1.539c4.016,0,7.81,0,9.765,2.288C195.677,16.004,196.031,18.033,195.588,20.837z"/>
				<path fill="#002F87" d="M34.325,0h-22.25c-1.521,0-2.816,1.107-3.054,2.609L0.023,59.662c-0.177,1.126,0.693,2.145,1.833,2.145
					h10.624c1.521,0,2.816-1.107,3.054-2.61l2.428-15.392c0.237-1.503,1.532-2.609,3.053-2.609h7.041
					c14.656,0,23.114-7.093,25.325-21.151c0.995-6.148,0.04-10.979-2.838-14.361C47.376,1.966,41.768,0,34.325,0z M36.892,20.837
					c-1.216,7.987-7.316,7.987-13.215,7.987H20.32l2.354-14.912c0.143-0.901,0.919-1.565,1.832-1.565h1.539
					c4.016,0,7.81,0,9.765,2.288C36.98,16.004,37.334,18.033,36.892,20.837z"/>
				<path fill="#002F87" d="M100.828,20.582H90.174c-0.913,0-1.69,0.664-1.833,1.566l-0.468,2.979l-0.745-1.079
					c-2.308-3.35-7.45-4.468-12.585-4.468c-11.77,0-21.826,8.92-23.783,21.431c-1.019,6.241,0.427,12.205,3.966,16.368
					c3.251,3.825,7.891,5.417,13.419,5.417c9.487,0,14.75-6.096,14.75-6.096l-0.476,2.962c-0.179,1.126,0.691,2.146,1.832,2.146
					h9.595c1.521,0,2.815-1.107,3.053-2.609l5.76-36.473C102.837,21.599,101.967,20.582,100.828,20.582z M85.98,41.319
					c-1.029,6.088-5.862,10.174-12.026,10.174c-3.09,0-5.564-0.994-7.154-2.875c-1.576-1.866-2.169-4.524-1.669-7.484
					C66.09,35.101,71,30.882,77.07,30.882c3.025,0,5.482,1.004,7.103,2.903C85.805,35.698,86.447,38.374,85.98,41.319z"/>
				<path fill="#009BDE" d="M259.524,20.582h-10.653c-0.913,0-1.69,0.664-1.832,1.566l-0.469,2.979l-0.745-1.079
					c-2.308-3.35-7.45-4.468-12.585-4.468c-11.771,0-21.826,8.92-23.782,21.431c-1.019,6.241,0.427,12.205,3.966,16.368
					c3.251,3.825,7.891,5.417,13.419,5.417c9.487,0,14.75-6.096,14.75-6.096l-0.476,2.962c-0.179,1.126,0.691,2.146,1.832,2.146
					h9.595c1.521,0,2.815-1.107,3.053-2.609l5.76-36.473C261.535,21.599,260.664,20.582,259.524,20.582z M244.676,41.319
					c-1.029,6.088-5.861,10.174-12.025,10.174c-3.091,0-5.564-0.994-7.155-2.875c-1.575-1.866-2.169-4.524-1.669-7.484
					c0.96-6.033,5.869-10.252,11.939-10.252c3.025,0,5.482,1.004,7.104,2.903C244.501,35.698,245.143,38.374,244.676,41.319z"/>
				<path fill="#002F87" d="M157.574,20.582h-10.709c-1.024,0-1.982,0.508-2.558,1.355l-14.772,21.756l-6.261-20.906
					c-0.392-1.309-1.596-2.206-2.961-2.206h-10.527c-1.271,0-2.165,1.25-1.756,2.454l11.792,34.612l-11.091,15.649
					c-0.871,1.229,0.008,2.927,1.514,2.927h10.698c1.014,0,1.963-0.497,2.541-1.33l35.614-51.4
					C159.95,22.263,159.07,20.582,157.574,20.582z"/>
				<path fill="#009BDE" d="M272.083,1.566l-9.133,58.097c-0.177,1.126,0.693,2.144,1.832,2.144h9.185
					c1.521,0,2.816-1.107,3.054-2.609l9.004-57.053C286.202,1.018,285.332,0,284.192,0h-10.277
					C273.001,0,272.224,0.665,272.083,1.566z"/>
			</g>
		</g>
	</g>
</g>
</svg>
