<?xml version="1.0" encoding="utf-8"?>
<!-- Generator: Adobe Illustrator 16.0.0, SVG Export Plug-In . SVG Version: 6.00 Build 0)  -->
<!DOCTYPE svg PUBLIC "-//W3C//DTD SVG 1.1//EN" "http://www.w3.org/Graphics/SVG/1.1/DTD/svg11.dtd" [
	<!ENTITY ns_extend "http://ns.adobe.com/Extensibility/1.0/">
	<!ENTITY ns_ai "http://ns.adobe.com/AdobeIllustrator/10.0/">
	<!ENTITY ns_graphs "http://ns.adobe.com/Graphs/1.0/">
	<!ENTITY ns_vars "http://ns.adobe.com/Variables/1.0/">
	<!ENTITY ns_imrep "http://ns.adobe.com/ImageReplacement/1.0/">
	<!ENTITY ns_sfw "http://ns.adobe.com/SaveForWeb/1.0/">
	<!ENTITY ns_custom "http://ns.adobe.com/GenericCustomNamespace/1.0/">
	<!ENTITY ns_adobe_xpath "http://ns.adobe.com/XPath/1.0/">
]>
<svg version="1.1" id="Layer_1" xmlns:x="&ns_extend;" xmlns:i="&ns_ai;" xmlns:graph="&ns_graphs;"
	 xmlns="http://www.w3.org/2000/svg" xmlns:xlink="http://www.w3.org/1999/xlink" x="0px" y="0px" width="100px" height="50px"
	 viewBox="0 0 100 50" enable-background="new 0 0 100 50" xml:space="preserve">
<metadata>
	<sfw  xmlns="&ns_sfw;">
		<slices></slices>
		<sliceSourceBounds  height="45.305" width="100" y="-47.652" x="0" bottomLeftOrigin="true"></sliceSourceBounds>
	</sfw>
</metadata>
<g>
	<path fill="#333333" d="M10.024,32.914c0.263,0.168,0.518,0.443,0.765,0.822c0.247,0.381,0.641,1.059,1.18,2.035
		c0.169,0.313,0.412,0.732,0.727,1.26h3.259v-0.184c-0.156-0.021-0.3-0.061-0.433-0.117c-0.132-0.057-0.286-0.176-0.459-0.355
		s-0.364-0.432-0.569-0.756l-1.208-1.895c-0.444-0.697-0.901-1.184-1.372-1.457c0.361-0.102,0.689-0.248,0.984-0.438
		c0.295-0.191,0.529-0.434,0.703-0.729c0.174-0.297,0.261-0.635,0.261-1.014c0-0.469-0.137-0.885-0.412-1.248
		s-0.672-0.645-1.194-0.844s-1.127-0.297-1.818-0.297H5.198v0.184c0.439,0,0.757,0.092,0.954,0.275
		c0.196,0.184,0.295,0.5,0.295,0.947v6.539c0,0.363-0.076,0.654-0.227,0.873c-0.151,0.221-0.492,0.33-1.022,0.33v0.184h4.748v-0.17
		c-0.274-0.01-0.494-0.037-0.659-0.086s-0.304-0.16-0.418-0.336s-0.171-0.441-0.171-0.795V32.66H9.02
		C9.427,32.66,9.762,32.744,10.024,32.914z M10.505,28.439c0.341,0.148,0.597,0.363,0.769,0.643
		c0.171,0.281,0.257,0.625,0.257,1.031c0,0.654-0.199,1.156-0.597,1.504s-0.99,0.523-1.777,0.523H8.697v-3.922h0.549
		C9.745,28.219,10.164,28.293,10.505,28.439z"/>
	<path fill="#333333" d="M17.407,27.699v0.184h0.068c0.512,0,0.839,0.117,0.981,0.354c0.142,0.236,0.213,0.527,0.213,0.869v6.539
		c0,0.359-0.078,0.648-0.233,0.871c-0.155,0.221-0.499,0.332-1.029,0.332v0.184h7.615l0.151-2.242h-0.199
		c-0.137,0.451-0.292,0.801-0.463,1.049c-0.171,0.246-0.389,0.42-0.651,0.521c-0.263,0.102-0.603,0.152-1.019,0.152h-0.618
		c-0.869,0-1.303-0.389-1.303-1.166V32.66h1.626c0.366,0,0.682,0.068,0.947,0.209c0.265,0.139,0.432,0.416,0.501,0.83h0.199v-2.738
		h-0.199c-0.037,0.389-0.166,0.684-0.388,0.881c-0.222,0.199-0.575,0.299-1.06,0.299h-1.626v-3.922h2.038
		c0.357,0,0.638,0.059,0.844,0.18c0.206,0.121,0.365,0.295,0.477,0.523c0.112,0.227,0.213,0.518,0.305,0.867h0.199l-0.082-2.09
		H17.407z"/>
	<path fill="#333333" d="M31.228,27.609l-2.868,7.49c-0.256,0.65-0.521,1.096-0.796,1.34c-0.274,0.242-0.569,0.379-0.885,0.408
		v0.184h3.032v-0.184c-0.251-0.033-0.469-0.1-0.652-0.199c-0.183-0.1-0.274-0.293-0.274-0.58c0-0.186,0.046-0.393,0.137-0.621
		l0.721-1.906h3.019l0.844,1.982c0.009,0.025,0.031,0.094,0.065,0.205c0.034,0.113,0.062,0.219,0.083,0.318
		c0.021,0.1,0.031,0.176,0.031,0.23c0,0.346-0.327,0.537-0.981,0.57v0.184h4.789v-0.184c-0.361-0.055-0.666-0.16-0.913-0.314
		c-0.247-0.152-0.462-0.438-0.645-0.852l-3.396-8.072H31.228z M31.09,29.777l1.303,3.143h-2.518L31.09,29.777z"/>
	<path fill="#333333" d="M46.99,34.617h-0.199c-0.33,0.816-0.705,1.336-1.125,1.559c-0.421,0.225-0.869,0.336-1.345,0.336h-0.7
		c-0.466,0-0.78-0.1-0.94-0.301s-0.24-0.492-0.24-0.877v-6.242c0-0.371,0.081-0.666,0.244-0.883
		c0.162-0.219,0.506-0.326,1.033-0.326v-0.184h-4.775v0.184c0.453,0,0.774,0.1,0.964,0.301c0.19,0.201,0.285,0.504,0.285,0.908
		v6.553c0,0.367-0.076,0.66-0.229,0.877s-0.493,0.326-1.019,0.326v0.184h7.698L46.99,34.617z"/>
	<path fill="#333333" d="M47.878,27.584h-0.199l-0.055,2.193h0.213c0.192-0.617,0.389-1.02,0.59-1.207
		c0.201-0.189,0.462-0.283,0.782-0.283h1.887v7.357c0,0.363-0.078,0.654-0.233,0.873c-0.155,0.221-0.496,0.33-1.022,0.33v0.184
		h4.755v-0.184c-0.353,0-0.62-0.055-0.803-0.162s-0.305-0.246-0.363-0.418c-0.06-0.17-0.09-0.379-0.09-0.623v-7.357h1.887
		c0.348,0,0.642,0.088,0.882,0.264s0.41,0.584,0.511,1.227h0.192l-0.055-2.193h-0.199c-0.215,0.076-0.484,0.115-0.81,0.115h-7.06
		C48.362,27.699,48.093,27.66,47.878,27.584L47.878,27.584z"/>
	<path fill="#333333" d="M65.746,27.699v0.184c0.32,0.004,0.546,0.064,0.676,0.184c0.131,0.117,0.196,0.25,0.196,0.398
		c0,0.297-0.131,0.625-0.392,0.988l-1.509,2.066l-1.88-2.471c-0.261-0.334-0.392-0.58-0.392-0.736c0-0.178,0.075-0.291,0.227-0.342
		s0.356-0.08,0.617-0.088v-0.184h-4.974v0.184c0.302,0,0.557,0.057,0.765,0.174c0.208,0.115,0.477,0.379,0.807,0.789l3.005,3.682
		v3.117c0,0.367-0.078,0.66-0.233,0.877s-0.494,0.326-1.016,0.326v0.184h4.748v-0.184c-0.472,0-0.797-0.098-0.978-0.291
		c-0.181-0.195-0.271-0.498-0.271-0.912V32.02l1.866-2.566c0.402-0.541,0.801-0.932,1.194-1.176
		c0.393-0.242,0.839-0.373,1.338-0.395v-0.184H65.746z"/>
	<path fill="#333333" d="M71.019,27.699v0.184c0.462,0.063,1,0.367,1.612,0.912c0.078,0.066,0.165,0.143,0.261,0.229
		c0.096,0.084,0.165,0.145,0.206,0.184c0.046,0.041,0.082,0.072,0.109,0.088v6.178c0.01,0.84-0.491,1.299-1.502,1.375v0.184h3.608
		v-0.184c-0.549-0.037-0.925-0.213-1.129-0.523c-0.203-0.311-0.305-0.684-0.305-1.123v-5.254l7.396,7.186h0.254v-7.691
		c0-0.279,0.027-0.521,0.083-0.729c0.055-0.207,0.176-0.389,0.363-0.543s0.474-0.25,0.857-0.287v-0.184h-3.485v0.184
		c0.508,0.066,0.885,0.203,1.132,0.408s0.371,0.588,0.371,1.15v4.27l-6.168-6.012H71.019z"/>
	<path fill="#333333" d="M88.538,27.609L85.67,35.1c-0.257,0.65-0.521,1.096-0.796,1.34c-0.274,0.242-0.569,0.379-0.885,0.408v0.184
		h3.032v-0.184c-0.252-0.033-0.469-0.1-0.652-0.199c-0.183-0.1-0.274-0.293-0.274-0.58c0-0.186,0.046-0.393,0.138-0.621l0.721-1.906
		h3.019l0.844,1.982c0.009,0.025,0.03,0.094,0.065,0.205c0.034,0.113,0.062,0.219,0.082,0.318s0.031,0.176,0.031,0.23
		c0,0.346-0.327,0.537-0.981,0.57v0.184h4.789v-0.184c-0.361-0.055-0.666-0.16-0.913-0.314c-0.247-0.152-0.462-0.438-0.645-0.852
		l-3.396-8.072H88.538z M88.4,29.777l1.304,3.143h-2.518L88.4,29.777z"/>
</g>
<g>
	<g>
		<path fill="#30ACE1" d="M28.246,2.347v21.777h3.136V6.354h3.311V2.347H28.246z M20.625,17.853h-6.098v6.272h12.718v-11.15h-6.62
			V17.853z"/>
	</g>
</g>
<path fill-rule="evenodd" clip-rule="evenodd" fill="#228BAF" d="M46.829,24.125h-14.46V7.354h6.62v10.499h7.84V24.125z"/>
<path fill-rule="evenodd" clip-rule="evenodd" fill="#228BAF" d="M68.735,2.347h6.62v21.777h-6.62V2.347z"/>
<path fill-rule="evenodd" clip-rule="evenodd" fill="#000D11" d="M47.829,17.853h6.62v6.271h-6.62V17.853z"/>
<path fill-rule="evenodd" clip-rule="evenodd" fill="#000D11" d="M54.449,11.581h6.62v6.272h-6.62V11.581z"/>
<path fill-rule="evenodd" clip-rule="evenodd" fill="#000D11" d="M61.069,17.853h6.621v6.271h-6.621V17.853z"/>
<path fill-rule="evenodd" clip-rule="evenodd" fill="#000D11" d="M13.154,10.884h6.446v6.098h-6.446V10.884z"/>
<path fill-rule="evenodd" clip-rule="evenodd" fill="#000D11" d="M5.663,16.982h7.492v6.969H5.663V16.982z"/>
<path fill-rule="evenodd" clip-rule="evenodd" fill="#000D11" d="M83.982,10.581h6.62v6.272h-6.62V10.581z"/>
<rect y="40" opacity="0.5" fill-rule="evenodd" clip-rule="evenodd" fill="#333333" width="100" height="1"/>
<path fill="#333333" d="M1.266,43.275c0-0.023,0.011-0.035,0.033-0.035h0.242c0.842,0,1.263,0.332,1.263,0.992
	c0,0.188-0.042,0.348-0.128,0.477c-0.15,0.229-0.388,0.357-0.715,0.387c-0.127,0.012-0.35,0.018-0.668,0.018
	c-0.018,0-0.027-0.012-0.027-0.035V43.275z M0.033,42.926C0.011,42.926,0,42.936,0,42.959v0.178c0,0.023,0.011,0.033,0.033,0.033
	l0.584,0.059c0.022,0,0.034,0.01,0.034,0.033v3.957c0,0.023-0.011,0.033-0.034,0.033l-0.584,0.055C0.011,47.307,0,47.318,0,47.344
	v0.178c0,0.023,0.011,0.033,0.033,0.033h1.918c0.024,0,0.037-0.01,0.037-0.033v-0.178c0-0.023-0.012-0.035-0.037-0.037l-0.652-0.055
	c-0.022-0.002-0.033-0.012-0.033-0.033v-1.797c0-0.018,0.011-0.027,0.033-0.027H1.38c0.45,0,0.817,0.299,1.102,0.895l0.591,1.24
	c0.009,0.018,0.026,0.025,0.05,0.025h1.078c0.022,0,0.034-0.01,0.034-0.033v-0.178c0-0.025-0.011-0.037-0.034-0.037l-0.5-0.055
	c-0.024,0-0.042-0.008-0.05-0.025L3.059,46.09c-0.208-0.4-0.431-0.658-0.668-0.771c0.154-0.041,0.299-0.098,0.433-0.168
	c0.437-0.232,0.655-0.57,0.655-1.016c0-0.387-0.16-0.693-0.48-0.92c-0.273-0.193-0.721-0.289-1.343-0.289H0.033z"/>
<path fill="#333333" d="M7.173,45.725H5.769c0.009-0.115,0.029-0.23,0.061-0.35c0.105-0.398,0.337-0.598,0.695-0.598
	C6.977,44.777,7.193,45.092,7.173,45.725L7.173,45.725z M7.744,45.992c0.022,0,0.034-0.01,0.034-0.033
	c0.009-0.076,0.013-0.15,0.013-0.221c0-0.4-0.1-0.709-0.299-0.928c-0.206-0.227-0.507-0.34-0.903-0.34
	c-0.448,0-0.806,0.174-1.075,0.521c-0.246,0.314-0.37,0.703-0.37,1.166c0,0.449,0.126,0.809,0.38,1.078
	c0.257,0.277,0.61,0.416,1.058,0.416c0.401,0,0.797-0.131,1.189-0.393c0.018-0.012,0.024-0.027,0.02-0.047l-0.097-0.168
	c-0.007-0.008-0.012-0.014-0.017-0.021c-0.007-0.004-0.015-0.002-0.024,0.008c-0.25,0.156-0.519,0.234-0.806,0.234
	c-0.358,0-0.633-0.125-0.823-0.379c-0.166-0.223-0.253-0.52-0.262-0.895H7.744z"/>
<path fill="#333333" d="M10.638,46.998c0,0.01-0.011,0.023-0.034,0.039c-0.119,0.061-0.208,0.104-0.269,0.125
	c-0.121,0.043-0.224,0.064-0.309,0.064c-0.293,0-0.44-0.146-0.44-0.441c0-0.273,0.119-0.449,0.356-0.529
	c0.078-0.027,0.133-0.045,0.165-0.055c0.119-0.037,0.295-0.064,0.531-0.078V46.998z M10.742,47.576c0,0.021,0.011,0.033,0.034,0.033
	l0.907-0.121c0.011,0,0.021-0.012,0.03-0.037v-0.117c-0.002-0.01-0.015-0.021-0.037-0.033l-0.433-0.125
	c-0.018-0.01-0.027-0.021-0.027-0.041v-1.857c0-0.158-0.026-0.291-0.078-0.393c-0.136-0.275-0.434-0.414-0.893-0.414
	c-0.325,0-0.668,0.064-1.031,0.195c-0.022,0.008-0.033,0.02-0.033,0.033v0.764c0,0.02,0.011,0.029,0.033,0.029h0.215
	c0.022,0,0.033-0.01,0.033-0.029l0.098-0.508c0.009-0.027,0.02-0.047,0.034-0.057c0.147-0.072,0.321-0.109,0.521-0.109
	c0.349,0,0.524,0.18,0.524,0.535v0.531c-0.22,0.018-0.464,0.055-0.732,0.111c-0.121,0.023-0.239,0.063-0.356,0.117
	c-0.385,0.176-0.578,0.455-0.578,0.832c0,0.107,0.02,0.209,0.061,0.303c0.123,0.289,0.36,0.434,0.712,0.434
	c0.338,0,0.651-0.133,0.94-0.4L10.742,47.576z"/>
<path fill="#333333" d="M13.23,47.232c0,0.023-0.011,0.033-0.034,0.033l-0.537,0.047c-0.022,0-0.034,0.014-0.034,0.037v0.172
	c0,0.023,0.011,0.033,0.034,0.033h1.706c0.022,0,0.034-0.01,0.034-0.033V47.35c0-0.021-0.011-0.033-0.034-0.037l-0.544-0.047
	c-0.022-0.002-0.034-0.014-0.034-0.033V42.73c0-0.023-0.011-0.033-0.034-0.033h-0.202c-0.009,0-0.02,0.002-0.033,0.006l-0.867,0.139
	c-0.011,0-0.02,0.01-0.027,0.033v0.158c0,0.021,0.011,0.033,0.034,0.033l0.537,0.057c0.022,0,0.034,0.012,0.034,0.033V47.232z"/>
<path fill="#333333" d="M17.854,42.926c-0.022,0-0.034,0.01-0.034,0.033v0.178c0,0.023,0.011,0.033,0.034,0.033l0.584,0.059
	c0.014,0,0.025,0.006,0.034,0.02v3.971c0,0.023-0.011,0.033-0.034,0.033l-0.584,0.055c-0.022,0-0.034,0.012-0.034,0.037v0.178
	c0,0.023,0.011,0.033,0.034,0.033h3.385c0.022,0,0.034-0.01,0.034-0.033v-1.068c0-0.021-0.011-0.033-0.034-0.033h-0.255
	c-0.022,0-0.034,0.008-0.034,0.027l-0.138,0.766c0,0.018-0.012,0.027-0.037,0.027h-1.669c-0.022,0-0.034-0.012-0.034-0.035v-1.857
	c0-0.025,0.011-0.037,0.034-0.037h0.947c0.024,0,0.037,0.01,0.037,0.031l0.067,0.59c0,0.02,0.011,0.027,0.034,0.027h0.188
	c0.022,0,0.034-0.012,0.034-0.033V44.43c0-0.021-0.011-0.033-0.034-0.033h-0.188c-0.022,0-0.034,0.01-0.034,0.027l-0.067,0.559
	c0,0.018-0.012,0.025-0.037,0.025h-0.947c-0.022,0-0.034-0.01-0.034-0.033v-1.699c0-0.023,0.011-0.035,0.034-0.035h1.575
	c0.022,0,0.034,0.01,0.034,0.027l0.138,0.779c0,0.018,0.011,0.027,0.034,0.027h0.255c0.022,0,0.034-0.012,0.034-0.037v-1.078
	c0-0.023-0.011-0.033-0.034-0.033H17.854z"/>
<path fill="#333333" d="M24.338,45.436c0.024,0,0.037-0.01,0.037-0.027v-0.775c0-0.021-0.012-0.033-0.037-0.037
	c-0.253-0.084-0.499-0.125-0.735-0.125c-0.292,0-0.541,0.074-0.749,0.225c-0.242,0.176-0.363,0.396-0.363,0.666
	c0,0.379,0.243,0.666,0.729,0.859l0.309,0.125c0.09,0.041,0.151,0.068,0.185,0.084c0.201,0.096,0.302,0.242,0.302,0.438
	c0,0.33-0.197,0.496-0.591,0.496c-0.168,0-0.33-0.037-0.487-0.111c-0.018-0.018-0.028-0.031-0.03-0.039L22.8,46.662
	c0-0.018-0.013-0.027-0.037-0.027h-0.211c-0.022,0-0.034,0.01-0.034,0.027v0.795c0,0.021,0.011,0.033,0.034,0.037
	c0.311,0.105,0.582,0.158,0.813,0.158c0.318,0,0.591-0.082,0.819-0.248c0.255-0.184,0.383-0.43,0.383-0.736
	c0-0.354-0.252-0.633-0.756-0.84l-0.289-0.117c-0.331-0.135-0.497-0.307-0.497-0.514c0-0.072,0.017-0.139,0.051-0.199
	c0.092-0.164,0.258-0.244,0.5-0.244c0.141,0,0.268,0.025,0.38,0.076c0.018,0.01,0.027,0.023,0.027,0.041l0.111,0.537
	c0,0.012,0.011,0.02,0.034,0.027H24.338z"/>
<path fill="#333333" d="M25.956,47.023c0,0.188,0.063,0.338,0.191,0.455c0.127,0.115,0.285,0.174,0.474,0.174
	c0.177,0,0.35-0.027,0.521-0.084c0.127-0.043,0.28-0.123,0.457-0.242c0.018-0.01,0.025-0.025,0.02-0.047l-0.087-0.17
	c-0.007-0.006-0.015-0.008-0.024-0.012c-0.013-0.002-0.024,0.002-0.033,0.012c-0.132,0.109-0.306,0.164-0.521,0.164
	c-0.293,0-0.44-0.164-0.44-0.494v-1.832c0-0.021,0.011-0.033,0.033-0.033h0.914c0.022,0,0.034-0.012,0.034-0.037v-0.244
	c0-0.025-0.011-0.037-0.034-0.037h-0.914c-0.022,0-0.033-0.012-0.033-0.035V43.93c0-0.023-0.01-0.037-0.03-0.037H26.45
	c-0.016,0-0.034,0.01-0.054,0.031l-0.88,0.887c-0.016,0.014-0.023,0.027-0.023,0.039v0.035c0,0.02,0.01,0.029,0.03,0.029h0.396
	c0.024,0,0.037,0.012,0.037,0.033V47.023z"/>
<path fill="#333333" d="M30.254,46.998c0,0.01-0.011,0.023-0.034,0.039c-0.119,0.061-0.208,0.104-0.269,0.125
	c-0.121,0.043-0.224,0.064-0.309,0.064c-0.293,0-0.44-0.146-0.44-0.441c0-0.273,0.119-0.449,0.356-0.529
	c0.078-0.027,0.133-0.045,0.165-0.055c0.119-0.037,0.295-0.064,0.53-0.078V46.998z M30.358,47.576c0,0.021,0.011,0.033,0.033,0.033
	l0.907-0.121c0.011,0,0.021-0.012,0.03-0.037v-0.117c-0.002-0.01-0.015-0.021-0.037-0.033l-0.434-0.125
	c-0.018-0.01-0.027-0.021-0.027-0.041v-1.857c0-0.158-0.025-0.291-0.077-0.393c-0.137-0.275-0.435-0.414-0.893-0.414
	c-0.325,0-0.668,0.064-1.031,0.195c-0.022,0.008-0.034,0.02-0.034,0.033v0.764c0,0.02,0.011,0.029,0.034,0.029h0.215
	c0.022,0,0.034-0.01,0.034-0.029l0.097-0.508c0.009-0.027,0.021-0.047,0.034-0.057c0.148-0.072,0.321-0.109,0.521-0.109
	c0.35,0,0.524,0.18,0.524,0.535v0.531c-0.219,0.018-0.463,0.055-0.732,0.111c-0.121,0.023-0.24,0.063-0.356,0.117
	c-0.385,0.176-0.578,0.455-0.578,0.832c0,0.107,0.02,0.209,0.061,0.303c0.123,0.289,0.36,0.434,0.712,0.434
	c0.338,0,0.651-0.133,0.94-0.4L30.358,47.576z"/>
<path fill="#333333" d="M32.648,47.023c0,0.188,0.064,0.338,0.191,0.455c0.127,0.115,0.286,0.174,0.474,0.174
	c0.177,0,0.35-0.027,0.521-0.084c0.127-0.043,0.28-0.123,0.457-0.242c0.018-0.01,0.025-0.025,0.021-0.047l-0.087-0.17
	c-0.007-0.006-0.015-0.008-0.023-0.012c-0.014-0.002-0.025,0.002-0.034,0.012c-0.132,0.109-0.306,0.164-0.521,0.164
	c-0.293,0-0.44-0.164-0.44-0.494v-1.832c0-0.021,0.011-0.033,0.034-0.033h0.913c0.022,0,0.034-0.012,0.034-0.037v-0.244
	c0-0.025-0.011-0.037-0.034-0.037h-0.913c-0.022,0-0.034-0.012-0.034-0.035V43.93c0-0.023-0.01-0.037-0.03-0.037h-0.034
	c-0.016,0-0.034,0.01-0.054,0.031l-0.88,0.887c-0.016,0.014-0.023,0.027-0.023,0.039v0.035c0,0.02,0.01,0.029,0.03,0.029h0.396
	c0.025,0,0.037,0.012,0.037,0.033V47.023z"/>
<path fill="#333333" d="M37.326,45.725h-1.404c0.009-0.115,0.029-0.23,0.061-0.35c0.105-0.398,0.337-0.598,0.695-0.598
	C37.13,44.777,37.346,45.092,37.326,45.725L37.326,45.725z M37.896,45.992c0.022,0,0.034-0.01,0.034-0.033
	c0.009-0.076,0.014-0.15,0.014-0.221c0-0.4-0.1-0.709-0.299-0.928c-0.206-0.227-0.507-0.34-0.903-0.34
	c-0.448,0-0.806,0.174-1.075,0.521c-0.246,0.314-0.369,0.703-0.369,1.166c0,0.449,0.126,0.809,0.379,1.078
	c0.257,0.277,0.61,0.416,1.058,0.416c0.401,0,0.797-0.131,1.189-0.393c0.018-0.012,0.025-0.027,0.021-0.047l-0.098-0.168
	c-0.007-0.008-0.012-0.014-0.017-0.021c-0.007-0.004-0.015-0.002-0.024,0.008c-0.25,0.156-0.519,0.234-0.806,0.234
	c-0.358,0-0.633-0.125-0.823-0.379c-0.166-0.223-0.253-0.52-0.262-0.895H37.896z"/>
<path fill="#333333" d="M42.245,43.516c-0.437,0.457-0.655,1.035-0.655,1.734c0,0.693,0.222,1.266,0.665,1.721
	s1.01,0.682,1.699,0.682c0.688,0,1.248-0.234,1.68-0.705c0.421-0.455,0.631-1.029,0.631-1.725c0-0.697-0.209-1.27-0.628-1.717
	c-0.428-0.457-0.989-0.686-1.683-0.686C43.26,42.82,42.69,43.053,42.245,43.516L42.245,43.516z M45.146,43.813
	c0.302,0.424,0.454,0.939,0.454,1.549c0,0.545-0.12,0.996-0.359,1.357c-0.28,0.416-0.679,0.625-1.196,0.625
	c-0.358,0-0.677-0.107-0.957-0.324s-0.493-0.506-0.638-0.869c-0.13-0.326-0.195-0.682-0.195-1.064c0-0.533,0.133-0.982,0.4-1.348
	c0.298-0.406,0.704-0.607,1.219-0.607C44.397,43.131,44.821,43.357,45.146,43.813L45.146,43.813z"/>
<path fill="#333333" d="M47.426,44.646c-0.018,0-0.027,0.01-0.027,0.033v0.158c0,0.021,0.012,0.033,0.037,0.033l0.494,0.057
	c0.022,0,0.034,0.012,0.034,0.033v2.271c0,0.023-0.011,0.033-0.034,0.033l-0.48,0.047c-0.024,0-0.037,0.014-0.037,0.037v0.172
	c0,0.023,0.012,0.033,0.037,0.033h1.538c0.024,0,0.037-0.01,0.037-0.033V47.35c0-0.023-0.013-0.037-0.037-0.037l-0.433-0.047
	c-0.022,0-0.034-0.01-0.034-0.033V45.1c0.005-0.01,0.016-0.018,0.034-0.027c0.206-0.105,0.444-0.158,0.715-0.158
	c0.239,0,0.41,0.066,0.511,0.199c0.087,0.115,0.131,0.297,0.131,0.543v1.576c0,0.023-0.011,0.033-0.033,0.033l-0.434,0.047
	c-0.024,0-0.037,0.014-0.037,0.037v0.172c0,0.023,0.013,0.033,0.037,0.033h1.505c0.022,0,0.033-0.01,0.033-0.033V47.35
	c0-0.023-0.011-0.037-0.033-0.037l-0.447-0.047c-0.022,0-0.033-0.01-0.033-0.033v-1.777c0-0.666-0.296-0.998-0.887-0.998
	c-0.109,0-0.211,0.01-0.303,0.031c-0.3,0.064-0.553,0.178-0.759,0.342v-0.295c0-0.023-0.011-0.033-0.033-0.033h-0.191
	c-0.005,0-0.02,0.002-0.044,0.006L47.426,44.646z"/>
<path fill="#333333" d="M52.523,47.232c0,0.023-0.012,0.033-0.034,0.033l-0.537,0.047c-0.022,0-0.033,0.014-0.033,0.037v0.172
	c0,0.023,0.011,0.033,0.033,0.033h1.706c0.022,0,0.034-0.01,0.034-0.033V47.35c0-0.021-0.012-0.033-0.034-0.037l-0.544-0.047
	c-0.022-0.002-0.033-0.014-0.033-0.033V42.73c0-0.023-0.012-0.033-0.034-0.033h-0.201c-0.009,0-0.021,0.002-0.033,0.006
	l-0.867,0.139c-0.011,0-0.02,0.01-0.026,0.033v0.158c0,0.021,0.011,0.033,0.033,0.033l0.537,0.057c0.022,0,0.034,0.012,0.034,0.033
	V47.232z"/>
<path fill="#333333" d="M55.161,42.99c-0.071,0.068-0.106,0.156-0.106,0.264s0.035,0.195,0.106,0.264
	c0.07,0.068,0.159,0.104,0.267,0.104s0.196-0.035,0.266-0.104s0.104-0.156,0.104-0.264s-0.034-0.195-0.104-0.264
	s-0.158-0.102-0.266-0.102S55.231,42.922,55.161,42.99z M56.224,47.555c0.024,0,0.037-0.01,0.037-0.033V47.35
	c0-0.023-0.013-0.037-0.037-0.037l-0.446-0.047c-0.022,0-0.034-0.01-0.034-0.033v-2.697c0-0.023-0.011-0.033-0.033-0.033h-0.195
	c-0.018,0.002-0.031,0.004-0.04,0.006l-0.826,0.139c-0.018,0-0.026,0.01-0.026,0.033v0.158c0,0.021,0.011,0.033,0.033,0.033
	l0.497,0.057c0.022,0,0.033,0.012,0.033,0.033v2.271c0,0.023-0.011,0.033-0.033,0.033l-0.48,0.047c-0.024,0-0.037,0.014-0.037,0.037
	v0.172c0,0.023,0.013,0.033,0.037,0.033H56.224z"/>
<path fill="#333333" d="M57.312,44.646c-0.019,0-0.027,0.01-0.027,0.033v0.158c0,0.021,0.013,0.033,0.037,0.033l0.493,0.057
	c0.022,0,0.034,0.012,0.034,0.033v2.271c0,0.023-0.012,0.033-0.034,0.033l-0.479,0.047c-0.025,0-0.037,0.014-0.037,0.037v0.172
	c0,0.023,0.012,0.033,0.037,0.033h1.538c0.024,0,0.037-0.01,0.037-0.033V47.35c0-0.023-0.013-0.037-0.037-0.037l-0.434-0.047
	c-0.022,0-0.033-0.01-0.033-0.033V45.1c0.004-0.01,0.016-0.018,0.033-0.027c0.206-0.105,0.444-0.158,0.716-0.158
	c0.239,0,0.409,0.066,0.51,0.199c0.088,0.115,0.132,0.297,0.132,0.543v1.576c0,0.023-0.012,0.033-0.034,0.033l-0.434,0.047
	c-0.024,0-0.036,0.014-0.036,0.037v0.172c0,0.023,0.012,0.033,0.036,0.033h1.505c0.022,0,0.034-0.01,0.034-0.033V47.35
	c0-0.023-0.012-0.037-0.034-0.037l-0.446-0.047c-0.022,0-0.034-0.01-0.034-0.033v-1.777c0-0.666-0.295-0.998-0.887-0.998
	c-0.109,0-0.21,0.01-0.302,0.031c-0.3,0.064-0.553,0.178-0.759,0.342v-0.295c0-0.023-0.012-0.033-0.034-0.033h-0.191
	c-0.004,0-0.019,0.002-0.043,0.006L57.312,44.646z"/>
<path fill="#333333" d="M63.93,45.725h-1.403c0.009-0.115,0.028-0.23,0.061-0.35c0.104-0.398,0.337-0.598,0.695-0.598
	C63.734,44.777,63.95,45.092,63.93,45.725L63.93,45.725z M64.501,45.992c0.022,0,0.033-0.01,0.033-0.033
	c0.009-0.076,0.014-0.15,0.014-0.221c0-0.4-0.1-0.709-0.299-0.928c-0.206-0.227-0.507-0.34-0.903-0.34
	c-0.448,0-0.807,0.174-1.075,0.521c-0.246,0.314-0.369,0.703-0.369,1.166c0,0.449,0.127,0.809,0.38,1.078
	c0.257,0.277,0.609,0.416,1.058,0.416c0.4,0,0.797-0.131,1.188-0.393c0.019-0.012,0.025-0.027,0.021-0.047l-0.098-0.168
	c-0.006-0.008-0.012-0.014-0.017-0.021c-0.007-0.004-0.015-0.002-0.023,0.008c-0.251,0.156-0.52,0.234-0.806,0.234
	c-0.358,0-0.633-0.125-0.823-0.379c-0.166-0.223-0.253-0.52-0.262-0.895H64.501z"/>
<path fill="#333333" d="M70.76,44.094c0.022,0,0.033-0.01,0.033-0.033V43.02c0-0.018-0.011-0.029-0.033-0.033
	c-0.09-0.027-0.173-0.051-0.248-0.068c-0.28-0.064-0.554-0.098-0.82-0.098c-0.199,0-0.388,0.029-0.567,0.088
	c-0.279,0.092-0.506,0.246-0.679,0.465c-0.177,0.223-0.265,0.479-0.265,0.768s0.106,0.541,0.319,0.754
	c0.161,0.16,0.407,0.318,0.738,0.473l0.453,0.213c0.502,0.234,0.753,0.541,0.753,0.916c0,0.271-0.109,0.482-0.326,0.633
	c-0.19,0.131-0.427,0.197-0.709,0.197c-0.286,0-0.51-0.039-0.671-0.121l-0.018-0.02c-0.006-0.004-0.011-0.01-0.013-0.016
	l-0.138-0.777c0-0.012-0.012-0.02-0.034-0.027h-0.282c-0.022,0-0.033,0.012-0.033,0.035v1.037c0,0.014,0.011,0.025,0.033,0.033
	c0.074,0.029,0.156,0.055,0.246,0.074c0.317,0.072,0.599,0.107,0.843,0.107c0.477,0,0.873-0.113,1.188-0.342
	c0.354-0.256,0.53-0.613,0.53-1.076c0-0.309-0.1-0.566-0.299-0.775c-0.158-0.166-0.413-0.33-0.762-0.49l-0.447-0.205
	c-0.248-0.115-0.428-0.223-0.537-0.326c-0.163-0.154-0.245-0.344-0.245-0.564c0-0.23,0.092-0.416,0.275-0.555
	c0.166-0.125,0.367-0.188,0.604-0.188c0.229,0,0.441,0.043,0.639,0.131c0.02,0.008,0.029,0.02,0.029,0.033l0.138,0.773
	c0,0.018,0.012,0.025,0.034,0.025H70.76z"/>
<path fill="#333333" d="M74.38,45.246c0.129,0.248,0.194,0.563,0.194,0.945c0,0.777-0.276,1.166-0.829,1.166
	c-0.178,0-0.328-0.041-0.454-0.125c-0.345-0.229-0.517-0.664-0.517-1.307c0-0.32,0.057-0.58,0.171-0.779
	c0.144-0.252,0.364-0.377,0.662-0.377C73.956,44.77,74.214,44.93,74.38,45.246L74.38,45.246z M72.563,44.928
	c-0.275,0.295-0.413,0.682-0.413,1.156c0,0.48,0.131,0.861,0.393,1.139c0.267,0.287,0.64,0.43,1.119,0.43
	c0.463,0,0.838-0.152,1.125-0.459c0.277-0.301,0.416-0.686,0.416-1.154c0-0.488-0.129-0.869-0.386-1.145
	c-0.265-0.283-0.639-0.424-1.122-0.424C73.224,44.471,72.847,44.623,72.563,44.928L72.563,44.928z"/>
<path fill="#333333" d="M76.837,47.232c0,0.023-0.011,0.033-0.033,0.033l-0.537,0.047c-0.022,0-0.034,0.014-0.034,0.037v0.172
	c0,0.023,0.012,0.033,0.034,0.033h1.706c0.022,0,0.033-0.01,0.033-0.033V47.35c0-0.021-0.011-0.033-0.033-0.037l-0.544-0.047
	c-0.022-0.002-0.034-0.014-0.034-0.033V42.73c0-0.023-0.011-0.033-0.033-0.033h-0.202c-0.009,0-0.02,0.002-0.033,0.006l-0.866,0.139
	c-0.012,0-0.021,0.01-0.027,0.033v0.158c0,0.021,0.012,0.033,0.034,0.033l0.537,0.057c0.022,0,0.033,0.012,0.033,0.033V47.232z"/>
<path fill="#333333" d="M81.283,47.576c0.002,0.023,0.014,0.035,0.033,0.033l1.024-0.068c0.018-0.002,0.027-0.012,0.027-0.033V47.35
	c0-0.023-0.012-0.037-0.034-0.037l-0.497-0.053c-0.022,0-0.033-0.012-0.033-0.033v-2.691c0-0.023-0.012-0.033-0.034-0.033h-0.191
	c-0.02,0.002-0.034,0.004-0.043,0.006l-0.823,0.139c-0.02,0-0.03,0.01-0.03,0.033v0.158c0,0.021,0.013,0.033,0.037,0.033
	l0.494,0.057c0.022,0,0.033,0.012,0.033,0.033v1.982c0,0.014-0.011,0.027-0.033,0.041c-0.233,0.143-0.461,0.215-0.683,0.215
	c-0.43,0-0.645-0.215-0.645-0.643v-2.021c0-0.023-0.011-0.033-0.033-0.033h-0.201c-0.017,0.002-0.027,0.004-0.034,0.006
	l-0.826,0.139c-0.018,0-0.026,0.01-0.026,0.033v0.158c0,0.021,0.011,0.033,0.033,0.033l0.497,0.057c0.022,0,0.033,0.012,0.033,0.033
	v1.838c0,0.26,0.087,0.469,0.259,0.625c0.166,0.152,0.38,0.229,0.642,0.229c0.36,0,0.704-0.139,1.031-0.42L81.283,47.576z"/>
<path fill="#333333" d="M83.704,47.023c0,0.188,0.063,0.338,0.191,0.455c0.127,0.115,0.285,0.174,0.474,0.174
	c0.177,0,0.35-0.027,0.521-0.084c0.127-0.043,0.279-0.123,0.456-0.242c0.019-0.01,0.025-0.025,0.021-0.047l-0.087-0.17
	c-0.007-0.006-0.015-0.008-0.023-0.012c-0.014-0.002-0.025,0.002-0.034,0.012c-0.132,0.109-0.306,0.164-0.521,0.164
	c-0.293,0-0.439-0.164-0.439-0.494v-1.832c0-0.021,0.011-0.033,0.033-0.033h0.913c0.022,0,0.034-0.012,0.034-0.037v-0.244
	c0-0.025-0.012-0.037-0.034-0.037h-0.913c-0.022,0-0.033-0.012-0.033-0.035V43.93c0-0.023-0.011-0.037-0.03-0.037h-0.034
	c-0.016,0-0.033,0.01-0.054,0.031l-0.88,0.887c-0.016,0.014-0.023,0.027-0.023,0.039v0.035c0,0.02,0.011,0.029,0.03,0.029h0.396
	c0.024,0,0.037,0.012,0.037,0.033V47.023z"/>
<path fill="#333333" d="M86.842,42.99c-0.07,0.068-0.105,0.156-0.105,0.264s0.035,0.195,0.105,0.264s0.159,0.104,0.267,0.104
	s0.196-0.035,0.266-0.104s0.104-0.156,0.104-0.264s-0.035-0.195-0.104-0.264s-0.158-0.102-0.266-0.102S86.912,42.922,86.842,42.99z
	 M87.904,47.555c0.025,0,0.037-0.01,0.037-0.033V47.35c0-0.023-0.012-0.037-0.037-0.037l-0.446-0.047
	c-0.022,0-0.034-0.01-0.034-0.033v-2.697c0-0.023-0.011-0.033-0.033-0.033h-0.194c-0.019,0.002-0.031,0.004-0.041,0.006
	l-0.826,0.139c-0.018,0-0.026,0.01-0.026,0.033v0.158c0,0.021,0.011,0.033,0.033,0.033l0.497,0.057c0.022,0,0.034,0.012,0.034,0.033
	v2.271c0,0.023-0.012,0.033-0.034,0.033l-0.48,0.047c-0.024,0-0.036,0.014-0.036,0.037v0.172c0,0.023,0.012,0.033,0.036,0.033
	H87.904z"/>
<path fill="#333333" d="M91.232,45.246c0.13,0.248,0.194,0.563,0.194,0.945c0,0.777-0.276,1.166-0.829,1.166
	c-0.177,0-0.328-0.041-0.453-0.125c-0.346-0.229-0.518-0.664-0.518-1.307c0-0.32,0.057-0.58,0.171-0.779
	c0.144-0.252,0.364-0.377,0.662-0.377C90.809,44.77,91.066,44.93,91.232,45.246L91.232,45.246z M89.415,44.928
	c-0.275,0.295-0.413,0.682-0.413,1.156c0,0.48,0.131,0.861,0.394,1.139c0.266,0.287,0.639,0.43,1.118,0.43
	c0.463,0,0.838-0.152,1.125-0.459c0.277-0.301,0.416-0.686,0.416-1.154c0-0.488-0.128-0.869-0.386-1.145
	c-0.265-0.283-0.639-0.424-1.122-0.424C90.077,44.471,89.699,44.623,89.415,44.928L89.415,44.928z"/>
<path fill="#333333" d="M93.173,44.646c-0.018,0-0.027,0.01-0.027,0.033v0.158c0,0.021,0.013,0.033,0.037,0.033l0.494,0.057
	c0.022,0,0.033,0.012,0.033,0.033v2.271c0,0.023-0.011,0.033-0.033,0.033l-0.48,0.047c-0.024,0-0.037,0.014-0.037,0.037v0.172
	c0,0.023,0.013,0.033,0.037,0.033h1.538c0.024,0,0.037-0.01,0.037-0.033V47.35c0-0.023-0.013-0.037-0.037-0.037l-0.434-0.047
	c-0.022,0-0.033-0.01-0.033-0.033V45.1c0.004-0.01,0.016-0.018,0.033-0.027c0.206-0.105,0.444-0.158,0.716-0.158
	c0.239,0,0.409,0.066,0.511,0.199c0.087,0.115,0.131,0.297,0.131,0.543v1.576c0,0.023-0.012,0.033-0.034,0.033l-0.433,0.047
	c-0.024,0-0.037,0.014-0.037,0.037v0.172c0,0.023,0.013,0.033,0.037,0.033h1.504c0.022,0,0.034-0.01,0.034-0.033V47.35
	c0-0.023-0.012-0.037-0.034-0.037l-0.446-0.047c-0.022,0-0.033-0.01-0.033-0.033v-1.777c0-0.666-0.296-0.998-0.887-0.998
	c-0.11,0-0.211,0.01-0.303,0.031c-0.3,0.064-0.553,0.178-0.759,0.342v-0.295c0-0.023-0.012-0.033-0.033-0.033h-0.191
	c-0.005,0-0.02,0.002-0.044,0.006L93.173,44.646z"/>
<path fill="#333333" d="M99.61,45.436c0.024,0,0.037-0.01,0.037-0.027v-0.775c0-0.021-0.013-0.033-0.037-0.037
	c-0.253-0.084-0.498-0.125-0.735-0.125c-0.291,0-0.541,0.074-0.749,0.225c-0.242,0.176-0.363,0.396-0.363,0.666
	c0,0.379,0.243,0.666,0.729,0.859l0.309,0.125c0.09,0.041,0.151,0.068,0.185,0.084c0.201,0.096,0.303,0.242,0.303,0.438
	c0,0.33-0.197,0.496-0.592,0.496c-0.168,0-0.33-0.037-0.486-0.111c-0.019-0.018-0.028-0.031-0.03-0.039l-0.107-0.551
	c0-0.018-0.013-0.027-0.037-0.027h-0.212c-0.022,0-0.033,0.01-0.033,0.027v0.795c0,0.021,0.011,0.033,0.033,0.037
	c0.312,0.105,0.582,0.158,0.813,0.158c0.317,0,0.591-0.082,0.819-0.248c0.255-0.184,0.383-0.43,0.383-0.736
	c0-0.354-0.252-0.633-0.756-0.84l-0.289-0.117c-0.331-0.135-0.497-0.307-0.497-0.514c0-0.072,0.017-0.139,0.051-0.199
	c0.092-0.164,0.259-0.244,0.5-0.244c0.142,0,0.268,0.025,0.38,0.076c0.018,0.01,0.026,0.023,0.026,0.041l0.111,0.537
	c0,0.012,0.011,0.02,0.033,0.027H99.61z"/>
<path fill-rule="evenodd" clip-rule="evenodd" fill="#30ACE1" d="M89.073,24.125H76.355v-11.15h6.62v4.878h6.098V24.125z"/>
</svg>
