<?xml version="1.0" encoding="utf-8"?>
<!-- Generator: Adobe Illustrator 16.0.0, SVG Export Plug-In . SVG Version: 6.00 Build 0)  -->
<!DOCTYPE svg PUBLIC "-//W3C//DTD SVG 1.1//EN" "http://www.w3.org/Graphics/SVG/1.1/DTD/svg11.dtd" [
	<!ENTITY ns_extend "http://ns.adobe.com/Extensibility/1.0/">
	<!ENTITY ns_ai "http://ns.adobe.com/AdobeIllustrator/10.0/">
	<!ENTITY ns_graphs "http://ns.adobe.com/Graphs/1.0/">
	<!ENTITY ns_vars "http://ns.adobe.com/Variables/1.0/">
	<!ENTITY ns_imrep "http://ns.adobe.com/ImageReplacement/1.0/">
	<!ENTITY ns_sfw "http://ns.adobe.com/SaveForWeb/1.0/">
	<!ENTITY ns_custom "http://ns.adobe.com/GenericCustomNamespace/1.0/">
	<!ENTITY ns_adobe_xpath "http://ns.adobe.com/XPath/1.0/">
]>
<svg version="1.1" id="Layer_1" xmlns:x="&ns_extend;" xmlns:i="&ns_ai;" xmlns:graph="&ns_graphs;"
	 xmlns="http://www.w3.org/2000/svg" xmlns:xlink="http://www.w3.org/1999/xlink" x="0px" y="0px" width="64px" height="64px"
	 viewBox="0 0 64 64" enable-background="new 0 0 64 64" xml:space="preserve">
<metadata>
	<sfw  xmlns="&ns_sfw;">
		<slices></slices>
		<sliceSourceBounds  height="64" width="64" bottomLeftOrigin="true" y="0.5" x="-0.5"></sliceSourceBounds>
	</sfw>
</metadata>
<g>
	<g>
		<path fill="#333333" d="M56.291,9.75h-8.832c0.094,0.635,0.195,1.271,0.195,1.937c0,0.659-0.113,1.295-0.207,1.938h8.844
			c2.127,0,3.854,1.737,3.854,3.875v13.599H45.729v-4.184l-5.274,8.06h1.42v11.99H15.418v-11.99h9.125L22.578,31.1h-7.16V13.625
			h2.138c-0.09-0.643-0.211-1.283-0.211-1.938c0-0.666,0.105-1.302,0.196-1.937H7.709C3.452,9.75,0,13.22,0,17.5v38.75
			C0,60.529,3.452,64,7.709,64h48.582C60.548,64,64,60.529,64,56.25V17.5C64,13.22,60.548,9.75,56.291,9.75z M11.563,60.125H7.709
			c-2.123,0-3.854-1.734-3.854-3.875v-5.41h7.709L11.563,60.125L11.563,60.125z M11.563,46.965H3.854v-11.99h7.709V46.965z
			 M11.563,31.099H3.854V17.5c0-2.138,1.731-3.875,3.854-3.875h3.854L11.563,31.099L11.563,31.099z M41.873,60.125H15.418V50.84
			h26.455V60.125z M60.146,56.25c0,2.141-1.729,3.875-3.854,3.875H45.729V50.84h14.418V56.25z M60.146,46.965H45.729v-11.99h14.418
			V46.965z M57.291,37.68h-7.709v6.58h7.709V37.68z"/>
	</g>
</g>
<path fill="#30ACE1" d="M45.382,12.795c0,1.91-0.421,3.723-1.171,5.348l-11.629,22.8l-11.63-22.801
	c-0.75-1.625-1.17-3.438-1.17-5.348C19.782,5.728,25.512,0,32.582,0C39.652,0,45.382,5.728,45.382,12.795z M40.262,12.795
	c0-4.239-3.439-7.677-7.68-7.677s-7.68,3.438-7.68,7.677c0,4.238,3.44,7.677,7.68,7.677C36.82,20.472,40.262,17.033,40.262,12.795z"
	/>
</svg>
