<?xml version="1.0" encoding="utf-8"?>
<!-- Generator: Adobe Illustrator 16.0.0, SVG Export Plug-In . SVG Version: 6.00 Build 0)  -->
<!DOCTYPE svg PUBLIC "-//W3C//DTD SVG 1.1//EN" "http://www.w3.org/Graphics/SVG/1.1/DTD/svg11.dtd" [
	<!ENTITY ns_extend "http://ns.adobe.com/Extensibility/1.0/">
	<!ENTITY ns_ai "http://ns.adobe.com/AdobeIllustrator/10.0/">
	<!ENTITY ns_graphs "http://ns.adobe.com/Graphs/1.0/">
	<!ENTITY ns_vars "http://ns.adobe.com/Variables/1.0/">
	<!ENTITY ns_imrep "http://ns.adobe.com/ImageReplacement/1.0/">
	<!ENTITY ns_sfw "http://ns.adobe.com/SaveForWeb/1.0/">
	<!ENTITY ns_custom "http://ns.adobe.com/GenericCustomNamespace/1.0/">
	<!ENTITY ns_adobe_xpath "http://ns.adobe.com/XPath/1.0/">
]>
<svg version="1.1" id="Layer_1" xmlns:x="&ns_extend;" xmlns:i="&ns_ai;" xmlns:graph="&ns_graphs;"
	 xmlns="http://www.w3.org/2000/svg" xmlns:xlink="http://www.w3.org/1999/xlink" x="0px" y="0px" width="64px" height="64px"
	 viewBox="0 0 64 64" enable-background="new 0 0 64 64" xml:space="preserve">
<metadata>
	<sfw  xmlns="&ns_sfw;">
		<slices></slices>
		<sliceSourceBounds  height="58.474" width="64" bottomLeftOrigin="true" y="0.5" x="-0.5"></sliceSourceBounds>
	</sfw>
</metadata>
<g>
	<path fill="#30ACE1" d="M3,17h10V7H3V17z M4,8h8v8H4V8z M50.904,45h10V35h-10V45z M51.904,36h8v8h-8V36z M3,31h10V21H3V31z M4,22h8
		v8H4V22z M48.5,10h-33c-0.276,0-0.5,0.224-0.5,0.5v1c0,0.276,0.224,0.5,0.5,0.5h33c0.275,0,0.5-0.224,0.5-0.5v-1
		C49,10.224,48.775,10,48.5,10z M50.904,31h10V21h-10V31z M51.904,22h8v8h-8V22z M12,44H4v-8h6l1-1H3v10h10v-4l-1,1V44z M48.5,25
		h-33c-0.276,0-0.5,0.225-0.5,0.5v1c0,0.275,0.224,0.5,0.5,0.5h33c0.275,0,0.5-0.225,0.5-0.5v-1C49,25.225,48.775,25,48.5,25z
		 M48.5,39h-33c-0.276,0-0.5,0.225-0.5,0.5v1c0,0.275,0.224,0.5,0.5,0.5h33c0.275,0,0.5-0.225,0.5-0.5v-1
		C49,39.225,48.775,39,48.5,39z M59.904,14v2h-8V8h6l1-1h-8v10h10v-4L59.904,14z"/>
</g>
<g>
	<path fill="#333333" d="M50.111,47.504c-8.394-3.061-10.074-1.64-10.074-7.162c0-3.316,1.563-2.234,2.688-8.308
		c0.467-2.519,2.73-0.041,3.164-5.792c0-2.292-1.234-2.861-1.234-2.861s0.628-3.392,0.873-6.002
		C45.831,14.126,43.646,5.723,32,5.723c-11.647,0-13.832,8.403-13.526,11.655c0.246,2.61,0.874,6.002,0.874,6.002
		s-1.235,0.569-1.235,2.861c0.433,5.751,2.696,3.273,3.163,5.792c1.126,6.072,2.688,4.99,2.688,8.308
		c0,5.522-1.681,4.103-10.073,7.162C5.469,50.57,0,53.698,0,55.832C0,57.964,0,64,0,64h32h32c0,0,0-6.036,0-8.168
		C64,53.698,58.529,50.57,50.111,47.504z"/>
</g>
<g>
	<path fill="#333333" d="M6.05,38.914l0.707-0.707c0.195-0.195,0.512-0.195,0.707,0l2.829,2.828c0.195,0.195,0.195,0.513,0,0.707
		l-0.707,0.707c-0.195,0.195-0.512,0.195-0.707,0L6.05,39.621C5.855,39.426,5.855,39.109,6.05,38.914z"/>
	<path fill="#333333" d="M8.171,41.035l6.364-6.363c0.195-0.195,0.512-0.195,0.707,0l0.707,0.707c0.195,0.195,0.195,0.512,0,0.707
		l-6.364,6.363c-0.195,0.195-0.512,0.195-0.707,0L8.17,41.742C7.976,41.548,7.976,41.23,8.171,41.035z"/>
	<path fill="#333333" d="M53.955,9.914l0.707-0.707c0.193-0.195,0.512-0.195,0.707,0l2.828,2.829c0.195,0.195,0.195,0.512,0,0.707
		L57.49,13.45c-0.195,0.195-0.512,0.195-0.707,0l-2.828-2.829C53.76,10.426,53.76,10.109,53.955,9.914z"/>
	<path fill="#333333" d="M56.076,12.036l6.363-6.364c0.193-0.195,0.513-0.195,0.707,0l0.707,0.708c0.193,0.195,0.193,0.512,0,0.707
		L57.49,13.45c-0.195,0.195-0.512,0.195-0.707,0l-0.707-0.707C55.881,12.547,55.881,12.231,56.076,12.036z"/>
</g>
</svg>
