<?xml version="1.0" encoding="utf-8"?>
<!-- Generator: Adobe Illustrator 16.0.0, SVG Export Plug-In . SVG Version: 6.00 Build 0)  -->
<!DOCTYPE svg PUBLIC "-//W3C//DTD SVG 1.1//EN" "http://www.w3.org/Graphics/SVG/1.1/DTD/svg11.dtd">
<svg version="1.1" id="Layer_1" xmlns="http://www.w3.org/2000/svg" xmlns:xlink="http://www.w3.org/1999/xlink" x="0px" y="0px"
	 width="48px" height="48px" viewBox="0 0 48 48" enable-background="new 0 0 48 48" xml:space="preserve">
<g>
	<g opacity="0.75">
		<path d="M17.433,35.301h23.133c1.847,0,1.847-2.115,0-2.115H17.433C15.588,33.186,15.588,35.301,17.433,35.301z M17.435,38.476
			c-1.847,0-1.847,2.118-0.002,2.118c7.351,0,4.606,0,11.958,0c1.847,0,1.847-2.118,0-2.118
			C22.039,38.476,24.785,38.476,17.435,38.476z M17.435,30.012h11.958c1.845,0,1.845-2.115,0-2.115H17.435
			C15.588,27.896,15.588,30.012,17.435,30.012z M40.735,8H23.63l1.008,3.168h14.353l0.067,5.296h5.588v28.361l-31.265,0.002V22.505
			L10,21.549V48h38V14.604L40.735,8z M29.393,22.606H17.435c-1.846,0-1.846,2.115,0,2.115h11.958
			C31.237,24.722,31.237,22.606,29.393,22.606z M40.179,30.012c1.233,0,2.233-0.947,2.233-2.115v-3.175c0-1.168-1-2.115-2.233-2.115
			h-4.474c-1.233,0-2.234,0.947-2.234,2.115v3.175c0,1.168,1.001,2.115,2.234,2.115H40.179z M13.244,16.197
			c0.998-0.155,2.126-0.217,3.285-0.178c2.684,2.789,4.879,4.202,6.523,4.202c0.882,0,1.613-0.431,2.054-1.21
			c0.274-0.485,0.276-1.022,0.004-1.513c-0.867-1.561-4.656-2.556-8.001-2.748c-0.302-0.322-0.611-0.662-0.924-1.02
			c-2.878-3.289-4.041-8.069-4.476-10.599c-0.053-0.538-0.111-0.982-0.157-1.315C11.514,1.55,11.431,1,10.859,1
			c-0.185,0-0.361,0.078-0.487,0.22c-0.204,0.232-0.173,0.482-0.139,0.774c0.042,0.332,0.103,0.776,0.191,1.285
			c0.243,2.567,0.358,7.464-1.62,11.351c-0.204,0.402-0.41,0.793-0.615,1.164c-3.702,1.078-6.689,3-7.126,4.589
			c-0.158,0.578-0.021,1.13,0.387,1.559c0.476,0.496,1.039,0.75,1.671,0.75c1.752,0,3.748-1.952,5.935-5.795
			c0.972-0.256,1.939-0.435,2.872-0.53C12.292,16.33,12.883,16.251,13.244,16.197z M23.541,17.797
			c0.053,0.098,0.053,0.151,0.002,0.245c-0.213,0.373-0.512,0.546-0.938,0.546H22.6c-1.008,0-2.557-0.956-4.412-2.704
			C21.059,16.245,23.163,17.115,23.541,17.797z M3.082,21.006c-0.271,0-0.499-0.107-0.725-0.343c-0.09-0.099-0.111-0.18-0.075-0.313
			c0.222-0.806,2.081-2.186,4.797-3.186C5.547,19.586,4.076,21.006,3.082,21.006z M9.705,15.101
			c0.025-0.052,0.053-0.104,0.081-0.157c0.951-1.872,1.542-4.111,1.757-6.681c0.875,2.444,2.013,4.474,3.396,6.056
			c0.039,0.047,0.081,0.095,0.124,0.141c-0.799,0.021-1.552,0.086-2.247,0.193c-0.337,0.052-0.885,0.124-1.224,0.158
			C10.978,14.873,10.344,14.97,9.705,15.101z"/>
	</g>
	<g>
		<g>
			<linearGradient id="SVGID_1_" gradientUnits="userSpaceOnUse" x1="23.4995" y1="0" x2="23.4995" y2="47.0005">
				<stop  offset="0" style="stop-color:#FFFFFF"/>
				<stop  offset="1" style="stop-color:#BABABA"/>
			</linearGradient>
			<path fill="url(#SVGID_1_)" d="M16.433,34.301h23.133c1.847,0,1.847-2.115,0-2.115H16.433
				C14.588,32.186,14.588,34.301,16.433,34.301z M16.435,37.476c-1.847,0-1.847,2.118-0.002,2.118c7.351,0,4.606,0,11.958,0
				c1.847,0,1.847-2.118,0-2.118C21.039,37.476,23.785,37.476,16.435,37.476z M16.435,29.012h11.958c1.845,0,1.845-2.115,0-2.115
				H16.435C14.588,26.896,14.588,29.012,16.435,29.012z M39.735,7H22.63l1.008,3.168h14.353l0.067,5.296h5.588v28.361l-31.265,0.002
				V21.505L9,20.549V47h38V13.604L39.735,7z M28.393,21.606H16.435c-1.846,0-1.846,2.115,0,2.115h11.958
				C30.237,23.722,30.237,21.606,28.393,21.606z M39.179,29.012c1.233,0,2.233-0.947,2.233-2.115v-3.175
				c0-1.168-1-2.115-2.233-2.115h-4.474c-1.233,0-2.234,0.947-2.234,2.115v3.175c0,1.168,1.001,2.115,2.234,2.115H39.179z
				 M12.244,15.197c0.998-0.155,2.126-0.217,3.285-0.178c2.684,2.789,4.879,4.202,6.523,4.202c0.882,0,1.613-0.431,2.054-1.21
				c0.274-0.485,0.276-1.022,0.004-1.513c-0.867-1.561-4.656-2.556-8.001-2.748c-0.302-0.322-0.611-0.662-0.924-1.02
				c-2.878-3.289-4.041-8.069-4.476-10.599c-0.053-0.538-0.111-0.982-0.157-1.315C10.514,0.55,10.431,0,9.859,0
				C9.674,0,9.499,0.078,9.372,0.22C9.168,0.452,9.199,0.702,9.233,0.994C9.275,1.326,9.336,1.77,9.425,2.278
				c0.243,2.567,0.358,7.464-1.62,11.351c-0.204,0.402-0.41,0.793-0.615,1.164c-3.702,1.078-6.689,3-7.126,4.589
				c-0.158,0.578-0.021,1.13,0.387,1.559c0.476,0.496,1.039,0.75,1.671,0.75c1.752,0,3.748-1.952,5.935-5.795
				c0.972-0.256,1.939-0.435,2.872-0.53C11.292,15.33,11.883,15.251,12.244,15.197z M22.541,16.797
				c0.053,0.098,0.053,0.151,0.002,0.245c-0.213,0.373-0.512,0.546-0.938,0.546H21.6c-1.008,0-2.557-0.956-4.412-2.704
				C20.059,15.245,22.163,16.115,22.541,16.797z M2.082,20.006c-0.271,0-0.499-0.107-0.725-0.343
				c-0.09-0.099-0.111-0.18-0.075-0.313c0.222-0.806,2.081-2.186,4.797-3.186C4.547,18.586,3.076,20.006,2.082,20.006z
				 M8.705,14.101c0.025-0.052,0.053-0.104,0.081-0.157c0.951-1.872,1.542-4.111,1.757-6.681c0.875,2.444,2.013,4.474,3.396,6.056
				c0.039,0.047,0.081,0.095,0.124,0.141c-0.799,0.021-1.552,0.086-2.247,0.193c-0.337,0.052-0.885,0.124-1.224,0.158
				C9.978,13.873,9.344,13.97,8.705,14.101z"/>
		</g>
	</g>
</g>
</svg>
