<?xml version="1.0" encoding="utf-8"?>
<!-- Generator: Adobe Illustrator 16.0.0, SVG Export Plug-In . SVG Version: 6.00 Build 0)  -->
<!DOCTYPE svg PUBLIC "-//W3C//DTD SVG 1.1//EN" "http://www.w3.org/Graphics/SVG/1.1/DTD/svg11.dtd" [
	<!ENTITY ns_extend "http://ns.adobe.com/Extensibility/1.0/">
	<!ENTITY ns_ai "http://ns.adobe.com/AdobeIllustrator/10.0/">
	<!ENTITY ns_graphs "http://ns.adobe.com/Graphs/1.0/">
	<!ENTITY ns_vars "http://ns.adobe.com/Variables/1.0/">
	<!ENTITY ns_imrep "http://ns.adobe.com/ImageReplacement/1.0/">
	<!ENTITY ns_sfw "http://ns.adobe.com/SaveForWeb/1.0/">
	<!ENTITY ns_custom "http://ns.adobe.com/GenericCustomNamespace/1.0/">
	<!ENTITY ns_adobe_xpath "http://ns.adobe.com/XPath/1.0/">
]>
<svg version="1.1" id="Layer_1" xmlns:x="&ns_extend;" xmlns:i="&ns_ai;" xmlns:graph="&ns_graphs;"
	 xmlns="http://www.w3.org/2000/svg" xmlns:xlink="http://www.w3.org/1999/xlink" x="0px" y="0px" width="64px" height="64px"
	 viewBox="0 0 64 64" enable-background="new 0 0 64 64" xml:space="preserve">
<metadata>
	<sfw  xmlns="&ns_sfw;">
		<slices></slices>
		<sliceSourceBounds  height="50" width="64" bottomLeftOrigin="true" y="7.5" x="-0.5"></sliceSourceBounds>
	</sfw>
</metadata>
<path fill="#30ACE1" d="M5.538,7c3.06,0,5.538,2.456,5.538,5.486c0,3.03-2.478,5.49-5.538,5.49C2.479,17.976,0,15.517,0,12.486
	C0,9.455,2.479,7,5.538,7z"/>
<path fill="#30ACE1" d="M5.538,26.514c3.06,0,5.538,2.455,5.538,5.486s-2.478,5.491-5.538,5.491C2.479,37.491,0,35.031,0,32
	S2.479,26.514,5.538,26.514z"/>
<path fill="#30ACE1" d="M5.538,46.025c3.06,0,5.538,2.451,5.538,5.483c0,3.031-2.478,5.49-5.538,5.49C2.479,57,0,54.541,0,51.51
	S2.479,46.025,5.538,46.025z"/>
<g>
	<g>
		<g>
			<path fill="#333333" d="M61.542,7H20.925c-1.362,0-2.463,1.091-2.463,2.439v6.098c0,1.345,1.101,2.439,2.463,2.439h40.617
				c1.353,0,2.458-1.094,2.458-2.439V9.439C64,8.091,62.895,7,61.542,7z M61.542,26.514H20.925c-1.362,0-2.463,1.091-2.463,2.436
				v6.096c0,1.351,1.101,2.445,2.463,2.445h40.617c1.353,0,2.458-1.095,2.458-2.445V28.95C64,27.605,62.895,26.514,61.542,26.514z
				 M61.542,46.025H20.925c-1.362,0-2.463,1.09-2.463,2.438v6.1c0,1.342,1.101,2.438,2.463,2.438h40.617
				C62.895,57,64,55.904,64,54.563v-6.099C64,47.115,62.895,46.025,61.542,46.025z"/>
		</g>
	</g>
</g>
</svg>
