<?xml version="1.0" encoding="utf-8"?>
<!-- Generator: Adobe Illustrator 16.0.0, SVG Export Plug-In . SVG Version: 6.00 Build 0)  -->
<!DOCTYPE svg PUBLIC "-//W3C//DTD SVG 1.1//EN" "http://www.w3.org/Graphics/SVG/1.1/DTD/svg11.dtd">
<svg version="1.1" id="Layer_1" xmlns="http://www.w3.org/2000/svg" xmlns:xlink="http://www.w3.org/1999/xlink" x="0px" y="0px"
	 width="48px" height="48px" viewBox="0 0 48 48" enable-background="new 0 0 48 48" xml:space="preserve">
<g>
	<g opacity="0.75">
		<path fill-rule="evenodd" clip-rule="evenodd" d="M45.538,37.5H18.231c-1.359,0-2.462,1.12-2.462,2.5v1.25
			c0,1.381,1.103,2.5,2.462,2.5h27.307c1.359,0,2.462-1.119,2.462-2.5V40C48,38.62,46.897,37.5,45.538,37.5z M45.538,22.5H18.231
			c-1.359,0-2.462,1.12-2.462,2.5v1.25c0,1.38,1.103,2.5,2.462,2.5h27.307c1.359,0,2.462-1.12,2.462-2.5V25
			C48,23.62,46.897,22.5,45.538,22.5z M45.538,7.5H18.231c-1.359,0-2.462,1.12-2.462,2.5v1.25c0,1.38,1.103,2.5,2.462,2.5h27.307
			c1.359,0,2.462-1.12,2.462-2.5V10C48,8.62,46.897,7.5,45.538,7.5z M5.923,5C3.204,5,1,7.239,1,10c0,2.761,2.204,5,4.923,5
			s4.923-2.239,4.923-5C10.846,7.239,8.642,5,5.923,5z M5.923,20C3.204,20,1,22.239,1,25c0,2.761,2.204,5,4.923,5
			s4.923-2.239,4.923-5C10.846,22.239,8.642,20,5.923,20z M5.923,34.999C3.204,34.999,1,37.239,1,40c0,2.762,2.204,5,4.923,5
			s4.923-2.238,4.923-5C10.846,37.239,8.642,34.999,5.923,34.999z"/>
	</g>
	<g>
		<g>
			<linearGradient id="SVGID_1_" gradientUnits="userSpaceOnUse" x1="23.4995" y1="4" x2="23.4995" y2="44.0005">
				<stop  offset="0" style="stop-color:#FFFFFF"/>
				<stop  offset="1" style="stop-color:#BABABA"/>
			</linearGradient>
			<path fill-rule="evenodd" clip-rule="evenodd" fill="url(#SVGID_1_)" d="M44.538,36.5H17.231c-1.359,0-2.462,1.12-2.462,2.5v1.25
				c0,1.381,1.103,2.5,2.462,2.5h27.307c1.359,0,2.462-1.119,2.462-2.5V39C47,37.62,45.897,36.5,44.538,36.5z M44.538,21.5H17.231
				c-1.359,0-2.462,1.12-2.462,2.5v1.25c0,1.38,1.103,2.5,2.462,2.5h27.307c1.359,0,2.462-1.12,2.462-2.5V24
				C47,22.62,45.897,21.5,44.538,21.5z M44.538,6.5H17.231c-1.359,0-2.462,1.12-2.462,2.5v1.25c0,1.38,1.103,2.5,2.462,2.5h27.307
				c1.359,0,2.462-1.12,2.462-2.5V9C47,7.62,45.897,6.5,44.538,6.5z M4.923,4C2.204,4,0,6.239,0,9c0,2.761,2.204,5,4.923,5
				s4.923-2.239,4.923-5C9.846,6.239,7.642,4,4.923,4z M4.923,19C2.204,19,0,21.239,0,24c0,2.761,2.204,5,4.923,5
				s4.923-2.239,4.923-5C9.846,21.239,7.642,19,4.923,19z M4.923,33.999C2.204,33.999,0,36.239,0,39c0,2.762,2.204,5,4.923,5
				s4.923-2.238,4.923-5C9.846,36.239,7.642,33.999,4.923,33.999z"/>
		</g>
	</g>
</g>
</svg>
