<?xml version="1.0" encoding="utf-8"?>
<!-- Generator: Adobe Illustrator 16.0.0, SVG Export Plug-In . SVG Version: 6.00 Build 0)  -->
<!DOCTYPE svg PUBLIC "-//W3C//DTD SVG 1.1//EN" "http://www.w3.org/Graphics/SVG/1.1/DTD/svg11.dtd" [
	<!ENTITY ns_extend "http://ns.adobe.com/Extensibility/1.0/">
	<!ENTITY ns_ai "http://ns.adobe.com/AdobeIllustrator/10.0/">
	<!ENTITY ns_graphs "http://ns.adobe.com/Graphs/1.0/">
	<!ENTITY ns_vars "http://ns.adobe.com/Variables/1.0/">
	<!ENTITY ns_imrep "http://ns.adobe.com/ImageReplacement/1.0/">
	<!ENTITY ns_sfw "http://ns.adobe.com/SaveForWeb/1.0/">
	<!ENTITY ns_custom "http://ns.adobe.com/GenericCustomNamespace/1.0/">
	<!ENTITY ns_adobe_xpath "http://ns.adobe.com/XPath/1.0/">
]>
<svg version="1.1" id="Layer_1" xmlns:x="&ns_extend;" xmlns:i="&ns_ai;" xmlns:graph="&ns_graphs;"
	 xmlns="http://www.w3.org/2000/svg" xmlns:xlink="http://www.w3.org/1999/xlink" x="0px" y="0px" width="64px" height="64px"
	 viewBox="0 0 64 64" enable-background="new 0 0 64 64" xml:space="preserve">
<metadata>
	<sfw  xmlns="&ns_sfw;">
		<slices></slices>
		<sliceSourceBounds  height="49.162" width="64" bottomLeftOrigin="true" y="-57.081" x="0"></sliceSourceBounds>
	</sfw>
</metadata>
<g>
	<g>
		<polygon fill-rule="evenodd" clip-rule="evenodd" fill="#464646" points="49.131,22.788 49.131,7.919 39.104,7.926 39.104,15.517 
			31.99,10.408 0,33.454 6.142,33.454 31.956,14.659 42.022,21.861 42.021,11.475 46.223,11.475 46.223,25.05 58.182,33.454 
			64,33.454 		"/>
	</g>
</g>
<g>
	<path fill-rule="evenodd" clip-rule="evenodd" fill="#2EACE1" d="M15.631,48.03v-7.758h7.758v7.758H15.631z M6.581,57.081V48.03
		h9.05v9.051H6.581z"/>
	<path fill-rule="evenodd" clip-rule="evenodd" fill="#2EACE1" d="M39.611,35.394v21.688h-3.879V28.929h7.758v6.465H39.611z"/>
	<path fill-rule="evenodd" clip-rule="evenodd" fill="#2EACE1" d="M41.904,57.081V37.687h7.758v11.637h7.757v7.758H41.904z"/>
	<path fill-rule="evenodd" clip-rule="evenodd" fill="#2EACE1" d="M17.924,57.081v-6.758h7.758v-7.465l7.767,0.004l-0.009,14.219
		H17.924z"/>
</g>
</svg>
