<?xml version="1.0" encoding="utf-8"?>
<!-- Generator: Adobe Illustrator 16.0.0, SVG Export Plug-In . SVG Version: 6.00 Build 0)  -->
<!DOCTYPE svg PUBLIC "-//W3C//DTD SVG 1.1//EN" "http://www.w3.org/Graphics/SVG/1.1/DTD/svg11.dtd" [
	<!ENTITY ns_extend "http://ns.adobe.com/Extensibility/1.0/">
	<!ENTITY ns_ai "http://ns.adobe.com/AdobeIllustrator/10.0/">
	<!ENTITY ns_graphs "http://ns.adobe.com/Graphs/1.0/">
	<!ENTITY ns_vars "http://ns.adobe.com/Variables/1.0/">
	<!ENTITY ns_imrep "http://ns.adobe.com/ImageReplacement/1.0/">
	<!ENTITY ns_sfw "http://ns.adobe.com/SaveForWeb/1.0/">
	<!ENTITY ns_custom "http://ns.adobe.com/GenericCustomNamespace/1.0/">
	<!ENTITY ns_adobe_xpath "http://ns.adobe.com/XPath/1.0/">
]>
<svg version="1.1" id="Layer_1" xmlns:x="&ns_extend;" xmlns:i="&ns_ai;" xmlns:graph="&ns_graphs;"
	 xmlns="http://www.w3.org/2000/svg" xmlns:xlink="http://www.w3.org/1999/xlink" x="0px" y="0px" width="64px" height="64px"
	 viewBox="0 0 64 64" enable-background="new 0 0 64 64" xml:space="preserve">
<metadata>
	<sfw  xmlns="&ns_sfw;">
		<slices></slices>
		<sliceSourceBounds  height="64" width="53" bottomLeftOrigin="true" y="0.5" x="5"></sliceSourceBounds>
	</sfw>
</metadata>
<g>
	<g>
		<g>
			<path fill="#333333" d="M48.482,7.314V0H34.82v12.8h10.93V64H58.5V7.314H48.482z M46.66,10.057H36.643V7.314H46.66V10.057z
				 M46.66,5.486H36.643V2.743H46.66V5.486z M56.68,54.857h-9.107v-2.743h9.107V54.857z M56.68,48.457h-9.107v-2.743h9.107V48.457z
				 M56.68,42.059h-9.107v-2.744h9.107V42.059z M56.68,35.657h-9.107v-2.743h9.107V35.657z M56.68,29.257h-9.107v-2.743h9.107
				V29.257z M56.68,22.857h-9.107v-2.743h9.107V22.857z M56.68,16.457h-9.107v-2.743h9.107V16.457z M18.25,6.4h-2.732V1.829h-3.643
				V6.4H9.143v8.229H5.5V64h16.393V14.628H18.25V6.4z M9.143,59.43H7.321v-4.572h1.821L9.143,59.43L9.143,59.43z M9.143,53.027
				H7.321v-4.57h1.821L9.143,53.027L9.143,53.027z M9.143,46.629H7.321v-4.57h1.821L9.143,46.629L9.143,46.629z M9.143,40.229H7.321
				v-4.57h1.821L9.143,40.229L9.143,40.229z M9.143,33.828H7.321v-4.571h1.821L9.143,33.828L9.143,33.828z M9.143,27.429H7.321
				v-4.572h1.821L9.143,27.429L9.143,27.429z M9.143,21.029H7.321v-4.572h1.821L9.143,21.029L9.143,21.029z M12.786,59.43h-1.821
				v-4.572h1.821V59.43z M12.786,53.027h-1.821v-4.57h1.821V53.027z M12.786,46.629h-1.821v-4.57h1.821V46.629z M12.786,40.229
				h-1.821v-4.57h1.821V40.229z M12.786,33.828h-1.821v-4.571h1.821V33.828z M12.786,27.429h-1.821v-4.572h1.821V27.429z
				 M12.786,21.029h-1.821v-4.572h1.821V21.029z M12.786,12.8h-1.821V8.229h1.821V12.8z M16.429,59.43h-1.822v-4.572h1.822V59.43z
				 M16.429,53.027h-1.822v-4.57h1.822V53.027z M16.429,46.629h-1.822v-4.57h1.822V46.629z M16.429,40.229h-1.822v-4.57h1.822
				V40.229z M16.429,33.828h-1.822v-4.571h1.822V33.828z M16.429,27.429h-1.822v-4.572h1.822V27.429z M16.429,21.029h-1.822v-4.572
				h1.822V21.029z M16.429,12.8h-1.822V8.229h1.822V12.8z M20.072,59.43H18.25v-4.572h1.822V59.43z M20.072,53.027H18.25v-4.57
				h1.822V53.027z M20.072,46.629H18.25v-4.57h1.822V46.629z M20.072,40.229H18.25v-4.57h1.822V40.229z M20.072,33.828H18.25v-4.571
				h1.822V33.828z M20.072,27.429H18.25v-4.572h1.822V27.429z M20.072,16.457v4.572H18.25v-4.572H20.072z"/>
		</g>
	</g>
	<g>
		<g>
			<path fill="#30ACE1" d="M24.714,14.628V64H42.93V14.628H24.714z M29.268,58.516h-1.821v-4.572h1.821V58.516z M29.268,51.2h-1.821
				v-4.571h1.821V51.2z M29.268,43.886h-1.821v-4.571h1.821V43.886z M29.268,36.57h-1.821V32h1.821V36.57z M29.268,29.257h-1.821
				v-4.572h1.821V29.257z M29.268,21.943h-1.821v-4.571h1.821V21.943z M32.911,58.516H31.09v-4.572h1.821V58.516z M32.911,51.2
				H31.09v-4.571h1.821V51.2z M32.911,43.886H31.09v-4.571h1.821V43.886z M32.911,36.57H31.09V32h1.821V36.57z M32.911,29.257H31.09
				v-4.572h1.821V29.257z M32.911,21.943H31.09v-4.571h1.821V21.943z M36.555,58.516h-1.822v-4.572h1.822V58.516z M36.555,51.2
				h-1.822v-4.571h1.822V51.2z M36.555,43.886h-1.822v-4.571h1.822V43.886z M36.555,36.57h-1.822V32h1.822V36.57z M36.555,29.257
				h-1.822v-4.572h1.822V29.257z M36.555,21.943h-1.822v-4.571h1.822V21.943z M40.195,58.516h-1.82v-4.572h1.82V58.516z
				 M40.195,51.2h-1.82v-4.571h1.82V51.2z M40.195,43.886h-1.82v-4.571h1.82V43.886z M40.195,36.57h-1.82V32h1.82V36.57z
				 M40.195,29.257h-1.82v-4.572h1.82V29.257z M40.195,21.943h-1.82v-4.571h1.82V21.943z"/>
		</g>
	</g>
</g>
</svg>
