<?xml version="1.0" encoding="utf-8"?>
<!-- Generator: Adobe Illustrator 16.0.0, SVG Export Plug-In . SVG Version: 6.00 Build 0)  -->
<!DOCTYPE svg PUBLIC "-//W3C//DTD SVG 1.1//EN" "http://www.w3.org/Graphics/SVG/1.1/DTD/svg11.dtd" [
	<!ENTITY ns_extend "http://ns.adobe.com/Extensibility/1.0/">
	<!ENTITY ns_ai "http://ns.adobe.com/AdobeIllustrator/10.0/">
	<!ENTITY ns_graphs "http://ns.adobe.com/Graphs/1.0/">
	<!ENTITY ns_vars "http://ns.adobe.com/Variables/1.0/">
	<!ENTITY ns_imrep "http://ns.adobe.com/ImageReplacement/1.0/">
	<!ENTITY ns_sfw "http://ns.adobe.com/SaveForWeb/1.0/">
	<!ENTITY ns_custom "http://ns.adobe.com/GenericCustomNamespace/1.0/">
	<!ENTITY ns_adobe_xpath "http://ns.adobe.com/XPath/1.0/">
]>
<svg version="1.1" id="Layer_1" xmlns:x="&ns_extend;" xmlns:i="&ns_ai;" xmlns:graph="&ns_graphs;"
	 xmlns="http://www.w3.org/2000/svg" xmlns:xlink="http://www.w3.org/1999/xlink" x="0px" y="0px" width="64px" height="64px"
	 viewBox="0 0 64 64" enable-background="new 0 0 64 64" xml:space="preserve">
<metadata>
	<sfw  xmlns="&ns_sfw;">
		<slices></slices>
		<sliceSourceBounds  height="54" width="64" bottomLeftOrigin="true" y="5.5" x="-0.5"></sliceSourceBounds>
	</sfw>
</metadata>
<g>
	<path fill="#333333" d="M33.549,39.18V59l21.557-5.948V40.425l-18.32,5.261L33.549,39.18z M32.065,28.664l6.333,13.145
		l23.041-6.641l-6.334-13.146L32.065,28.664z M40.825,5L32,15.438L23.176,5L0,11.504l8.893,10.518L32,15.534l23.105,6.487L64,11.504
		L40.825,5z M8.893,40.425v12.627L30.449,59V39.18l-3.232,6.506L8.893,40.425z M25.6,41.809l6.334-13.145L8.893,22.021L2.561,35.168
		L25.6,41.809z"/>
</g>
</svg>
