<?xml version="1.0" encoding="utf-8"?>
<!-- Generator: Adobe Illustrator 16.0.0, SVG Export Plug-In . SVG Version: 6.00 Build 0)  -->
<!DOCTYPE svg PUBLIC "-//W3C//DTD SVG 1.1//EN" "http://www.w3.org/Graphics/SVG/1.1/DTD/svg11.dtd" [
	<!ENTITY ns_extend "http://ns.adobe.com/Extensibility/1.0/">
	<!ENTITY ns_ai "http://ns.adobe.com/AdobeIllustrator/10.0/">
	<!ENTITY ns_graphs "http://ns.adobe.com/Graphs/1.0/">
	<!ENTITY ns_vars "http://ns.adobe.com/Variables/1.0/">
	<!ENTITY ns_imrep "http://ns.adobe.com/ImageReplacement/1.0/">
	<!ENTITY ns_sfw "http://ns.adobe.com/SaveForWeb/1.0/">
	<!ENTITY ns_custom "http://ns.adobe.com/GenericCustomNamespace/1.0/">
	<!ENTITY ns_adobe_xpath "http://ns.adobe.com/XPath/1.0/">
]>
<svg version="1.1" id="Layer_1" xmlns:x="&ns_extend;" xmlns:i="&ns_ai;" xmlns:graph="&ns_graphs;"
	 xmlns="http://www.w3.org/2000/svg" xmlns:xlink="http://www.w3.org/1999/xlink" x="0px" y="0px" width="64px" height="64px"
	 viewBox="0 0 64 64" enable-background="new 0 0 64 64" xml:space="preserve">
<metadata>
	<sfw  xmlns="&ns_sfw;">
		<slices></slices>
		<sliceSourceBounds  height="64" width="64" y="443.5" x="567.5" bottomLeftOrigin="true"></sliceSourceBounds>
	</sfw>
</metadata>
<g>
	<g>
		<path fill="#333333" d="M56.475,3.972v3.2c0,3.227-2.646,5.896-5.871,5.896h-0.301c-3.225,0-5.896-2.671-5.896-5.896V3.546h-6.425
			v3.625c0,3.227-2.672,5.896-5.897,5.896h-0.296c-3.228,0-5.875-2.671-5.875-5.896V3.546h-6.531v3.625
			c0,3.227-2.588,5.896-5.813,5.896h-0.298c-3.227,0-5.847-2.671-5.847-5.896v-3.15C3.656,5.257,0,8.776,0,12.928v41.728
			C0,59.839,4.185,64,9.366,64h45.28C59.828,64,64,59.839,64,54.656V12.928C64.006,8.724,60.236,5.163,56.475,3.972z M59.355,53.796
			c0,3-2.41,5.442-5.41,5.442H10.072c-2.998,0-5.418-2.442-5.418-5.442V24.15c0-2.042,1.642-3.664,3.685-3.664H55.68
			c2.045,0,3.678,1.622,3.678,3.664L59.355,53.796L59.355,53.796z"/>
		<path fill="#333333" d="M13.273,10.188h0.297c0.927,0,1.751-0.391,2.312-1.043c0.462-0.536,0.733-1.21,0.733-1.974l0,0v-4.15l0,0
			c0-0.838-0.329-1.597-0.875-2.15c-0.006-0.004-0.006-0.012-0.009-0.016c-0.004-0.004-0.006,0.017-0.009,0.013
			c-0.555-0.548-1.313-0.865-2.153-0.865h-0.297c-0.842,0-1.601,0.317-2.156,0.865c-0.001,0.004-0.004-0.004-0.008-0.001
			c-0.007,0.005-0.018,0.004-0.023,0.008c-0.547,0.554-0.892,1.307-0.892,2.145l0,0v4.151l0,0c0,0.762,0.288,1.438,0.75,1.974
			C11.505,9.799,12.344,10.188,13.273,10.188z"/>
		<path fill="#333333" d="M30.041,9.701c0.005,0.002,0.022,0.007,0.025,0.01c0.009,0.005,0.025-0.012,0.033-0.006
			c0.485,0.32,1.066,0.485,1.69,0.485h0.003h0.294l0,0c0.525,0,1.02-0.109,1.447-0.342c0.006-0.001,0.009,0.009,0.015,0.006
			c0.009-0.006-0.003-0.006,0.009-0.013c0.938-0.523,1.551-1.519,1.551-2.669V3.02c0-0.996-0.455-1.881-1.19-2.44
			c-0.008-0.004-0.002-0.011-0.008-0.014l0.006,0.023c-0.511-0.382-1.14-0.584-1.827-0.584H31.79c-0.791,0-1.512,0.277-2.055,0.771
			c-0.001,0-0.003-0.011-0.003-0.011c-0.007,0.006-0.034,0.006-0.04,0.012c-0.607,0.56-1.009,1.354-1.009,2.245v4.152
			C28.683,8.222,29.236,9.149,30.041,9.701z"/>
		<path fill="#333333" d="M50.305,10.188h0.299c0.931,0,1.776-0.391,2.342-1.043c0.464-0.536,0.766-1.21,0.766-1.974l0,0v-4.15l0,0
			c0-1.158-0.665-2.165-1.611-2.687c-0.008-0.003-0.021-0.006-0.023-0.009C52,0.285,51.918,0.248,51.84,0.214
			c-0.016-0.006-0.027-0.011-0.039-0.017c-0.02-0.008-0.037-0.014-0.057-0.022c-0.03-0.012-0.057-0.022-0.086-0.032
			c-0.016-0.005-0.029-0.01-0.045-0.016c-0.03-0.011-0.064,0-0.098-0.009c-0.285-0.089-0.595-0.116-0.91-0.116h-0.297
			c-0.158,0-0.291-0.01-0.443,0.012c-1.475,0.225-2.576,1.473-2.576,3.005v4.152C47.285,8.863,48.613,10.188,50.305,10.188z"/>
	</g>
	<rect x="9.952" y="35.923" fill="#0073A4" width="7.314" height="7.315"/>
	<rect x="22.218" y="35.923" fill="#0073A4" width="7.31" height="7.315"/>
	<rect x="34.477" y="24.346" fill="#0073A4" width="7.314" height="7.31"/>
	<rect x="46.732" y="24.346" fill="#0073A4" width="7.315" height="7.31"/>
	<rect x="34.477" y="35.923" fill="#0073A4" width="7.314" height="7.315"/>
	<g>
		<g>
			<path fill="#333333" d="M22.224,24.352v7.299h7.3v-7.299H22.224z M27.438,29.566H24.31v-3.129h3.128V29.566z"/>
		</g>
	</g>
	<g>
		<g>
			<path fill="#333333" d="M46.74,35.932v7.299h7.3v-7.299H46.74z M51.954,41.145h-3.129v-3.129h3.129V41.145z"/>
		</g>
	</g>
	<g>
		<g>
			<path fill="#333333" d="M34.482,47.512v7.299h7.301v-7.299H34.482z M39.697,52.725h-3.129v-3.129h3.129V52.725z"/>
		</g>
	</g>
	<g>
		<g>
			<path fill="#333333" d="M22.224,47.512v7.299h7.3v-7.299H22.224z M27.438,52.725h-3.129v-3.129h3.129V52.725z"/>
		</g>
	</g>
	<g>
		<g>
			<path fill="#333333" d="M9.959,47.512v7.299h7.3v-7.299H9.959z M15.173,52.725h-3.129v-3.129h3.129V52.725z"/>
		</g>
	</g>
</g>
</svg>
