<?xml version="1.0" encoding="utf-8"?>
<!-- Generator: Adobe Illustrator 16.0.0, SVG Export Plug-In . SVG Version: 6.00 Build 0)  -->
<!DOCTYPE svg PUBLIC "-//W3C//DTD SVG 1.1//EN" "http://www.w3.org/Graphics/SVG/1.1/DTD/svg11.dtd" [
	<!ENTITY ns_extend "http://ns.adobe.com/Extensibility/1.0/">
	<!ENTITY ns_ai "http://ns.adobe.com/AdobeIllustrator/10.0/">
	<!ENTITY ns_graphs "http://ns.adobe.com/Graphs/1.0/">
	<!ENTITY ns_vars "http://ns.adobe.com/Variables/1.0/">
	<!ENTITY ns_imrep "http://ns.adobe.com/ImageReplacement/1.0/">
	<!ENTITY ns_sfw "http://ns.adobe.com/SaveForWeb/1.0/">
	<!ENTITY ns_custom "http://ns.adobe.com/GenericCustomNamespace/1.0/">
	<!ENTITY ns_adobe_xpath "http://ns.adobe.com/XPath/1.0/">
]>
<svg version="1.1" id="Layer_1" xmlns:x="&ns_extend;" xmlns:i="&ns_ai;" xmlns:graph="&ns_graphs;"
	 xmlns="http://www.w3.org/2000/svg" xmlns:xlink="http://www.w3.org/1999/xlink" x="0px" y="0px" width="18px" height="18px"
	 viewBox="0 0 18 18" enable-background="new 0 0 18 18" xml:space="preserve">
<metadata>
	<sfw  xmlns="&ns_sfw;">
		<slices></slices>
		<sliceSourceBounds  height="18" width="18" x="4.5" y="5.5" bottomLeftOrigin="true"></sliceSourceBounds>
	</sfw>
</metadata>
<g>
	<g>
		
			<linearGradient id="SVGID_1_" gradientUnits="userSpaceOnUse" x1="858.2998" y1="-1228.9702" x2="858.2998" y2="-1210.9707" gradientTransform="matrix(1 0 0 -1 -850.7988 -1210.9707)">
			<stop  offset="0" style="stop-color:#2582AA"/>
			<stop  offset="1" style="stop-color:#57BDE8"/>
		</linearGradient>
		<path fill="url(#SVGID_1_)" d="M14.795,8.38L8.357,6.05C8.178,6,8,6.133,8,6.315V18h1v-2.5C9,15.225,9.225,15,9.5,15h1
			c0.275,0,0.5,0.225,0.5,0.5V18h4V8.646C15,8.521,14.916,8.414,14.795,8.38z M11,13.834C11,13.926,10.924,14,10.833,14H9.167
			C9.074,14,9,13.926,9,13.834v-1.668C9,12.074,9.074,12,9.167,12h1.666C10.924,12,11,12.074,11,12.166V13.834z M11,10.834
			C11,10.926,10.924,11,10.833,11H9.167C9.074,11,9,10.926,9,10.834V9.167C9,9.074,9.074,9,9.167,9h1.666
			C10.924,9,11,9.074,11,9.167V10.834z M14,13.834C14,13.926,13.926,14,13.832,14h-1.664C12.074,14,12,13.926,12,13.834v-1.668
			C12,12.074,12.074,12,12.168,12h1.664C13.926,12,14,12.074,14,12.166V13.834z M14,10.834C14,10.926,13.926,11,13.832,11h-1.664
			C12.074,11,12,10.926,12,10.834V9.167C12,9.074,12.074,9,12.168,9h1.664C13.926,9,14,9.074,14,9.167V10.834z M6.688,0H0.313
			C0.14,0,0,0.127,0,0.283V18h1v-3.5C1,14.225,1.224,14,1.5,14h2C3.775,14,4,14.225,4,14.5V18h3V0.283C7,0.127,6.859,0,6.688,0z
			 M3,11.834C3,11.926,2.926,12,2.833,12H1.167C1.074,12,1,11.926,1,11.834v-1.668C1,10.074,1.074,10,1.167,10h1.667
			C2.926,10,3,10.074,3,10.166V11.834z M3,8.834C3,8.926,2.926,9,2.833,9H1.167C1.074,9,1,8.926,1,8.834V7.167
			C1,7.074,1.074,7,1.167,7h1.667C2.926,7,3,7.074,3,7.167V8.834z M3,5.833C3,5.926,2.926,6,2.833,6H1.167C1.074,6,1,5.926,1,5.833
			V4.167C1,4.075,1.074,4,1.167,4h1.667C2.926,4,3,4.075,3,4.167V5.833z M3,2.833C3,2.925,2.926,3,2.833,3H1.167
			C1.074,3,1,2.925,1,2.833V1.167C1,1.074,1.074,1,1.167,1h1.667C2.926,1,3,1.074,3,1.167V2.833z M6,11.834
			C6,11.926,5.925,12,5.834,12H4.166C4.074,12,4,11.926,4,11.834v-1.668C4,10.074,4.074,10,4.166,10h1.668
			C5.925,10,6,10.074,6,10.166V11.834z M6,8.834C6,8.926,5.925,9,5.834,9H4.166C4.074,9,4,8.926,4,8.834V7.167
			C4,7.074,4.074,7,4.166,7h1.668C5.925,7,6,7.074,6,7.167V8.834z M6,5.833C6,5.926,5.925,6,5.834,6H4.166C4.074,6,4,5.926,4,5.833
			V4.167C4,4.075,4.074,4,4.166,4h1.668C5.925,4,6,4.075,6,4.167V5.833z M6,2.833C6,2.925,5.925,3,5.834,3H4.166
			C4.074,3,4,2.925,4,2.833V1.167C4,1.074,4.074,1,4.166,1h1.668C5.925,1,6,1.074,6,1.167V2.833z"/>
	</g>
</g>
<linearGradient id="SVGID_2_" gradientUnits="userSpaceOnUse" x1="580.1992" y1="828.9805" x2="580.1992" y2="822.9805" gradientTransform="matrix(1 0 0 1 -567.1992 -822.9805)">
	<stop  offset="0" style="stop-color:#2582AA"/>
	<stop  offset="1" style="stop-color:#57BDE8"/>
</linearGradient>
<path fill="url(#SVGID_2_)" d="M13,0C9.719,0,8,2.592,8,3c0,0.411,1.719,3,5,3c3.279,0,5-2.589,5-3C18,2.592,16.279,0,13,0z
	 M13,5.309c-1.227,0-2.225-1.033-2.225-2.309c0-1.277,0.996-2.308,2.225-2.308S15.225,1.723,15.225,3
	C15.225,4.276,14.227,5.309,13,5.309z M14.111,3c0,0.638-0.498,1.153-1.111,1.153S11.889,3.638,11.889,3
	c0-0.639,0.498-1.154,1.111-1.154c0.332,0-0.204,0.914,0,1.154C13.174,3.204,14.111,2.707,14.111,3z"/>
</svg>
