<?xml version="1.0" encoding="utf-8"?>
<!-- Generator: Adobe Illustrator 16.0.0, SVG Export Plug-In . SVG Version: 6.00 Build 0)  -->
<!DOCTYPE svg PUBLIC "-//W3C//DTD SVG 1.1//EN" "http://www.w3.org/Graphics/SVG/1.1/DTD/svg11.dtd">
<svg version="1.1" id="Layer_1" xmlns="http://www.w3.org/2000/svg" xmlns:xlink="http://www.w3.org/1999/xlink" x="0px" y="0px"
	 width="30px" height="30px" viewBox="0 0 30 30" enable-background="new 0 0 30 30" xml:space="preserve">
<g>
	<g opacity="0.75">
		<path d="M27.525,24.31v-7.716h0.066c0.004,0,0.008,0,0.012,0c1.323,0,2.396-1.054,2.396-2.353c0-0.837-0.446-1.572-1.116-1.989
			L16.93,3.469c-0.852-0.625-2.02-0.625-2.871,0L1.961,12.357c-0.826,0.606-1.164,1.665-0.838,2.626
			c0.326,0.961,1.242,1.61,2.273,1.61h0.066v7.716c-1.252,0.077-2.246,1.089-2.246,2.337C1.216,27.947,2.289,29,3.612,29h23.763
			c1.323,0,2.396-1.053,2.396-2.354C29.771,25.398,28.777,24.387,27.525,24.31z M9.887,24.295H8.256v-7.701h1.631V24.295z
			 M16.31,24.295h-1.63v-7.701h1.63V24.295z M15.495,13.329c-1.629,0-2.949-1.296-2.949-2.895c0-1.599,1.32-2.895,2.949-2.895
			c1.628,0,2.949,1.295,2.949,2.895C18.443,12.033,17.123,13.329,15.495,13.329z M22.732,24.295h-1.631v-7.701h1.631V24.295z"/>
	</g>
	<g>
		<linearGradient id="SVGID_1_" gradientUnits="userSpaceOnUse" x1="14.5005" y1="28" x2="14.5005" y2="2.0005">
			<stop  offset="0" style="stop-color:#BABABA"/>
			<stop  offset="1" style="stop-color:#F1F2F2"/>
		</linearGradient>
		<path fill="url(#SVGID_1_)" d="M26.525,23.31v-7.716h0.066c0.004,0,0.008,0,0.012,0c1.323,0,2.396-1.054,2.396-2.353
			c0-0.837-0.446-1.572-1.116-1.989L15.93,2.469c-0.852-0.625-2.021-0.625-2.871,0L0.961,11.357
			c-0.826,0.606-1.164,1.665-0.838,2.626c0.326,0.961,1.242,1.61,2.273,1.61h0.066v7.716c-1.252,0.077-2.246,1.089-2.246,2.337
			C0.216,26.947,1.289,28,2.612,28h23.763c1.323,0,2.396-1.053,2.396-2.354C28.771,24.398,27.777,23.387,26.525,23.31z
			 M8.887,23.295H7.256v-7.701h1.631V23.295z M15.31,23.295h-1.63v-7.701h1.63V23.295z M14.495,12.329
			c-1.629,0-2.949-1.296-2.949-2.895c0-1.599,1.32-2.895,2.949-2.895c1.628,0,2.949,1.295,2.949,2.895
			C17.443,11.033,16.123,12.329,14.495,12.329z M21.732,23.295h-1.631v-7.701h1.631V23.295z"/>
	</g>
</g>
</svg>
