<?xml version="1.0" encoding="utf-8"?>
<!-- Generator: Adobe Illustrator 16.0.0, SVG Export Plug-In . SVG Version: 6.00 Build 0)  -->
<!DOCTYPE svg PUBLIC "-//W3C//DTD SVG 1.1//EN" "http://www.w3.org/Graphics/SVG/1.1/DTD/svg11.dtd" [
	<!ENTITY ns_extend "http://ns.adobe.com/Extensibility/1.0/">
	<!ENTITY ns_ai "http://ns.adobe.com/AdobeIllustrator/10.0/">
	<!ENTITY ns_graphs "http://ns.adobe.com/Graphs/1.0/">
	<!ENTITY ns_vars "http://ns.adobe.com/Variables/1.0/">
	<!ENTITY ns_imrep "http://ns.adobe.com/ImageReplacement/1.0/">
	<!ENTITY ns_sfw "http://ns.adobe.com/SaveForWeb/1.0/">
	<!ENTITY ns_custom "http://ns.adobe.com/GenericCustomNamespace/1.0/">
	<!ENTITY ns_adobe_xpath "http://ns.adobe.com/XPath/1.0/">
]>
<svg version="1.1" id="Layer_1" xmlns:x="&ns_extend;" xmlns:i="&ns_ai;" xmlns:graph="&ns_graphs;"
	 xmlns="http://www.w3.org/2000/svg" xmlns:xlink="http://www.w3.org/1999/xlink" x="0px" y="0px" width="64px" height="64px"
	 viewBox="0 0 64 64" enable-background="new 0 0 64 64" xml:space="preserve">
<metadata>
	<sfw  xmlns="&ns_sfw;">
		<slices></slices>
		<sliceSourceBounds  height="64" width="64" x="447.5" y="248.5" bottomLeftOrigin="true"></sliceSourceBounds>
	</sfw>
</metadata>
<g>
	<path fill="#333333" d="M56.474,3.972v3.2c0,3.227-2.646,5.896-5.871,5.896h-0.3c-3.225,0-5.897-2.671-5.897-5.896V3.546h-6.423
		v3.625c0,3.227-2.673,5.896-5.899,5.896h-0.296c-3.228,0-5.875-2.671-5.875-5.896V3.546h-6.531v3.625
		c0,3.227-2.588,5.896-5.813,5.896h-0.298c-3.227,0-5.847-2.671-5.847-5.896v-3.15C3.656,5.257,0,8.776,0,12.928v41.729
		C0,59.839,4.185,64,9.366,64h45.28C59.828,64,64,59.839,64,54.657V12.928C64.006,8.724,60.237,5.163,56.474,3.972z M59.355,53.796
		c0,3-2.41,5.442-5.41,5.442H10.072c-2.998,0-5.418-2.442-5.418-5.442V24.15c0-2.042,1.642-3.664,3.685-3.664H55.68
		c2.044,0,3.677,1.622,3.677,3.664L59.355,53.796L59.355,53.796z"/>
	<path fill="#333333" d="M13.273,10.188h0.297c0.927,0,1.751-0.391,2.312-1.043c0.462-0.536,0.733-1.21,0.733-1.974l0,0v-4.15l0,0
		c0-0.838-0.329-1.597-0.875-2.15c-0.006-0.004-0.006-0.012-0.009-0.016c-0.004-0.004-0.006,0.017-0.009,0.013
		c-0.555-0.548-1.313-0.865-2.153-0.865h-0.297c-0.842,0-1.601,0.317-2.156,0.865c-0.001,0.004-0.004-0.004-0.008-0.001
		c-0.007,0.005-0.018,0.004-0.023,0.008c-0.547,0.554-0.892,1.307-0.892,2.145l0,0v4.151l0,0c0,0.762,0.288,1.438,0.75,1.974
		C11.505,9.799,12.344,10.188,13.273,10.188z"/>
	<path fill="#333333" d="M30.041,9.701c0.005,0.002,0.022,0.007,0.025,0.01c0.009,0.005,0.025-0.012,0.033-0.006
		c0.485,0.32,1.066,0.485,1.69,0.485h0.003h0.294l0,0c0.526,0,1.019-0.109,1.447-0.342c0.006-0.001,0.009,0.009,0.015,0.006
		c0.009-0.006-0.003-0.006,0.009-0.013c0.938-0.523,1.551-1.519,1.551-2.669V3.02c0-0.996-0.455-1.881-1.192-2.44
		c-0.008-0.004-0.002-0.011-0.008-0.014l0.006,0.023c-0.51-0.382-1.139-0.584-1.827-0.584h-0.297c-0.791,0-1.512,0.277-2.055,0.771
		c-0.001,0-0.003-0.011-0.003-0.011c-0.007,0.006-0.034,0.006-0.04,0.012c-0.607,0.56-1.009,1.354-1.009,2.245v4.152
		C28.683,8.222,29.236,9.149,30.041,9.701z"/>
	<path fill="#333333" d="M50.305,10.188h0.298c0.93,0,1.777-0.391,2.343-1.043c0.462-0.536,0.764-1.21,0.764-1.974l0,0v-4.15l0,0
		c0-1.158-0.665-2.165-1.612-2.687c-0.007-0.003-0.02-0.006-0.024-0.009c-0.076-0.04-0.158-0.077-0.236-0.111
		c-0.015-0.006-0.028-0.011-0.039-0.017c-0.02-0.008-0.038-0.014-0.057-0.022c-0.03-0.012-0.057-0.022-0.086-0.032
		c-0.016-0.005-0.029-0.01-0.044-0.016c-0.031-0.011-0.065,0-0.098-0.009c-0.285-0.089-0.594-0.116-0.91-0.116h-0.298
		c-0.158,0-0.291-0.01-0.443,0.012c-1.474,0.225-2.576,1.473-2.576,3.005v4.152C47.285,8.863,48.614,10.188,50.305,10.188z"/>
</g>
<path fill="#30ACE1" d="M41.748,56.889c3.643,0,6.392-1.016,8.25-3.05c1.856-2.034,2.786-4.394,2.786-7.077
	c0-2.553-0.794-4.564-2.385-6.038c-0.433-0.396-0.822-0.711-1.171-0.946c-0.64-0.43-0.688-0.738-0.086-1.206
	c0.339-0.264,0.67-0.581,0.996-0.953c1.107-1.285,1.663-2.858,1.663-4.726c0-2.64-0.927-4.744-2.786-6.312
	c-1.856-1.568-4.301-2.351-7.33-2.351c-1.631,0-3.008,0.196-4.132,0.589c-1.12,0.396-2.089,0.962-2.904,1.707
	c-1.093,1.05-1.895,2.195-2.405,3.435c-0.335,0.991-0.57,2.022-0.698,3.093c-0.093,0.767,0.517,1.392,1.288,1.392h3.025
	c0.77,0,1.365-0.63,1.477-1.394c0.136-0.929,0.439-1.71,0.911-2.348c0.69-0.933,1.771-1.399,3.241-1.399
	c1.28,0,2.271,0.379,2.978,1.137c0.703,0.758,1.057,1.743,1.057,2.954c0,1.866-0.689,3.105-2.07,3.718
	c-0.6,0.274-1.546,0.451-2.833,0.538c-0.769,0.05-1.395,0.677-1.395,1.449v1.669c0,0.771,0.627,1.391,1.397,1.432
	c1.364,0.074,2.411,0.257,3.139,0.557c1.687,0.699,2.53,2.093,2.53,4.178c0,1.573-0.455,2.781-1.364,3.621
	c-0.91,0.838-1.976,1.258-3.197,1.258c-1.993,0-3.37-0.767-4.125-2.298c-0.247-0.505-0.419-1.089-0.518-1.756
	c-0.111-0.763-0.718-1.394-1.491-1.394h-3.333c-0.771,0-1.377,0.625-1.292,1.392c0.208,1.894,0.685,3.47,1.426,4.732
	C34.142,55.424,37.262,56.889,41.748,56.889z"/>
<path fill="#30ACE1" d="M13.023,34.228h4.667c0.771,0,1.396,0.625,1.396,1.395v19.083c0,0.77,0.626,1.396,1.396,1.396h3.596
	c0.77,0,1.396-0.627,1.396-1.396V25.779c0-0.772-0.626-1.396-1.396-1.396h-2.415c-0.771,0-1.406,0.291-1.479,0.639
	c-0.04,0.184-0.091,0.394-0.158,0.628c-0.275,0.948-0.685,1.706-1.222,2.275c-0.785,0.83-1.804,1.385-3.055,1.663
	c-0.583,0.128-1.494,0.235-2.729,0.318c-0.77,0.051-1.394,0.701-1.394,1.471v1.451C11.627,33.601,12.254,34.228,13.023,34.228z"/>
</svg>
