<?xml version="1.0" encoding="utf-8"?>
<!-- Generator: Adobe Illustrator 16.0.0, SVG Export Plug-In . SVG Version: 6.00 Build 0)  -->
<!DOCTYPE svg PUBLIC "-//W3C//DTD SVG 1.1//EN" "http://www.w3.org/Graphics/SVG/1.1/DTD/svg11.dtd" [
	<!ENTITY ns_extend "http://ns.adobe.com/Extensibility/1.0/">
	<!ENTITY ns_ai "http://ns.adobe.com/AdobeIllustrator/10.0/">
	<!ENTITY ns_graphs "http://ns.adobe.com/Graphs/1.0/">
	<!ENTITY ns_vars "http://ns.adobe.com/Variables/1.0/">
	<!ENTITY ns_imrep "http://ns.adobe.com/ImageReplacement/1.0/">
	<!ENTITY ns_sfw "http://ns.adobe.com/SaveForWeb/1.0/">
	<!ENTITY ns_custom "http://ns.adobe.com/GenericCustomNamespace/1.0/">
	<!ENTITY ns_adobe_xpath "http://ns.adobe.com/XPath/1.0/">
]>
<svg version="1.1" id="Layer_1" xmlns:x="&ns_extend;" xmlns:i="&ns_ai;" xmlns:graph="&ns_graphs;"
	 xmlns="http://www.w3.org/2000/svg" xmlns:xlink="http://www.w3.org/1999/xlink" x="0px" y="0px" width="18px" height="18px"
	 viewBox="0 0 18 18" enable-background="new 0 0 18 18" xml:space="preserve">
<metadata>
	<sfw  xmlns="&ns_sfw;">
		<slices></slices>
		<sliceSourceBounds  height="18" width="14" x="6.5" y="5.5" bottomLeftOrigin="true"></sliceSourceBounds>
	</sfw>
</metadata>
<g>
	<g>
		
			<linearGradient id="SVGID_1_" gradientUnits="userSpaceOnUse" x1="292.6006" y1="-405.9897" x2="292.6006" y2="-387.9902" gradientTransform="matrix(1 0 0 -1 -283.5996 -387.9902)">
			<stop  offset="0.1" style="stop-color:#2582AA"/>
			<stop  offset="0.9" style="stop-color:#57BDE8"/>
		</linearGradient>
		<path fill="url(#SVGID_1_)" d="M15.5,3H13V1c0-0.553-0.447-1-1-1H6C5.447,0,5,0.447,5,1v2H2.5C2.224,3,2,3.224,2,3.5v1
			C2,4.776,2.224,5,2.5,5h13C15.775,5,16,4.776,16,4.5v-1C16,3.224,15.775,3,15.5,3z M11,3H7V2h4V3z M3,17c0,0.573,0.455,1,1,1h10
			c0.701,0,1-0.333,1-1V6H3V17z M11,8h2v8h-2V8z M8,8h2v8H8V8z M5,8h2v8H5V8z"/>
	</g>
</g>
</svg>
