<?xml version="1.0" encoding="utf-8"?>
<!-- Generator: Adobe Illustrator 16.0.0, SVG Export Plug-In . SVG Version: 6.00 Build 0)  -->
<!DOCTYPE svg PUBLIC "-//W3C//DTD SVG 1.1//EN" "http://www.w3.org/Graphics/SVG/1.1/DTD/svg11.dtd" [
	<!ENTITY ns_extend "http://ns.adobe.com/Extensibility/1.0/">
	<!ENTITY ns_ai "http://ns.adobe.com/AdobeIllustrator/10.0/">
	<!ENTITY ns_graphs "http://ns.adobe.com/Graphs/1.0/">
	<!ENTITY ns_vars "http://ns.adobe.com/Variables/1.0/">
	<!ENTITY ns_imrep "http://ns.adobe.com/ImageReplacement/1.0/">
	<!ENTITY ns_sfw "http://ns.adobe.com/SaveForWeb/1.0/">
	<!ENTITY ns_custom "http://ns.adobe.com/GenericCustomNamespace/1.0/">
	<!ENTITY ns_adobe_xpath "http://ns.adobe.com/XPath/1.0/">
]>
<svg version="1.1" id="Layer_1" xmlns:x="&ns_extend;" xmlns:i="&ns_ai;" xmlns:graph="&ns_graphs;"
	 xmlns="http://www.w3.org/2000/svg" xmlns:xlink="http://www.w3.org/1999/xlink" x="0px" y="0px" width="48px" height="48px"
	 viewBox="0 0 48 48" enable-background="new 0 0 48 48" xml:space="preserve">
<metadata>
	<sfw  xmlns="&ns_sfw;">
		<slices></slices>
		<sliceSourceBounds  height="48" width="48" bottomLeftOrigin="true" y="-7.5" x="-8.5"></sliceSourceBounds>
	</sfw>
</metadata>
<g>
	<g opacity="0.75">
		<path d="M9.813,40.656V36.25h2.938l-5.875-7.344L1,36.25h2.938c0,0,0,2.923,0,4.406c0,7.313,7.344,7.344,7.344,7.344h5.875
			c0,0,0-0.955,0-1.469C10.567,46.531,9.813,40.656,9.813,40.656z M38.166,39.188H24.5V36.25l-7.344,5.875L24.5,48v-2.938
			c0,0,11.686,0,13.219,0c8.365,0,8.813-7.344,8.813-7.344v-5.875c0,0-0.938,0-1.469,0C45.063,38.433,38.166,39.188,38.166,39.188z
			 M39.188,8.344v4.406H36.25l5.875,7.344L48,12.75h-2.938c0,0,0-2.923,0-4.406C45.063,1.031,37.719,1,37.719,1h-5.875
			c0,0,0,0.955,0,1.469C38.433,2.469,39.188,8.344,39.188,8.344z M10.834,9.813h12.197v2.938l7.344-5.875L23.031,1v2.938
			c0,0-10.217,0-11.75,0c-8.365,0-8.813,7.344-8.813,7.344v5.875c0,0,0.938,0,1.469,0C3.938,10.567,10.834,9.813,10.834,9.813z"/>
	</g>
	<g>
		<linearGradient id="SVGID_1_" gradientUnits="userSpaceOnUse" x1="23.4995" y1="0" x2="23.4995" y2="47.0005">
			<stop  offset="0" style="stop-color:#FFFFFF"/>
			<stop  offset="1" style="stop-color:#BABABA"/>
		</linearGradient>
		<path fill="url(#SVGID_1_)" d="M8.813,39.656V35.25h2.938l-5.875-7.344L0,35.25h2.938c0,0,0,2.923,0,4.406
			c0,7.313,7.344,7.344,7.344,7.344h5.875c0,0,0-0.955,0-1.469C9.567,45.531,8.813,39.656,8.813,39.656z M37.166,38.188H23.5V35.25
			l-7.344,5.875L23.5,47v-2.938c0,0,11.686,0,13.219,0c8.365,0,8.813-7.344,8.813-7.344v-5.875c0,0-0.938,0-1.469,0
			C44.063,37.433,37.166,38.188,37.166,38.188z M38.188,7.344v4.406H35.25l5.875,7.344L47,11.75h-2.938c0,0,0-2.923,0-4.406
			C44.063,0.031,36.719,0,36.719,0h-5.875c0,0,0,0.955,0,1.469C37.433,1.469,38.188,7.344,38.188,7.344z M9.834,8.813h12.197v2.938
			l7.344-5.875L22.031,0v2.938c0,0-10.217,0-11.75,0c-8.365,0-8.813,7.344-8.813,7.344v5.875c0,0,0.938,0,1.469,0
			C2.938,9.567,9.834,8.813,9.834,8.813z"/>
	</g>
</g>
<g>
	<g opacity="0.75">
		<path d="M12.715,21.038c1.147,0,1.518,0.712,1.518,2.359h2.545c0-1.648-0.263-4.039-3.904-4.039c-3.816,0-4.294,2.438-4.294,5.876
			c0,3.433,0.479,5.874,4.294,5.874c3.339,0,4.014-2.104,4.014-4.546h-2.546c0,2.441-0.675,2.869-1.594,2.869
			c-1.096,0-1.626-0.617-1.626-4.039C11.121,22.195,11.424,21.038,12.715,21.038L12.715,21.038z"/>
	</g>
	<g>
		<linearGradient id="SVGID_2_" gradientUnits="userSpaceOnUse" x1="11.7329" y1="18.3584" x2="11.7329" y2="30.1089">
			<stop  offset="0" style="stop-color:#FFFFFF"/>
			<stop  offset="1" style="stop-color:#BABABA"/>
		</linearGradient>
		<path fill="url(#SVGID_2_)" d="M11.715,20.038c1.147,0,1.518,0.712,1.518,2.359h2.545c0-1.648-0.263-4.039-3.904-4.039
			c-3.816,0-4.294,2.438-4.294,5.876c0,3.433,0.479,5.874,4.294,5.874c3.339,0,4.014-2.104,4.014-4.546h-2.546
			c0,2.441-0.675,2.869-1.594,2.869c-1.096,0-1.626-0.617-1.626-4.039C10.121,21.195,10.424,20.038,11.715,20.038L11.715,20.038z"/>
	</g>
</g>
<g>
	<g opacity="0.75">
		<polygon points="39.421,30.785 39.421,19.475 35.657,19.475 33.836,27.458 33.802,27.458 32,19.475 28.219,19.475 28.219,30.785 
			30.549,30.785 30.549,21.756 30.589,21.756 32.829,30.785 34.812,30.785 37.049,21.756 37.089,21.756 37.089,30.785 		"/>
	</g>
	<g>
		<linearGradient id="SVGID_3_" gradientUnits="userSpaceOnUse" x1="32.8203" y1="18.4746" x2="32.8203" y2="29.7856">
			<stop  offset="0" style="stop-color:#FFFFFF"/>
			<stop  offset="1" style="stop-color:#BABABA"/>
		</linearGradient>
		<polygon fill="url(#SVGID_3_)" points="38.421,29.785 38.421,18.475 34.657,18.475 32.836,26.458 32.802,26.458 31,18.475 
			27.219,18.475 27.219,29.785 29.549,29.785 29.549,20.756 29.589,20.756 31.829,29.785 33.812,29.785 36.049,20.756 
			36.089,20.756 36.089,29.785 		"/>
	</g>
</g>
<g>
	<g opacity="0.75">
		<path d="M26.321,28.662c-0.033-2.39-0.3-3.244-2.029-3.451V25.18c1.43-0.271,2.1-1.286,2.1-2.79c0-1.933-1.271-2.915-3.355-2.915
			h-4.7v11.311h2.544V26h1.361c1.025,0,1.469,0.54,1.501,1.426l0.072,2.172c0.019,0.441,0.068,0.869,0.315,1.188h2.76V30.69
			C26.412,30.467,26.346,29.85,26.321,28.662z M21.938,24.418H20.88v-3.265h1.202c1.147,0,1.769,0.522,1.769,1.569
			C23.851,23.942,23.159,24.418,21.938,24.418z"/>
	</g>
	<g>
		<linearGradient id="SVGID_4_" gradientUnits="userSpaceOnUse" x1="21.6128" y1="18.4746" x2="21.6128" y2="29.7856">
			<stop  offset="0" style="stop-color:#FFFFFF"/>
			<stop  offset="1" style="stop-color:#BABABA"/>
		</linearGradient>
		<path fill="url(#SVGID_4_)" d="M25.321,27.662c-0.033-2.39-0.3-3.244-2.029-3.451V24.18c1.43-0.271,2.1-1.286,2.1-2.79
			c0-1.933-1.271-2.915-3.355-2.915h-4.7v11.311h2.544V25h1.361c1.025,0,1.469,0.54,1.501,1.426l0.072,2.172
			c0.019,0.441,0.068,0.869,0.315,1.188h2.76V29.69C25.412,29.467,25.346,28.85,25.321,27.662z M20.938,23.418H19.88v-3.265h1.202
			c1.147,0,1.769,0.522,1.769,1.569C22.851,22.942,22.159,23.418,20.938,23.418z"/>
	</g>
</g>
</svg>
