<?xml version="1.0" encoding="utf-8"?>
<!-- Generator: Adobe Illustrator 16.0.0, SVG Export Plug-In . SVG Version: 6.00 Build 0)  -->
<!DOCTYPE svg PUBLIC "-//W3C//DTD SVG 1.1//EN" "http://www.w3.org/Graphics/SVG/1.1/DTD/svg11.dtd" [
	<!ENTITY ns_extend "http://ns.adobe.com/Extensibility/1.0/">
	<!ENTITY ns_ai "http://ns.adobe.com/AdobeIllustrator/10.0/">
	<!ENTITY ns_graphs "http://ns.adobe.com/Graphs/1.0/">
	<!ENTITY ns_vars "http://ns.adobe.com/Variables/1.0/">
	<!ENTITY ns_imrep "http://ns.adobe.com/ImageReplacement/1.0/">
	<!ENTITY ns_sfw "http://ns.adobe.com/SaveForWeb/1.0/">
	<!ENTITY ns_custom "http://ns.adobe.com/GenericCustomNamespace/1.0/">
	<!ENTITY ns_adobe_xpath "http://ns.adobe.com/XPath/1.0/">
]>
<svg version="1.1" id="Layer_1" xmlns:x="&ns_extend;" xmlns:i="&ns_ai;" xmlns:graph="&ns_graphs;"
	 xmlns="http://www.w3.org/2000/svg" xmlns:xlink="http://www.w3.org/1999/xlink" x="0px" y="0px" width="48px" height="48px"
	 viewBox="0 0 48 48" enable-background="new 0 0 48 48" xml:space="preserve">
<metadata>
	<sfw  xmlns="&ns_sfw;">
		<slices></slices>
		<sliceSourceBounds  height="48" width="46.874" bottomLeftOrigin="true" y="-15.5" x="-16.5"></sliceSourceBounds>
	</sfw>
</metadata>
<g>
	<g opacity="0.75">
		<path d="M45.637,28.961c-0.024-1.309-0.181-2.597-0.463-3.851c-2.379-0.042-3.935-1.433-5.024-3.39
			c-1.09-1.958-1.053-3.908,0.144-5.989c-0.323-0.317-0.675-0.607-1.021-0.901l-6.889,8.578c2.053,1.933,3.002,4.925,2.201,7.845
			c-1.142,4.163-5.399,6.591-9.512,5.424c-0.889-0.254-1.693-0.662-2.404-1.177l-6.884,8.57c0.398,0.301,0.797,0.6,1.22,0.87
			c1.708-1.674,4.164-2.411,6.298-1.805c2.133,0.606,3.862,2.532,4.47,4.864c1.291-0.022,2.563-0.176,3.799-0.459
			c0.035-2.41,0.996-4.1,2.925-5.199c1.927-1.1,3.966-1.47,6.021-0.251c0.88-0.924,1.669-1.946,2.355-3.051
			c-1.656-1.733-2.502-3.813-1.909-5.976C41.556,30.904,43.337,29.571,45.637,28.961z M12.013,31.948L33.057,10.34
			c-2.538-4.25-6.774-7.32-11.887-8.041C11.928,1,4.209,8.007,2.02,17.595c-2.765,12.127,0.358,16.378,6.157,16.553
			C9.241,33.171,10.561,32.401,12.013,31.948z M15.997,9.545c0.314-2.294,2.405-3.897,4.667-3.579
			c2.264,0.318,3.844,2.439,3.529,4.732c-0.314,2.292-2.405,3.896-4.667,3.578C17.264,13.956,15.685,11.84,15.997,9.545z
			 M7.453,14.091c0.232-1.699,1.783-2.889,3.459-2.648c1.678,0.232,2.848,1.801,2.615,3.503c-0.231,1.701-1.784,2.891-3.46,2.652
			C8.392,17.364,7.222,15.795,7.453,14.091z M5.704,24.535c0.233-1.698,1.784-2.889,3.459-2.649
			c1.675,0.234,2.849,1.803,2.615,3.504c-0.234,1.705-1.783,2.89-3.459,2.651C6.642,27.808,5.47,26.239,5.704,24.535z
			 M14.737,32.007l-0.447,0.507l5.271,4.815l0.445-0.506l4.862-5.489l-5.302-4.786L14.737,32.007z M20.254,29.157
			c0.122,0.107,0.194,0.257,0.206,0.423c0.009,0.168-0.044,0.328-0.153,0.45L17.89,32.81c-0.224,0.255-0.61,0.286-0.864,0.054
			l-0.308-0.276c-0.125-0.111-0.196-0.257-0.208-0.423c-0.009-0.164,0.046-0.33,0.152-0.452l2.417-2.778
			c0.224-0.257,0.609-0.285,0.863-0.056L20.254,29.157z M18.139,38.779c0-0.002,0.275-0.444,0.318-0.53l-4.939-4.531
			c-0.112,0.021-0.218,0.047-0.33,0.071c-0.012,0.003-0.02,0.006-0.029,0.008c-3.991,0.959-7.917,5.302-3.968,10.172
			c0.183,0.224,0.477,0.32,0.754,0.248c0.277-0.073,0.488-0.303,0.54-0.582c0.115-0.643,0.343-1.345,0.875-1.854
			C12.573,40.613,15.975,42.494,18.139,38.779z M13.313,40.002c-0.994,0.039-2.02,0.081-2.803,0.83
			c-0.15,0.146-0.288,0.306-0.407,0.466c-0.138,0.183-0.367,0.273-0.59,0.234c-0.224-0.038-0.41-0.204-0.479-0.424
			c-0.223-0.692-0.276-1.441-0.061-2.209c0.124-0.45,0.328-0.868,0.588-1.248c1.006,1.114,1.885,1.745,3.508,1.597
			c1.016-0.086,1.95-0.05,2.815,0.188C15.088,39.933,14.216,39.966,13.313,40.002z M20.997,25.033l-0.462,0.453l5.271,4.812
			l0.42-0.543L38.834,12.75c0.424,0.154,1.447,0.619,2.165,0.619l0.396-0.045c3.06-0.213,5.479-2.867,5.479-6.142
			c0-0.951-0.218-1.846-0.588-2.648l-3.903,4.107c-0.202,0.213-0.447,0.365-0.703,0.467c-0.691,0.271-1.506,0.125-2.065-0.467
			c-0.382-0.399-0.573-0.931-0.573-1.459c0-0.242,0.05-0.479,0.134-0.717c0.096-0.27,0.231-0.526,0.439-0.738l3.901-4.108
			C42.751,1.229,41.905,1,40.999,1c-3.111,0.002-5.628,2.551-5.838,5.769l-0.038,0.417c0,0.754,0.463,2.663,0.619,3.09
			L20.997,25.033z"/>
	</g>
	<g>
		<g>
			<linearGradient id="SVGID_1_" gradientUnits="userSpaceOnUse" x1="22.937" y1="0" x2="22.937" y2="47.0005">
				<stop  offset="0" style="stop-color:#FFFFFF"/>
				<stop  offset="1" style="stop-color:#BABABA"/>
			</linearGradient>
			<path fill="url(#SVGID_1_)" d="M44.637,27.961c-0.024-1.309-0.181-2.597-0.463-3.851c-2.379-0.042-3.935-1.433-5.024-3.39
				c-1.09-1.958-1.053-3.908,0.144-5.989c-0.323-0.317-0.675-0.607-1.021-0.901l-6.889,8.578c2.053,1.933,3.002,4.925,2.201,7.845
				c-1.142,4.163-5.399,6.591-9.511,5.424c-0.889-0.254-1.693-0.662-2.404-1.177l-6.884,8.57c0.398,0.301,0.797,0.6,1.22,0.87
				c1.708-1.674,4.164-2.411,6.298-1.805s3.862,2.532,4.47,4.864c1.291-0.022,2.563-0.176,3.799-0.459
				c0.035-2.41,0.996-4.1,2.925-5.199c1.927-1.1,3.966-1.47,6.021-0.251c0.88-0.924,1.669-1.946,2.355-3.051
				c-1.656-1.733-2.502-3.813-1.909-5.976C40.556,29.904,42.337,28.571,44.637,27.961z M11.013,30.948L32.057,9.34
				c-2.538-4.25-6.774-7.32-11.887-8.041C10.928,0,3.209,7.007,1.02,16.595c-2.765,12.127,0.358,16.378,6.157,16.553
				C8.241,32.171,9.561,31.401,11.013,30.948z M14.997,8.545c0.314-2.294,2.405-3.897,4.667-3.579
				c2.264,0.318,3.844,2.439,3.529,4.732c-0.314,2.292-2.405,3.896-4.667,3.578C16.264,12.956,14.685,10.84,14.997,8.545z
				 M6.453,13.091c0.232-1.699,1.783-2.889,3.459-2.648c1.678,0.232,2.848,1.801,2.615,3.503c-0.231,1.701-1.784,2.891-3.46,2.652
				C7.392,16.364,6.222,14.795,6.453,13.091z M4.704,23.535c0.233-1.698,1.784-2.889,3.459-2.649
				c1.675,0.234,2.849,1.803,2.615,3.504c-0.234,1.705-1.783,2.89-3.459,2.651C5.642,26.808,4.47,25.239,4.704,23.535z
				 M13.737,31.007l-0.447,0.507l5.271,4.815l0.445-0.506l4.862-5.489l-5.302-4.786L13.737,31.007z M19.254,28.157
				c0.122,0.107,0.194,0.257,0.206,0.423c0.009,0.168-0.044,0.328-0.153,0.45L16.89,31.81c-0.224,0.255-0.61,0.286-0.864,0.054
				l-0.308-0.276c-0.125-0.111-0.196-0.257-0.208-0.423c-0.009-0.164,0.046-0.33,0.152-0.452l2.417-2.778
				c0.224-0.257,0.609-0.285,0.863-0.056L19.254,28.157z M17.139,37.779c0-0.002,0.275-0.444,0.318-0.53l-4.939-4.531
				c-0.112,0.021-0.218,0.047-0.33,0.071c-0.012,0.003-0.02,0.006-0.029,0.008c-3.991,0.959-7.917,5.302-3.968,10.172
				c0.183,0.224,0.477,0.32,0.754,0.248c0.277-0.073,0.488-0.303,0.54-0.582c0.115-0.643,0.343-1.345,0.875-1.854
				C11.573,39.613,14.975,41.494,17.139,37.779z M12.313,39.002c-0.994,0.039-2.02,0.081-2.803,0.83
				c-0.15,0.146-0.288,0.306-0.407,0.466c-0.138,0.183-0.367,0.273-0.59,0.234c-0.224-0.038-0.41-0.204-0.479-0.424
				c-0.223-0.692-0.276-1.441-0.061-2.209c0.124-0.45,0.328-0.868,0.588-1.248c1.006,1.114,1.885,1.745,3.508,1.597
				c1.016-0.086,1.95-0.05,2.815,0.188C14.088,38.933,13.216,38.966,12.313,39.002z M19.997,24.033l-0.462,0.453l5.271,4.812
				l0.42-0.543L37.834,11.75c0.424,0.154,1.447,0.619,2.165,0.619l0.396-0.045c3.06-0.213,5.479-2.867,5.479-6.142
				c0-0.951-0.218-1.846-0.588-2.648l-3.903,4.107c-0.202,0.213-0.447,0.365-0.703,0.467c-0.691,0.271-1.506,0.125-2.065-0.467
				c-0.382-0.399-0.573-0.931-0.573-1.459c0-0.242,0.05-0.479,0.134-0.717c0.096-0.27,0.231-0.526,0.439-0.738l3.901-4.108
				C41.751,0.229,40.905,0,39.999,0c-3.111,0.002-5.628,2.551-5.838,5.769l-0.038,0.417c0,0.754,0.463,2.663,0.619,3.09
				L19.997,24.033z"/>
		</g>
	</g>
</g>
</svg>
