<?xml version="1.0" encoding="utf-8"?>
<!-- Generator: Adobe Illustrator 16.0.0, SVG Export Plug-In . SVG Version: 6.00 Build 0)  -->
<!DOCTYPE svg PUBLIC "-//W3C//DTD SVG 1.1//EN" "http://www.w3.org/Graphics/SVG/1.1/DTD/svg11.dtd" [
	<!ENTITY ns_extend "http://ns.adobe.com/Extensibility/1.0/">
	<!ENTITY ns_ai "http://ns.adobe.com/AdobeIllustrator/10.0/">
	<!ENTITY ns_graphs "http://ns.adobe.com/Graphs/1.0/">
	<!ENTITY ns_vars "http://ns.adobe.com/Variables/1.0/">
	<!ENTITY ns_imrep "http://ns.adobe.com/ImageReplacement/1.0/">
	<!ENTITY ns_sfw "http://ns.adobe.com/SaveForWeb/1.0/">
	<!ENTITY ns_custom "http://ns.adobe.com/GenericCustomNamespace/1.0/">
	<!ENTITY ns_adobe_xpath "http://ns.adobe.com/XPath/1.0/">
]>
<svg version="1.1" id="Layer_1" xmlns:x="&ns_extend;" xmlns:i="&ns_ai;" xmlns:graph="&ns_graphs;"
	 xmlns="http://www.w3.org/2000/svg" xmlns:xlink="http://www.w3.org/1999/xlink" x="0px" y="0px" width="64px" height="64px"
	 viewBox="0 0 64 64" enable-background="new 0 0 64 64" xml:space="preserve">
<metadata>
	<sfw  xmlns="&ns_sfw;">
		<slices></slices>
		<sliceSourceBounds  height="64.001" width="64" bottomLeftOrigin="true" y="0.499" x="-0.5"></sliceSourceBounds>
	</sfw>
</metadata>
<g id="_x34_d1569">
	<path fill="#333333" d="M59.451,16.145c-3.199,3.202-7.113,1.92-10.313-1.278c-3.199-3.205-4.486-7.116-1.279-10.315L43.309,0
		l-9.205,9.208l1.237,1.243l-1.36,1.362l-1.242-1.242L0,43.307l4.55,4.551c3.201-3.197,7.11-1.924,10.313,1.275
		c3.199,3.199,4.48,7.113,1.28,10.315L20.698,64l13.469-13.497c0,0-2.58-2.547-4.708-4.503c-0.56-0.507-0.887-1.243-0.906-2
		c-0.013-0.766,0.288-1.501,0.821-2.039l4.308-4.313c0.52-0.52,1.239-0.818,1.977-0.818c0.793,0.011,1.527,0.33,2.039,0.88
		c1.98,2.11,4.638,4.793,4.638,4.793l11.099-11.245l-0.361-0.353l1.369-1.365l0.353,0.359L64,20.688L59.451,16.145z M39.438,17.271
		l-2.73-2.73l1.363-1.364l2.729,2.729L39.438,17.271z M44.893,22.726l-2.728-2.728l1.36-1.366l2.729,2.73L44.893,22.726z
		 M50.341,28.183l-2.72-2.727l1.365-1.366l2.723,2.728L50.341,28.183z"/>
</g>
<path display="none" d="M53.883,43.277c0.197-0.189,0.316-0.447,0.322-0.717c0.002-0.272-0.1-0.539-0.293-0.73l-4.321-4.313
	c-0.192-0.197-0.452-0.302-0.724-0.295c-0.276,0.004-0.535,0.113-0.723,0.321c-2.559,2.726-5.438,5.688-6.588,6.747
	c-1.158-1.059-4.033-4.021-6.596-6.747c-0.184-0.206-0.445-0.317-0.713-0.321c-0.27-0.007-0.538,0.098-0.73,0.295l-4.305,4.317
	c-0.195,0.188-0.301,0.459-0.295,0.729c0.007,0.271,0.123,0.537,0.326,0.713c2.777,2.557,5.805,5.473,6.789,6.596
	c-0.984,1.122-4.015,4.036-6.789,6.583c-0.203,0.188-0.326,0.453-0.326,0.726c-0.006,0.27,0.1,0.534,0.295,0.733l4.311,4.297
	c0.197,0.202,0.459,0.292,0.729,0.302c0.272-0.007,0.534-0.123,0.718-0.324c2.563-2.74,5.449-5.732,6.594-6.758
	c1.14,1.024,4.033,4.018,6.588,6.758c0.185,0.199,0.449,0.317,0.723,0.324c0,0,0.005,0,0.012,0c0.268,0,0.522-0.104,0.717-0.291
	l4.316-4.308c0.191-0.199,0.296-0.461,0.293-0.731c-0.006-0.273-0.122-0.535-0.322-0.723c-2.742-2.549-5.729-5.443-6.768-6.588
	C48.145,48.729,51.139,45.834,53.883,43.277z"/>
<path fill="#30ACE1" d="M55.576,44.766c0.197-0.189,0.316-0.447,0.322-0.717c0.002-0.273-0.1-0.539-0.293-0.73l-4.321-4.313
	c-0.192-0.196-0.453-0.301-0.724-0.294c-0.276,0.004-0.535,0.113-0.724,0.321c-2.558,2.726-5.438,5.688-6.588,6.747
	c-1.157-1.059-4.032-4.021-6.595-6.747c-0.184-0.206-0.445-0.317-0.713-0.321c-0.27-0.007-0.539,0.098-0.73,0.294l-4.305,4.318
	c-0.195,0.188-0.301,0.459-0.295,0.729c0.007,0.271,0.123,0.537,0.326,0.714c2.776,2.557,5.805,5.473,6.79,6.596
	c-0.984,1.121-4.016,4.035-6.79,6.582c-0.203,0.188-0.326,0.453-0.326,0.726c-0.006,0.271,0.1,0.535,0.295,0.733l4.311,4.298
	c0.197,0.202,0.458,0.292,0.729,0.301c0.273-0.006,0.535-0.122,0.719-0.324c2.563-2.739,5.449-5.731,6.593-6.758
	c1.14,1.024,4.033,4.019,6.589,6.758c0.184,0.199,0.448,0.318,0.723,0.324c0,0,0.004,0,0.012,0c0.268,0,0.521-0.104,0.717-0.291
	l4.316-4.308c0.191-0.198,0.296-0.461,0.293-0.731c-0.006-0.272-0.122-0.534-0.322-0.722c-2.742-2.549-5.729-5.443-6.768-6.588
	C49.838,50.216,52.831,47.32,55.576,44.766z"/>
</svg>
