<?xml version="1.0" encoding="utf-8"?>
<!-- Generator: Adobe Illustrator 16.0.0, SVG Export Plug-In . SVG Version: 6.00 Build 0)  -->
<!DOCTYPE svg PUBLIC "-//W3C//DTD SVG 1.1//EN" "http://www.w3.org/Graphics/SVG/1.1/DTD/svg11.dtd" [
	<!ENTITY ns_extend "http://ns.adobe.com/Extensibility/1.0/">
	<!ENTITY ns_ai "http://ns.adobe.com/AdobeIllustrator/10.0/">
	<!ENTITY ns_graphs "http://ns.adobe.com/Graphs/1.0/">
	<!ENTITY ns_vars "http://ns.adobe.com/Variables/1.0/">
	<!ENTITY ns_imrep "http://ns.adobe.com/ImageReplacement/1.0/">
	<!ENTITY ns_sfw "http://ns.adobe.com/SaveForWeb/1.0/">
	<!ENTITY ns_custom "http://ns.adobe.com/GenericCustomNamespace/1.0/">
	<!ENTITY ns_adobe_xpath "http://ns.adobe.com/XPath/1.0/">
]>
<svg version="1.1" id="Layer_1" xmlns:x="&ns_extend;" xmlns:i="&ns_ai;" xmlns:graph="&ns_graphs;"
	 xmlns="http://www.w3.org/2000/svg" xmlns:xlink="http://www.w3.org/1999/xlink" x="0px" y="0px" width="64px" height="64px"
	 viewBox="0 0 64 64" enable-background="new 0 0 64 64" xml:space="preserve">
<metadata>
	<sfw  xmlns="&ns_sfw;">
		<slices></slices>
		<sliceSourceBounds  height="37.595" width="64" y="-8.298" x="-22.5" bottomLeftOrigin="true"></sliceSourceBounds>
	</sfw>
</metadata>
<g>
	<g>
		<g>
			<path fill="#30ACE1" d="M49.54,29.293c3.377,0,6.114-6.16,6.114-9.693c0-3.533-2.737-6.397-6.114-6.397
				c-3.376,0-6.112,2.864-6.112,6.397C43.428,23.133,46.164,29.293,49.54,29.293z M56.27,29.452
				c-1.808,1.703-4.242,2.749-6.924,2.749c-2.57,0-4.912-0.969-6.695-2.551c-0.09,0.441-0.209,0.871-0.352,1.291
				c-0.013,0.038-0.023,0.076-0.037,0.114c-0.148,0.424-0.316,0.838-0.515,1.235c-0.001,0.003-0.003,0.006-0.004,0.009
				c-0.183,0.365-0.388,0.717-0.608,1.057c-0.052,0.08-0.104,0.16-0.158,0.24c-0.231,0.34-0.477,0.672-0.744,0.981h1.891
				c0.402,0,0.807,0.036,1.21,0.089c0.103,0.014,0.202,0.027,0.304,0.044c0.391,0.063,0.778,0.142,1.162,0.249
				c0.012,0.004,0.023,0.005,0.035,0.009c0.4,0.114,0.796,0.259,1.186,0.418c0.084,0.035,0.166,0.071,0.25,0.108
				c0.381,0.166,0.752,0.348,1.111,0.555c0.003,0.002,0.008,0.003,0.01,0.006c0.375,0.217,0.732,0.457,1.078,0.715
				c0.059,0.041,0.112,0.084,0.168,0.127c0.684,0.526,1.297,1.127,1.814,1.789c0.033,0.043,0.066,0.088,0.1,0.131
				c0.252,0.334,0.483,0.679,0.684,1.037c0,0.002,0.002,0.004,0.002,0.006H64C64,34.848,61.043,30.046,56.27,29.452z M21.188,29.452
				c-1.808,1.703-4.242,2.749-6.923,2.749c-2.654,0-5.067-1.025-6.869-2.698C2.82,30.274,0,34.966,0,39.857h12.891
				c1.716-3.106,5.505-5.28,9.113-5.28h1.765c-1.232-1.427-2.101-3.175-2.46-5.103C21.268,29.468,21.229,29.457,21.188,29.452z
				 M14.46,29.293c3.376,0,6.114-6.16,6.114-9.693c0-3.533-2.737-6.397-6.114-6.397S8.346,16.067,8.346,19.6
				C8.346,23.133,11.083,29.293,14.46,29.293z"/>
		</g>
	</g>
</g>
<path fill="#333333" d="M32,16.22c4.375,0,7.921,3.715,7.921,8.298S36.375,37.092,32,37.092s-7.922-7.991-7.922-12.574
	C24.078,19.936,27.625,16.22,32,16.22z"/>
<path fill="#333333" d="M13.266,50.798c0-6.347,3.652-12.433,9.583-13.433c2.334,2.17,5.461,3.499,8.899,3.499
	c3.475,0,6.628-1.356,8.97-3.565c6.187,0.77,10.017,6.999,10.017,13.499H13.266z"/>
</svg>
