<?xml version="1.0" standalone="no"?>
<!DOCTYPE svg PUBLIC "-//W3C//DTD SVG 1.1//EN" "http://www.w3.org/Graphics/SVG/1.1/DTD/svg11.dtd" >
<svg xmlns="http://www.w3.org/2000/svg">
<metadata>Generated by IcoMoon</metadata>
<defs>
<font id="wpl-backend" horiz-adv-x="1024">
<font-face units-per-em="1024" ascent="960" descent="-64" />
<missing-glyph horiz-adv-x="1024" />
<glyph unicode="&#x20;" d="" horiz-adv-x="512" />
<glyph unicode="&#xe600;" d="M634.88 942.554c-35.746-34.888-384.98-401.572-384.98-401.572-19.074-18.64-28.562-43.014-28.562-67.386s9.492-48.744 28.562-67.386c0 0 349.236-366.68 384.98-401.486 35.746-34.888 100.052-37.282 138.188 0 38.054 37.198 41.048 89.104-0.086 134.684l-320.418 334.186 320.418 334.186c41.13 45.664 38.14 97.572 0.086 134.766-38.226 37.2-102.53 34.888-138.188 0z" />
<glyph unicode="&#xe601;" d="M389.12 942.554c35.746-34.888 384.98-401.572 384.98-401.572 19.154-18.64 28.648-43.014 28.648-67.386s-9.492-48.744-28.648-67.386c0 0-349.238-366.68-384.98-401.486-35.746-34.888-99.964-37.282-138.188 0-38.14 37.198-41.132 89.104 0 134.684l320.504 334.186-320.418 334.186c-41.132 45.664-38.14 97.572 0 134.766s102.444 34.888 138.104 0z" />
<glyph unicode="&#xe602;" d="M737.23 93.798c13.722-13.876 13.722-36.25 0-50.126s-35.89-13.876-49.614 0l-400.896 404.838c-13.722 13.876-13.722 36.302 0 50.126l400.896 404.89c13.722 13.876 35.89 13.876 49.614 0s13.722-36.25 0-50.126l-365.568-379.802 365.568-379.802z" />
<glyph unicode="&#xe603;" d="M286.704 93.798c-13.722-13.876-13.722-36.25 0-50.126s35.892-13.876 49.612 0l400.896 404.838c13.722 13.876 13.722 36.302 0 50.126l-400.896 404.89c-13.722 13.876-35.892 13.876-49.612 0s-13.722-36.25 0-50.126l365.568-379.802-365.568-379.802z" />
<glyph unicode="&#xe604;" d="M574.752 590.272v318.528l449.248-448-449.248-448v321.344c-228.32 0-453.664-39.744-574.752-228.352 12.608 343.712 269.76 425.536 574.752 484.48z" />
<glyph unicode="&#xe605;" d="M873.984 822.848c-199.872 199.936-524.096 199.936-724.032 0-200-199.936-200-524.16 0-724.032 199.936-200 524.16-200 724.032 0 200 199.872 200 524.096 0 724.032zM783.488 189.312c-149.952-150.016-393.088-150.016-543.040 0-149.952 149.952-149.952 393.088 0 543.040s393.088 149.952 543.040 0c150.016-150.016 150.016-393.088 0-543.040zM602.496 460.8l135.744-135.744-90.496-90.496-135.744 135.744-135.744-135.744-90.56 90.496 135.744 135.744-135.744 135.744 90.56 90.56 135.744-135.744 135.744 135.744 90.496-90.56z" />
<glyph unicode="&#xe606;" d="M626.784 460.768l195.072-195.072c12.672-12.672 12.672-33.248 0-45.92l-68.832-68.832c-12.672-12.672-33.216-12.672-45.92 0l-195.104 195.072-195.104-195.072c-12.672-12.672-33.216-12.672-45.888 0l-68.864 68.832c-12.672 12.672-12.672 33.216 0 45.92l195.104 195.072-195.104 195.104c-12.672 12.672-12.672 33.248 0 45.92l68.896 68.832c12.672 12.672 33.216 12.672 45.888 0l195.072-195.104 195.104 195.104c12.672 12.672 33.216 12.672 45.92 0l68.832-68.864c12.672-12.672 12.672-33.216 0-45.92l-195.072-195.072z" />
<glyph unicode="&#xe607;" d="M512 780.8c-188.544 0-341.334-152.832-341.334-341.332s152.788-341.334 341.334-341.334 341.334 152.832 341.334 341.334-152.788 341.334-341.334 341.334zM670.164 341.632c16.682-16.682 16.682-43.648 0-60.332-8.32-8.32-19.244-12.5-30.164-12.5s-21.846 4.182-30.164 12.5l-97.836 97.836-97.834-97.836c-8.32-8.32-19.242-12.5-30.166-12.5s-21.846 4.182-30.166 12.5c-16.682 16.682-16.682 43.648 0 60.332l97.834 97.836-97.834 97.836c-16.682 16.682-16.682 43.648 0 60.332s43.648 16.682 60.332 0l97.834-97.834 97.836 97.834c16.682 16.682 43.648 16.682 60.332 0s16.682-43.648 0-60.332l-97.836-97.836 97.836-97.836z" />
<glyph unicode="&#xe608;" d="M930.908 804.072h-46.544v-744.726c0-51.386-41.706-93.092-93.092-93.092h-558.544c-51.386 0-93.092 41.706-93.092 93.092v744.726h-46.546c-25.692 0-46.546 20.806-46.546 46.544s20.852 46.544 46.546 46.544h279.274c0 51.386 41.704 93.092 93.092 93.092h93.090c51.386 0 93.092-41.704 93.092-93.092h279.274c25.74 0 46.544-20.806 46.544-46.544s-20.806-46.544-46.544-46.544zM791.274 804.072h-558.544v-744.726h558.544v744.726zM418.908 710.982c25.692 0 46.546-20.806 46.546-46.544v-465.454c0-25.74-20.852-46.544-46.546-46.544s-46.546 20.806-46.546 46.544v465.454c0 25.74 20.852 46.544 46.546 46.544zM605.092 710.982c25.74 0 46.544-20.806 46.544-46.544v-465.454c0-25.74-20.806-46.544-46.544-46.544s-46.544 20.806-46.544 46.544v465.454c0 25.74 20.806 46.544 46.544 46.544z" />
<glyph unicode="&#xe609;" d="M0 84.48c119.040-73.6 257.302-114.346 393.814-114.346 60.138 0 119.040 6.186 176 21.334 39.254 11.094 70.186 43.286 70.186 85.334 0 25.366-11.094 48.426-28.8 64l7.466-0.002c47.146 0 85.334 38.186 85.334 85.334s-38.186 85.334-85.334 85.334h42.666c47.146 0 85.334 38.186 85.334 85.334s-38.186 85.334-85.334 85.334h277.334c47.146 0 85.334 38.186 85.334 85.334s-38.186 85.334-85.334 85.334l-486.634-0.004c-23.658 0-42.666 19.2-42.666 42.666 0 4.032 0.64 7.894 1.706 11.52l49.066 120.746c5.782 11.522 9.196 24.534 9.196 38.402 0 47.146-38.186 85.334-85.334 85.334-35.414 0-65.92-21.76-78.934-52.48-71.466-138.454-159.146-249.388-305.066-327.042v-487.466z" />
<glyph unicode="&#xe60a;" d="M906.666 759.466h-138.666v128c0 47.146-38.186 85.334-85.334 85.334h-341.332c-47.146 0-85.334-38.186-85.334-85.334v-128h-138.666c-29.44 0-53.334-23.892-53.334-53.332s23.894-53.334 53.334-53.334h32v-618.666c0-47.146 38.186-85.334 85.334-85.334h554.666c47.146 0 85.334 38.186 85.334 85.334l-0.002 618.666h32c29.44 0 53.334 23.894 53.334 53.334s-23.894 53.332-53.334 53.332zM661.334 759.466h-298.668v59.734c0 26.026 20.908 46.934 46.934 46.934h204.8c26.026 0 46.934-20.908 46.934-46.934v-59.734zM362.666 610.134v-512c0-23.466-19.2-42.666-42.666-42.666s-42.666 19.2-42.666 42.666v512c0 23.466 19.2 42.666 42.666 42.666s42.666-19.2 42.666-42.666zM554.666 610.134v-512c0-23.466-19.2-42.666-42.666-42.666s-42.666 19.2-42.666 42.666v512c0 23.466 19.2 42.666 42.666 42.666s42.666-19.2 42.666-42.666zM746.666 610.134v-512c0-23.466-19.2-42.666-42.666-42.666s-42.666 19.2-42.666 42.666v512c0 23.466 19.2 42.666 42.666 42.666s42.666-19.2 42.666-42.666z" />
<glyph unicode="&#xe60b;" d="M786.096 608.192v237.904l-160.432-0.112v-121.456l-113.824 81.744-511.84-368.736h98.272l413.024 300.72 161.056-115.232-0.016 166.176h67.232v-217.2l191.344-134.464h93.088zM250.096 204.32v124.128h124.128v-124.128h-124.128zM105.296 59.504v144.816h144.8v-144.816h-144.8zM633.776 406.496v-347.008h-62.064v450.448h124.128v-103.44h-62.064zM670.464 59.504v310.304h124.128v-186.192h124.112v-124.128h-248.24zM286.784 59.504v108.128h124.128v119.44l124.272-0.064-0.144-227.504h-248.256z" />
<glyph unicode="&#xe60c;" d="M938.667 716.857l-170.724 170.61-255.943-256.057-256.057 256.057-170.61-170.61 256.057-256.057-256.057-256.057 170.61-170.61 256.057 256.057 255.943-256.057 170.724 170.61-256.057 256.057z" />
<glyph unicode="&#xe60d;" d="M512 972.8c-282.795 0-512-229.205-512-512 0-282.852 229.205-512 512-512 282.852 0 512 229.148 512 512 0 282.795-229.148 512-512 512zM814.421 589.198l-352.882-359.538c-13.938-14.222-36.523-14.222-50.404 0l-201.557 205.483c-13.938 14.165-13.938 37.148 0 51.314l50.404 51.371c13.881 14.222 36.466 14.222 50.347 0l126.066-128.455 277.276 282.453c13.938 14.222 36.409 14.222 50.46 0l50.347-51.314c13.881-14.108 13.881-37.148-0.057-51.314z" />
<glyph unicode="&#xe60e;" d="M885.76 679.367c-18.204 29.924-40.562 59.221-67.812 86.471-27.705 27.307-57.515 49.892-88.064 67.982l53.532 53.646c0 0 77.596 0 116.452-38.798 38.798-38.741 38.798-116.338 38.798-116.338l-52.907-52.964zM434.46 228.011h-155.25v155.193l18.66 18.716c31.573-14.905 62.919-35.954 91.079-64.114 28.274-28.217 49.152-59.62 64.114-91.079l-18.603-18.716zM840.818 634.596l-343.040-343.040c-18.034 29.867-40.448 59.278-67.755 86.414-27.705 27.364-57.515 49.948-88.007 68.039l343.78 343.723c31.573-14.848 62.862-35.84 91.022-64.057 28.274-28.217 49.266-59.563 64-91.079zM201.785 771.129v-620.772h620.544v271.644l116.338 117.874v-428.089c0-43.065-34.645-77.596-77.596-77.596h-698.197c-42.78 0-77.54 34.532-77.54 77.596v698.027c0 42.894 34.759 77.653 77.54 77.653h427.008l-116.338-116.338h-271.758z" />
<glyph unicode="&#xe60f;" d="M661.732 75.15c-0.455-0.114-35.84-11.89-66.56-11.89-16.953 0-23.836 3.584-25.941 5.177-10.695 7.396-30.72 21.504 3.47 89.486l64 127.659c38.002 75.662 43.577 149.106 15.644 206.336-22.699 46.99-66.446 79.189-122.823 90.681-20.309 4.153-40.96 6.201-61.383 6.201-118.329 0-197.973-69.12-201.33-72.078-11.378-10.069-14.165-26.852-6.542-39.993 7.737-13.198 23.495-19.228 38.116-14.279 0.284 0.171 35.783 12.004 66.56 12.004 16.782 0 23.609-3.527 25.714-5.006 10.752-7.509 30.834-21.732-3.243-89.771l-64-127.659c-38.059-75.89-43.634-149.106-15.758-206.336 22.812-46.99 66.503-79.132 122.994-90.681 20.025-3.982 40.619-6.201 60.985-6.201 118.443 0 198.144 69.12 201.5 72.135 11.492 10.012 14.108 26.908 6.542 39.993-7.68 13.084-23.666 19.001-37.945 14.222zM768.057 812.772c0-88.381-71.647-160.028-160.028-160.028s-160.028 71.647-160.028 160.028c0 88.381 71.647 160.028 160.028 160.028s160.028-71.647 160.028-160.028z" />
<glyph unicode="&#xe610;" d="M448 588.8h128v192h128l-192 192-192-192h128v-192zM576 332.8h-128v-192h-128l192-192 192 192h-128v192zM1024 460.8l-192 192v-128h-192v-128h192v-128l192 192zM384 524.8h-192v128l-192-192 192-192v128h192v128z" />
<glyph unicode="&#xe611;" d="M353.508 972.8l-211.285-204.8 316.928-307.2-316.928-307.2 211.285-204.8 528.27 512z" />
<glyph unicode="&#xe612;" d="M933.205 637.668c-39.993 10.524-134.030 10.354-271.531 13.995 6.428 30.037 8.021 57.116 8.021 105.188-0.057 114.859-83.684 215.95-157.696 215.95-52.224 0-95.346-42.667-95.972-95.232-0.683-64.455-20.594-175.787-128-232.22-7.908-4.153-30.379-15.36-33.678-16.668l1.65-1.479c-16.839 14.507-40.107 25.6-64 25.6h-95.972c-52.964 0-96.028-43.065-96.028-96.028v-512c0-52.907 43.065-95.972 96.028-95.972h96.028c38.059 0 69.916 22.983 85.39 55.239 0.398-0.114 1.081-0.284 1.479-0.341 2.105-0.626 4.608-1.195 7.623-1.991 0.626-0.114 0.91-0.171 1.479-0.455 18.432-4.494 53.931-13.028 129.764-30.436 16.213-3.755 102.116-22.016 191.090-22.016h174.933c53.305 0 91.762 20.423 114.574 61.724 0.398 0.626 7.737 15.019 13.71 34.361 4.551 14.677 6.144 35.271 0.796 56.263 34.361 23.666 45.397 59.392 52.679 82.603 12.060 38.116 8.363 66.788 0.057 87.211 19.285 18.204 35.726 46.080 42.667 88.576 4.38 26.34-0.284 53.362-12.402 75.89 18.091 20.366 26.34 45.966 27.25 69.689l0.455 6.656c0.228 4.21 0.398 6.884 0.398 16.043 0 40.448-27.989 91.989-90.795 109.852zM224.028 44.772c0-17.749-14.336-32.028-32.028-32.028h-95.972c-17.692 0-32.028 14.279-32.028 32.028v512c0 17.692 14.336 32.028 32.028 32.028h96.028c17.692 0 32.028-14.336 32.028-32.028v-512zM959.204 507.676c-0.512-15.815-7.225-46.876-63.204-46.876-48.014 0-64 0-64 0-8.875 0-15.986-7.168-15.986-15.986s7.111-15.986 15.986-15.986c0 0 13.995 0 62.009 0s54.272-39.822 51.2-58.994c-3.982-23.893-15.189-69.006-69.234-69.006-53.988 0-76.004 0-76.004 0-8.875 0-15.986-7.111-15.986-15.986 0-8.818 7.111-15.986 15.986-15.986 0 0 38.002 0 62.976 0 53.988 0 49.209-41.188 41.472-65.764-10.183-32.256-16.384-62.236-84.423-62.236-22.983 0-52.167 0-52.167 0-8.875 0-15.986-7.111-15.986-15.986 0-8.818 7.111-15.986 15.986-15.986 0 0 22.187 0 50.176 0 34.987 0 36.693-33.109 32.996-44.999-3.982-13.028-8.761-22.642-8.932-23.040-9.728-17.522-25.202-27.932-58.197-27.932h-174.933c-87.893 0-175.047 19.968-177.323 20.366-132.949 30.663-139.947 32.996-148.196 35.442 0 0-27.136 4.494-27.136 28.16l-0.284 441.913c0 15.019 9.557 28.558 25.372 33.337 1.991 0.796 4.665 1.593 6.656 2.446 146.148 60.473 190.692 193.195 192 302.251 0.114 15.303 11.947 31.972 31.972 31.972 33.849 0 93.639-67.925 93.639-151.95 0-75.89-3.072-88.974-29.639-168.050 320 0 317.781-4.608 345.998-12.004 34.987-10.012 38.002-39.026 38.002-48.981 0-11.036-0.284-9.387-0.796-20.139zM143.986 140.8c-26.51 0-48.014-21.561-48.014-48.014s21.504-48.014 48.014-48.014 48.014 21.561 48.014 48.014-21.504 48.014-48.014 48.014zM143.986 76.8c-8.818 0-15.986 7.168-15.986 15.986s7.168 15.986 15.986 15.986 15.986-7.168 15.986-15.986-7.111-15.986-15.986-15.986z" />
<glyph unicode="&#xe613;" d="M128 268.8h256v64h-256v-64zM448 460.8h-320v-64h320v64zM512 588.8h-384v-64h384v64zM768 521.557v259.243l-192 192h-576v-1024h736.028c159.004 0 287.972 128.967 287.972 287.972 0 148.139-112.242 268.686-256 284.786zM576 889.23l112.014-108.43h-112.014v108.43zM64 12.8v896h448v-192h192v-195.243c-143.758-16.1-256-136.647-256-284.786 0-91.079 43.065-171.236 108.999-224.028h-492.999zM736.028 12.8c-123.733 0-224.028 100.295-224.028 223.972s100.295 224.028 224.028 224.028 224.028-100.295 224.028-224.028-100.352-223.972-224.028-223.972zM811.349 378.994l-23.097-23.097c13.141-7.851 25.998-17.579 37.831-29.412 11.947-11.719 21.561-24.348 29.298-37.262l22.869 22.869c0 0 0 33.394-16.725 50.176-16.782 16.725-50.176 16.725-50.176 16.725zM601.828 169.472l-8.078-8.021v-66.901h66.901l8.021 8.078c-6.315 13.483-15.417 27.136-27.534 39.253-12.117 12.174-25.828 21.276-39.31 27.591zM769.138 336.896l-148.309-148.309c13.198-7.794 26.112-17.522 38.002-29.355 11.776-11.662 21.447-24.462 29.298-37.319l148.082 148.025c-6.485 13.653-15.474 27.193-27.591 39.367-12.345 12.117-25.828 21.106-39.481 27.591z" />
<glyph unicode="&#xe614;" d="M1024 607.118h-365.682v365.682h-292.58v-365.682h-365.739v-292.523h365.739v-365.796h292.58v365.796h365.682z" />
<glyph unicode="&#xe615;" d="M796.444 745.244v-682.667h-568.889v682.667h-113.778v-796.444h796.444v796.444h-113.778zM455.111 347.022h113.778v398.222h113.778l-170.667 227.556-170.667-227.556h113.778v-398.222z" />
<glyph unicode="&#xe616;" d="M881.778 768l-211.342 204.8-528.213-512 528.213-512 211.342 204.8-316.928 307.2z" />
<glyph unicode="&#xe617;" d="M0 972.8l1024-1024v1024h-1024zM931.044 778.98l-256.569-253.838c-10.126-9.956-26.567-9.956-36.693 0l-36.693 36.352c0 0 0 0 0 0l-109.966 108.772c-10.126 10.012-10.126 26.226 0 36.238l36.75 36.238c10.126 10.012 26.453 10.012 36.636 0l91.591-90.624 201.671 199.396c10.126 10.012 26.567 10.012 36.75 0l36.58-36.295c10.126-9.956 10.126-26.226-0.057-36.238z" />
<glyph unicode="&#xe618;" d="M448 972.8h-448v-448h128v320h320v128zM896 396.8v-320h-320v-128h448v448h-128zM832 268.8l-512 512-128-128 512-512 128 128z" />
<glyph unicode="&#xe619;" d="M170.667-25.145c0-14.45 11.15-26.055 24.917-26.055h632.832c13.824 0 24.917 11.605 24.917 26.055v713.5h-682.667v-713.5zM652.231 544.768h93.525v-437.476h-93.525v437.476zM465.237 544.768h93.525v-437.476h-93.525v437.476zM278.244 544.768h93.525v-437.476h-93.525v437.476zM731.079 872.050v78.791c0 12.117-11.719 21.959-26.055 21.959h-386.048c-14.336 0-25.998-9.842-25.998-21.959v-106.268h-181.646c-14.336 0-25.998-9.785-25.998-21.902v-55.524c0-12.117 11.662-21.902 25.998-21.902h801.28c14.45 0 26.055 9.785 26.055 21.902v55.524c0 12.060-11.605 21.902-26.055 21.902h-181.532v27.477zM633.685 849.067h-243.257v41.472h243.2v-41.472z" />
<glyph unicode="&#xe61a;" d="M1024 393.785c0 9.159-0.171 11.833-0.398 15.986l-0.455 6.656c-0.967 23.723-9.159 49.266-27.25 69.689 12.117 22.528 16.782 49.55 12.402 75.89-6.94 42.496-23.381 70.315-42.667 88.576 8.306 20.423 12.004 49.095-0.057 87.211-7.282 23.211-18.318 58.937-52.679 82.603 5.404 20.992 3.755 41.586-0.796 56.263-5.973 19.399-13.312 33.792-13.71 34.361-22.756 41.358-61.269 61.781-114.574 61.781h-174.933c-88.974 0-174.876-18.261-191.090-22.016-75.833-17.351-111.332-25.941-129.764-30.436-0.626-0.284-0.91-0.341-1.536-0.455-3.015-0.796-5.518-1.365-7.623-1.991-0.455-0.057-1.138-0.228-1.479-0.341-15.474 32.256-47.332 55.239-85.39 55.239h-95.972c-52.964 0-96.028-43.065-96.028-96.028v-512c0-52.964 43.065-96.028 96.028-96.028h96.028c23.893 0 47.161 11.093 64 25.6l-1.65-1.479c3.3-1.308 25.771-12.516 33.678-16.668 107.406-56.434 127.317-167.765 128-232.22 0.569-52.508 43.691-95.175 95.915-95.175 74.012 0 157.639 101.092 157.639 215.95 0 48.071-1.536 75.093-8.021 105.188 137.5 3.641 231.538 3.527 271.531 13.995 62.862 17.863 90.852 69.404 90.852 109.852zM224.028 364.772c0-17.692-14.336-32.028-32.028-32.028h-95.972c-17.692 0-32.028 14.336-32.028 32.028v512c0 17.749 14.336 32.028 32.028 32.028h96.028c17.692 0 32.028-14.279 32.028-32.028v-512zM960 393.785c0-10.012-3.015-39.026-38.002-48.981-28.217-7.396-25.998-12.004-345.998-12.004 26.624-79.076 29.639-92.16 29.639-168.050 0-84.082-59.847-151.95-93.639-151.95-20.025 0-31.858 16.668-32.028 32.028-1.308 108.999-45.796 241.721-191.943 302.194-1.934 0.853-4.608 1.65-6.599 2.446-15.872 4.779-25.429 18.318-25.429 33.337l0.228 442.027c0 23.666 27.136 28.16 27.136 28.16 8.306 2.446 15.303 4.779 148.196 35.442 2.276 0.455 89.429 20.366 177.323 20.366h174.933c32.996 0 48.526-10.468 58.197-27.932 0.171-0.398 4.949-10.069 8.932-23.040 3.641-11.89 1.991-44.999-32.996-44.999-27.989 0-50.176 0-50.176 0-8.875 0-15.986-7.168-15.986-15.986 0-8.875 7.111-15.986 15.986-15.986 0 0 29.184 0 52.167 0 68.039 0 74.297-29.924 84.423-62.236 7.794-24.633 12.572-65.764-41.472-65.764-24.974 0-62.976 0-62.976 0-8.875 0-15.986-7.168-15.986-15.986 0-8.875 7.111-15.986 15.986-15.986 0 0 22.016 0 76.004 0 54.044 0 65.195-45.113 69.234-69.006 3.072-19.172-3.243-58.994-51.2-58.994s-62.009 0-62.009 0c-8.875 0-15.986-7.168-15.986-15.986s7.168-16.1 16.043-16.1c0 0 15.986 0 64 0 55.979 0 62.692-31.061 63.204-46.876 0.512-10.752 0.796-9.102 0.796-20.139zM192 828.814c0 26.453-21.504 48.014-48.014 48.014s-47.957-21.561-47.957-48.014 21.504-48.014 48.014-48.014 47.957 21.561 47.957 48.014zM160.028 828.814c0-8.818-7.168-15.986-15.986-15.986s-16.043 7.111-16.043 15.986 7.168 15.986 15.986 15.986 16.043-7.168 16.043-15.986z" />
<glyph unicode="&#xe61b;" d="M120.491 611.385h-120.491v-120.491h120.491v120.491zM120.491 430.706h-120.491v-120.491h120.491v120.491zM903.566 490.894h120.434v120.491h-120.434v-120.491zM903.566 310.215h120.434v120.491h-120.434v-120.491zM542.094-51.2h120.491v120.434h-120.491v-120.434zM361.415-51.2h120.491v120.434h-120.491v-120.434zM361.415 852.309h120.491v120.491h-120.491v-120.491zM542.094 852.309h120.491v120.491h-120.491v-120.491zM0 671.63h120.491v180.679h180.679v120.491h-301.17v-301.17zM722.83 972.8v-120.491h180.736v-180.679h120.434v301.17h-301.17zM120.491 249.97h-120.491v-301.17h301.17v120.434h-180.679v180.736zM903.566 69.234h-180.736v-120.434h301.17v301.17h-120.434v-180.736z" />
<glyph unicode="&#xe61c;" d="M193.536 599.836v-651.036h644.437v651.036h-644.437zM377.685 80.327h-92.103v431.787h92.103v-431.787zM561.778 80.327h-92.103v431.787h92.103v-431.787zM745.87 80.327h-92.046v431.787h92.046v-431.787zM699.676 774.315l38.571 126.805-264.761 71.68-38.628-126.635-176.583 47.9-38.684-126.578 617.984-167.652 38.684 126.635-176.583 47.844zM655.417 786.261l-176.071 49.209 25.429 83.115 176.128-49.038-25.486-83.285z" />
<glyph unicode="&#xe61d;" d="M871.424 405.561v383.317h-423.652l135.566-154.624h152.576v-228.693h-152.576l220.331-257.65 220.331 257.65h-152.576zM327.68 314.823v223.744h163.84l-245.76 292.011-245.76-292.011h163.84v-390.656h453.404l-125.724 166.912h-163.84z" />
<glyph unicode="&#xe61e;" d="M120.491 611.385h-120.491v-120.491h120.491v120.491zM120.491 430.706h-120.491v-120.491h120.491v120.491zM903.566 490.894h120.434v120.491h-120.434v-120.491zM903.566 310.215h120.434v120.491h-120.434v-120.491zM542.094-51.2h120.491v120.434h-120.491v-120.434zM361.415-51.2h120.491v120.434h-120.491v-120.434zM361.415 852.309h120.491v120.491h-120.491v-120.491zM542.094 852.309h120.491v120.491h-120.491v-120.491zM0 671.63h120.491v180.679h180.679v120.491h-301.17v-301.17zM722.83 972.8v-120.491h180.736v-180.679h120.434v301.17h-301.17zM120.491 249.97h-120.491v-301.17h301.17v120.434h-180.679v180.736zM903.566 69.234h-180.736v-120.434h301.17v301.17h-120.434v-180.736zM739.556 597.333l-91.022 91.022-136.533-136.533-136.533 136.533-91.022-91.022 136.533-136.533-136.533-136.533 91.022-91.022 136.533 136.533 136.533-136.533 91.022 91.022-136.533 136.533z" />
<glyph unicode="&#xe61f;" d="M918.357 539.932c-17.522 2.56-36.124 18.261-41.472 34.987l-25.941 63.204c-8.249 15.588-6.201 39.936 4.267 53.988l42.155 56.206c10.581 14.108 9.671 36.466-1.991 49.607l-46.251 46.308c-13.198 11.605-35.556 12.516-49.664 1.934l-56.206-42.155c-14.108-10.581-38.343-12.516-53.874-4.324l-63.147 25.998c-16.839 5.404-32.597 23.95-34.93 41.472l-10.069 69.518c-2.446 17.465-18.716 33.223-36.295 35.1 0 0-10.809 1.138-32.825 1.138-21.959 0-32.825-1.138-32.825-1.138-17.522-1.877-33.849-17.636-36.352-35.1l-10.069-69.518c-2.503-17.465-18.261-36.068-34.987-41.415l-63.204-25.998c-15.531-8.135-39.822-6.258-53.874 4.324l-56.32 42.212c-14.108 10.581-36.466 9.671-49.607-1.934l-46.251-46.364c-11.605-13.198-12.572-35.499-1.934-49.607l42.155-56.263c10.638-14.108 12.516-38.343 4.324-53.931l-26.055-63.26c-5.348-16.782-24.007-32.484-41.472-34.987l-69.518-9.842c-17.408-2.503-33.166-18.83-34.987-36.409 0 0-1.138-10.866-1.138-32.882s1.138-32.825 1.138-32.825c1.82-17.636 17.636-33.849 34.987-36.409l69.575-9.899c17.408-2.56 36.124-18.204 41.472-34.987l26.055-63.204c8.192-15.531 6.201-39.879-4.324-53.874l-42.155-56.149c-10.638-14.108-13.141-33.394-5.689-42.439 7.452-9.216 28.9-32.028 29.013-32.199 0 0 7.225-6.599 15.986-14.677 8.647-8.078 44.373-19.115 58.482-8.59l56.206 42.325c14.108 10.468 38.286 12.459 53.931 4.153l63.147-25.998c16.782-5.348 32.54-24.007 34.93-41.472l10.012-69.575c2.446-17.465 18.773-33.223 36.409-35.1 0 0 10.809-1.138 32.768-1.138s32.882 1.138 32.882 1.138c17.465 1.877 33.849 17.749 36.295 35.1l10.012 69.575c2.446 17.522 18.148 36.181 34.93 41.472l63.147 26.112c15.531 8.192 39.879 6.144 53.874-4.267l56.206-42.325c14.165-10.524 36.58-9.671 49.721 1.934l46.194 46.308c11.662 13.141 12.572 35.556 1.991 49.664l-42.212 56.149c-10.468 13.995-12.459 38.343-4.21 53.874l25.998 63.204c5.404 16.782 24.007 32.54 41.472 34.987l69.461 9.899c17.579 2.56 33.223 18.83 35.1 36.409 0 0 1.195 10.809 1.195 32.825s-1.195 32.825-1.195 32.825c-1.877 17.522-17.636 33.963-35.1 36.466l-69.348 9.842zM512 332.8c-70.713 0-128.057 57.344-128.057 128 0 70.713 57.344 128.057 128.057 128.057s128.057-57.344 128.057-128.057c0-70.656-57.401-128-128.057-128z" />
<glyph unicode="&#xe620;" d="M979.456 614.628l-281.884 26.51c-17.863 1.593-33.223 12.857-40.505 29.696l-101.092 243.371c-16.043 40.164-73.5 40.164-89.714 0l-100.124-243.371c-6.428-16.839-22.585-28.103-40.391-29.696l-282.055-26.51c-41.984-4.039-58.937-56.263-27.42-84.309l212.537-185.572c13.71-12.004 19.342-29.639 15.36-47.388l-63.886-260.21c-9.614-41.017 34.816-74.752 71.908-53.020l235.179 137.387c15.417 8.704 33.963 8.704 49.266 0l235.122-137.387c37.035-21.732 81.636 11.207 71.964 53.020l-63.033 260.21c-3.982 17.806 1.65 35.385 15.417 47.388l212.423 185.572c30.834 28.046 12.971 80.27-29.070 84.309z" />
<glyph unicode="&#xe621;" d="M862.265 859.022l-485.035-477.753-215.609 212.252-161.621-159.289 377.23-371.655 646.77 637.156z" />
<glyph unicode="&#xe622;" d="M512 972.8c-282.795 0-512-229.205-512-512s229.205-512 512-512 512 229.205 512 512-229.205 512-512 512zM563.143 157.355h-102.343v101.205h102.4v-101.205zM563.143 359.708h-102.343v410.852h102.4v-410.852z" />
<glyph unicode="&#xe623;" d="M665.543 764.188c-25.543 53.76-59.164 151.723-153.543 151.723-94.436 0-123.221-96.37-153.6-151.723-30.379-55.239-358.4-657.465-358.4-657.465 0-71.566 45.852-101.035 102.4-101.035h819.143c56.604 0 102.457 45.227 102.457 101.035 0 0-332.8 603.762-358.457 657.465zM563.143 157.355h-102.343v101.205h102.4v-101.205zM563.143 359.708h-102.343v353.963h102.4v-353.963z" />
<glyph unicode="&#xe624;" d="M786.096 608.192v237.904l-160.432-0.112v-121.456l-113.824 81.744-511.84-368.736h98.272l413.024 300.72 161.056-115.232-0.016 166.176h67.232v-217.2l191.344-134.464h93.088z" />
<glyph unicode="&#xe625;" d="M250.096 204.32v124.128h124.128v-124.128h-124.128zM105.296 59.504v144.816h144.8v-144.816h-144.8z" />
<glyph unicode="&#xe626;" d="M633.776 406.496v-347.008h-62.064v450.448h124.128v-103.44h-62.064z" />
<glyph unicode="&#xe627;" d="M670.464 59.504v310.304h124.128v-186.192h124.112v-124.128h-248.24z" />
<glyph unicode="&#xe628;" d="M286.784 59.504v108.128h124.128v119.44l124.272-0.064-0.144-227.504h-248.256z" />
</font>
</defs>
</svg>
