<?xml version="1.0" standalone="no"?>
<!DOCTYPE svg PUBLIC "-//W3C//DTD SVG 1.1//EN" "http://www.w3.org/Graphics/SVG/1.1/DTD/svg11.dtd" >
<svg xmlns="http://www.w3.org/2000/svg">
<metadata>
This is a custom SVG font generated by IcoMoon.
<iconset grid="14"></iconset>
</metadata>
<defs>
<font id="icomoon" horiz-adv-x="448" >
<font-face units-per-em="448" ascent="384" descent="-64" />
<missing-glyph horiz-adv-x="448" />
<glyph class="hidden" unicode="&#xf000;" d="M0,384L 448 -64L0 -64 z" horiz-adv-x="0" />
<glyph unicode="&#xe00a;" d="M 168,160 L 28,160 L 28,216 L 168,216 L 168,272 L 252,188 L 168,104 ZM 448,384 L 448,20 L 280-64 L 280,20 L 112,20 L 112,132 L 140,132 L 140,48 L 280,48 L 280,300 L 392,356 L 140,356 L 140,244 L 112,244 L 112,384 Z"  />
<glyph unicode="&#xe028;" d="M 53.154-13.817l-0.137,0 l-8.245,30.228l-14.29,0 L 30.482-32.64 l 11.954,0 l0,30.297 
				l 0.137,0 L 51.092-32.64l 14.015,0 l0,49.053 l-11.954,0 L 53.152-13.817 z M 85.85,17.375c-13.053,0-17.518-7.146-17.518-25.488
				s 4.467-25.488, 17.518-25.488c 13.053,0, 17.518,7.146, 17.518,25.488S 98.904,17.375, 85.85,17.375z M 85.85-24.946
				c-3.916,0-4.328,3.574-4.328,16.831s 0.412,16.831, 4.328,16.831c 3.917,0, 4.328-3.574, 4.328-16.831S 89.766-24.946, 85.85-24.946z
				 M 141.765,16.413L 122.598,16.413 L 122.598-32.64 l 12.778,0 l0,18.688 l 4.465,0 c 10.374,0, 16.076,5.221, 16.076,15.251
				C 155.918,9.887, 151.521,16.413, 141.765,16.413z M 137.781-4.748l-2.404,0 l0,11.954 l 2.404,0 c 3.229,0, 4.946-1.923, 4.946-5.976
				C 142.727-2.893, 141.011-4.748, 137.781-4.748z M 158.113-32.64l 12.778,0 l0,49.053 l-12.778,0 L 158.113-32.64 z M 191.154-24.946
				c-3.916,0-4.328,3.574-4.328,16.831s 0.412,16.831, 4.328,16.831c 2.473,0, 3.505-1.649, 3.505-7.214l0-2.748 l 12.365,0 l0,3.091 
				c0,9.481-4.328,15.526-15.87,15.526c-13.258,0-17.518-6.733-17.518-25.488c0-18.274, 3.16-25.488, 17.518-25.488
				c 8.176,0, 16.213,3.299, 16.213,17.039l0,3.641 l-12.366,0 C 195.001-22.197, 194.316-24.946, 191.154-24.946z M 207.433,5.558l 9.617,0 L 217.050-32.64 
				l 12.78,0 l0,38.198 l 9.617,0 l0,10.855 l-32.014,0 L 207.433,5.558 z M 260.879-18.969c0-4.741-1.443-5.978-3.847-5.978s-3.847,1.236-3.847,5.978
				l0,35.38 l-12.778,0 l0-32.151 c0-13.74, 5.908-17.863, 16.625-17.863s 16.625,4.123, 16.625,17.863l0,32.151 l-12.778,0 L 260.879-18.969 z M 311.507-30.44
				c-0.618,0.962-0.618,4.259-0.618,6.801l0,4.192 c0,6.526-1.855,10.443-8.039,10.991l0,0.139 c 5.84,0.893, 8.381,5.152, 8.381,11.678
				c0,7.558-3.709,13.053-13.465,13.053l-19.993,0 L 277.773-32.64 l 12.778,0 l0,19.648 l 3.367,0 c 3.091,0, 4.19-1.443, 4.19-7.007l0-3.297 
				c0-2.061,0-6.733, 1.236-9.344l 13.603,0 l0,0.687 C 312.125-31.541, 311.85-30.991, 311.507-30.44z M 293.096-4.335l-2.543,0 l0,11.542 l 2.473,0 
				c 3.847,0, 5.428-1.716, 5.428-5.702C 298.453-1.998, 296.736-4.335, 293.096-4.335z M 328.608-22.197l0,9.754 l 15.251,0 l0,10.031 
				l-15.251,0 l0,8.381 l 16.28,0 l0,10.443 l-29.059,0 L 315.831-32.64 l 29.677,0 l0,10.443 L 328.608-22.197 zM 186.5,354.133C 99.901,354.133, 29.7,283.932, 29.7,197.333s 70.202-156.8, 156.8-156.8
				c 86.598,0, 156.8,70.202, 156.8,156.8S 273.098,354.133, 186.5,354.133z M 185.802,333.227c 74.667,0, 135.196-60.529, 135.196-135.196c0-20.662-4.641-40.238-12.929-57.752
				L 74.673,275.030C 99.084,310.196, 139.751,333.227, 185.802,333.227z M 185.802,62.835c-74.667,0-135.196,60.529-135.196,135.196
				c0,21.137, 4.853,41.138, 13.503,58.957l 233.583-134.86C 273.37,86.343, 232.332,62.835, 185.802,62.835zM 185.006,142.185c-28.348,0-51.33,23.3-51.33,52.038
				c0,5.043, 0.721,9.913, 2.041,14.524L 80.47,240.643l0-99.437 c0-4.461, 3.6-8.079, 8.042-8.079l 178.182,0 l-44.228,25.536
				C 213.1,148.527, 199.786,142.185, 185.006,142.185z M 140.781,194.223c0-24.413, 19.8-44.201, 44.227-44.201
				c 11.975,0, 22.83,4.762, 30.794,12.489l-73.68,42.538C 141.25,201.585, 140.781,197.958, 140.781,194.223z M 281.501,254.344L 216.471,254.344 
				l0,0.202 l-8.054,8.089c-0.111,4.292-3.548,7.75-7.819,7.862l-0.012,0.009l-32.395,0 c-4.417-0.018-7.985-3.612-8.009-8.049
				l-8.043-8.083l0-0.030 L 122.448,254.344 l 31.872-18.401c 8.56,6.481, 19.18,10.32, 30.687,10.32c 28.351,0, 51.332-23.302, 51.332-52.041
				c0-1.847-0.097-3.671-0.284-5.47l 53.488-30.881l0,88.39 C 289.543,250.726, 285.944,254.344, 281.501,254.344z M 229.234,194.223
				c0,24.415-19.796,44.207-44.227,44.207c-8.594,0-16.609-2.458-23.396-6.696l 67.585-39.021
				C 229.213,193.215, 229.234,193.716, 229.234,194.223z" horiz-adv-x="373"  />
<glyph unicode="&#xe029;" d="M 224,348.16C 120.082,348.16, 35.84,263.918, 35.84,160s 84.242-188.16, 188.16-188.16
				c 103.918,0, 188.16,84.242, 188.16,188.16S 327.918,348.16, 224,348.16z M 223.163,323.072c 89.6,0, 162.235-72.635, 162.235-162.235c0-24.794-5.57-48.285-15.515-69.302
				L 89.808,253.236C 119.102,295.436, 167.901,323.072, 223.163,323.072z M 223.163-1.398c-89.6,0-162.235,72.635-162.235,162.235
				c0,25.364, 5.824,49.366, 16.203,70.748l 280.299-161.832C 328.244,26.811, 278.998-1.398, 223.163-1.398zM 169.138,156.267c0-29.296, 23.76-53.041, 53.072-53.041
				c 14.37,0, 27.396,5.715, 36.953,14.985l-88.415,51.047C 169.701,165.102, 169.138,160.749, 169.138,156.267z M 338.002,228.413L 259.965,228.413 
				l0,0.242 l-9.664,9.707c-0.133,5.15-4.258,9.3-9.383,9.435l-0.014,0.011l-38.874,0 c-5.301-0.022-9.582-4.335-9.61-9.659
				l-9.652-9.7l0-0.036 L 147.138,228.413 l 38.247-22.081c 10.272,7.777, 23.016,12.385, 36.824,12.385c 34.021,0, 61.598-27.962, 61.598-62.449
				c0-2.217-0.116-4.407-0.34-6.564l 64.186-37.057l0,106.068 C 347.652,224.071, 343.333,228.413, 338.002,228.413z M 222.208,93.821
				c-34.018,0-61.596,27.961-61.596,62.446c0,6.052, 0.866,11.895, 2.45,17.429L 96.764,211.972l0-119.324 c0-5.353, 4.321-9.695, 9.65-9.695
				l 213.818,0 l-53.074,30.643C 255.921,101.432, 239.943,93.821, 222.208,93.821z M 275.282,156.267c0,29.297-23.755,53.049-53.072,53.049
				c-10.313,0-19.931-2.95-28.075-8.035l 81.102-46.823C 275.257,155.058, 275.282,155.66, 275.282,156.267z"  />
<glyph unicode="&#xe02a;" d="M 417.75,242.5q0-10 -7-17l-181-181l-34-34q-7-7 -17-7t-17,7l-34,34l-90.5,90.5q-7,7 -7,17t 7,17l 34,34q 7,7 17,7t 17-7l 73.5-73.75l 164,164.25q 7,7 17,7t 17-7l 34-34q 7-7 7-17z"  />
<glyph unicode="&#xf00c;" d="M 239.694,301.196c 19.672-1.599, 36.773,13.068, 38.373,32.739
			c 1.53,19.672-13.14,36.773-32.813,38.441C 225.651,373.834, 208.411,359.168, 206.95,339.494C 205.283,319.963, 219.95,302.724, 239.694,301.196
			z M 344.157,176.901l-47.36,32.62l-34.63,68.787c-5.894,8.909-15.608,16.209-27.397,17.147c-9.11,0.803-17.35-2.345-24.182-7.1
			l-69.062-55.928c-2.212-2.008-3.818-4.621-4.756-7.501l-15.139-67.852c-0.134-0.803-0.268-1.472-0.268-2.143
			c-0.669-8.641, 5.627-16.076, 14.268-16.745c 7.971-0.603, 14.803,5.492, 16.479,12.993l 12.795,58.205l 24.115,19.492l-36.909-163.43
			l-44.21-74.147c-1.34-2.611-2.88-6.429-3.148-10.048c-1.073-12.86, 8.507-24.111, 21.435-25.048
			c 9.042-0.737, 17.014,3.951, 21.704,11.251l 47.626,80.241c 0.937,2.076, 4.22,7.301, 4.622,9.78l 11.521,52.846l 49.569-54.253
			l 15.542-81.516c 2.478-9.713, 10.382-17.549, 20.966-18.419c 12.794-0.938, 24.047,8.439, 24.986,21.432c 0.134,1.541-0.134,2.747,0,4.689
			l-16.479,87.008c-0.535,2.611-1.473,5.224-2.88,7.434l-60.956,72.070l 15.54,68.588l 12.929-25.787
			c 1.071-1.674, 2.412-3.282, 3.953-4.554l 51.645-35.566c 2.413-1.073, 4.488-2.144, 7.1-2.277c 8.507-0.736, 15.942,5.627, 16.613,14.132
			C 350.721,168.797, 348.243,173.82, 344.157,176.901z"  />
<glyph unicode="&#xe02b;" d="M 272.692,23.64l 14.616-29.204L 160.692-5.564 l 14.616,29.204L 146.076,23.64 L 107.128-54.256l 29.204,0 
			l 14.616,29.204l 146.076,0 l 14.616-29.204l 29.204,0 l-38.948,77.924L 272.692,23.64 z M 379.82,101.564l-38.92,243.488c0,16.156-13.104,29.204-29.204,29.204L 136.36,374.256 
			c-16.128,0-29.204-13.076-29.204-29.204l-38.948-243.488c-3.36-29.848, 13.076-48.692, 29.204-48.692l 253.204,0 C 366.744,52.872, 384.692,72.024, 379.82,101.564z M 194.796,345.052
			c0,5.376, 4.368,9.744, 9.744,9.744L 243.488,354.796 c 5.376,0, 9.744-4.368, 9.744-9.744L 253.204,335.308 c0-5.376-4.368-9.744-9.744-9.744L 204.512,325.564 
			C 199.136,325.564, 194.796,329.932, 194.796,335.308L 194.796,345.052 z M 170.436,82.076c-13.44,0-24.36,10.864-24.36,24.332c0,13.468, 10.892,24.36, 24.36,24.36s 24.36-10.864, 24.36-24.36
			C 194.796,92.996, 183.876,82.076, 170.436,82.076z M 277.564,82.076c-13.468,0-24.36,10.864-24.36,24.332c0,13.468, 10.864,24.36, 24.36,24.36
			c 13.44,0, 24.332-10.864, 24.332-24.36C 301.924,92.996, 291.004,82.076, 277.564,82.076z M 97.384,160l 19.488,146.076l 214.256,0 l 19.488-146.076L 97.384,160 z"  />
<glyph unicode="&#xe02c;" d="M 507.547,200.198L 456.892,318.392
			c-8.799,21.277-19.695,43.998-43.998,43.998L 184.106,362.39 c-24.297,0-34.923-21.62-43.998-43.998L 89.454,200.198
			C 57.584,189.953, 34.514,160.078, 34.514,124.803L 34.514,28.006 l 52.798,0 l0-43.998 c0-14.583, 11.82-26.398, 26.398-26.398l 8.8,0 c 14.578,0, 26.398,11.816, 26.398,26.398
			L 148.909,28.006 L 456.892,28.006 l0-43.998 c0-14.583, 11.825-26.398, 26.398-26.398l 8.8,0 c 14.574,0, 26.398,11.816, 26.398,26.398L 518.489,28.006 L 562.486,28.006 L 562.486,124.803 
			C 562.486,160.078, 539.418,189.952, 507.547,200.198z M 166.507,318.392c0,9.719, 7.88,17.599, 17.599,17.599l 228.787,0 
			c 9.72,0, 17.599-7.88, 17.599-17.599l 35.197-105.594L 131.31,212.797 L 166.507,318.392z M 113.71,89.603c-19.438,0-35.197,15.761-35.197,35.197
			c0,19.439, 15.761,35.197, 35.197,35.197c 19.438,0, 35.197-15.76, 35.197-35.197C 148.908,105.364, 133.148,89.603, 113.71,89.603z
			 M 483.29,89.603c-19.438,0-35.197,15.761-35.197,35.197c0,19.439, 15.76,35.197, 35.197,35.197
			c 19.439,0, 35.197-15.76, 35.197-35.197C 518.488,105.364, 502.729,89.603, 483.29,89.603z" horiz-adv-x="597"  />
<glyph unicode="&#xe02d;" d="M 448,227.307C 448,298.382, 390.381,356, 319.307,356C 281.523,356, 247.544,339.717, 224,313.786C 200.456,339.717, 166.477,356, 128.693,356
	C 57.618,356,0,298.382,0,227.307C0,189.523, 16.283,155.544, 42.214,132L 42,132 l 140-140c 14-14, 28-28, 42-28s 28,14, 42,28l 140,140l-0.214,0 
	C 431.717,155.544, 448,189.523, 448,227.307z M 368.142,173.461L 226.402,31.598c-0.734-0.734-1.545-1.545-2.402-2.397
	c-0.857,0.853-1.669,1.663-2.402,2.397L 79.858,173.46C 64.473,187.429, 56,206.552, 56,227.307C 56,267.39, 88.61,300, 128.693,300
	c 20.755,0, 39.878-8.473, 53.846-23.858L 224,230.476l 41.461,45.665C 279.43,291.527, 298.552,300, 319.307,300
	C 359.39,300, 392,267.39, 392,227.307C 392,206.552, 383.526,187.429, 368.142,173.461z"  />
<glyph unicode="&#xe02f;" d="M 126.933,204.8l-74.667,0 C 48.145,204.8, 44.8,201.455, 44.8,197.333l0-14.933 C 44.8,178.278, 48.145,174.933, 52.267,174.933
			l 74.667,0 C 131.055,174.933, 134.4,178.278, 134.4,182.4l0,14.933 C 134.4,201.455, 131.055,204.8, 126.933,204.8z M 126.933,264.533l-104.533,0 C 18.278,264.533, 14.933,261.188, 14.933,257.067l0-14.933 C 14.933,238.012, 18.278,234.667, 22.4,234.667l 104.533,0 
			C 131.055,234.667, 134.4,238.012, 134.4,242.133l0,14.933 C 134.4,261.188, 131.055,264.533, 126.933,264.533z M 126.933,145.067l-44.8,0 C 78.012,145.067, 74.667,141.722, 74.667,137.6l0-14.933 C 74.667,118.545, 78.012,115.2, 82.133,115.2l 44.8,0 
			C 131.055,115.2, 134.4,118.545, 134.4,122.667l0,14.933 C 134.4,141.722, 131.055,145.067, 126.933,145.067z M 433.067,264.533L 179.2,264.533 c-8.243,0-14.933-6.675-14.933-14.933l0-179.2 c0-8.258, 6.69-14.933, 14.933-14.933l 253.867,0 
			c 8.258,0, 14.933,6.675, 14.933,14.933L 448,249.6 C 448,257.858, 441.325,264.533, 433.067,264.533z M 418.133,85.333L 194.133,85.333 L 194.133,234.667 l 224,0 L 418.133,85.333 z M 298.577,122.846c 0.134-0.119, 0.314-0.134, 0.433-0.239
			c 4.137-3.33, 10.065-3.554, 14.276-0.015l 66.020,50.923c 4.809,4.047, 5.421,11.26, 1.404,16.098l-0.732,0.881
			c-4.047,4.823-11.23,5.466-16.038,1.419l-57.867-44.636l-58.389,44.77c-4.823,4.047-12.036,3.42-16.068-1.419l-0.747-0.881
			c-4.047-4.823-3.42-12.021, 1.419-16.068L 298.577,122.846z"  />
<glyph unicode="&#xe030;" d="M 112,104L 98,104 l0-14 l 14,0 L 112,104 z M 84,160L 70,160 l0-14 l 14,0 L 84,160 z M 112,160L 98,160 l0-14 l 14,0 L 112,160 z M 84,132L 70,132 l0-14 l 14,0 L 84,132 z M 112,132L 98,132 l0-14 l 14,0 L 112,132 z M 126,202l 14,0 L 140,216 L 126,216 L 126,202 z M 56,104L 42,104 l0-14 l 14,0 L 56,104 z M 56,272
				l0-84 L0,188 l0-126 l 140,0 l0,126 L 84,188 L 84,258 l 70,0 l0-196 l 14,0 L 168,272 L 56,272 z M 126,174l0-98 L 84,76 l0,28 L 70,104 l0-28 L 28,76 l0,98 L 126,174 z M 56,160L 42,160 l0-14 l 14,0 L 56,160 z M 98,202l 14,0 L 112,216 L 98,216 L 98,202 z M 56,132L 42,132 l0-14 l 14,0 L 56,132 z M 112,244L 98,244 l0-14 l 14,0 L 112,244 z M 126,230l 14,0 L 140,244 
				L 126,244 L 126,230 zM 406,188L 406,272 L 266,272 l0-210 l 14,0 L 280,258 l 98,0 l0-70 l-14,0 l0,14 l-28,0 l0-14 l-14,0 l0,14 l-28,0 l0-14 l0-14 l0-112 l 56,0 l0,42 l 28,0 l0-42 l 70,0 l0,126 L 406,188 z M 420,76l-28,0 l0,42 l-56,0 l0-42 l-28,0 l0,98 l 14,0 l 14,0 l 28,0 l 56,0 L 420,76 z M 322,244l-28,0 l0-28 l 28,0 
				L 322,244 z M 364,244l-28,0 l0-28 l 28,0 L 364,244 zM 322,160L 350,160L 350,132L 322,132zM 378,160L 406,160L 406,132L 378,132zM 182,188l0-28 l 70,0 l0,28 L 182,188 z M 182,118l 70,0 l0,28 l-70,0 L 182,118 z"  />
<glyph unicode="&#xe02e;" d="M 346.5,111c-20.23,0-38.542-8.19-51.828-21.406l-120.596,61.18
			C 174.454,153.826, 175,156.836, 175,160c0,3.122-0.546,6.090-0.91,9.114l 120.82,61.11c 13.272-13.104, 31.472-21.224, 51.604-21.224
			c 40.586,0, 73.5,32.914, 73.5,73.5S 387.086,356, 346.5,356S 273,323.086, 273,282.5c0-3.262, 0.546-6.37, 0.952-9.52l-120.54-60.97
			c-13.3,13.272-31.654,21.49-51.912,21.49C 60.914,233.5, 28,200.586, 28,160s 32.914-73.5, 73.5-73.5c 20.216,0, 38.5,8.176, 51.786,21.378
			l 120.638-61.208c-0.378-3.038-0.924-6.034-0.924-9.17c0-40.586, 32.914-73.5, 73.5-73.5S 420-3.086, 420,37.5S 387.086,111, 346.5,111z"  />
<glyph unicode="&#xe000;" d="M0-64l 224,0 L 224,384 L0,384 L0-64 z M 140,328l 56,0 l0-56 l-56,0 L 140,328 z M 140,216l 56,0 l0-56 l-56,0 L 140,216 z M 140,104l 56,0 l0-56 l-56,0 L 140,104 z M 28,328l 56,0 l0-56 L 28,272 L 28,328 z M 28,216
			l 56,0 l0-56 L 28,160 L 28,216 z M 28,104l 56,0 l0-56 L 28,48 L 28,104 zM 252,244L 448,244L 448,216L 252,216zM 252-64L 308-64L 308,48L 392,48L 392-64L 448-64L 448,188L 252,188 		z"  />
<glyph unicode="&#xe001;" d="M0,328l0-364 l 448,0 L 448,328 L0,328 z M 420-8L 28-8 L 28,300 l 392,0 L 420-8 zM 308,230A42,42 3420 1 1 392,230A42,42 3420 1 1 308,230zM 392,20 L 56,20 L 140,244 L 252,104 L 308,146 Z"  />
<glyph unicode="&#xe003;" d="M 272.486,76.553c-9.673,1.539-9.894,28.137-9.894,28.137s 28.424,28.138, 34.618,65.976
	c 16.664,0, 26.958,40.226, 10.291,54.38C 308.198,239.944, 328.922,342, 224,342c-104.922,0-84.197-102.056-83.503-116.954
	c-16.666-14.153-6.374-54.38, 10.291-54.38c 6.194-37.838, 34.618-65.976, 34.618-65.976s-0.221-26.598-9.894-28.137
	C 144.354,71.595, 28,20.276, 28-36l 196,0 l 196,0 C 420,20.276, 303.646,71.595, 272.486,76.553z"  />
<glyph unicode="&#xe002;" d="M 392,384L0,384 l0-448 l 448,0 L 448,328 L 392,384z M 224,328l 56,0 l0-112 l-56,0 L 224,328 z M 392-8L 56-8 L 56,328 l 28,0 l0-140 l 252,0 L 336,328 l 32.803,0 L 392,304.805L 392-8 z"  />
<glyph unicode="&#xe004;" d="M 196,132 L 196-50 L 126,20 L 42-64 L 0-22 L 84,62 L 14,132 ZM 448,342 L 364,258 L 434,188 L 252,188 L 252,370 L 322,300 L 406,384 Z"  />
<glyph unicode="&#xf153;" d="M 244,57.25l 8.75-39.75q 0.75-3 -0.75-5.625t-4.25-3.625l-1.25-0.25q-1-0.5 -2.625-0.875t-4-1.125t-5.375-1.375t-6.375-1.25t-7.5-1.25t-8.375-1.125t-9.125-0.75t-9.625-0.25q-58.5,0 -102.25,32.625t-59.5,87.875l-23.75,0 q-3.25,0 -5.625,2.375t-2.375,5.625l0,28.25 q0,3.25 2.375,5.625t 5.625,2.375l 16.5,0 q-0.5,14.25 0.25,26.25l-16.75,0 q-3.5,0 -5.75,2.25 t-2.25,5.75l0,28.5 q0,3.5 2.25,5.75t 5.75,2.25l 24.5,0 q 16.75,52.5 60.875,84.5t 100.125,32q 25.5,0 48.5-5.75q 2.75-0.75 5-3.75q 1.5-2.75 0.75-6l-10.75-39.75q-0.75-3.25 -3.5-4.875t-6-0.625l-1,0.25q-1,0.25 -2.875,0.625l-4.375,0.875t-5.625,0.875t-6.5,0.75t-7.25,0.625t-7.375,0.25q-31.5,0 -56.5-16t-37.5-44l 117,0 q 4,0 6.25-3q 2.5-3 1.75-6.5 l-6-28.5q-1.25-6.5 -8-6.5l-122,0 q-0.75-9.25 0-26.25l 114.75,0 q 3.75,0 6.25-3q 2.25-3 1.5-6.75l-6-28q-0.5-2.75 -2.75-4.625t-5-1.875l-96.75,0 q 12-29.25 37.375-46.375t 57.125-17.125q 4.5,0 9,0.375t 8.375,0.875t 7.375,1.125t 6.125,1.25t 4.625,1.125l 3,0.75l 1.25,0.5q 3.25,1.25 6.5-0.5q 3-1.75 3.75-5.25z" horiz-adv-x="256"  />
<glyph unicode="&#xe012;" d="M 538.447,313.565l-38.393,0 c-5.3,0-9.597-4.297-9.597-9.598l0-9.598 L 106.544,294.37 
				L 106.544,303.968 c0,5.301-4.298,9.598-9.598,9.598L 58.553,313.565 c-5.3,0-9.598-4.297-9.598-9.598l0-287.934 
				c0-5.302, 4.298-9.599, 9.598-9.599l 38.392,0 c 5.3,0, 9.598,4.297, 9.598,9.599l0,38.388 c0,5.303, 4.297,9.6, 9.597,9.6
				l 364.719,0 c 5.301,0, 9.598-4.297, 9.598-9.6l0-38.388 c0-5.302, 4.297-9.599, 9.597-9.599l 38.393,0 c 5.3,0, 9.597,4.297, 9.597,9.599
				L 548.042,303.968 C 548.044,309.269, 543.747,313.565, 538.447,313.565z M 279.305,198.39L 106.544,198.39 l0,38.391 c0,10.6, 8.593,19.195, 19.195,19.195
				l 134.37,0 c 10.601,0, 19.195-8.595, 19.195-19.195L 279.305,198.39 z M 490.457,198.39L 317.697,198.39 l0,38.391 c0,10.6, 8.594,19.195, 19.194,19.195
				l 134.37,0 c 10.601,0, 19.196-8.595, 19.196-19.195L 490.457,198.39 z" horiz-adv-x="597"  />
<glyph unicode="&#xe011;" d="M 131.45,191.3c 29.954,0, 54.236,24.145, 54.236,53.927c0,29.786-24.281,53.935-54.236,53.935
				c-29.95,0-54.233-24.149-54.233-53.935C 77.216,215.445, 101.498,191.3, 131.45,191.3zM 131.45,245.227M 248.556,260.521l 216.782,0 c 31.804,0, 50.539-20.356, 50.539-47.607l0-78.026 L 248.556,134.888 L 248.556,260.521 L 248.556,260.521zM 189.549,232.601l0-46.798 L 106.201,185.803 c-40.239-0.144-40.305-51.577,0-51.577l 109.27,0 
			c 15.957,0, 25.948,12.807, 25.948,27.294l0,71.081 C 241.417,271.541, 189.549,271.541, 189.549,232.601zM 66.862,305.485c0,42.467-59.251,42.467-59.251,0l0-340.54 l 60.566,0 l0,87.947 L 529.008,52.892 l0-87.285 l 59.25,0 L 588.258,228.628 
			c0,44.817-59.908,44.817-59.908,0l0-104.981 L 66.862,123.646 L 66.862,305.485 L 66.862,305.485L 66.862,305.485z" horiz-adv-x="597"  />
<glyph unicode="&#xe015;" d="M 378,76c-19.758,0-37.59-8.198-50.318-21.363L 139.118,148.919C 139.693,152.529, 140,156.228, 140,160
	s-0.307,7.471-0.882,11.080l 188.564,94.282C 340.41,252.198, 358.243,244, 378,244c 38.66,0, 70,31.34, 70,70S 416.66,384, 378,384
	s-70-31.34-70-70c0-3.772, 0.308-7.471, 0.882-11.080L 120.318,208.637C 107.59,221.801, 89.757,230, 70,230c-38.66,0-70-31.341-70-70
	c0-38.661, 31.34-70, 70-70c 19.758,0, 37.59,8.198, 50.318,21.362l 188.564-94.282C 308.308,13.471, 308,9.772, 308,6
	c0-38.661, 31.34-70, 70-70s 70,31.339, 70,70C 448,44.659, 416.66,76, 378,76z"  />
<glyph unicode="&#xe014;" d="M 448,210.291L 293.221,232.782L 224,373.036l-69.22-140.255L0,210.291l 112-109.173L 85.561-53.036L 224,19.745l 138.439-72.782
	l-26.44,154.154L 448,210.291z"  />
<glyph unicode="&#xe022;" d="M 558.575,171.37l-15.914,0 c0,0-33.16,30.246-103.446,63.128c-70.296,32.882-111.4,39.455-111.4,39.455
			l-23.875,0 L 303.94,297.628 l 23.875,0 l 7.953,15.782l-76.723,0 l 7.891-15.782l 23.673,0 l0-23.673 l-23.673,0 c0,0-40.769-6.573-110.475-39.455
			S 53.877,171.37, 53.877,171.37L 38.094,171.37 l0-7.892 l 520.481,0 L 558.575,171.37 z M 6.529,147.697l0-15.782 l 47.347-7.891c0,0, 73.651-118.367, 165.713-118.367
			l 155.964,0 c 92.835,0, 167.108,118.367, 167.108,118.367L 590.471,131.915l0,15.782 L 6.529,147.697 z" horiz-adv-x="597"  />
<glyph unicode="&#xe01f;" d="M 303.079,72.030l-4.583,0 c-5.060,0-9.163-4.103-9.163-9.158l0-22.908 
			c0-5.060, 4.103-9.158, 9.163-9.158l 4.583,0 c 5.057,0, 9.163,4.099, 9.163,9.158l0,22.908 C 312.243,67.927, 308.136,72.030, 303.079,72.030
			z M 371.795,72.030l-4.582,0 c-5.065,0-9.162-4.103-9.162-9.158l0-22.908 c0-5.060, 4.098-9.158, 9.162-9.158l 4.582,0 
			c 5.056,0, 9.163,4.099, 9.163,9.158l0,22.908 C 380.959,67.927, 376.851,72.030, 371.795,72.030z M 440.51,72.030l-4.582,0 
			c-5.065,0-9.163-4.103-9.163-9.158l0-22.908 c0-5.060, 4.099-9.158, 9.163-9.158l 4.582,0 c 5.056,0, 9.163,4.099, 9.163,9.158l0,22.908 
			C 449.674,67.927, 445.566,72.030, 440.51,72.030z M 234.362,72.030l-4.581,0 c-5.060,0-9.163-4.103-9.163-9.158l0-22.908 
			c0-5.060, 4.103-9.158, 9.163-9.158l 4.581,0 c 5.058,0, 9.161,4.099, 9.161,9.158l0,22.908 
			C 243.523,67.927, 239.42,72.030, 234.362,72.030z M 303.079-5.844l-4.583,0 c-5.060,0-9.163-4.102-9.163-9.162l0-22.909 
			c0-5.056, 4.103-9.158, 9.163-9.158l 4.583,0 c 5.057,0, 9.163,4.103, 9.163,9.158l0,22.909 C 312.243-9.946, 308.136-5.844, 303.079-5.844z
			 M 371.795-5.844l-4.582,0 c-5.065,0-9.162-4.102-9.162-9.162l0-22.909 c0-5.056, 4.098-9.158, 9.162-9.158l 4.582,0 
			c 5.056,0, 9.163,4.103, 9.163,9.158l0,22.909 C 380.959-9.946, 376.851-5.844, 371.795-5.844z M 440.51-5.844l-4.582,0 
			c-5.065,0-9.163-4.102-9.163-9.162l0-22.909 c0-5.056, 4.099-9.158, 9.163-9.158l 4.582,0 c 5.056,0, 9.163,4.103, 9.163,9.158l0,22.909 
			C 449.674-9.946, 445.566-5.844, 440.51-5.844z M 234.362-5.844l-4.581,0 c-5.060,0-9.163-4.102-9.163-9.162l0-22.909 
			c0-5.056, 4.103-9.158, 9.163-9.158l 4.581,0 c 5.058,0, 9.161,4.103, 9.161,9.158l0,22.909 C 243.523-9.946, 239.42-5.844, 234.362-5.844
			z M 362.632,236.951l0,36.647 C 362.632,324.201, 321.612,365.218, 271.010,365.218L 147.32,365.218 l0-50.392 l 114.527,0 c 25.303,0, 45.814-20.513, 45.814-45.809
			l0-32.066 c-48.076,0-87.043-48.298-87.043-96.37l0-31.902 l 229.057,0 l0,31.902 C 449.674,188.652, 410.704,236.951, 362.632,236.951z" horiz-adv-x="597"  />
<glyph unicode="&#xe00b;" d="M 448,298.942c-16.483-7.31-34.197-12.251-52.789-14.473c 18.975,11.375, 33.55,29.387, 40.413,50.851
	c-17.761-10.534-37.431-18.183-58.367-22.304c-16.765,17.863-40.653,29.024-67.089,29.024c-50.76,0-91.913-41.15-91.913-91.909
	c0-7.204, 0.813-14.219, 2.38-20.947c-76.388,3.834-144.113,40.425-189.445,96.034c-7.912-13.575-12.445-29.363-12.445-46.208
	c0-31.889, 16.226-60.022, 40.889-76.504c-15.067,0.478-29.239,4.612-41.63,11.497c-0.009-0.383-0.009-0.768-0.009-1.156
	c0-44.532, 31.683-81.68, 73.728-90.125c-7.711-2.1-15.832-3.225-24.215-3.225c-5.923,0-11.68,0.578-17.293,1.65
	c 11.697-36.514, 45.64-63.090, 85.86-63.829c-31.456-24.653-71.088-39.346-114.151-39.346c-7.419,0-14.735,0.435-21.926,1.286
	c 40.675-26.079, 88.988-41.297, 140.893-41.297c 169.060,0, 261.51,140.054, 261.51,261.513c0,3.985-0.090,7.948-0.267,11.891
	C 420.096,264.324, 435.678,280.511, 448,298.942z"  />
<glyph unicode="&#xe005;" d="M 168,160 L 28,160 L 28,216 L 168,216 L 168,272 L 252,188 L 168,104 ZM 448,384 L 448,20 L 280-64 L 280,20 L 112,20 L 112,132 L 140,132 L 140,48 L 280,48 L 280,300 L 392,356 L 140,356 L 140,244 L 112,244 L 112,384 Z"  />
<glyph unicode="&#xe023;" d="M 478.686,374.547L 118.314,374.547 c-9.257,0-16.762-7.505-16.762-16.762l0-16.762 c0-8.691, 6.615-15.836, 15.086-16.677
			L 116.638-37.785 c0-9.258, 7.504-16.763, 16.762-16.763l 16.762,0 c 9.257,0, 16.762,7.505, 16.762,16.763l0,16.761 c0,7.435, 4.845,13.73, 11.546,15.923
			l 240.063,0 c 6.701-2.194, 11.547-8.489, 11.547-15.923l0-16.761 c0-9.258, 7.505-16.763, 16.762-16.763l 16.762,0 
			c 9.257,0, 16.761,7.505, 16.761,16.763L 480.362,324.346 c 8.47,0.842, 15.087,7.987, 15.087,16.677L 495.449,357.786 C 495.448,367.042, 487.943,374.547, 478.686,374.547z
			 M 282.577,27.585L 149.323,27.585 L 149.323,324.262 L 282.577,324.262 L 282.577,27.585 z M 447.677,27.585L 315.262,27.585 L 315.262,324.262 l 132.415,0 L 447.677,27.585 z M 248.634,126.477l 0.838,0 
			c 8.563,0, 15.504,6.942, 15.504,15.504l0,36.037 c0,8.562-6.941,15.504-15.504,15.504l-0.838,0 c-8.563,0-15.504-6.942-15.504-15.504
			l0-36.037 C 233.131,133.42, 240.071,126.477, 248.634,126.477z M 347.528,126.477l 0.838,0 c 8.562,0, 15.504,6.942, 15.504,15.504l0,36.037 
			c0,8.562-6.942,15.504-15.504,15.504l-0.838,0 c-8.562,0-15.504-6.942-15.504-15.504l0-36.037 
			C 332.024,133.42, 338.966,126.477, 347.528,126.477z" horiz-adv-x="597"  />
<glyph unicode="&#xe006;" d="M 224,348.16C 120.082,348.16, 35.84,263.918, 35.84,160s 84.242-188.16, 188.16-188.16
				c 103.918,0, 188.16,84.242, 188.16,188.16S 327.918,348.16, 224,348.16z M 223.163,323.072c 89.6,0, 162.235-72.635, 162.235-162.235c0-24.794-5.57-48.285-15.515-69.302
				L 89.808,253.236C 119.102,295.436, 167.901,323.072, 223.163,323.072z M 223.163-1.398c-89.6,0-162.235,72.635-162.235,162.235
				c0,25.364, 5.824,49.366, 16.203,70.748l 280.299-161.832C 328.244,26.811, 278.998-1.398, 223.163-1.398zM 169.138,156.267c0-29.296, 23.76-53.041, 53.072-53.041
				c 14.37,0, 27.396,5.715, 36.953,14.985l-88.415,51.047C 169.701,165.102, 169.138,160.749, 169.138,156.267z M 338.002,228.413L 259.965,228.413 
				l0,0.242 l-9.664,9.707c-0.133,5.15-4.258,9.3-9.383,9.435l-0.014,0.011l-38.874,0 c-5.301-0.022-9.582-4.335-9.61-9.659
				l-9.652-9.7l0-0.036 L 147.138,228.413 l 38.247-22.081c 10.272,7.777, 23.016,12.385, 36.824,12.385c 34.021,0, 61.598-27.962, 61.598-62.449
				c0-2.217-0.116-4.407-0.34-6.564l 64.186-37.057l0,106.068 C 347.652,224.071, 343.333,228.413, 338.002,228.413z M 222.208,93.821
				c-34.018,0-61.596,27.961-61.596,62.446c0,6.052, 0.866,11.895, 2.45,17.429L 96.764,211.972l0-119.324 c0-5.353, 4.321-9.695, 9.65-9.695
				l 213.818,0 l-53.074,30.643C 255.921,101.432, 239.943,93.821, 222.208,93.821z M 275.282,156.267c0,29.297-23.755,53.049-53.072,53.049
				c-10.313,0-19.931-2.95-28.075-8.035l 81.102-46.823C 275.257,155.058, 275.282,155.66, 275.282,156.267z"  />
<glyph unicode="&#xe00c;" d="M 251.943-64L 168-64 L 168,160 l-56,0 l0,77.197 l 56,0.025l-0.091,45.479C 167.909,345.68, 184.986,384, 259.171,384l 61.764,0 l0-77.212 l-38.601,0 
	c-28.889,0-30.278-10.787-30.278-30.924l-0.115-38.642l 69.427,0 l-8.183-77.197L 252,160L 251.943-64z"  />
<glyph unicode="&#xe00d;" d="M 244.591,356c0,0-87.918,0-117.224,0C 74.815,356, 25.356,316.185, 25.356,270.065c0-47.13, 35.823-85.166, 89.288-85.166
		c 3.718,0, 7.331,0.074, 10.868,0.329c-3.469-6.644-5.951-14.126-5.951-21.893c0-13.098, 7.045-23.717, 15.955-32.386
		c-6.731,0-13.231-0.196-20.323-0.196C 50.102,130.754,0,89.297,0,46.307c0-42.34, 54.925-68.825, 120.021-68.825
		c 74.21,0, 115.196,42.107, 115.196,84.45c0,33.95-10.017,54.282-40.988,76.184c-10.595,7.5-30.857,25.741-30.857,36.463
		c0,12.565, 3.586,18.755, 22.5,33.533c 19.386,15.148, 33.106,36.445, 33.106,61.213c0,29.49-13.134,58.23-37.788,67.713l 37.167,0 
		L 244.591,356z M 203.648,69.237c 0.93-3.925, 1.437-7.965, 1.437-12.087c0-34.212-22.047-60.948-85.301-60.948
		c-44.993,0-77.488,28.483-77.488,62.694c0,33.531, 40.305,61.444, 85.297,60.958c 10.5-0.111, 20.286-1.801, 29.168-4.677
		C 181.184,98.19, 198.706,88.593, 203.648,69.237z M 131.608,196.848c-30.204,0.903-58.903,33.786-64.117,73.439
		c-5.213,39.666, 15.037,70.018, 45.232,69.121c 30.192-0.907, 58.904-32.731, 64.119-72.388
		C 182.052,227.356, 161.797,195.944, 131.608,196.848zM 364,272L 364,356L 336,356L 336,272L 252,272L 252,244L 336,244L 336,160L 364,160L 364,244L 448,244L 448,272 	z"  />
<glyph unicode="&#xe016;" d="M 478.686,374.547L 118.314,374.547 c-9.257,0-16.762-7.505-16.762-16.762l0-16.762 c0-8.691, 6.615-15.836, 15.086-16.677
			L 116.638-37.785 c0-9.258, 7.504-16.763, 16.762-16.763l 16.762,0 c 9.257,0, 16.762,7.505, 16.762,16.763l0,16.761 c0,7.435, 4.845,13.73, 11.546,15.923
			l 240.063,0 c 6.701-2.194, 11.547-8.489, 11.547-15.923l0-16.761 c0-9.258, 7.505-16.763, 16.762-16.763l 16.762,0 
			c 9.257,0, 16.761,7.505, 16.761,16.763L 480.362,324.346 c 8.47,0.842, 15.087,7.987, 15.087,16.677L 495.449,357.786 C 495.448,367.042, 487.943,374.547, 478.686,374.547z
			 M 282.577,27.585L 149.323,27.585 L 149.323,324.262 L 282.577,324.262 L 282.577,27.585 z M 447.677,27.585L 315.262,27.585 L 315.262,324.262 l 132.415,0 L 447.677,27.585 z M 248.634,126.477l 0.838,0 
			c 8.563,0, 15.504,6.942, 15.504,15.504l0,36.037 c0,8.562-6.941,15.504-15.504,15.504l-0.838,0 c-8.563,0-15.504-6.942-15.504-15.504
			l0-36.037 C 233.131,133.42, 240.071,126.477, 248.634,126.477z M 347.528,126.477l 0.838,0 c 8.562,0, 15.504,6.942, 15.504,15.504l0,36.037 
			c0,8.562-6.942,15.504-15.504,15.504l-0.838,0 c-8.562,0-15.504-6.942-15.504-15.504l0-36.037 
			C 332.024,133.42, 338.966,126.477, 347.528,126.477z" horiz-adv-x="597"  />
<glyph unicode="&#xe018;" d="M 303.079,72.030l-4.583,0 c-5.060,0-9.163-4.103-9.163-9.158l0-22.908 
			c0-5.060, 4.103-9.158, 9.163-9.158l 4.583,0 c 5.057,0, 9.163,4.099, 9.163,9.158l0,22.908 C 312.243,67.927, 308.136,72.030, 303.079,72.030
			z M 371.795,72.030l-4.582,0 c-5.065,0-9.162-4.103-9.162-9.158l0-22.908 c0-5.060, 4.098-9.158, 9.162-9.158l 4.582,0 
			c 5.056,0, 9.163,4.099, 9.163,9.158l0,22.908 C 380.959,67.927, 376.851,72.030, 371.795,72.030z M 440.51,72.030l-4.582,0 
			c-5.065,0-9.163-4.103-9.163-9.158l0-22.908 c0-5.060, 4.099-9.158, 9.163-9.158l 4.582,0 c 5.056,0, 9.163,4.099, 9.163,9.158l0,22.908 
			C 449.674,67.927, 445.566,72.030, 440.51,72.030z M 234.362,72.030l-4.581,0 c-5.060,0-9.163-4.103-9.163-9.158l0-22.908 
			c0-5.060, 4.103-9.158, 9.163-9.158l 4.581,0 c 5.058,0, 9.161,4.099, 9.161,9.158l0,22.908 
			C 243.523,67.927, 239.42,72.030, 234.362,72.030z M 303.079-5.844l-4.583,0 c-5.060,0-9.163-4.102-9.163-9.162l0-22.909 
			c0-5.056, 4.103-9.158, 9.163-9.158l 4.583,0 c 5.057,0, 9.163,4.103, 9.163,9.158l0,22.909 C 312.243-9.946, 308.136-5.844, 303.079-5.844z
			 M 371.795-5.844l-4.582,0 c-5.065,0-9.162-4.102-9.162-9.162l0-22.909 c0-5.056, 4.098-9.158, 9.162-9.158l 4.582,0 
			c 5.056,0, 9.163,4.103, 9.163,9.158l0,22.909 C 380.959-9.946, 376.851-5.844, 371.795-5.844z M 440.51-5.844l-4.582,0 
			c-5.065,0-9.163-4.102-9.163-9.162l0-22.909 c0-5.056, 4.099-9.158, 9.163-9.158l 4.582,0 c 5.056,0, 9.163,4.103, 9.163,9.158l0,22.909 
			C 449.674-9.946, 445.566-5.844, 440.51-5.844z M 234.362-5.844l-4.581,0 c-5.060,0-9.163-4.102-9.163-9.162l0-22.909 
			c0-5.056, 4.103-9.158, 9.163-9.158l 4.581,0 c 5.058,0, 9.161,4.103, 9.161,9.158l0,22.909 C 243.523-9.946, 239.42-5.844, 234.362-5.844
			z M 362.632,236.951l0,36.647 C 362.632,324.201, 321.612,365.218, 271.010,365.218L 147.32,365.218 l0-50.392 l 114.527,0 c 25.303,0, 45.814-20.513, 45.814-45.809
			l0-32.066 c-48.076,0-87.043-48.298-87.043-96.37l0-31.902 l 229.057,0 l0,31.902 C 449.674,188.652, 410.704,236.951, 362.632,236.951z" horiz-adv-x="597"  />
<glyph unicode="&#xe00e;" d="M 406,328L 42,328 C 18.802,328,0,309.198,0,286l0-252 c0-23.184, 18.802-42, 42-42l 364,0 c 23.198,0, 42,18.816, 42,42L 448,286 C 448,309.198, 429.198,328, 406,328z M 38.374,20.14
	L 28.14,30.388l 115.486,115.472l 10.234-10.248L 38.374,20.14z M 409.626,20.14l-115.486,115.472l 10.234,10.248l 115.486-115.472L 409.626,20.14z M 238,113.45
	L 238,104 l-28,0 l0,9.45 L 28.042,282.15l 17.808,17.808L 224,134.786L 402.15,299.958l 17.808-17.808L 238,113.45z"  />
<glyph unicode="&#xe00f;" d="M 308,104c-28-28-28-56-56-56s-56,28-84,56s-56,56-56,84s 28,28, 56,56S 112,356, 84,356S0,272,0,272c0-56, 57.531-169.531, 112-224
	s 168-112, 224-112c0,0, 84,56, 84,84S 336,132, 308,104z"  />
<glyph unicode="&#xe017;" d="M 558.575,171.37l-15.914,0 c0,0-33.16,30.246-103.446,63.128c-70.296,32.882-111.4,39.455-111.4,39.455
			l-23.875,0 L 303.94,297.628 l 23.875,0 l 7.953,15.782l-76.723,0 l 7.891-15.782l 23.673,0 l0-23.673 l-23.673,0 c0,0-40.769-6.573-110.475-39.455
			S 53.877,171.37, 53.877,171.37L 38.094,171.37 l0-7.892 l 520.481,0 L 558.575,171.37 z M 6.529,147.697l0-15.782 l 47.347-7.891c0,0, 73.651-118.367, 165.713-118.367
			l 155.964,0 c 92.835,0, 167.108,118.367, 167.108,118.367L 590.471,131.915l0,15.782 L 6.529,147.697 z" horiz-adv-x="597"  />
<glyph unicode="&#xe021;" d="M 27.572,46.588C 1.194,31.025 -3.567-2.11 2.154-22.213C 7.703-41.709 27.264-64.95 62.463-64.95L 62.541-64.95C 62.541-64.95 516.393-64.95 562.16-64.95C 601.571-64.95 619.543-42.357 625.090-22.861C 630.812-2.759 630.812,28.369 600.299,47.175L 335.712,203.338L 335.712,229.927C 335.712,260.081 302.817,273.172 302.817,273.172C 281.524,283.549 283.431,305.919 283.431,305.919C 283.431,332.181 306.95,340.612 317.435,340.612C 335.043,340.612 352.311,330.848 354.133,308.513C 356.994,273.495 396.671,282.383 396.671,310.517C 396.671,337.103 372.42,383.737 317.118,383.737C 257.338,383.737 240.168,325.286 240.168,306.803C 240.168,292.864 242.371,279.991 250.974,265.301C 265.593,240.335 294.85,236.411 294.85,219.876L 294.85,203.338L 27.572,46.588zM 313.623,163.25L 572.847,11.755C 588.924,0.367 580.216-21.069 562.799-21.105L 63.256-21.105C 46.998-21.738 36.95,1.037 53.027,11.085L 313.623,163.25z" horiz-adv-x="627"  />
<glyph unicode="&#xe010;" d="M 417.111,351.344l-1.762,1.768c-41.19,41.184-108.585,41.184-149.768,0L 170.159,257.678
		c-41.184-41.183-41.184-108.577,0-149.761l 1.761-1.761c 3.426-3.433, 7.064-6.529, 10.822-9.388l 34.934,34.934
		c-4.070,2.404-7.93,5.281-11.426,8.776l-1.768,1.768c-22.362,22.355-22.362,58.744,0,81.108L 299.913,318.779
		c 22.363,22.364, 58.745,22.364, 81.106,0l 1.768-1.76c 22.356-22.363, 22.356-58.753,0-81.108l-43.175-43.175
		c 7.495-18.51, 11.046-38.238, 10.735-57.919l 66.764,66.764C 458.296,242.765, 458.296,310.159, 417.111,351.344zM 276.081,213.841c-3.426,3.426-7.064,6.528-10.822,9.38l-34.934-34.926c 4.071-2.405, 7.93-5.282, 11.426-8.777l 1.768-1.768
		c 22.363-22.363, 22.363-58.744,0-81.107L 148.088,1.209c-22.364-22.357-58.746-22.357-81.107,0l-1.768,1.768
		c-22.355,22.365-22.355,58.746,0,81.107l 43.176,43.175c-7.496,18.509-11.045,38.238-10.735,57.919l-66.763-66.762
		c-41.184-41.183-41.184-108.578,0-149.767l 1.761-1.764c 41.191-41.181, 108.584-41.181, 149.768,0l 95.423,95.427
		c 41.184,41.183, 41.184,108.585,0,149.768L 276.081,213.841z"  />
<glyph unicode="&#xe013;" d="M 223.132-64C 223.132-64, 84,132.868, 84,216.868C 84,382.25, 223.132,384, 223.132,384
	S 364,382.25, 364,217.75C 364,131.132, 223.132-64, 223.132-64z M 224,300c-30.926,0-56-25.074-56-56s 25.074-56, 56-56s 56,25.074, 56,56S 254.926,300, 224,300z"  />
<glyph unicode="&#xe020;" d="M 507.547,200.198L 456.892,318.392
			c-8.799,21.277-19.695,43.998-43.998,43.998L 184.106,362.39 c-24.297,0-34.923-21.62-43.998-43.998L 89.454,200.198
			C 57.584,189.953, 34.514,160.078, 34.514,124.803L 34.514,28.006 l 52.798,0 l0-43.998 c0-14.583, 11.82-26.398, 26.398-26.398l 8.8,0 c 14.578,0, 26.398,11.816, 26.398,26.398
			L 148.909,28.006 L 456.892,28.006 l0-43.998 c0-14.583, 11.825-26.398, 26.398-26.398l 8.8,0 c 14.574,0, 26.398,11.816, 26.398,26.398L 518.489,28.006 L 562.486,28.006 L 562.486,124.803 
			C 562.486,160.078, 539.418,189.952, 507.547,200.198z M 166.507,318.392c0,9.719, 7.88,17.599, 17.599,17.599l 228.787,0 
			c 9.72,0, 17.599-7.88, 17.599-17.599l 35.197-105.594L 131.31,212.797 L 166.507,318.392z M 113.71,89.603c-19.438,0-35.197,15.761-35.197,35.197
			c0,19.439, 15.761,35.197, 35.197,35.197c 19.438,0, 35.197-15.76, 35.197-35.197C 148.908,105.364, 133.148,89.603, 113.71,89.603z
			 M 483.29,89.603c-19.438,0-35.197,15.761-35.197,35.197c0,19.439, 15.76,35.197, 35.197,35.197
			c 19.439,0, 35.197-15.76, 35.197-35.197C 518.488,105.364, 502.729,89.603, 483.29,89.603z" horiz-adv-x="597"  />
<glyph unicode="&#xe01d;" d="M 103.010-1.377l 23.053,0 l0,38.423 l-23.053,0 L 103.010-1.377 z M 471.87-1.377l 23.053,0 l0,38.423 l-23.053,0 L 471.87-1.377 z M 418.078,236.846L 341.233,236.846 
			c-29.538,0-38.423-46.108-38.423-46.108l 153.692,0 C 456.501,190.738, 445.214,236.846, 418.078,236.846z M 294.768,321.377
			c-192.115,0-268.604-69.161-268.604-69.161l0-169.061 l 53.793,0 l0-30.738 l 438.022,0 l0,30.738 l 53.793,0 L 571.771,252.215 
			C 571.77,252.215, 486.879,321.377, 294.768,321.377z M 548.716,113.892l-30.739,0 l0,53.793 L 79.955,167.685 l0-53.793 L 49.218,113.892 L 49.218,237.184 
			c 35.211,20.405, 112.71,53.455, 245.551,53.455c 135.311,0, 217.221-34.235, 253.948-54.528L 548.716,113.892 z M 241.331,236.846l-76.846,0 
			c-29.539,0-38.423-46.108-38.423-46.108l 153.692,0 C 279.755,190.738, 268.468,236.846, 241.331,236.846z" horiz-adv-x="597"  />
<glyph unicode="&#xe009;" d="M 305.301,240.916l-28.416,28.403L 134.781,127.245c-23.544-23.534-23.544-61.709,0-85.244
	c 23.539-23.534, 61.714-23.534, 85.257,0l 170.525,170.497c 39.25,39.227, 39.25,102.84,0,142.068
	c-39.229,39.245-102.861,39.245-142.092,0L 69.418,175.565l 0.015-0.014c-0.127-0.133-0.268-0.252-0.383-0.37
	c-54.732-54.73-54.732-143.437,0-198.146c 54.711-54.712, 143.442-54.712, 198.182,0c 0.12,0.12, 0.226,0.248, 0.359,0.383l 0.014-0.015
	l 122.208,122.19l-28.431,28.402L 239.181,5.818l-0.007,0 c-0.13-0.117-0.247-0.249-0.37-0.369
	c-38.97-38.963-102.366-38.963-141.346,0c-38.965,38.956-38.965,102.341,0,141.303c 0.133,0.133, 0.264,0.255, 0.389,0.37l-0.020,0.026
	l 179.060,179.010c 23.499,23.51, 61.751,23.51, 85.263,0c 23.499-23.509, 23.499-61.752,0-85.243L 191.624,70.422
	c-7.847-7.841-20.586-7.841-28.425,0c-7.829,7.825-7.829,20.576,0,28.402L 305.301,240.916z"  />
<glyph unicode="&#xe008;" d="M 336,384L 84,384 C 68.6,384, 56,371.401, 56,356l0-392 c0-15.4, 12.599-28, 28-28l 252,0 c 15.4,0, 28,12.6, 28,28L 364,356 C 364,371.401, 351.4,384, 336,384z
	 M 210-43.78c-12.028,0-21.78,9.752-21.78,21.78s 9.752,21.78, 21.78,21.78s 21.78-9.752, 21.78-21.78
	S 222.028-43.78, 210-43.78z M 336,20L 84,20 L 84,328 l 252,0 L 336,20 z"  />
<glyph unicode="&#xe01c;" d="M 472.302,192.135c0,17.474-14.147,31.643-31.597,31.643L 295.36,223.779 l0-75.942 L 472.302,147.838 L 472.302,192.135 z M 165.814,211.121
			c 26.176,0, 47.396,21.249, 47.396,47.464S 191.989,306.050, 165.814,306.050c-26.174,0-47.395-21.252-47.395-47.466
			S 139.638,211.121, 165.814,211.121z M 143.695,141.507l 107.429,0 c 13.959,0, 25.277,11.335, 25.277,25.316c0,21.017,0,63.286,0,63.286
			c0,13.98-11.317,25.317-25.277,25.317s-25.279-11.337-25.279-25.317l0-37.973 l-82.15,0 c-13.961,0-25.277-11.332-25.277-25.313
			C 118.419,152.842, 129.734,141.507, 143.695,141.507z M 529.177,223.779c-17.452,0-31.596-14.169-31.596-31.643l0-75.943 L 99.462,116.193 
			l0,158.215 c0,17.476-14.147,31.643-31.598,31.643c-17.448,0-31.595-14.167-31.595-31.643l0-265.8 l 63.194,0 l0,37.97 l 398.119,0 l0-37.97 
			l 63.192,0 L 560.772,192.135 C 560.772,209.609, 546.625,223.779, 529.177,223.779z" horiz-adv-x="597"  />
<glyph unicode="&#xe01b;" d="M 319.177,157.042l0,73.244 l-8.417,0 l0-73.244 L 319.177,157.042 z M 273.329,159.825
			l 22.979,70.462l-8.097,1.997l-22.981-70.462L 273.329,159.825z M 257.51,229.009l-7.874,2.595l-29.797-68.504l 7.874-2.592
			L 257.51,229.009z M 358.739,157.079l 8.017,2.017l-22.744,71.129l-8.015-2.019L 358.739,157.079z M 374.392,226.916l 29.493-69.149
			l 7.792,2.619l-29.491,69.15L 374.392,226.916z M 319.933,282.549c-78.485,0-83.498-33.467-83.498-33.467l 158.648,0 
			C 395.081,249.081, 385.765,282.549, 319.933,282.549z M 336.632,324.385l 125.248,0 L 461.88,165.84 l 41.749,0 c0,0,0,115.342,0,158.546
			c0,43.205-41.749,41.836-41.749,41.836s-58.521,0-108.547,0c-50.029,0-50.1-25.102-50.1-25.102l0-41.834 l 33.401,0 L 336.633,324.385 z
			 M 89.847,24.464c0,0, 22.356-71.275, 116.293-71.514c 63.97-0.161, 152.717-0.085, 186.588,0
			c 93.936,0.239, 116.293,71.57, 116.293,71.57s 4.524,9.036, 6.618,32.090L 83.229,56.61 C 85.321,33.545, 89.847,24.464, 89.847,24.464z
			 M 542.294,136.577L 58.054,136.577 c0,0-26.655-3.674-26.655-37.631c0-27.202, 16.289-24.565, 16.289-24.565l 503.489,0.030
			c0,0, 16.29-2.635, 16.29,24.554C 567.467,132.904, 542.294,136.577, 542.294,136.577z" horiz-adv-x="597"  />
<glyph unicode="&#xe007;" d="M 28,132 L 196,132 L 196-36 L 135.511,24.489 L 47.136-63.886 L 0.114-16.864 L 88.489,71.511 ZM 359.511,71.511 L 447.886-16.864 L 400.864-63.886 L 312.489,24.489 L 252-36 L 252,132 L 420,132 ZM 420,188 L 252,188 L 252,356 L 312.489,295.511 L 400.864,383.886 L 447.886,336.864 L 359.511,248.489 ZM 135.511,295.511 L 196,356 L 196,188 L 28,188 L 88.489,248.489 L 0.114,336.864 L 47.136,383.886 Z"  />
<glyph unicode="&#xe019;" d="M 448,384 L 448,216 L 387.511,276.489 L 294.761,183.739 L 247.739,230.761 L 340.489,323.511 L 280,384 ZM 107.511,323.511 L 200.261,230.761 L 153.239,183.739 L 60.489,276.489 L 0,216 L 0,384 L 168,384 ZM 387.511,43.511 L 448,104 L 448-64 L 280-64 L 340.489-3.511 L 247.739,89.239 L 294.761,136.261 ZM 200.261,89.239 L 107.511-3.511 L 168-64 L 0-64 L 0,104 L 60.489,43.511 L 153.239,136.261 Z"  />
<glyph unicode="&#xe01a;" d="M 191.99,262.061l-42.977,0 l0,14.325 l 5.73,0 
			c 0.791,0, 1.433,0.641, 1.433,1.433L 156.175,296.443 c0,0.792-0.642,1.433-1.433,1.433l-25.787,0 c-0.791,0-1.433-0.641-1.433-1.433l0-18.624 
			c0-0.792, 0.642-1.433, 1.433-1.433l 5.73,0 l0-14.325 l-14.326,0 L 120.36,305.037 c0,0, 22.607,22.607, 57.304,28.651
			c 8.105,1.412, 15.28,2.566, 21.489,3.5l0-9.23 c0-0.792, 0.642-1.433, 1.433-1.433l 25.787,0 c 0.791,0, 1.433,0.641, 1.433,1.433l0,27.22 
			c0,0-39.395,7.387-71.63-7.163c-32.233-14.55-57.303-29.547-57.303-42.977c0-9.401,0-42.977,0-42.977L 84.546,262.060 l0,14.325 l 5.73,0 
			c 0.791,0, 1.433,0.641, 1.433,1.433L 91.709,296.443 c0,0.792-0.642,1.433-1.433,1.433L 64.49,297.875 c-0.791,0-1.433-0.641-1.433-1.433l0-18.624 
			c0-0.792, 0.642-1.433, 1.433-1.433l 5.73,0 l0-14.325 L 55.894,262.061 l0-21.489 l 136.095,0 L 191.99,262.061 z M 542.972,197.594l 35.814,0 l0,28.651 L 20.080,226.246 l0-28.651 
			l 28.651,0 c0,0, 2.388-36.413, 28.651-93.118s 50.14-71.629, 50.14-71.629l-28.651-50.141l 50.14,0 l 21.489,50.141l 315.167,0 l 14.325-50.141
			l 50.141,0 l-28.651,64.466c0,0-5.968-2.984, 7.163,42.977C 541.777,136.112, 542.972,197.594, 542.972,197.594z M 121.896,90.241
			c-10.122,15.804-21.399,35.669-30.188,57.214c-13.026,31.932-14.325,50.14-14.325,50.14s 26.264,0, 35.814,0
			c 5.438-37.726, 20.933-78.884, 33.274-107.354L 121.896,90.241 z M 147.58,54.425c0,0-6.761,8.083-16.111,21.489l 21.413,0 
			c 6.138-13.294, 10.456-21.489, 10.456-21.489L 147.58,54.425 z M 514.319,68.662l-7.163,0 L 507.156,197.594 l 21.489,0 
			C 528.646,197.594, 528.049,102.088, 514.319,68.662z" horiz-adv-x="597"  />
<glyph unicode="&#xf154;" d="M 255,99.75l0-91.75 q0-3.5 -2.25-5.75t-5.75-2.25l-239,0 q-3.5,0 -5.75,2.25t-2.25,5.75l0,37.5 q0,3.25 2.375,5.625t 5.625,2.375l 24.25,0 l0,95.75 l-23.75,0 q-3.5,0 -5.75,2.375t-2.25,5.625l0,32.75 q0,3.5 2.25,5.75t 5.75,2.25l 23.75,0 l0,55.75 q0,42.75 30.875,70.5t 78.625,27.75q 46.25,0 83.75-31.25q 2.25-2 2.5-5.125t-1.75-5.625l-25.75-31.75q-2.25-2.75 -5.5-3q-3.25-0.5 -5.75,1.75 q-1.25,1.25 -6.5,4.75t-17.25,8t-23.25,4.5q-21.25,0 -34.25-11.75t-13-30.75l0-53.75 l 76.25,0 q 3.25,0 5.625-2.25t 2.375-5.75l0-32.75 q0-3.25 -2.375-5.625t-5.625-2.375l-76.25,0 l0-94.75 l 103.5,0 l0,45.25 q0,3.25 2.25,5.625t 5.75,2.375l 40.5,0 q 3.5,0 5.75-2.375t 2.25-5.625z" horiz-adv-x="256"  />
<glyph unicode="&#xe01e;" d="M 448,384 L 448,202 L 378,272 L 294,188 L 252,230 L 336,314 L 266,384 ZM 196,90 L 112,6 L 182-64 L 0-64 L 0,118 L 70,48 L 154,132 Z"  />
<glyph unicode="&#xe024;" d="M 103.010-1.377l 23.053,0 l0,38.423 l-23.053,0 L 103.010-1.377 z M 471.87-1.377l 23.053,0 l0,38.423 l-23.053,0 L 471.87-1.377 z M 418.078,236.846L 341.233,236.846 
			c-29.538,0-38.423-46.108-38.423-46.108l 153.692,0 C 456.501,190.738, 445.214,236.846, 418.078,236.846z M 294.768,321.377
			c-192.115,0-268.604-69.161-268.604-69.161l0-169.061 l 53.793,0 l0-30.738 l 438.022,0 l0,30.738 l 53.793,0 L 571.771,252.215 
			C 571.77,252.215, 486.879,321.377, 294.768,321.377z M 548.716,113.892l-30.739,0 l0,53.793 L 79.955,167.685 l0-53.793 L 49.218,113.892 L 49.218,237.184 
			c 35.211,20.405, 112.71,53.455, 245.551,53.455c 135.311,0, 217.221-34.235, 253.948-54.528L 548.716,113.892 z M 241.331,236.846l-76.846,0 
			c-29.539,0-38.423-46.108-38.423-46.108l 153.692,0 C 279.755,190.738, 268.468,236.846, 241.331,236.846z" horiz-adv-x="597"  />
<glyph unicode="&#xe025;" d="M 472.302,192.135c0,17.474-14.147,31.643-31.597,31.643L 295.36,223.779 l0-75.942 L 472.302,147.838 L 472.302,192.135 z M 165.814,211.121
			c 26.176,0, 47.396,21.249, 47.396,47.464S 191.989,306.050, 165.814,306.050c-26.174,0-47.395-21.252-47.395-47.466
			S 139.638,211.121, 165.814,211.121z M 143.695,141.507l 107.429,0 c 13.959,0, 25.277,11.335, 25.277,25.316c0,21.017,0,63.286,0,63.286
			c0,13.98-11.317,25.317-25.277,25.317s-25.279-11.337-25.279-25.317l0-37.973 l-82.15,0 c-13.961,0-25.277-11.332-25.277-25.313
			C 118.419,152.842, 129.734,141.507, 143.695,141.507z M 529.177,223.779c-17.452,0-31.596-14.169-31.596-31.643l0-75.943 L 99.462,116.193 
			l0,158.215 c0,17.476-14.147,31.643-31.598,31.643c-17.448,0-31.595-14.167-31.595-31.643l0-265.8 l 63.194,0 l0,37.97 l 398.119,0 l0-37.97 
			l 63.192,0 L 560.772,192.135 C 560.772,209.609, 546.625,223.779, 529.177,223.779z" horiz-adv-x="597"  />
<glyph unicode="&#xe026;" d="M 191.99,262.061l-42.977,0 l0,14.325 l 5.73,0 
			c 0.791,0, 1.433,0.641, 1.433,1.433L 156.175,296.443 c0,0.792-0.642,1.433-1.433,1.433l-25.787,0 c-0.791,0-1.433-0.641-1.433-1.433l0-18.624 
			c0-0.792, 0.642-1.433, 1.433-1.433l 5.73,0 l0-14.325 l-14.326,0 L 120.36,305.037 c0,0, 22.607,22.607, 57.304,28.651
			c 8.105,1.412, 15.28,2.566, 21.489,3.5l0-9.23 c0-0.792, 0.642-1.433, 1.433-1.433l 25.787,0 c 0.791,0, 1.433,0.641, 1.433,1.433l0,27.22 
			c0,0-39.395,7.387-71.63-7.163c-32.233-14.55-57.303-29.547-57.303-42.977c0-9.401,0-42.977,0-42.977L 84.546,262.060 l0,14.325 l 5.73,0 
			c 0.791,0, 1.433,0.641, 1.433,1.433L 91.709,296.443 c0,0.792-0.642,1.433-1.433,1.433L 64.49,297.875 c-0.791,0-1.433-0.641-1.433-1.433l0-18.624 
			c0-0.792, 0.642-1.433, 1.433-1.433l 5.73,0 l0-14.325 L 55.894,262.061 l0-21.489 l 136.095,0 L 191.99,262.061 z M 542.972,197.594l 35.814,0 l0,28.651 L 20.080,226.246 l0-28.651 
			l 28.651,0 c0,0, 2.388-36.413, 28.651-93.118s 50.14-71.629, 50.14-71.629l-28.651-50.141l 50.14,0 l 21.489,50.141l 315.167,0 l 14.325-50.141
			l 50.141,0 l-28.651,64.466c0,0-5.968-2.984, 7.163,42.977C 541.777,136.112, 542.972,197.594, 542.972,197.594z M 121.896,90.241
			c-10.122,15.804-21.399,35.669-30.188,57.214c-13.026,31.932-14.325,50.14-14.325,50.14s 26.264,0, 35.814,0
			c 5.438-37.726, 20.933-78.884, 33.274-107.354L 121.896,90.241 z M 147.58,54.425c0,0-6.761,8.083-16.111,21.489l 21.413,0 
			c 6.138-13.294, 10.456-21.489, 10.456-21.489L 147.58,54.425 z M 514.319,68.662l-7.163,0 L 507.156,197.594 l 21.489,0 
			C 528.646,197.594, 528.049,102.088, 514.319,68.662z" horiz-adv-x="597"  />
<glyph unicode="&#xe027;" d="M 399.043,189.217l-48.696,0 L 350.348,315.826 l-68.174,68.174L 28.956,384 C 12.819,384,-0.261,370.92,-0.261,354.783l0-389.565 c0-16.138, 13.080-29.217, 29.217-29.217l 292.174,0 
			c 16.128,0, 29.217,13.080, 29.217,29.217l0,58.435 l 48.696,0 c 16.128,0, 29.217,13.080, 29.217,29.217L 428.261,160 C 428.261,176.138, 415.181,189.217, 399.043,189.217z M 321.13-34.783L 28.956-34.783 L 28.956,354.783 l 233.739,0 l0-58.435 l 58.435,0 l0-107.13 L 145.826,189.217 c-16.138,0-29.217-13.080-29.217-29.217l0-107.13 
			c0-16.138, 13.080-29.217, 29.217-29.217l 175.304,0 L 321.13-34.783 zM 197.054,80.412l 37.496,53.965l0,0.467 l-33.99,0 l0,14.716 l 57.12,0 l0-10.275 l-36.687-53.263l0-0.477 l 37.262,0 l0-14.716 L 197.054,70.829 L 197.054,80.412 zM 287.374,149.56l0-78.721 L 269.513,70.838 l0,78.721 L 287.374,149.56 zM 302.821,148.508c 5.483,0.935, 13.43,1.636, 24.065,1.636c 10.976,0, 18.806-2.104, 24.065-6.301
		c 5.025-3.974, 8.405-10.509, 8.405-18.222c0-7.83-2.571-14.375-7.246-18.689c-6.067-5.727-15.066-8.405-25.458-8.405
		c-2.454,0-4.558,0.224-6.194,0.341l0-28.029 L 302.821,70.838 L 302.821,148.508 z M 320.449,112.658c 1.286-0.234, 3.389-0.351, 5.951-0.351
		c 9.466,0, 15.3,4.782, 15.3,12.739c0,7.353-4.899,11.677-14.131,11.677c-3.496,0-5.843-0.351-7.119-0.594L 320.449,112.658 z" horiz-adv-x="428"  />
<glyph unicode="&#xe031;" d="M 224.624,242.496l-34.608,8.88l 37.552-89.712l 33.632-118.288l 42.56-83.792l-32.64-17.728
	l-47.472,83.776l-45.472,88.72L 127.36,50.176l-5.664-113.024l-35.152-1.12L 86.16,71.968l 48.48,74.928l-17.808,74.896l-33.968-24.4l-69.888-25.872
	L 0.256,197.968l 76.304,38.656l 25.44,53.2L 117.824,306.576l 28.688,8.88l 34.608-4.928l 76.176-44.16l 23.696-82.032l-28.672-10.832L 224.624,242.496z
	 M 115.088,318.032c-18.256,0-33.088,14.752-33.088,32.992C 81.984,369.232, 96.816,384, 115.088,384c 18.272,0, 33.088-14.768, 33.088-32.992
	C 148.176,332.784, 133.36,318.032, 115.088,318.032z" horiz-adv-x="304"  />
<glyph unicode="&#xe032;" d="M 319.177,157.042l0,73.244 l-8.417,0 l0-73.244 L 319.177,157.042 z M 273.329,159.825
			l 22.979,70.462l-8.097,1.997l-22.981-70.462L 273.329,159.825z M 257.51,229.009l-7.874,2.595l-29.797-68.504l 7.874-2.592
			L 257.51,229.009z M 358.739,157.079l 8.017,2.017l-22.744,71.129l-8.015-2.019L 358.739,157.079z M 374.392,226.916l 29.493-69.149
			l 7.792,2.619l-29.491,69.15L 374.392,226.916z M 319.933,282.549c-78.485,0-83.498-33.467-83.498-33.467l 158.648,0 
			C 395.081,249.081, 385.765,282.549, 319.933,282.549z M 336.632,324.385l 125.248,0 L 461.88,165.84 l 41.749,0 c0,0,0,115.342,0,158.546
			c0,43.205-41.749,41.836-41.749,41.836s-58.521,0-108.547,0c-50.029,0-50.1-25.102-50.1-25.102l0-41.834 l 33.401,0 L 336.633,324.385 z
			 M 89.847,24.464c0,0, 22.356-71.275, 116.293-71.514c 63.97-0.161, 152.717-0.085, 186.588,0
			c 93.936,0.239, 116.293,71.57, 116.293,71.57s 4.524,9.036, 6.618,32.090L 83.229,56.61 C 85.321,33.545, 89.847,24.464, 89.847,24.464z
			 M 542.294,136.577L 58.054,136.577 c0,0-26.655-3.674-26.655-37.631c0-27.202, 16.289-24.565, 16.289-24.565l 503.489,0.030
			c0,0, 16.29-2.635, 16.29,24.554C 567.467,132.904, 542.294,136.577, 542.294,136.577z" horiz-adv-x="597"  />
<glyph unicode="&#xe033;" d="M 399.043,189.217l-48.696,0 L 350.348,315.826 l-68.174,68.174L 28.956,384 C 12.819,384,-0.261,370.92,-0.261,354.783l0-389.565 c0-16.138, 13.080-29.217, 29.217-29.217l 292.174,0 
			c 16.128,0, 29.217,13.080, 29.217,29.217l0,58.435 l 48.696,0 c 16.128,0, 29.217,13.080, 29.217,29.217L 428.261,160 C 428.261,176.138, 415.181,189.217, 399.043,189.217z M 321.13-34.783L 28.956-34.783 L 28.956,354.783 l 233.739,0 l0-58.435 l 58.435,0 l0-107.13 L 145.826,189.217 c-16.138,0-29.217-13.080-29.217-29.217l0-107.13 
			c0-16.138, 13.080-29.217, 29.217-29.217l 175.304,0 L 321.13-34.783 zM 193.090,134.61l-21.144,0 l0,14.959 l 60.509,0 l0-14.959 l-21.494,0 l0-63.772 l-17.871,0 L 193.090,134.61 zM 285.524,70.838l-7.129,14.258c-2.922,5.483-4.792,9.564-7.002,14.131l-0.234,0 
		c-1.636-4.568-3.623-8.658-6.077-14.131l-6.545-14.258l-20.316,0 l 22.77,39.833l-21.952,38.898l 20.433,0 l 6.905-14.365
		c 2.328-4.792, 4.081-8.648, 5.951-13.089l 0.224,0 c 1.86,5.025, 3.389,8.531, 5.376,13.089l 6.662,14.365l 20.326,0 l-22.195-38.431l 23.364-40.301
		L 285.524,70.838 zM 331.58,134.61l-21.144,0 l0,14.959 l 60.509,0 l0-14.959 l-21.494,0 l0-63.772 l-17.871,0 L 331.58,134.61 z" horiz-adv-x="428"  />
<glyph unicode="&#xe034;" d="M-5,160l 112,0 l 37.333-112l 112,336l 46.667,0 L 144.334-64L 69.667,122.667L-5,122.667 L-5,160 z" horiz-adv-x="298"  />
<glyph unicode="&#xe035;" d="M 399.043,189.217l-48.696,0 L 350.348,315.826 l-68.174,68.174L 28.956,384 C 12.819,384,-0.261,370.92,-0.261,354.783l0-389.565 c0-16.138, 13.080-29.217, 29.217-29.217l 292.174,0 
			c 16.128,0, 29.217,13.080, 29.217,29.217l0,58.435 l 48.696,0 c 16.128,0, 29.217,13.080, 29.217,29.217L 428.261,160 C 428.261,176.138, 415.181,189.217, 399.043,189.217z M 321.13-34.783L 28.956-34.783 L 28.956,354.783 l 233.739,0 l0-58.435 l 58.435,0 l0-107.13 L 145.826,189.217 c-16.138,0-29.217-13.080-29.217-29.217l0-107.13 
			c0-16.138, 13.080-29.217, 29.217-29.217l 175.304,0 L 321.13-34.783 zM 165.246,138.769c 6.545,1.042, 15.066,1.636, 24.065,1.636c 14.95,0, 24.65-2.678, 32.237-8.405
		c 8.181-6.077, 13.313-15.768, 13.313-29.675c0-15.066-5.483-25.458-13.080-31.876c-8.298-6.895-20.91-10.168-36.327-10.168
		c-9.223,0-15.768,0.584-20.209,1.169L 165.246,138.769 z M 183.117,74.539c 1.519-0.36, 3.974-0.36, 6.194-0.36c 16.118-0.117, 26.637,8.765, 26.637,27.571
		c 0.117,16.352-9.466,24.991-24.767,24.991c-3.974,0-6.545-0.351-8.064-0.691L 183.117,74.539 zM 318.666,100.572c0-26.403-17.404-40.768-38.547-40.768c-22.663,0-37.135,16.469-37.135,40.057
		c0,24.416, 15.534,41.235, 38.655,41.235C 305.46,141.106, 318.666,123.595, 318.666,100.572z M 261.77,100.348c0-14.726, 6.778-26.403, 19.040-26.403
		c 12.622,0, 19.040,12.145, 19.040,26.403c0,13.313-5.843,26.627-18.913,26.627C 268.422,126.975, 261.77,114.937, 261.77,100.348zM 388.204,63.31c-3.272-1.636-10.635-3.496-20.209-3.496c-27.211,0-41.226,17.053-41.226,39.482
		c0,26.87, 19.157,41.703, 42.989,41.703c 9.223,0, 16.225-1.753, 19.381-3.389l-3.613-14.131c-3.633,1.519-8.658,2.922-14.95,2.922
		c-14.131,0-25.117-8.522-25.117-26.042c0-15.768, 9.35-25.702, 25.234-25.702c 5.366,0, 11.327,1.159, 14.833,2.571L 388.204,63.31z" horiz-adv-x="428"  />
<glyph unicode="&#xe036;" d="M 47.010,383.373l0-358.415 l 107.52,0 l0-89.6 l 161.28,89.6L 315.81,383.373 L 47.010,383.373 z M 190.37,114.573
			c-9.901,0-17.92,8.019-17.92,17.92c0,9.916, 8.019,17.935, 17.92,17.935c 9.916,0, 17.935-8.019, 17.935-17.935
			C 208.305,122.592, 200.271,114.573, 190.37,114.573z M 154.53,293.773l0-232.96 L 82.85,60.813 L 82.85,347.533 l 168.448,0 L 154.53,293.773z"  />
<glyph unicode="&#xe037;" d="M 264.044,316.062c0,25.562-20.766,46.302-46.328,46.302l-120.38,0 
			c-25.562,0-46.328-20.74-46.328-46.302L 13.981,103.104c0-25.562, 20.766-46.328, 46.328-46.328l 194.432,0 c 25.562,0, 46.328,20.766, 46.328,46.328
			L 264.044,316.062z M 134.362,343.838l 55.552,0 l0-37.052 l-55.552,0 L 134.362,343.838 z M 106.559,75.328c-15.337,0-27.776,12.386-27.776,27.776c0,15.337, 12.439,27.776, 27.776,27.776
			c 15.39,0, 27.776-12.439, 27.776-27.776C 134.362,87.74, 121.949,75.328, 106.559,75.328z M 208.439,75.328c-15.39,0-27.776,12.386-27.776,27.776
			c0,15.337, 12.386,27.776, 27.776,27.776c 15.337,0, 27.776-12.439, 27.776-27.776C 236.243,87.74, 223.778,75.328, 208.439,75.328z M 41.783,158.656l 27.776,129.63l 175.932,0 
			l 27.776-129.63L 41.783,158.656 z M 208.439,29l 9.224-27.776l-120.38,0 l 9.224,27.776l-27.776,0 L 41.783-45.052l 46.328,0 l 9.224,18.5l 129.604,0 l 9.276-18.5l 46.276,0 
			l-46.276,74.052L 208.439,29 z" horiz-adv-x="316"  />
<glyph unicode="&#xe038;" d="M 399.043,189.217l-48.696,0 L 350.348,315.826 l-68.174,68.174L 28.956,384 C 12.819,384,-0.261,370.92,-0.261,354.783l0-389.565 c0-16.138, 13.080-29.217, 29.217-29.217l 292.174,0 
			c 16.128,0, 29.217,13.080, 29.217,29.217l0,58.435 l 48.696,0 c 16.128,0, 29.217,13.080, 29.217,29.217L 428.261,160 C 428.261,176.138, 415.181,189.217, 399.043,189.217z M 321.13-34.783L 28.956-34.783 L 28.956,354.783 l 233.739,0 l0-58.435 l 58.435,0 l0-107.13 L 145.826,189.217 c-16.138,0-29.217-13.080-29.217-29.217l0-107.13 
			c0-16.138, 13.080-29.217, 29.217-29.217l 175.304,0 L 321.13-34.783 zM 234.861,100.971c-0.351,9.457-0.701,20.9-0.701,32.353l-0.351,0 c-2.454-10.041-5.843-21.494-8.755-30.61
		l-9.574-30.61l-14.015,0 l-8.298,30.367c-2.571,9.35-5.259,20.55-7.119,30.844l-0.234,0 c-0.467-10.635-0.818-22.79-1.402-32.597l-1.402-29.899
		l-16.469,0 l 5.025,78.721l 23.715,0 l 7.713-26.276c 2.571-8.999, 4.909-19.274, 6.662-28.516l 0.351,0 c 2.221,9.116, 4.782,19.858, 7.48,28.623
		l 8.405,26.159l 23.247,0 l 4.324-78.721l-17.404,0 L 234.861,100.971zM 267.156,148.508c 5.493,0.935, 13.43,1.636, 24.065,1.636c 10.976,0, 18.816-2.104, 24.065-6.301
		c 5.025-3.974, 8.405-10.509, 8.405-18.222c0-7.83-2.571-14.375-7.236-18.689c-6.077-5.727-15.076-8.405-25.458-8.405
		c-2.454,0-4.568,0.224-6.204,0.341l0-28.029 l-17.638,0 L 267.156,148.508 z M 284.784,112.658c 1.295-0.234, 3.389-0.351, 5.96-0.351
		c 9.466,0, 15.3,4.782, 15.3,12.739c0,7.353-4.909,11.677-14.131,11.677c-3.506,0-5.843-0.351-7.129-0.594L 284.784,112.658 zM 335.398,88.242c 3.155-1.636, 10.401-4.665, 17.647-4.665c 9.223,0, 13.898,4.431, 13.898,10.158
		c0,7.48-7.48,10.859-15.29,10.859l-7.246,0 l0,12.739 l 6.886,0 c 5.96,0.117, 13.567,2.328, 13.567,8.755c0,4.558-3.75,7.937-11.219,7.937
		c-6.184,0-12.729-2.688-15.885-4.558l-3.613,12.846c 4.548,2.922, 13.654,5.727, 23.471,5.727c 16.235,0, 25.224-8.531, 25.224-18.913
		c0-8.064-4.548-14.375-13.898-17.647l0-0.234 c 9.116-1.636, 16.469-8.522, 16.469-18.456c0-13.43-11.804-23.247-31.068-23.247
		c-9.817,0-18.105,2.571-22.536,5.376L 335.398,88.242z" horiz-adv-x="428"  />
<glyph unicode="&#xe039;" d="M 399.043,189.217l-48.696,0 L 350.348,315.826 l-68.174,68.174L 28.956,384 C 12.819,384,-0.261,370.92,-0.261,354.783l0-389.565 c0-16.138, 13.080-29.217, 29.217-29.217l 292.174,0 
			c 16.128,0, 29.217,13.080, 29.217,29.217l0,58.435 l 48.696,0 c 16.128,0, 29.217,13.080, 29.217,29.217L 428.261,160 C 428.261,176.138, 415.181,189.217, 399.043,189.217z M 321.13-34.783L 28.956-34.783 L 28.956,354.783 l 233.739,0 l0-58.435 l 58.435,0 l0-107.13 L 145.826,189.217 c-16.138,0-29.217-13.080-29.217-29.217l0-107.13 
			c0-16.138, 13.080-29.217, 29.217-29.217l 175.304,0 L 321.13-34.783 zM 179.358,148.508c 5.493,0.935, 13.43,1.636, 24.065,1.636c 10.986,0, 18.806-2.104, 24.065-6.301
		c 5.025-3.974, 8.405-10.509, 8.405-18.222c0-7.83-2.571-14.375-7.236-18.689c-6.077-5.727-15.066-8.405-25.468-8.405
		c-2.445,0-4.548,0.224-6.184,0.341l0-28.029 l-17.638,0 L 179.368,148.508 z M 196.995,112.658c 1.286-0.234, 3.389-0.351, 5.96-0.351
		c 9.457,0, 15.29,4.782, 15.29,12.739c0,7.353-4.899,11.677-14.131,11.677c-3.496,0-5.834-0.351-7.119-0.594L 196.995,112.658 zM 247.259,148.508c 6.545,1.042, 15.076,1.636, 24.065,1.636c 14.95,0, 24.65-2.678, 32.246-8.405
		c 8.181-6.077, 13.313-15.768, 13.313-29.675c0-15.066-5.483-25.458-13.089-31.876c-8.298-6.895-20.9-10.168-36.317-10.168
		c-9.223,0-15.768,0.584-20.209,1.169L 247.269,148.508 z M 265.13,84.278c 1.51-0.36, 3.964-0.36, 6.184-0.36c 16.128-0.117, 26.627,8.765, 26.627,27.571
		c 0.127,16.352-9.457,24.991-24.757,24.991c-3.964,0-6.545-0.351-8.054-0.691L 265.13,84.278 zM 328.6,149.56l 48.121,0 l0-14.589 l-30.25,0 l0-17.998 l 28.263,0 l0-14.482 l-28.263,0 l0-31.652 l-17.871,0 L 328.6,149.56 z" horiz-adv-x="428"  />
<glyph unicode="&#xe03a;" d="M 399.043,189.217l-48.696,0 L 350.348,315.826 l-68.174,68.174L 28.956,384 C 12.819,384,-0.261,370.92,-0.261,354.783l0-389.565 c0-16.138, 13.080-29.217, 29.217-29.217l 292.174,0 
			c 16.128,0, 29.217,13.080, 29.217,29.217l0,58.435 l 48.696,0 c 16.128,0, 29.217,13.080, 29.217,29.217L 428.261,160 C 428.261,176.138, 415.181,189.217, 399.043,189.217z M 321.13-34.783L 28.956-34.783 L 28.956,354.783 l 233.739,0 l0-58.435 l 58.435,0 l0-107.13 L 145.826,189.217 c-16.138,0-29.217-13.080-29.217-29.217l0-107.13 
			c0-16.138, 13.080-29.217, 29.217-29.217l 175.304,0 L 321.13-34.783 zM 173.855,148.508c 5.727,0.935, 14.248,1.636, 23.715,1.636c 11.687,0, 19.858-1.753, 25.468-6.194
		c 4.665-3.74, 7.236-9.223, 7.236-16.459c0-10.051-7.119-16.946-13.898-19.4l0-0.341 c 5.483-2.23, 8.522-7.48, 10.509-14.726
		c 2.445-8.872, 4.899-19.157, 6.418-22.186l-18.222,0 c-1.286,2.221-3.146,8.648-5.483,18.339c-2.104,9.817-5.483,12.495-12.729,12.622l-5.376,0 
		l0-30.961 l-17.638,0 L 173.855,148.508 z M 191.493,114.635l 7.012,0 c 8.882,0, 14.131,4.441, 14.131,11.336c0,7.236-4.899,10.859-13.080,10.976
		c-4.324,0-6.778-0.341-8.064-0.584L 191.493,114.635 zM 262.549,91.047l-5.61-20.209l-18.456,0 l 24.065,78.721l 23.354,0 l 24.416-78.721l-19.157,0 l-6.077,20.209L 262.549,91.047 z
		 M 282.524,104.36l-4.909,16.703c-1.402,4.665-2.795,10.509-3.964,15.183L 273.409,136.246 c-1.159-4.665-2.328-10.625-3.613-15.183l-4.675-16.703L 282.524,104.36 
		zM 320.877,148.508c 5.727,0.935, 14.258,1.636, 23.715,1.636c 11.677,0, 19.858-1.753, 25.468-6.194
		c 4.665-3.74, 7.236-9.223, 7.236-16.459c0-10.051-7.119-16.946-13.898-19.4l0-0.341 c 5.483-2.23, 8.522-7.48, 10.509-14.726
		c 2.445-8.872, 4.899-19.157, 6.418-22.186l-18.222,0 c-1.286,2.221-3.146,8.648-5.483,18.339c-2.104,9.817-5.483,12.495-12.739,12.622l-5.366,0 
		l0-30.961 l-17.647,0 L 320.867,148.508 z M 338.524,114.635l 7.002,0 c 8.882,0, 14.131,4.441, 14.131,11.336c0,7.236-4.909,10.859-13.080,10.976
		c-4.324,0-6.778-0.341-8.054-0.584L 338.524,114.635 z" horiz-adv-x="428"  />
<glyph unicode="&#xe03b;" d="M 399.043,189.217l-48.696,0 L 350.348,315.826 l-68.174,68.174L 28.956,384 C 12.819,384,-0.261,370.92,-0.261,354.783l0-389.565 c0-16.138, 13.080-29.217, 29.217-29.217l 292.174,0 
			c 16.128,0, 29.217,13.080, 29.217,29.217l0,58.435 l 48.696,0 c 16.128,0, 29.217,13.080, 29.217,29.217L 428.261,160 C 428.261,176.138, 415.181,189.217, 399.043,189.217z M 321.13-34.783L 28.956-34.783 L 28.956,354.783 l 233.739,0 l0-58.435 l 58.435,0 l0-107.13 L 145.826,189.217 c-16.138,0-29.217-13.080-29.217-29.217l0-107.13 
			c0-16.138, 13.080-29.217, 29.217-29.217l 175.304,0 L 321.13-34.783 zM 194.025,134.61l-21.144,0 l0,14.959 l 60.499,0 l0-14.959 l-21.494,0 l0-63.772 l-17.862,0 L 194.025,134.61 zM 252.81,91.047l-5.61-20.209l-18.456,0 l 24.065,78.721l 23.354,0 l 24.416-78.721l-19.157,0 l-6.077,20.209L 252.81,91.047 z
		 M 272.785,104.36l-4.909,16.703c-1.402,4.665-2.795,10.509-3.964,15.183L 263.669,136.246 c-1.159-4.665-2.328-10.625-3.613-15.183l-4.675-16.703L 272.785,104.36 
		zM 311.138,148.508c 5.727,0.935, 14.258,1.636, 23.715,1.636c 11.677,0, 19.858-1.753, 25.468-6.194
		c 4.665-3.74, 7.236-9.223, 7.236-16.459c0-10.051-7.119-16.946-13.898-19.4l0-0.341 c 5.483-2.23, 8.522-7.48, 10.509-14.726
		c 2.445-8.872, 4.899-19.157, 6.418-22.186l-18.222,0 c-1.286,2.221-3.146,8.648-5.483,18.339c-2.104,9.817-5.483,12.495-12.739,12.622l-5.366,0 
		l0-30.961 l-17.647,0 L 311.128,148.508 z M 328.785,114.635l 7.002,0 c 8.882,0, 14.131,4.441, 14.131,11.336c0,7.236-4.909,10.859-13.080,10.976
		c-4.324,0-6.778-0.341-8.054-0.584L 328.785,114.635 z" horiz-adv-x="428"  />
<glyph unicode="&#x20;" horiz-adv-x="224" />
</font>
</defs>
</svg>
