<?xml version="1.0" standalone="no"?>
<!DOCTYPE svg PUBLIC "-//W3C//DTD SVG 1.1//EN" "http://www.w3.org/Graphics/SVG/1.1/DTD/svg11.dtd" >
<svg xmlns="http://www.w3.org/2000/svg">
<metadata>Generated by IcoMoon</metadata>
<defs>
<font id="icomoon" horiz-adv-x="512">
<font-face units-per-em="512" ascent="480" descent="-32" />
<missing-glyph horiz-adv-x="512" />
<glyph unicode="&#x20;" d="" horiz-adv-x="256" />
<glyph unicode="&#xe000;" d="M0-32h256v512h-256v-512zM160 416h64v-64h-64v64zM160 288h64v-64h-64v64zM160 160h64v-64h-64v64zM32 416h64v-64h-64v64zM32 288h64v-64h-64v64zM32 160h64v-64h-64v64zM288 320h224v-32h-224zM288-32h64v128h96v-128h64v288h-224z" />
<glyph unicode="&#xe001;" d="M0 416v-416h512v416h-512zM480 32h-448v352h448v-352zM352 304c0-26.51 21.49-48 48-48s48 21.49 48 48c0 26.51-21.49 48-48 48s-48-21.49-48-48zM448 64h-384l96 256 128-160 64 48z" />
<glyph unicode="&#xe002;" d="M448 480h-448v-512h512v448l-64 64zM256 416h64v-128h-64v128zM448 32h-384v384h32v-160h288v160h37.489l26.511-26.509v-357.491z" />
<glyph unicode="&#xe003;" d="M311.413 128.632c-11.055 1.759-11.308 32.156-11.308 32.156s32.485 32.158 39.563 75.401c19.044 0 30.809 45.973 11.761 62.149 0.796 17.026 24.481 133.661-95.43 133.661s-96.225-116.635-95.432-133.661c-19.047-16.175-7.285-62.149 11.761-62.149 7.079-43.243 39.564-75.401 39.564-75.401s-0.252-30.397-11.308-32.156c-35.609-5.666-168.585-64.317-168.585-128.632h448c0 64.315-132.976 122.966-168.587 128.632z" />
<glyph unicode="&#xe004;" d="M224 192v-208l-80 80-96-96-48 48 96 96-80 80zM512 432l-96-96 80-80h-208v208l80-80 96 96z" />
<glyph unicode="&#xe005;" d="M192 224h-160v64h160v64l96-96-96-96zM512 480v-416l-192-96v96h-192v128h32v-96h160v288l128 64h-288v-128h-32v160z" />
<glyph unicode="&#xe006;" d="M256 439.040c-118.763 0-215.040-96.276-215.040-215.040s96.276-215.040 215.040-215.040c118.764 0 215.040 96.276 215.040 215.040s-96.276 215.040-215.040 215.040zM255.043 410.368c102.4 0 185.411-83.012 185.411-185.411 0-28.336-6.365-55.183-17.731-79.202l-320.086 184.801c33.479 48.228 89.249 79.813 152.405 79.813zM255.043 39.545c-102.4 0-185.411 83.012-185.411 185.411 0 28.988 6.656 56.418 18.517 80.855l320.341-184.951c-33.356-49.077-89.637-81.315-153.448-81.315zM193.3 219.733c0-33.481 27.154-60.618 60.654-60.618 16.423 0 31.31 6.531 42.232 17.125l-101.046 58.339c-1.196-4.75-1.84-9.725-1.84-14.847zM386.288 302.187h-89.185v0.276l-11.045 11.094c-0.152 5.885-4.866 10.628-10.724 10.783l-0.016 0.012h-44.428c-6.059-0.025-10.951-4.954-10.983-11.039l-11.031-11.086v-0.041h-40.72l43.711-25.236c11.739 8.888 26.304 14.154 42.084 14.154 38.881 0 70.397-31.957 70.397-71.37 0-2.534-0.132-5.036-0.389-7.502l73.356-42.351v121.221c-0.001 6.121-4.937 11.084-11.029 11.084zM253.952 148.367c-38.877 0-70.395 31.955-70.395 71.367 0 6.917 0.989 13.595 2.8 19.919l-75.769 43.744v-136.37c0-6.118 4.939-11.080 11.028-11.080h244.363l-60.656 35.021c-12.842-13.901-31.103-22.6-51.371-22.6zM314.608 219.733c0 33.483-27.149 60.627-60.654 60.627-11.786 0-22.779-3.371-32.085-9.183l92.688-53.512c0.023 0.685 0.051 1.373 0.051 2.067z" />
<glyph unicode="&#xe007;" d="M32 192h192v-192l-69.13 69.13-101-101-53.739 53.74 101 101zM410.87 122.87l101-101-53.74-53.74-101 101-69.13-69.13v192h192zM480 256h-192v192l69.13-69.13 101 101 53.74-53.74-101-101zM154.869 378.87l69.131 69.13v-192h-192l69.13 69.13-101 101 53.739 53.74z" />
<glyph unicode="&#xe008;" d="M384 480h-288c-17.6 0-32-14.399-32-32v-448c0-17.6 14.399-32 32-32h288c17.6 0 32 14.4 32 32v448c0 17.601-14.4 32-32 32zM240-8.892c-13.746 0-24.892 11.145-24.892 24.892s11.145 24.892 24.892 24.892 24.892-11.145 24.892-24.892-11.145-24.892-24.892-24.892zM384 64h-288v352h288v-352z" />
<glyph unicode="&#xe009;" d="M348.916 316.476l-32.476 32.461-162.405-162.37c-26.907-26.896-26.907-70.524 0-97.421 26.901-26.896 70.53-26.896 97.436 0l194.885 194.853c44.857 44.831 44.857 117.531 0 162.363-44.833 44.851-117.555 44.851-162.391 0l-204.615-204.589c-0.145-0.152-0.306-0.288-0.438-0.423-62.551-62.548-62.551-163.928 0-226.452 62.527-62.528 163.934-62.528 226.494 0 0.137 0.137 0.259 0.284 0.411 0.438l0.016-0.017 139.667 139.646-32.493 32.459-139.666-139.631c-0.149-0.134-0.283-0.284-0.423-0.421-44.537-44.529-116.99-44.529-161.538 0-44.531 44.521-44.531 116.961 0 161.489 0.152 0.152 0.302 0.291 0.445 0.423l-0.023 0.029 204.64 204.583c26.856 26.869 70.572 26.869 97.443 0 26.856-26.867 26.856-70.573 0-97.42l-194.887-194.849c-8.968-8.961-23.527-8.961-32.486 0-8.947 8.943-8.947 23.515 0 32.459l162.402 162.391z" />
<glyph unicode="&#xe00a;" d="M192 224h-160v64h160v64l96-96-96-96zM512 480v-416l-192-96v96h-192v128h32v-96h160v288l128 64h-288v-128h-32v160z" />
<glyph unicode="&#xe00b;" d="M512 382.791c-18.837-8.354-39.082-14.001-60.331-16.541 21.685 13 38.343 33.585 46.187 58.115-20.298-12.039-42.779-20.781-66.705-25.49-19.16 20.415-46.461 33.171-76.673 33.171-58.012 0-105.043-47.029-105.043-105.039 0-8.233 0.929-16.25 2.72-23.939-87.3 4.381-164.701 46.2-216.508 109.753-9.043-15.514-14.223-33.558-14.223-52.809 0-36.444 18.544-68.596 46.73-87.433-17.219 0.547-33.416 5.271-47.577 13.139-0.011-0.438-0.011-0.877-0.011-1.321 0-50.893 36.209-93.348 84.261-103-8.813-2.4-18.094-3.685-27.674-3.685-6.769 0-13.349 0.661-19.764 1.885 13.368-41.731 52.16-72.103 98.125-72.947-35.95-28.175-81.243-44.967-130.458-44.967-8.479 0-16.84 0.497-25.058 1.469 46.486-29.805 101.701-47.197 161.020-47.197 193.212 0 298.868 160.062 298.868 298.872 0 4.555-0.103 9.084-0.305 13.589 20.528 14.81 38.336 33.31 52.418 54.374z" />
<glyph unicode="&#xe00c;" d="M287.935-32h-95.935v256h-64v88.225l64 0.029-0.104 51.976c0 71.976 19.517 115.77 104.299 115.77h70.588v-88.243h-44.115c-33.016 0-34.603-12.328-34.603-35.341l-0.132-44.162h79.345l-9.352-88.225-69.925-0.029-0.065-256z" />
<glyph unicode="&#xe00d;" d="M279.533 448c0 0-100.478 0-133.97 0-60.059 0-116.584-45.503-116.584-98.212 0-53.863 40.941-97.332 102.043-97.332 4.249 0 8.379 0.084 12.421 0.376-3.964-7.593-6.801-16.144-6.801-25.020 0-14.969 8.052-27.105 18.234-37.012-7.692 0-15.121-0.224-23.226-0.224-74.389 0.001-131.649-47.379-131.649-96.51 0-48.389 62.772-78.657 137.167-78.657 84.811 0 131.653 48.123 131.653 96.514 0 38.8-11.448 62.036-46.844 87.067-12.108 8.572-35.265 29.418-35.265 41.672 0 14.36 4.099 21.434 25.714 38.323 22.155 17.312 37.835 41.651 37.835 69.957 0 33.703-15.011 66.548-43.186 77.387h42.476l29.981 21.671zM232.74 120.271c1.063-4.486 1.643-9.103 1.643-13.813 0-39.099-25.196-69.655-97.487-69.655-51.421 0-88.558 32.552-88.558 71.65 0 38.321 46.063 70.221 97.483 69.666 12-0.127 23.184-2.058 33.335-5.345 27.912-19.413 47.937-30.382 53.585-52.503zM150.409 266.112c-34.519 1.032-67.317 38.613-73.276 83.931-5.957 45.332 17.185 80.020 51.694 78.995 34.505-1.036 67.319-37.407 73.279-82.729 5.954-45.33-17.195-81.229-51.696-80.196zM416 352v96h-32v-96h-96v-32h96v-96h32v96h96v32z" />
<glyph unicode="&#xe00e;" d="M464 416h-416c-26.512 0-48-21.488-48-48v-288c0-26.496 21.488-48 48-48h416c26.512 0 48 21.504 48 48v288c0 26.512-21.488 48-48 48zM43.856 64.16l-11.696 11.712 131.984 131.968 11.696-11.712-131.984-131.968zM468.144 64.16l-131.984 131.968 11.696 11.712 131.984-131.968-11.696-11.712zM272 170.8v-10.8h-32v10.8l-207.952 192.8 20.352 20.352 203.6-188.768 203.6 188.768 20.352-20.352-207.952-192.8z" />
<glyph unicode="&#xe00f;" d="M352 160c-32-32-32-64-64-64s-64 32-96 64-64 64-64 96 32 32 64 64-64 128-96 128-96-96-96-96c0-64 65.749-193.75 128-256s192-128 256-128c0 0 96 64 96 96s-96 128-128 96z" />
<glyph unicode="&#xe010;" d="M476.699 442.679l-2.014 2.021c-47.075 47.067-124.097 47.067-171.163 0l-109.053-109.067c-47.067-47.066-47.067-124.088 0-171.156l2.012-2.012c3.916-3.923 8.073-7.462 12.368-10.729l39.924 39.925c-4.651 2.748-9.063 6.036-13.059 10.029l-2.020 2.021c-25.556 25.548-25.556 67.136 0 92.695l109.064 109.057c25.558 25.559 67.137 25.559 92.692 0l2.021-2.012c25.55-25.558 25.55-67.147 0-92.695l-49.343-49.343c8.565-21.154 12.624-43.7 12.269-66.193l76.301 76.302c47.068 47.067 47.068 124.089 0 171.157zM315.521 285.533c-3.916 3.915-8.073 7.46-12.368 10.72l-39.925-39.916c4.652-2.749 9.063-6.036 13.058-10.031l2.021-2.020c25.558-25.557 25.558-67.136 0-92.694l-109.064-109.067c-25.559-25.551-67.138-25.551-92.694 0l-2.020 2.021c-25.549 25.56-25.549 67.138 0 92.694l49.344 49.343c-8.567 21.153-12.623 43.701-12.269 66.193l-76.3-76.3c-47.068-47.067-47.068-124.089 0-171.163l2.013-2.016c47.076-47.064 124.096-47.064 171.163 0l109.055 109.060c47.067 47.067 47.067 124.097 0 171.163l-2.014 2.012z" />
<glyph unicode="&#xe011;" d="M150.228 259.772c34.233 0 61.984 27.594 61.984 61.631 0 34.041-27.75 61.64-61.984 61.64-34.228 0-61.981-27.599-61.981-61.64-0.001-34.037 27.749-61.631 61.981-61.631zM284.064 338.881h247.751c36.347 0 57.759-23.264 57.759-54.408v-89.173h-305.51v143.58zM216.627 306.972v-53.483h-95.255c-45.987-0.165-46.063-58.945 0-58.945h124.88c18.236 0 29.655 14.637 29.655 31.193v81.235c-0.002 44.503-59.28 44.503-59.28 0zM76.413 390.269c0 48.534-67.716 48.534-67.716 0v-389.188h69.219v100.511h526.664v-99.755h67.715v300.596c0 51.219-68.466 51.219-68.466 0v-119.978l-527.415-0.001v207.816z" horiz-adv-x="683" />
<glyph unicode="&#xe012;" d="M615.368 399.503h-43.877c-6.057 0-10.968-4.911-10.968-10.969v-10.969l-438.757 0.001v10.969c0 6.058-4.912 10.969-10.969 10.969l-43.877-0.001c-6.057 0-10.969-4.911-10.969-10.969v-329.067c0-6.060 4.912-10.971 10.969-10.971h43.876c6.057 0 10.969 4.911 10.969 10.971v43.872c0 6.060 4.911 10.971 10.968 10.971h416.822c6.058 0 10.969-4.911 10.969-10.971v-43.872c0-6.060 4.911-10.971 10.968-10.971h43.877c6.057 0 10.968 4.911 10.968 10.971l-0.003 329.068c0.003 6.058-4.909 10.968-10.966 10.968zM319.205 267.875h-197.441v43.875c0 12.115 9.821 21.937 21.937 21.937h153.565c12.115 0 21.937-9.823 21.937-21.937l0.001-43.875zM560.523 267.875h-197.44v43.875c0 12.115 9.822 21.937 21.936 21.937h153.566c12.115 0 21.938-9.823 21.938-21.937v-43.875z" horiz-adv-x="683" />
<glyph unicode="&#xe013;" d="M255.008-32c0 0-159.008 224.992-159.008 320.992 0 189.008 159.008 191.008 159.008 191.008s160.992-2 160.992-190c0-98.992-160.992-322-160.992-322zM256 384c-35.344 0-64-28.656-64-64s28.656-64 64-64 64 28.656 64 64-28.656 64-64 64z" />
<glyph unicode="&#xe014;" d="M512 281.476l-176.89 25.704-79.11 160.291-79.108-160.292-176.892-25.703 128-124.769-30.216-176.176 158.216 83.178 158.216-83.18-30.217 176.176 128.001 124.771z" />
<glyph unicode="&#xe015;" d="M432 128c-22.581 0-42.96-9.369-57.507-24.415l-215.501 107.751c0.657 4.125 1.008 8.353 1.008 12.664s-0.351 8.538-1.008 12.663l215.501 107.751c14.546-15.044 34.927-24.413 57.507-24.413 44.183 0 80 35.817 80 80s-35.817 80-80 80-80-35.817-80-80c0-4.311 0.352-8.538 1.008-12.663l-215.501-107.752c-14.546 15.044-34.927 24.415-57.507 24.415-44.183 0-80-35.818-80-80 0-44.184 35.817-80 80-80 22.581 0 42.96 9.369 57.507 24.413l215.501-107.751c-0.656-4.125-1.008-8.352-1.008-12.663 0-44.184 35.817-80 80-80s80 35.816 80 80c0 44.182-35.817 80-80 80z" />
<glyph unicode="&#xe016;" d="M547.069 469.197h-411.853c-10.579 0-19.156-8.577-19.156-19.156v-19.156c0-9.933 7.56-18.099 17.241-19.060v-413.864c0-10.581 8.576-19.158 19.156-19.158h19.156c10.579 0 19.156 8.577 19.156 19.158v19.156c0 8.497 5.537 15.692 13.196 18.197h274.358c7.659-2.507 13.197-9.702 13.197-18.197v-19.156c0-10.581 8.577-19.158 19.156-19.158h19.156c10.58 0 19.155 8.577 19.155 19.158l-0.004 413.864c9.68 0.963 17.242 9.128 17.242 19.060v19.157c-0.001 10.579-8.578 19.156-19.158 19.156zM322.945 72.668h-152.291v339.060h152.291v-339.060zM511.631 72.668h-151.332v339.060h151.332v-339.060zM284.153 185.688h0.957c9.786 0 17.719 7.933 17.719 17.719v41.185c0 9.785-7.933 17.719-17.719 17.719h-0.957c-9.786 0-17.719-7.934-17.719-17.719v-41.185c0.001-9.784 7.933-17.719 17.719-17.719zM397.175 185.688h0.957c9.785 0 17.719 7.933 17.719 17.719v41.185c0 9.785-7.933 17.719-17.719 17.719h-0.957c-9.785 0-17.719-7.934-17.719-17.719v-41.185c0-9.784 7.933-17.719 17.719-17.719z" horiz-adv-x="683" />
<glyph unicode="&#xe017;" d="M638.371 236.994h-18.188c0 0-37.897 34.567-118.224 72.146-80.339 37.58-127.315 45.091-127.315 45.091h-27.286v27.057h27.286l9.089 18.037h-87.683l9.019-18.037h27.055v-27.055h-27.055c0 0-46.593-7.512-126.257-45.091s-117.239-72.149-117.239-72.149h-18.038v-9.019h594.836v9.019zM7.462 209.94v-18.036l54.111-9.019c0 0 84.173-135.276 189.387-135.276h178.244c106.097 0 190.981 135.276 190.981 135.276l54.64 9.019v18.036h-667.362z" horiz-adv-x="683" />
<glyph unicode="&#xe018;" d="M346.376 123.463h-5.238c-5.783 0-10.472-4.689-10.472-10.466v-26.18c0-5.783 4.689-10.466 10.472-10.466h5.238c5.779 0 10.472 4.685 10.472 10.466v26.18c0.001 5.777-4.692 10.466-10.472 10.466zM424.909 123.463h-5.236c-5.788 0-10.471-4.689-10.471-10.466v-26.18c0-5.783 4.683-10.466 10.471-10.466h5.236c5.779 0 10.472 4.685 10.472 10.466v26.18c0.001 5.777-4.693 10.466-10.472 10.466zM503.44 123.463h-5.236c-5.788 0-10.472-4.689-10.472-10.466v-26.18c0-5.783 4.685-10.466 10.472-10.466h5.236c5.779 0 10.472 4.685 10.472 10.466v26.18c0.001 5.777-4.693 10.466-10.472 10.466zM267.842 123.463h-5.236c-5.783 0-10.472-4.689-10.472-10.466v-26.18c0-5.783 4.689-10.466 10.472-10.466h5.236c5.781 0 10.469 4.685 10.469 10.466v26.18c0 5.777-4.689 10.466-10.469 10.466zM346.376 34.464h-5.238c-5.783 0-10.472-4.688-10.472-10.471v-26.181c0-5.779 4.689-10.466 10.472-10.466h5.238c5.779 0 10.472 4.689 10.472 10.466v26.182c0.001 5.783-4.692 10.471-10.472 10.471zM424.909 34.464h-5.236c-5.788 0-10.471-4.688-10.471-10.471v-26.181c0-5.779 4.683-10.466 10.471-10.466h5.236c5.779 0 10.472 4.689 10.472 10.466v26.182c0.001 5.783-4.693 10.471-10.472 10.471zM503.44 34.464h-5.236c-5.788 0-10.472-4.688-10.472-10.471v-26.181c0-5.779 4.685-10.466 10.472-10.466h5.236c5.779 0 10.472 4.689 10.472 10.466v26.182c0.001 5.783-4.693 10.471-10.472 10.471zM267.842 34.464h-5.236c-5.783 0-10.472-4.688-10.472-10.471v-26.181c0-5.779 4.689-10.466 10.472-10.466h5.236c5.781 0 10.469 4.689 10.469 10.466v26.182c0 5.783-4.689 10.471-10.469 10.471zM414.437 311.944v41.883c0 57.832-46.88 104.708-104.711 104.708h-141.36v-57.591h130.888c28.918 0 52.359-23.443 52.359-52.353v-36.647c-54.944 0-99.478-55.197-99.478-110.137v-36.459h261.779v36.459c-0.001 54.938-44.538 110.137-99.478 110.137z" horiz-adv-x="683" />
<glyph unicode="&#xe019;" d="M512 480v-192l-69.13 69.13-106-106-53.74 53.74 106 106-69.13 69.13zM122.87 410.87l106-106-53.739-53.739-106 106-69.13-69.13v192h192zM442.87 90.87l69.13 69.13v-192h-192l69.13 69.13-106 106 53.74 53.74zM228.869 143.13l-106-106 69.131-69.13h-192v192l69.13-69.13 106 106z" />
<glyph unicode="&#xe01a;" d="M219.417 340.641h-49.117v16.372h6.548c0.904 0 1.637 0.733 1.637 1.637l-0.001 21.284c0 0.905-0.733 1.638-1.637 1.638h-29.471c-0.904 0-1.637-0.733-1.637-1.638v-21.284c0-0.905 0.733-1.637 1.637-1.637h6.548v-16.372h-16.373l0.001 49.115c0 0 25.837 25.837 65.49 32.744 9.263 1.613 17.463 2.932 24.559 4v-10.549c0-0.905 0.733-1.637 1.637-1.637h29.471c0.904 0 1.637 0.733 1.637 1.637v31.108c0 0-45.023 8.442-81.863-8.186-36.838-16.629-65.489-33.768-65.489-49.117 0-10.744 0-49.116 0-49.116l-16.374-0.001v16.371h6.549c0.904 0 1.638 0.733 1.638 1.637v21.286c0 0.905-0.734 1.637-1.638 1.637l-29.469-0.001c-0.904 0-1.638-0.733-1.638-1.637v-21.285c0-0.905 0.734-1.637 1.638-1.637h6.549v-16.372l-16.373 0.001v-24.559h155.537l0.001 24.559zM620.539 266.964h40.931v32.744l-638.521 0.001v-32.744h32.744c0 0 2.729-41.615 32.744-106.421s57.303-81.861 57.303-81.861l-32.744-57.304h57.303l24.559 57.304h360.191l16.371-57.304h57.304l-32.744 73.675c0 0-6.821-3.411 8.187 49.117s16.374 122.793 16.374 122.793zM139.31 144.276c-11.568 18.062-24.456 40.764-34.501 65.387-14.887 36.493-16.371 57.303-16.371 57.303s30.016 0 40.931 0c6.215-43.115 23.923-90.153 38.028-122.69h-28.085zM168.663 103.343c0 0-7.727 9.238-18.412 24.559h24.472c7.015-15.193 11.95-24.559 11.95-24.559h-18.009zM587.793 119.613h-8.187v147.351h24.559c0.001 0-0.681-109.149-16.372-147.351z" horiz-adv-x="683" />
<glyph unicode="&#xe01b;" d="M364.774 220.62v83.707h-9.62v-83.707h9.62zM312.376 223.8l26.262 80.528-9.253 2.282-26.264-80.528 9.256-2.283zM294.297 302.868l-8.999 2.965-34.053-78.29 8.999-2.963 34.053 78.287zM409.988 220.661l9.163 2.305-25.993 81.291-9.16-2.308 25.991-81.288zM427.877 300.476l33.707-79.028 8.905 2.993-33.704 79.029-8.908-2.994zM365.637 364.056c-89.697 0-95.426-38.248-95.426-38.248h181.312c-0.002-0.001-10.649 38.248-85.885 38.248zM384.723 411.868h143.141v-181.195h47.713c0 0 0 131.82 0 181.196s-47.713 47.813-47.713 47.813-66.881 0-124.053 0c-57.176 0-57.257-28.688-57.257-28.688v-47.81h38.173l-0.001 28.685zM102.683 69.101c0 0 25.549-81.457 132.906-81.731 73.108-0.184 174.534-0.097 213.243 0 107.356 0.273 132.907 81.794 132.907 81.794s5.17 10.327 7.563 36.675h-494.183c2.391-26.36 7.564-36.738 7.564-36.738zM619.764 197.231h-553.417c0 0-30.463-4.199-30.463-43.007 0-31.088 18.616-28.075 18.616-28.075l575.416 0.034c0 0 18.617-3.012 18.617 28.062 0 38.788-28.769 42.985-28.769 42.985z" horiz-adv-x="683" />
<glyph unicode="&#xe01c;" d="M539.774 260.726c0 19.971-16.168 36.163-36.111 36.163l-166.108 0.001v-86.791l202.219 0.001v50.625zM189.501 282.424c29.916 0 54.167 24.285 54.167 54.245s-24.252 54.245-54.167 54.245c-29.913 0-54.166-24.288-54.166-54.247s24.25-54.243 54.166-54.243zM164.223 202.865h122.776c15.953 0 28.888 12.954 28.888 28.933 0 24.019 0 72.327 0 72.327 0 15.977-12.933 28.933-28.888 28.933s-28.89-12.957-28.89-28.933v-43.398h-93.885c-15.956 0-28.888-12.951-28.888-28.929 0.001-15.978 12.933-28.933 28.888-28.933zM604.774 296.89c-19.945 0-36.11-16.193-36.11-36.163v-86.792h-454.993v180.817c0 19.973-16.168 36.163-36.112 36.163-19.941 0-36.108-16.191-36.108-36.163v-303.772h72.221v43.394h454.993v-43.394h72.22l-0.003 209.745c0 19.971-16.168 36.164-36.109 36.164z" horiz-adv-x="683" />
<glyph unicode="&#xe01d;" d="M117.725 39.569h26.347v43.912h-26.346v-43.912zM539.28 39.569h26.346v43.912h-26.346v-43.912zM477.803 311.824h-87.823c-33.757 0-43.912-52.695-43.912-52.695h175.648c-0.001 0-12.901 52.695-43.913 52.695zM336.877 408.431c-219.56 0-306.976-79.041-306.976-79.041v-193.212h61.477v-35.129h500.596v35.129h61.477l-0.001 193.212c-0.001 0-97.019 79.043-316.575 79.043zM627.104 171.305h-35.13v61.477h-500.596v-61.477h-35.128v140.905c40.241 23.32 128.811 61.091 280.63 61.091 154.641 0 248.252-39.126 290.226-62.317l-0.001-139.679zM275.807 311.824h-87.824c-33.759 0-43.912-52.695-43.912-52.695h175.648c0.001 0-12.899 52.695-43.912 52.695z" horiz-adv-x="683" />
<glyph unicode="&#xe01e;" d="M512 480v-208l-80 80-96-96-48 48 96 96-80 80zM224 144l-96-96 80-80h-208v208l80-80 96 96z" />
<glyph unicode="&#xe020;" d="M580.053 269.94l-57.891 135.079c-10.056 24.317-22.509 50.284-50.284 50.284h-261.472c-27.768 0-39.912-24.709-50.284-50.284l-57.891-135.079c-36.423-11.709-62.788-45.851-62.788-86.166v-110.625h60.34v-50.284c0-16.666 13.508-30.169 30.169-30.169h10.057c16.661 0 30.169 13.504 30.169 30.169l0.001 50.284h351.981v-50.284c0-16.666 13.514-30.169 30.169-30.169h10.057c16.656 0 30.169 13.504 30.169 30.169l0.001 50.284h50.283v110.625c0 40.315-26.364 74.456-62.788 86.166zM190.293 405.019c0 11.108 9.006 20.113 20.113 20.113h261.471c11.108 0 20.113-9.005 20.113-20.113l40.225-120.679-382.147-0.001 40.225 120.68zM129.954 143.546c-22.215 0-40.225 18.012-40.225 40.225 0 22.216 18.013 40.225 40.225 40.225 22.215 0 40.225-18.012 40.225-40.225 0.001-22.212-18.011-40.225-40.225-40.225zM552.332 143.546c-22.215 0-40.225 18.012-40.225 40.225 0 22.216 18.011 40.225 40.225 40.225 22.216 0 40.225-18.012 40.225-40.225 0.001-22.212-18.009-40.225-40.225-40.225z" horiz-adv-x="683" />
<glyph unicode="&#xe021;" d="M31.511 94.387c-30.146-17.786-35.587-55.655-29.049-78.63 6.341-22.281 28.697-48.843 68.924-48.843h0.089c0 0 518.688 0 570.993 0 45.041 0 65.581 25.82 71.92 48.101 6.539 22.974 6.539 58.548-28.332 80.041l-302.385 178.472v30.387c0 34.462-37.594 49.423-37.594 49.423-24.335 11.86-22.156 37.425-22.156 37.425 0 30.014 26.879 39.649 38.861 39.649 20.123 0 39.858-11.159 41.94-36.685 3.269-40.020 48.615-29.863 48.615 2.291 0 30.384-27.716 83.68-90.918 83.68-68.32 0-87.943-66.801-87.943-87.924 0-15.93 2.517-30.643 12.349-47.431 16.707-28.532 50.144-33.017 50.144-51.914v-18.9l-305.461-179.143zM358.426 227.714l296.256-173.137c18.374-13.015 8.422-37.513-11.484-37.555h-570.907c-18.581-0.724-30.064 25.305-11.691 36.788l297.824 173.903z" horiz-adv-x="717" />
<glyph unicode="&#xe027;" d="M456.049 257.391h-55.653l0.001 144.696-77.913 77.913h-289.392c-18.442 0-33.391-14.949-33.391-33.391v-445.217c0-18.444 14.948-33.391 33.391-33.391h333.913c18.432 0 33.391 14.949 33.391 33.391v66.783h55.653c18.432 0 33.391 14.949 33.391 33.391l0.001 122.435c0 18.444-14.949 33.391-33.392 33.391zM367.005 1.391h-333.913v445.219h267.13v-66.783h66.783v-122.434l-200.347-0.001c-18.444 0-33.391-14.948-33.391-33.391v-122.434c0-18.443 14.948-33.391 33.391-33.391h200.347v-66.784zM225.204 133.043l42.853 61.675v0.534h-38.846v16.819h65.28v-11.743l-41.928-60.872v-0.545h42.585v-16.819h-69.944v10.952zM328.428 212.068v-89.967l-20.413-0.001v89.967l20.413 0.001zM346.081 210.866c6.267 1.068 15.349 1.87 27.503 1.87 12.544 0 21.493-2.404 27.503-7.201 5.743-4.541 9.606-12.010 9.606-20.825 0-8.949-2.938-16.428-8.281-21.359-6.933-6.545-17.219-9.606-29.095-9.606-2.805 0-5.209 0.256-7.079 0.389v-32.033l-20.156-0.001v88.765zM366.228 169.895c1.469-0.267 3.873-0.401 6.801-0.401 10.818 0 17.486 5.465 17.486 14.559 0 8.404-5.599 13.345-16.149 13.345-3.995 0-6.678-0.401-8.136-0.679l-0.001-26.824z" horiz-adv-x="489" />
<glyph unicode="&#xe028;" d="M60.748 25.352h-0.157l-9.423 34.546h-16.331v-56.058h13.662v34.625h0.157l9.736-34.625h16.017v56.060h-13.662l-0.001-34.548zM98.115 61c-14.918 0-20.020-8.167-20.020-29.129s5.105-29.129 20.020-29.129c14.918 0 20.020 8.167 20.020 29.129s-5.102 29.129-20.020 29.129zM98.115 12.633c-4.475 0-4.947 4.084-4.947 19.236s0.471 19.236 4.947 19.236c4.477 0 4.947-4.084 4.947-19.236s-0.471-19.236-4.947-19.236zM162.017 59.901h-21.905v-56.060h14.603v21.358h5.103c11.856 0 18.373 5.967 18.373 17.43 0.001 9.815-5.024 17.273-16.173 17.273zM157.464 35.716h-2.748v13.661h2.748c3.69 0 5.653-2.197 5.653-6.829 0-4.712-1.961-6.832-5.653-6.832zM180.701 3.84h14.603v56.060h-14.603v-56.060zM218.462 12.633c-4.476 0-4.947 4.084-4.947 19.236s0.471 19.236 4.947 19.236c2.827 0 4.006-1.885 4.006-8.245v-3.14h14.131v3.533c0 10.836-4.947 17.744-18.137 17.744-15.152 0-20.020-7.695-20.020-29.129 0-20.885 3.612-29.129 20.020-29.129 9.344 0 18.529 3.771 18.529 19.473v4.161h-14.132c0-10.596-0.783-13.738-4.397-13.738zM237.066 47.495h10.991v-43.655h14.606v43.655h10.991v12.406h-36.588v-12.406zM298.147 19.464c0-5.418-1.649-6.832-4.397-6.832s-4.397 1.413-4.397 6.832v40.435h-14.603v-36.744c0-15.703 6.752-20.415 19-20.415s19 4.712 19 20.415v36.744h-14.603v-40.435zM356.008 6.354c-0.707 1.099-0.707 4.868-0.707 7.772v4.791c0 7.459-2.12 11.935-9.188 12.561v0.159c6.675 1.021 9.579 5.888 9.579 13.346 0 8.637-4.239 14.918-15.389 14.918h-22.849v-56.062h14.603v22.455h3.848c3.533 0 4.788-1.649 4.788-8.008v-3.768c0-2.356 0-7.695 1.413-10.679h15.546v0.785c-0.94 0.471-1.253 1.099-1.646 1.729zM334.967 36.188h-2.906v13.191h2.827c4.397 0 6.204-1.961 6.204-6.517-0.001-4.003-1.964-6.675-6.123-6.675zM375.552 15.775v11.147h17.43v11.464h-17.43v9.579h18.606v11.935h-33.211l0.002-56.060h33.916v11.935h-19.315zM213.143 445.866c-98.971 0-179.2-80.229-179.2-179.2s80.231-179.2 179.2-179.2c98.969 0 179.2 80.231 179.2 179.2s-80.231 179.2-179.2 179.2zM212.345 421.974c85.333 0 154.51-69.176 154.51-154.51 0-23.613-5.304-45.986-14.776-66.002l-266.738 154.001c27.898 40.19 74.375 66.511 127.005 66.511zM212.345 112.954c-85.334 0-154.51 69.176-154.51 154.51 0 24.156 5.547 47.015 15.432 67.38l266.952-154.125c-27.796-40.897-74.697-67.763-127.875-67.763zM211.435 203.64c-32.398 0-58.663 26.629-58.663 59.472 0 5.764 0.824 11.329 2.333 16.599l-63.139 36.452v-113.642c0-5.099 4.114-9.233 9.191-9.233h203.637l-50.547 29.184c-10.704-11.584-25.92-18.832-42.811-18.832zM160.893 263.112c0-27.9 22.629-50.515 50.545-50.515 13.685 0 26.091 5.442 35.193 14.273l-84.206 48.615c-0.996-3.959-1.532-8.104-1.532-12.373zM321.716 331.822h-74.32v0.231l-9.204 9.244c-0.127 4.905-4.055 8.857-8.936 8.985l-0.013 0.011h-37.023c-5.048-0.021-9.125-4.128-9.153-9.199l-9.192-9.237v-0.035h-33.933l36.425-21.029c9.783 7.407 21.92 11.795 35.071 11.795 32.401 0 58.665-26.631 58.665-59.476 0-2.111-0.111-4.196-0.325-6.251l61.129-35.293v101.017c0 5.103-4.113 9.238-9.191 9.238zM261.981 263.112c0 27.903-22.624 50.523-50.545 50.523-9.822 0-18.982-2.809-26.738-7.653l77.24-44.595c0.019 0.574 0.043 1.147 0.043 1.726z" horiz-adv-x="427" />
<glyph unicode="&#xe029;" d="M256 439.040c-118.763 0-215.040-96.276-215.040-215.040s96.276-215.040 215.040-215.040c118.764 0 215.040 96.276 215.040 215.040s-96.276 215.040-215.040 215.040zM255.043 410.368c102.4 0 185.411-83.012 185.411-185.411 0-28.336-6.365-55.183-17.731-79.202l-320.086 184.801c33.479 48.228 89.249 79.813 152.405 79.813zM255.043 39.545c-102.4 0-185.411 83.012-185.411 185.411 0 28.988 6.656 56.418 18.517 80.855l320.341-184.951c-33.356-49.077-89.637-81.315-153.448-81.315zM193.3 219.733c0-33.481 27.154-60.618 60.654-60.618 16.423 0 31.31 6.531 42.232 17.125l-101.046 58.339c-1.196-4.75-1.84-9.725-1.84-14.847zM386.288 302.187h-89.185v0.276l-11.045 11.094c-0.152 5.885-4.866 10.628-10.724 10.783l-0.016 0.012h-44.428c-6.059-0.025-10.951-4.954-10.983-11.039l-11.031-11.086v-0.041h-40.72l43.711-25.236c11.739 8.888 26.304 14.154 42.084 14.154 38.881 0 70.397-31.957 70.397-71.37 0-2.534-0.132-5.036-0.389-7.502l73.356-42.351v121.221c-0.001 6.121-4.937 11.084-11.029 11.084zM253.952 148.367c-38.877 0-70.395 31.955-70.395 71.367 0 6.917 0.989 13.595 2.8 19.919l-75.769 43.744v-136.37c0-6.118 4.939-11.080 11.028-11.080h244.363l-60.656 35.021c-12.842-13.901-31.103-22.6-51.371-22.6zM314.608 219.733c0 33.483-27.149 60.627-60.654 60.627-11.786 0-22.779-3.371-32.085-9.183l92.688-53.512c0.023 0.685 0.051 1.373 0.051 2.067z" />
<glyph unicode="&#xe02a;" d="M477.428 318.286q0-11.428-8-19.428l-245.714-245.714q-8-8-19.428-8t-19.428 8l-142.286 142.286q-8 8-8 19.428t8 19.428l38.857 38.857q8 8 19.428 8t19.428-8l84-84.286 187.429 187.714q8 8 19.428 8t19.428-8l38.857-38.857q8-8 8-19.429z" />
<glyph unicode="&#xe02b;" d="M311.648 68.16l16.704-33.376h-144.704l16.704 33.376h-33.408l-44.512-89.024h33.376l16.704 33.376h166.944l16.704-33.376h33.376l-44.512 89.056-33.376-0.032zM434.080 157.216l-44.48 278.272c0 18.464-14.976 33.376-33.376 33.376h-200.384c-18.432 0-33.376-14.944-33.376-33.376l-44.512-278.272c-3.84-34.112 14.944-55.648 33.376-55.648h289.376c18.432 0 38.944 21.888 33.376 55.648zM222.624 435.488c0 6.144 4.992 11.136 11.136 11.136h44.512c6.144 0 11.136-4.992 11.136-11.136l-0.032-11.136c0-6.144-4.992-11.136-11.136-11.136h-44.512c-6.144 0-11.104 4.992-11.104 11.136v11.136zM194.784 134.944c-15.36 0-27.84 12.416-27.84 27.808s12.448 27.84 27.84 27.84 27.84-12.416 27.84-27.84c0-15.328-12.48-27.808-27.84-27.808zM317.216 134.944c-15.392 0-27.84 12.416-27.84 27.808s12.416 27.84 27.84 27.84c15.36 0 27.808-12.416 27.808-27.84 0.032-15.328-12.448-27.808-27.808-27.808zM111.296 224l22.272 166.944h244.864l22.272-166.944h-289.408z" />
<glyph unicode="&#xe02d;" d="M512 300.923c0 81.228-65.851 147.077-147.077 147.077-43.182 0-82.015-18.609-108.923-48.245-26.907 29.636-65.74 48.245-108.923 48.245-81.228 0-147.077-65.849-147.077-147.077 0-43.182 18.609-82.015 48.245-108.923h-0.245l160-160c16-16 32-32 48-32s32 16 48 32l160 160h-0.245c29.635 26.908 48.245 65.74 48.245 108.923zM420.733 239.384l-161.988-162.129c-0.839-0.839-1.765-1.765-2.745-2.74-0.98 0.975-1.907 1.901-2.745 2.74l-161.988 162.128c-17.583 15.964-27.267 37.82-27.267 61.54 0 45.809 37.269 83.077 83.077 83.077 23.72 0 45.575-9.683 61.538-27.267l47.384-52.19 47.384 52.188c15.964 17.584 37.818 27.268 61.538 27.268 45.809 0 83.077-37.269 83.077-83.077 0-23.72-9.685-45.575-27.267-61.539z" />
<glyph unicode="&#xe02e;" d="M396 168c-23.12 0-44.048-9.36-59.232-24.464l-137.824 69.92c0.432 3.488 1.056 6.928 1.056 10.544 0 3.568-0.624 6.96-1.040 10.416l138.080 69.84c15.168-14.976 35.968-24.256 58.976-24.256 46.384 0 84 37.616 84 84s-37.632 84-84.016 84-84-37.616-84-84c0-3.728 0.624-7.28 1.088-10.88l-137.76-69.68c-15.2 15.168-36.176 24.56-59.328 24.56-46.384 0-84-37.616-84-84s37.616-84 84-84c23.104 0 44 9.344 59.184 24.432l137.872-69.952c-0.432-3.472-1.056-6.896-1.056-10.48 0-46.384 37.616-84 84-84s84 37.616 84 84-37.616 84-84 84z" />
<glyph unicode="&#xe02f;" d="M145.066 275.2h-85.334c-4.709 0-8.532-3.823-8.532-8.534v-17.066c0-4.711 3.823-8.534 8.534-8.534h85.334c4.709 0 8.532 3.823 8.532 8.534v17.066c0 4.711-3.823 8.534-8.534 8.534zM145.066 343.466h-119.466c-4.711 0-8.534-3.823-8.534-8.533v-17.066c0-4.711 3.823-8.534 8.534-8.534h119.466c4.711 0 8.534 3.823 8.534 8.532v17.067c0 4.711-3.823 8.534-8.534 8.534zM145.066 206.933h-51.2c-4.71 0-8.532-3.823-8.532-8.534v-17.067c0-4.711 3.823-8.534 8.532-8.534h51.2c4.711 0 8.534 3.823 8.534 8.534v17.067c0 4.711-3.823 8.534-8.534 8.534zM494.933 343.466h-290.134c-9.421 0-17.066-7.629-17.066-17.067v-204.8c0-9.438 7.645-17.067 17.066-17.067h290.134c9.438 0 17.067 7.628 17.067 17.067v204.8c0 9.438-7.628 17.066-17.067 17.066zM477.866 138.666h-256v170.667h256v-170.667zM341.231 181.538c0.153-0.136 0.359-0.153 0.495-0.273 4.728-3.805 11.503-4.062 16.315-0.017l75.452 58.197c5.496 4.625 6.195 12.869 1.604 18.397l-0.837 1.007c-4.625 5.512-12.834 6.247-18.329 1.621l-66.133-51.012-66.731 51.166c-5.512 4.625-13.755 3.909-18.363-1.621l-0.853-1.007c-4.625-5.512-3.909-13.738 1.622-18.363l75.759-58.095z" />
<glyph unicode="&#xe030;" d="M128 160h-16v-16h16v16zM96 224h-16v-16h16v16zM128 224h-16v-16h16v16zM96 192h-16v-16h16v16zM128 192h-16v-16h16v16zM144 272h16v16h-16v-16zM64 160h-16v-16h16v16zM64 352v-96h-64v-144h160v144h-64v80h80v-224h16v240h-128zM144 240v-112h-48v32h-16v-32h-48v112h112zM64 224h-16v-16h16v16zM112 272h16v16h-16v-16zM64 192h-16v-16h16v16zM128 320h-16v-16h16v16zM144 304h16v16h-16v-16zM464 256v96h-160v-240h16v224h112v-80h-16v16h-32v-16h-16v16h-32v-160h64v48h32v-48h80v144h-48zM480 128h-32v48h-64v-48h-32v112h128v-112zM368 320h-32v-32h32v32zM416 320h-32v-32h32v32zM368 224h32v-32h-32zM432 224h32v-32h-32zM208 256v-32h80v32h-80zM208 176h80v32h-80v-32z" />
<glyph unicode="&#xe031;" d="M256.713 318.281l-39.552 10.149 42.917-102.528 38.437-135.186 48.64-95.762-37.303-20.26-54.254 95.744-51.968 101.394-58.076-73.344-6.473-129.171-40.173-1.28-0.439 155.356 55.406 85.632-20.352 85.596-38.821-27.886-79.872-29.568-14.537 30.226 87.204 44.178 29.075 60.8 18.085 19.145 32.786 10.149 39.552-5.632 87.059-50.469 27.081-93.751-32.768-12.38-31.652 78.848zM131.529 404.608c-20.864 0-37.815 16.859-37.815 37.705-0.019 20.809 16.933 37.687 37.815 37.687s37.815-16.877 37.815-37.705c0-20.828-16.933-37.687-37.815-37.687z" horiz-adv-x="348" />
<glyph unicode="&#xe033;" d="M456.049 257.391h-55.653l0.001 144.696-77.913 77.913h-289.392c-18.442 0-33.391-14.949-33.391-33.391v-445.217c0-18.444 14.948-33.391 33.391-33.391h333.913c18.432 0 33.391 14.949 33.391 33.391v66.783h55.653c18.432 0 33.391 14.949 33.391 33.391l0.001 122.435c0 18.444-14.949 33.391-33.392 33.391zM367.005 1.391h-333.913v445.219h267.13v-66.783h66.783v-122.434l-200.347-0.001c-18.444 0-33.391-14.948-33.391-33.391v-122.434c0-18.443 14.948-33.391 33.391-33.391h200.347v-66.784zM220.674 194.983h-24.165v17.096h69.153v-17.096h-24.565v-72.882h-20.424v72.882zM326.313 122.101l-8.147 16.295c-3.339 6.267-5.476 10.93-8.002 16.149h-0.267c-1.87-5.221-4.14-9.895-6.945-16.149l-7.48-16.295h-23.219l26.023 45.524-25.088 44.455h23.352l7.892-16.417c2.661-5.476 4.664-9.884 6.801-14.959h0.256c2.125 5.743 3.873 9.75 6.144 14.959l7.613 16.417h23.229l-25.365-43.921 26.702-46.058-23.498 0.001zM378.949 194.983h-24.164v17.096h69.153v-17.096h-24.565v-72.882h-20.424v72.882z" horiz-adv-x="489" />
<glyph unicode="&#xe034;" d="M-5.715 224h128l42.666-128 128 384h53.334l-181.333-512-85.334 213.333h-85.334v42.666z" horiz-adv-x="341" />
<glyph unicode="&#xe035;" d="M456.049 257.391h-55.653l0.001 144.696-77.913 77.913h-289.392c-18.442 0-33.391-14.949-33.391-33.391v-445.217c0-18.444 14.948-33.391 33.391-33.391h333.913c18.432 0 33.391 14.949 33.391 33.391v66.783h55.653c18.432 0 33.391 14.949 33.391 33.391l0.001 122.435c0 18.444-14.949 33.391-33.392 33.391zM367.005 1.391h-333.913v445.219h267.13v-66.783h66.783v-122.434l-200.347-0.001c-18.444 0-33.391-14.948-33.391-33.391v-122.434c0-18.443 14.948-33.391 33.391-33.391h200.347v-66.784zM188.852 199.736c7.48 1.191 17.219 1.87 27.503 1.87 17.085 0 28.172-3.060 36.843-9.606 9.35-6.945 15.215-18.020 15.215-33.914 0-17.219-6.267-29.095-14.948-36.43-9.483-7.88-23.897-11.62-41.517-11.62-10.541 0-18.020 0.668-23.096 1.336l0.001 88.365zM209.276 126.33c1.736-0.411 4.542-0.411 7.079-0.411 18.421-0.134 30.442 10.017 30.442 31.51 0.133 18.688-10.819 28.561-28.305 28.561-4.542 0-7.48-0.401-9.216-0.789v-58.87zM364.19 156.082c0-30.175-19.89-46.592-44.053-46.592-25.901 0-42.44 18.822-42.44 45.779 0 27.904 17.753 47.125 44.177 47.125 27.224 0.012 42.317-20.001 42.317-46.313zM299.166 155.827c0-16.829 7.747-30.175 21.76-30.175 14.425 0 21.76 13.88 21.76 30.175 0 15.215-6.678 30.431-21.615 30.431-14.303 0-21.905-13.757-21.905-30.431zM443.661 113.497c-3.74-1.87-12.154-3.995-23.096-3.995-31.099 0-47.115 19.489-47.115 45.123 0 30.709 21.894 47.661 49.13 47.661 10.541 0 18.543-2.003 22.149-3.873l-4.129-16.149c-4.152 1.736-9.895 3.339-17.086 3.339-16.149 0-28.705-9.74-28.705-29.762 0-18.020 10.685-29.373 28.839-29.373 6.132 0 12.945 1.325 16.952 2.938l3.060-15.906z" horiz-adv-x="489" />
<glyph unicode="&#xe036;" d="M53.725 479.284v-409.617h122.88v-102.4l184.32 102.4v409.617h-307.2zM217.565 172.084c-11.315 0-20.48 9.164-20.48 20.48 0 11.332 9.165 20.497 20.48 20.497 11.333 0 20.497-9.164 20.497-20.497 0-11.315-9.181-20.48-20.497-20.48zM176.606 376.884v-266.24h-81.92v327.68h192.512l-110.592-61.44z" />
<glyph unicode="&#xe037;" d="M301.764 402.356c0 29.214-23.733 52.917-52.947 52.917h-137.577c-29.213 0-52.947-23.703-52.947-52.917l-42.316-243.38c0-29.214 23.733-52.947 52.947-52.947h222.208c29.214 0 52.947 23.733 52.947 52.947l-42.315 243.38zM153.556 434.101h63.488v-42.345h-63.488v42.345zM121.781 127.232c-17.528 0-31.744 14.156-31.744 31.744 0 17.528 14.216 31.744 31.744 31.744 17.589 0 31.744-14.216 31.744-31.744 0.031-17.559-14.155-31.744-31.744-31.744zM238.216 127.232c-17.589 0-31.744 14.156-31.744 31.744 0 17.528 14.155 31.744 31.744 31.744 17.528 0 31.744-14.216 31.744-31.744 0.032-17.559-14.214-31.744-31.744-31.744zM47.752 222.464l31.744 148.149h201.065l31.744-148.149h-264.553zM238.216 74.286l10.541-31.744h-137.577l10.541 31.744h-31.744l-42.227-84.631h52.947l10.541 21.143h148.119l10.601-21.143h52.887l-52.887 84.631h-31.744z" horiz-adv-x="361" />
<glyph unicode="&#xe038;" d="M456.049 257.391h-55.653l0.001 144.696-77.913 77.913h-289.392c-18.442 0-33.391-14.949-33.391-33.391v-445.217c0-18.444 14.948-33.391 33.391-33.391h333.913c18.432 0 33.391 14.949 33.391 33.391v66.783h55.653c18.432 0 33.391 14.949 33.391 33.391l0.001 122.435c0 18.444-14.949 33.391-33.392 33.391zM367.005 1.391h-333.913v445.219h267.13v-66.783h66.783v-122.434l-200.347-0.001c-18.444 0-33.391-14.948-33.391-33.391v-122.434c0-18.443 14.948-33.391 33.391-33.391h200.347v-66.784zM268.413 156.538c-0.401 10.808-0.801 23.885-0.801 36.975h-0.401c-2.805-11.476-6.678-24.565-10.005-34.983l-10.941-34.983h-16.017l-9.483 34.705c-2.939 10.685-6.011 23.486-8.136 35.25h-0.268c-0.534-12.154-0.935-26.046-1.602-37.253l-1.602-34.171h-18.821l5.743 89.967h27.103l8.815-30.029c2.939-10.284 5.611-22.027 7.613-32.589h0.401c2.538 10.418 5.465 22.695 8.548 32.712l9.606 29.896h26.568l4.942-89.967h-19.89l-1.369 34.471zM305.321 210.866c6.277 1.068 15.349 1.87 27.503 1.87 12.544 0 21.504-2.404 27.503-7.201 5.743-4.541 9.606-12.010 9.606-20.825 0-8.949-2.938-16.428-8.269-21.359-6.945-6.545-17.23-9.606-29.095-9.606-2.805 0-5.221 0.256-7.091 0.389v-32.033h-20.158l0.001 88.764zM325.467 169.895c1.48-0.267 3.873-0.401 6.812-0.401 10.818 0 17.486 5.465 17.486 14.559 0 8.404-5.611 13.345-16.149 13.345-4.007 0-6.678-0.401-8.147-0.679v-26.824zM383.312 141.991c3.606-1.87 11.887-5.332 20.168-5.332 10.541 0 15.884 5.064 15.884 11.609 0 8.548-8.548 12.411-17.474 12.411h-8.281v14.559h7.87c6.812 0.134 15.505 2.661 15.505 10.005 0 5.209-4.286 9.071-12.822 9.071-7.067 0-14.548-3.072-18.154-5.209l-4.129 14.681c5.197 3.339 15.604 6.545 26.824 6.545 18.555 0 28.827-9.75 28.827-21.615 0-9.216-5.197-16.428-15.884-20.168v-0.267c10.418-1.87 18.822-9.74 18.822-21.093 0-15.349-13.49-26.568-35.507-26.568-11.219 0-20.692 2.938-25.755 6.144l4.106 15.226z" horiz-adv-x="489" />
<glyph unicode="&#xe039;" d="M456.049 257.391h-55.653l0.001 144.696-77.913 77.913h-289.392c-18.442 0-33.391-14.949-33.391-33.391v-445.217c0-18.444 14.948-33.391 33.391-33.391h333.913c18.432 0 33.391 14.949 33.391 33.391v66.783h55.653c18.432 0 33.391 14.949 33.391 33.391l0.001 122.435c0 18.444-14.949 33.391-33.392 33.391zM367.005 1.391h-333.913v445.219h267.13v-66.783h66.783v-122.434l-200.347-0.001c-18.444 0-33.391-14.948-33.391-33.391v-122.434c0-18.443 14.948-33.391 33.391-33.391h200.347v-66.784zM204.981 210.866c6.278 1.068 15.349 1.87 27.503 1.87 12.555 0 21.493-2.404 27.503-7.201 5.743-4.541 9.606-12.010 9.606-20.825 0-8.949-2.938-16.428-8.269-21.359-6.945-6.545-17.219-9.606-29.107-9.606-2.794 0-5.197 0.256-7.067 0.389v-32.033h-20.157l0.001 88.764zM225.137 169.895c1.47-0.267 3.873-0.401 6.811-0.401 10.808 0 17.475 5.465 17.475 14.559 0 8.404-5.599 13.345-16.149 13.345-3.995 0-6.667-0.401-8.136-0.679v-26.824zM282.582 210.866c7.48 1.191 17.23 1.87 27.503 1.87 17.086 0 28.171-3.060 36.853-9.606 9.349-6.945 15.215-18.020 15.215-33.914 0-17.219-6.267-29.095-14.959-36.43-9.483-7.88-23.885-11.62-41.505-11.62-10.541 0-18.020 0.668-23.096 1.336l0.001 88.365zM303.005 137.461c1.726-0.411 4.531-0.411 7.067-0.411 18.432-0.134 30.431 10.017 30.431 31.51 0.145 18.688-10.808 28.561-28.293 28.561-4.531 0-7.48-0.401-9.204-0.789v-58.87zM375.543 212.068h54.995v-16.673h-34.572v-20.569h32.3v-16.551h-32.3v-36.173h-20.424v89.967z" horiz-adv-x="489" />
<glyph unicode="&#xe03a;" d="M456.049 257.391h-55.653l0.001 144.696-77.913 77.913h-289.392c-18.442 0-33.391-14.949-33.391-33.391v-445.217c0-18.444 14.948-33.391 33.391-33.391h333.913c18.432 0 33.391 14.949 33.391 33.391v66.783h55.653c18.432 0 33.391 14.949 33.391 33.391l0.001 122.435c0 18.444-14.949 33.391-33.392 33.391zM367.005 1.391h-333.913v445.219h267.13v-66.783h66.783v-122.434l-200.347-0.001c-18.444 0-33.391-14.948-33.391-33.391v-122.434c0-18.443 14.948-33.391 33.391-33.391h200.347v-66.784zM198.691 210.866c6.545 1.068 16.284 1.87 27.103 1.87 13.357 0 22.695-2.003 29.107-7.079 5.332-4.274 8.269-10.541 8.269-18.81 0-11.487-8.136-19.367-15.883-22.171v-0.389c6.267-2.548 9.739-8.548 12.011-16.829 2.795-10.139 5.599-21.894 7.335-25.356h-20.825c-1.47 2.538-3.595 9.884-6.267 20.959-2.405 11.219-6.267 14.28-14.548 14.425h-6.144v-35.384h-20.157v88.765zM218.849 172.154h8.013c10.151 0 16.149 5.075 16.149 12.956 0 8.269-5.599 12.411-14.948 12.544-4.941 0-7.746-0.389-9.216-0.668l0.001-24.832zM300.056 145.197l-6.411-23.096h-21.092l27.503 89.967h26.69l27.904-89.967h-21.894l-6.945 23.096h-25.755zM322.885 160.411l-5.611 19.089c-1.603 5.332-3.195 12.010-4.531 17.352h-0.276c-1.325-5.332-2.661-12.143-4.129-17.352l-5.343-19.089h19.889zM366.716 210.866c6.545 1.068 16.295 1.87 27.103 1.87 13.345 0 22.695-2.003 29.106-7.079 5.332-4.274 8.269-10.541 8.269-18.81 0-11.487-8.136-19.367-15.884-22.171v-0.389c6.267-2.548 9.74-8.548 12.010-16.829 2.795-10.139 5.599-21.894 7.335-25.356h-20.825c-1.469 2.538-3.596 9.884-6.267 20.959-2.404 11.219-6.267 14.28-14.559 14.425h-6.132v-35.384h-20.168l-0.001 88.765zM386.885 172.154h8.002c10.151 0 16.149 5.075 16.149 12.956 0 8.269-5.611 12.411-14.949 12.544-4.942 0-7.747-0.389-9.204-0.668l0.001-24.832z" horiz-adv-x="489" />
<glyph unicode="&#xe03b;" d="M456.049 257.391h-55.653l0.001 144.696-77.913 77.913h-289.392c-18.442 0-33.391-14.949-33.391-33.391v-445.217c0-18.444 14.948-33.391 33.391-33.391h333.913c18.432 0 33.391 14.949 33.391 33.391v66.783h55.653c18.432 0 33.391 14.949 33.391 33.391l0.001 122.435c0 18.444-14.949 33.391-33.392 33.391zM367.005 1.391h-333.913v445.219h267.13v-66.783h66.783v-122.434l-200.347-0.001c-18.444 0-33.391-14.948-33.391-33.391v-122.434c0-18.443 14.948-33.391 33.391-33.391h200.347v-66.784zM221.743 194.983h-24.165v17.096h69.141v-17.096h-24.565v-72.882h-20.413l0.001 72.882zM288.925 145.197l-6.411-23.096h-21.092l27.503 89.967h26.69l27.904-89.967h-21.894l-6.945 23.096h-25.755zM311.755 160.411l-5.611 19.089c-1.603 5.332-3.195 12.010-4.531 17.352h-0.277c-1.325-5.332-2.661-12.143-4.129-17.352l-5.343-19.089h19.89zM355.587 210.866c6.545 1.068 16.295 1.87 27.103 1.87 13.345 0 22.695-2.003 29.106-7.079 5.332-4.274 8.269-10.541 8.269-18.81 0-11.487-8.136-19.367-15.884-22.171v-0.389c6.267-2.548 9.74-8.548 12.010-16.829 2.795-10.139 5.599-21.894 7.335-25.356h-20.825c-1.469 2.538-3.596 9.884-6.267 20.959-2.404 11.219-6.267 14.28-14.559 14.425h-6.132v-35.384h-20.168l-0.001 88.765zM375.755 172.154h8.002c10.151 0 16.149 5.075 16.149 12.956 0 8.269-5.611 12.411-14.949 12.544-4.942 0-7.747-0.389-9.204-0.668l0.001-24.832z" horiz-adv-x="489" />
<glyph unicode="&#xe600;" d="M400.704 328.736c16.968 10.416 28.184 24.632 33.704 42.696-16.512-8.736-32.952-14.768-49.36-18.072-14.768 15.872-33.472 23.936-55.872 23.936-21.888 0-40.392-7.664-55.504-22.64-15.016-15.048-22.584-33.344-22.584-54.688 0-6.504 0.824-12.288 2.44-17.208-64.576 2.216-118.056 29-160.176 80.576-7.136-12.616-10.704-25.472-10.704-38.76 0-27.32 11.52-48.976 34.528-64.864-13.128 1.104-24.688 4.424-34.528 9.864 0-19.504 5.744-35.808 17.224-50.144 11.528-14.184 26.336-23.248 44.424-27.104-6.56-1.688-13.48-2.488-20.568-2.488-6.544 0-11.192 0.56-13.944 1.752 4.824-15.904 13.944-28.8 27.112-38.656 13.128-9.904 28.216-15.16 45.176-15.608-27.976-21.936-59.944-32.816-96.136-32.816-8.856 0-15.136 0.128-18.928 0.816 35.624-23.144 75.304-34.624 119.184-34.624 44.928 0 84.616 11.376 119.16 34.144 34.544 22.64 60.032 50.56 76.424 83.44 16.44 32.856 24.608 67.040 24.608 102.728v9.84c15.904 11.976 28.784 25.448 38.624 40.336-14.272-6.16-29.040-10.344-44.304-12.456z" />
<glyph unicode="&#xe601;" d="M265.52 428.064c-111.384 0-167.536-79.856-167.536-146.424 0-40.368 15.296-76.176 47.976-89.56 5.4-2.208 10.208-0.104 11.776 5.824 1.080 4.168 3.6 14.576 4.784 18.896 1.592 5.816 0.976 7.896-3.344 13.032-9.464 11.112-15.48 25.584-15.48 45.976 0 59.24 44.304 112.28 115.416 112.28 62.952 0 97.56-38.512 97.56-89.832 0-67.592-29.928-124.632-74.36-124.632-24.512 0-42.872 20.256-36.96 45.16 7.048 29.744 20.672 61.784 20.672 83.2 0 19.184-10.336 35.176-31.576 35.176-25.096 0-45.248-25.92-45.248-60.68 0-22.136 7.536-37.072 7.536-37.072s-25.688-108.72-30.16-127.752c-8.952-37.944-1.36-84.432-0.664-89.112 0.336-2.784 3.904-3.504 5.528-1.392 2.312 3.032 32.216 39.952 42.296 76.776 2.936 10.44 16.504 64.384 16.504 64.384 8.2-15.528 31.936-29.208 57.272-29.208 75.384 0 126.504 68.688 126.504 160.704-0.104 69.52-58.984 134.256-148.496 134.256z" />
<glyph unicode="&#xe602;" d="M419.168 180.2c-21.32 0.216-46.856-1.632-74.592-5.6-12.704 7.296-26.128 15.312-36.752 25.232-26.944 25.168-49.536 60.128-63.56 99.304 0.952 3.76 1.872 7.424 2.72 11.128 3.904 17.536 6.688 75.488 6.688 75.488s-11.080-43.544-12.832-50.104c-1.12-4.168-2.528-8.624-4.136-13.256-8.504 29.904-12.832 58.896-12.832 80.88 0 6.216 0.536 18.28 2.296 27.84 0.864 6.824 3.344 10.36 5.912 12.080 5.056-1.232 10.728-9.008 16.656-22.016 5.080-11.248 4.768-24.288 4.768-32.344 0 0 5.456 19.984 4.2 31.784-0.76 7.088-7.52 25.312-21.84 25.088h-1.176l-6.376 0.104c-10.456 0-20.256-5.136-22.616-13.584-8.792-32.416 1.040-82.56 17.464-145.016l-4.976-12.088c-12.56-30.632-28.264-61.144-42.080-88.208-57.024-111.592-101.392-171.792-130.96-176.024l-0.128 1.224c-0.64 13.912 25.056 49.816 59.88 78.344 3.624 2.936 19.12 17.92 19.12 17.92s-20.92-11.048-25.608-13.896c-43.632-26.048-65.344-52.144-68.888-69.456-1.048-5.144-0.36-11.472 4.176-14.056l11.168-5.616c30.368-15.192 67.68 24.776 117.328 111.776 50.52 16.56 113.552 32.168 170.936 40.616 51.376-29.344 110.296-43.304 132.92-37.272 4.304 1.144 8.84 4.512 11.168 7.632 1.816 2.864 4.336 14.36 4.336 14.36s-4.248-5.816-7.744-7.528c-14.352-6.776-59.568 4.52-105.984 27.232 40.144 4.264 73.584 4.448 91.448-1.272 22.688-7.24 22.688-14.68 22.408-16.192 0.28 1.248 1.328 6.216 1.2 8.344-0.52 5.456-2.184 10.304-6.304 14.344-8.4 8.248-29.136 12.44-57.408 12.808zM166.776 127.792c8.592 15.28 17.888 31.912 27.432 49.856 18.432 34.872 29.616 61.792 39.024 87.112 14.816-29.816 35.28-58.16 62.096-80.872 5.992-5.056 12.344-9.84 18.88-14.376-48.72-9.040-99.888-21.776-147.432-41.72z" />
<glyph unicode="&#xe603;" d="M441.336 246.864h-50.224v50.224c0 3.824-3.112 6.952-6.936 6.952h-14.304c-3.848 0-6.96-3.128-6.96-6.952v-50.224h-50.224c-3.824 0-6.944-3.12-6.944-6.96v-14.304c0-3.84 3.128-6.952 6.944-6.952h50.224v-50.232c0-3.84 3.112-6.952 6.96-6.952h14.304c3.832 0 6.936 3.112 6.936 6.952v50.24h50.224c3.824 0 6.944 3.112 6.944 6.952v14.304c0 3.84-3.12 6.952-6.944 6.952zM252.016 204.952c-12.64 8.952-24.136 22.088-24.328 26.12 0 7.344 0.656 10.848 17.128 23.688 21.296 16.672 33.032 38.584 33.032 61.752 0 21-6.424 39.656-17.344 52.76h8.488c1.752 0 3.472 0.544 4.856 1.568l23.64 17.128c2.936 2.112 4.168 5.856 3.048 9.288-1.128 3.424-4.296 5.76-7.904 5.76h-105.736c-11.56 0-23.32-2.040-34.848-6.008-38.528-13.28-65.48-46.12-65.48-79.824 0-47.752 36.992-83.944 86.448-85.080-0.968-3.792-1.464-7.512-1.464-11.168 0-7.36 1.864-14.328 5.704-21.064-0.448 0-0.872 0-1.36 0-47.136 0-89.68-23.128-105.832-57.544-4.208-8.944-6.352-18-6.352-26.928 0-8.688 2.224-17.056 6.608-24.904 10.152-18.168 31.944-32.248 61.416-39.688 15.2-3.84 31.544-5.808 48.512-5.808 15.248 0 29.792 1.968 43.224 5.856 41.904 12.168 69 43.016 69 78.624 0.016 34.16-10.968 54.624-40.456 75.472zM118.488 126.744c0 24.848 31.576 46.656 67.568 46.656h0.968c7.832-0.104 15.472-1.248 22.672-3.464 2.472-1.704 4.848-3.328 7.144-4.88 16.672-11.368 27.688-18.856 30.752-30.888 0.728-3.032 1.088-6.064 1.088-9 0-30.952-23.088-46.64-68.624-46.64-34.536-0.008-61.568 21.16-61.568 48.216zM151.232 361.592c5.624 6.424 12.992 9.824 21.264 9.824l0.936-0.016c23.368-0.688 45.728-26.736 49.832-58.056 2.312-17.528-1.584-34.024-10.408-44.072-5.64-6.44-12.904-9.832-21.504-9.832 0 0 0 0-0.016 0h-0.376c-22.88 0.704-45.728 27.736-49.816 59.016-2.296 17.488 1.384 33.208 10.088 43.136z" />
<glyph unicode="&#xe604;" d="M292 272h72v-72h-72v-168h-72v168h-72v72h72v30.12c0 28.528 8.976 64.568 26.84 84.304 17.832 19.736 40.144 29.576 66.864 29.576h50.296v-72h-50.392c-11.944 0-21.608-9.656-21.608-21.56v-50.44z" />
<glyph unicode="&#xe605;" d="M512 480v-192l-69.13 69.13-106-106-53.74 53.74 106 106-69.13 69.13zM122.87 410.87l106-106-53.74-53.74-106 106-69.13-69.13v192h192zM442.87 90.87l69.13 69.13v-192h-192l69.13 69.13-106 106 53.74 53.74zM228.87 143.13l-106-106 69.13-69.13h-192v192l69.13-69.13 106 106z" />
<glyph unicode="&#xe606;" d="M51.2 428.8v-409.6h409.6v409.6h-409.6zM125.671 56.435h-37.235v37.223h37.235v-37.222zM125.671 112.295h-37.235v37.223h37.235v-37.222zM125.671 168.128h-37.235v37.235h37.235v-37.235zM125.671 242.611h-37.235v37.235h37.235v-37.235zM125.671 298.457h-37.235v37.248h37.235v-37.248zM125.671 354.329h-37.235v37.248h37.235v-37.248zM349.094 56.435h-186.176v148.928h186.176v-148.928zM349.094 242.611h-186.176v148.953h186.176v-148.953zM423.552 56.435h-37.222v37.223h37.222v-37.222zM423.552 112.295h-37.222v37.223h37.222v-37.222zM423.552 168.128h-37.222v37.235h37.222v-37.235zM423.552 242.611h-37.222v37.235h37.222v-37.235zM423.552 298.457h-37.222v37.248h37.222v-37.248zM423.552 354.329h-37.222v37.248h37.222v-37.248z" />
<glyph unicode="&#xe607;" d="M406.157 220.019l-134.17 99.661c-7.488 7.488-23.194 7.488-30.669 0l-130.329-99.661c-4.237 0-7.667-7.271-7.667-11.507v-130.343c0-21.159 17.165-38.323 38.336-38.323h69.005v134.169c0 10.599 8.576 19.175 19.174 19.175h57.497c10.599 0 19.175-8.576 19.175-19.175v-134.157h69.005c21.159 0 38.336 17.165 38.336 38.323v130.329c-0.013 4.237-3.443 11.507-7.693 11.507zM473.625 241.6l-63.629 49.446v51.648c0 6.362-5.146 11.495-11.507 11.495h-38.323c-6.349 0-11.495-5.133-11.495-11.495v-3.981l-86.81 67.469c-0.013 0-0.026 0-0.026 0.013-2.714 2.317-6.681 2.611-9.6 0.333l-211.482-165.21c-3.328-2.611-3.929-7.424-1.319-10.752l4.723-6.042c2.611-3.341 7.424-3.93 10.765-1.331l201.946 157.786 202.585-157.44c3.341-2.599 8.166-2.010 10.777 1.319l4.736 6.016c2.599 3.315 2.010 8.128-1.344 10.726z" />
<glyph unicode="&#xe608;" d="M486.323 251.341l-67.712 53.645v56.038c0 6.899-5.491 12.467-12.25 12.467h-40.781c-6.759 0-12.237-5.568-12.237-12.467v-4.313l-92.39 73.203c-0.013 0-0.026 0-0.026 0.013-2.893 2.509-7.117 2.829-10.227 0.358l-225.049-179.251c-3.546-2.829-4.186-8.051-1.395-11.661l5.030-6.554c2.777-3.623 7.898-4.262 11.456-1.446l214.912 171.2 215.59-170.829c3.558-2.829 8.704-2.176 11.469 1.421l5.069 6.528c2.739 3.597 2.099 8.832-1.459 11.648zM271.783 336l-0.051 0.051c-7.974 8.128-24.691 8.128-32.64 0l-138.701-108.121c-4.505 0-8.153-7.885-8.153-12.493v-141.415c0-22.963 18.266-41.587 40.806-41.587h73.433v145.587c0 11.469 9.126 20.787 20.403 20.787h61.184c5.184 0 9.869-2.035 13.466-5.286l67.93 68.531-97.677 73.945zM381.913 32.448c22.515 0 40.807 18.624 40.807 41.575v50.777l-93.978-92.352h53.171zM254.681 110.899l60.467-60.48 101.696 101.696-60.467 60.467-101.696-101.683zM238.195 33.933l63.207 2.752-60.467 60.467-2.739-63.219zM447.091 223.591l-19.251 19.238c-11.379 11.392-29.824 11.392-41.229 0l-16.474-16.487 60.454-60.48 16.499 16.499c11.379 11.379 11.379 29.837 0 41.229z" />
<glyph unicode="&#xe609;" d="M243.2 221.645v13.338c-22.041-5.709-38.4-25.561-38.4-49.383 0-28.275 22.925-51.2 51.2-51.2s51.2 22.925 51.2 51.2c0 10.867-3.443 20.902-9.216 29.184l-9.293-9.293c3.558-5.811 5.709-12.582 5.709-19.891 0-21.209-17.178-38.4-38.4-38.4-21.197 0-38.4 17.19-38.4 38.4 0 16.704 10.726 30.759 25.6 36.045zM360.051 302.451c3.495 2.841 6.669 6.003 9.498 9.497l1.651 1.651-0.231 0.077c8.064 10.713 13.031 23.885 13.031 38.323 0 35.341-28.647 64-64 64s-64-28.659-64-64v-140.8h12.8l91.251 91.251zM320 390.4c21.223 0 38.4-17.19 38.4-38.4s-17.178-38.4-38.4-38.4c-21.197 0-38.4 17.19-38.4 38.4s17.203 38.4 38.4 38.4zM384 313.6v-25.6c7.079 0 12.8-5.735 12.8-12.8v-179.2c0-7.079-5.721-12.8-12.8-12.8h-256c-7.066 0-12.8 5.721-12.8 12.8v179.2c0 7.065 5.734 12.8 12.8 12.8h115.2v25.6h-115.2c-21.197 0-38.4-17.191-38.4-38.4v-204.8c0-21.209 17.203-38.4 38.4-38.4h256c21.223 0 38.4 17.19 38.4 38.4v204.8c0 21.209-17.178 38.4-38.4 38.4zM243.2 274.176c-43.405-6.221-76.8-43.456-76.8-88.576 0-49.485 40.115-89.6 89.6-89.6 49.497 0 89.6 40.115 89.6 89.6 0 21.491-7.577 41.19-20.173 56.627l-9.139-9.139c10.317-13.082 16.512-29.543 16.512-47.488 0-42.406-34.381-76.8-76.8-76.8-42.406 0-76.8 34.394-76.8 76.8 0 38.041 27.699 69.543 64 75.648v12.928zM256 172.8c7.079 0 12.8 5.721 12.8 12.8s-5.721 12.8-12.8 12.8c-7.065 0-12.8-5.721-12.8-12.8s5.734-12.8 12.8-12.8z" />
<glyph unicode="&#xe60a;" d="M135.795 261.581c16.589 0 30.054 13.44 30.054 30.054 0 16.589-13.465 30.054-30.054 30.054-16.614 0-30.055-13.465-30.055-30.054 0.013-16.627 13.453-30.054 30.055-30.054zM421.299 126.349v240.397c0 16.589-13.466 30.055-30.055 30.055h-315.571c-16.589 0-30.055-13.466-30.055-30.055v-240.397c0-16.64 13.465-30.055 30.055-30.055h315.571c16.589 0 30.055 13.414 30.055 30.055zM75.674 366.745h315.571v-240.397h-315.571v240.397zM436.301 351.731v-270.477h-345.575c0-16.589 13.44-30.055 30.055-30.055h315.52c16.589 0 30.055 13.466 30.055 30.055v240.423c0 16.589-13.466 30.054-30.055 30.054zM256 201.447l-45.069 60.121-45.069-90.176-30.054 45.069-45.069-75.123h285.478l-75.097 165.299-45.12-105.191z" />
<glyph unicode="&#xe60b;" d="M339.2 198.4h-140.8v-12.8h140.8v12.8zM339.2 236.8h-140.8v-12.8h140.8v12.8zM339.2 160h-140.8v-12.8h140.8v12.8zM160 320v-19.2h179.2v19.2c0 10.611-8.601 19.2-19.2 19.2h-32v51.2c0 14.131-11.469 25.6-25.6 25.6h-25.6c-14.131 0-25.6-11.469-25.6-25.6v-51.2h-32c-10.611 0-19.2-8.589-19.2-19.2zM236.8 377.6h25.6v-25.6h-25.6v25.6zM339.2 121.6h-140.8v-12.8h140.8v12.8zM339.2 275.2h-140.8v-12.8h140.8v12.8zM172.8 236.8h-12.8v-12.8h12.8v12.8zM172.8 275.2h-12.8v-12.8h12.8v12.8zM172.8 121.6h-12.8v-12.8h12.8v12.8zM364.8 377.6h-64v-25.6h64v-307.2h-230.4v307.2h64v25.6h-64c-14.131 0-25.6-11.469-25.6-25.6v-307.2c0-14.131 11.469-25.6 25.6-25.6h230.4c14.131 0 25.6 11.469 25.6 25.6v307.2c0 14.131-11.469 25.6-25.6 25.6zM172.8 160h-12.8v-12.8h12.8v12.8zM160 70.4h12.8v12.8h-12.8v-12.8zM172.8 198.4h-12.8v-12.8h12.8v12.8zM198.4 70.4h140.8v12.8h-140.8v-12.8z" />
<glyph unicode="&#xe60c;" d="M70.4 172.8v-115.2h76.8c0 0 0 64 0 76.8s12.8 12.8 12.8 12.8 37.606 0 51.2 0 12.8-12.8 12.8-12.8v-76.8h76.8v89.6l-115.2 140.8-115.2-115.2zM479.168 291.379c-1.37 4.749-2.317 7.027-2.317 7.027-1.498 3.661-5.939 6.208-9.869 5.658l-15.603-2.227c-3.942-0.551-8.96 1.677-11.175 4.953l-9.587 12.019c-2.739 2.841-3.853 8.217-2.457 11.917l5.594 14.809c1.382 3.712-0.205 8.486-3.546 10.586l-12.902 7.104c-3.584 1.677-8.461 0.474-10.867-2.701l-9.485-12.633c-2.381-3.175-7.501-5.107-11.379-4.327l-15.283 1.638c-3.981 0.103-8.55 3.136-10.163 6.745l-6.528 14.4c-1.625 3.622-6.144 5.99-10.048 5.299 0 0-2.406-0.448-7.168-1.831-4.736-1.369-7.027-2.304-7.027-2.304-3.661-1.51-6.208-5.939-5.645-9.869l2.227-15.641c0.563-3.93-1.677-8.935-4.966-11.149l-12.007-9.587c-2.867-2.739-8.217-3.853-11.93-2.458l-14.797 5.581c-3.712 1.395-8.486-0.192-10.599-3.533l-7.091-12.915c-1.677-3.571-0.474-8.461 2.701-10.841l12.634-9.497c3.175-2.381 5.107-7.501 4.327-11.379l-1.651-15.309c-0.103-3.955-3.136-8.525-6.759-10.163l-14.4-6.489c-3.597-1.638-5.977-6.157-5.274-10.073 0 0 0.435-2.419 1.817-7.168s2.317-7.027 2.317-7.027c1.498-3.687 5.926-6.195 9.856-5.658l15.642 2.24c3.93 0.538 8.947-1.69 11.149-4.954l9.613-12.007c2.739-2.854 3.853-8.243 2.432-11.93l-5.568-14.797c-1.408-3.712-0.755-8.013 1.433-9.523 2.202-1.523 8.269-5.107 8.269-5.12 0.026-0.026 1.997-0.986 4.39-2.163 2.381-1.19 10.816-1.344 13.184 1.805l9.485 12.659c2.394 3.161 7.501 5.107 11.392 4.313l15.283-1.639c3.968-0.103 8.538-3.136 10.163-6.759l6.515-14.387c1.639-3.61 6.157-6.003 10.061-5.299 0 0 2.419 0.435 7.168 1.83 4.749 1.37 7.040 2.317 7.040 2.317 3.648 1.485 6.195 5.939 5.619 9.856l-2.214 15.654c-0.563 3.917 1.664 8.947 4.954 11.149l12.007 9.6c2.854 2.752 8.231 3.865 11.93 2.457l14.81-5.606c3.712-1.37 8.474 0.205 10.599 3.546l7.079 12.902c1.69 3.61 0.461 8.474-2.701 10.854l-12.647 9.498c-3.149 2.368-5.094 7.501-4.313 11.379l1.639 15.283c0.128 3.968 3.149 8.537 6.771 10.176l14.375 6.49c3.623 1.651 6.016 6.157 5.299 10.073 0-0.013-0.423 2.394-1.805 7.143zM376.601 231.552c-15.271-4.441-31.257 4.339-35.712 19.609-4.442 15.283 4.339 31.257 19.623 35.712 15.271 4.441 31.257-4.339 35.699-19.609s-4.339-31.271-19.61-35.712zM233.907 271.257c4.864-4.864 12.749-4.864 17.613 0l8.806 8.806c4.864 4.864 4.864 12.749 0 17.613l-66.253 66.253c-3.75 3.75-9.28 4.531-13.85 2.496-1.817-0.615-3.533-1.51-4.979-2.957l-146.995-146.995c-5.005-5.005-5.005-13.107 0-18.099l9.050-9.063c5.005-5.005 13.107-5.005 18.112 0l130.227 130.227 48.269-48.281z" />
<glyph unicode="&#xe60d;" d="M427.046 375.846c-44.979 45.018-117.926 45.018-162.893 0l-186.765-184.55c-34.931-34.931-34.931-91.776 0-126.695 34.931-34.944 91.776-34.944 126.681 0l186.765 184.55c24.973 24.998 24.973 65.51 0 90.509-24.998 24.973-65.523 24.973-90.496 0l-140.391-140.416c-5.005-5.005-5.005-13.069 0-18.099 5.005-5.005 13.095-5.005 18.099 0l140.391 140.416c14.976 14.963 39.322 14.963 54.298 0 14.976-14.976 14.976-39.334 0-54.31l-186.726-184.55c-24.999-24.998-65.498-24.998-90.496 0s-24.998 65.523 0 90.496l184.909 182.771c34.995 34.983 91.75 34.983 126.695 0 35.021-35.008 35.021-91.725 0.026-126.707l-138.56-138.611c-5.043-5.031-5.043-13.094 0-18.099 4.992-5.031 13.094-5.031 18.099 0l140.377 140.403c44.992 44.979 44.992 117.939-0.013 162.893z" />
<glyph unicode="&#xe60e;" d="M371.2 390.4h-230.4c-14.131 0-25.6-11.469-25.6-25.6v-281.6c0-14.131 11.469-25.6 25.6-25.6h230.4c14.131 0 25.6 11.469 25.6 25.6v281.6c0 14.131-11.469 25.6-25.6 25.6zM288 364.8c10.599 0 19.2-8.589 19.2-19.2s-8.601-19.2-19.2-19.2-19.2 8.589-19.2 19.2 8.601 19.2 19.2 19.2zM256 121.6c-49.485 0-89.6 40.115-89.6 89.6s40.115 89.6 89.6 89.6 89.6-40.115 89.6-89.6-40.115-89.6-89.6-89.6zM352 326.4c-10.599 0-19.2 8.589-19.2 19.2s8.601 19.2 19.2 19.2 19.2-8.589 19.2-19.2-8.601-19.2-19.2-19.2zM256 288c-42.406 0-76.8-34.394-76.8-76.8s34.394-76.8 76.8-76.8 76.8 34.394 76.8 76.8-34.394 76.8-76.8 76.8zM294.4 224c-23.207 0-14.797-12.8-38.4-12.8-24.397 0-14.4 12.8-38.4 12.8s-25.6-12.8-25.6-12.8c0 35.341 28.659 64 64 64 35.353 0 64-28.659 64-64 0 0-2.394 12.8-25.6 12.8z" />
<glyph unicode="&#xe60f;" d="M29.824 6.528l110.553 91.034v186.253l-110.553-91.034v-186.253zM253.773 194.611l-108.326 89.203v-186.253l108.327-89.216v186.265zM289.498 371.891c0-19.213-15.577-34.803-34.803-34.803-19.213 0-34.803 15.577-34.803 34.803s15.577 34.803 34.803 34.803c19.213-0.013 34.803-15.591 34.803-34.803zM316.262 337.088c5.926 10.24 9.331 22.119 9.331 34.803 0 38.426-31.155 69.594-69.594 69.594-38.425 0-69.594-31.155-69.594-69.594 0-16.909 6.029-32.397 16.051-44.454l53.606-77.338 54.375 78.464c1.959 2.445 3.75 5.030 5.363 7.731l0.563 0.793h-0.103zM258.983 8.973l106.637 87.808v186.266l-106.637-87.821v-186.253zM482.176 6.528v186.253l-111.859 92.109v-186.253l111.859-92.109z" />
<glyph unicode="&#xe610;" d="M176 326.4v-19.2h179.2v19.2c0 10.599-8.601 19.2-19.2 19.2h-32v51.2c0 14.131-11.469 25.6-25.6 25.6h-25.6c-14.131 0-25.6-11.469-25.6-25.6v-51.2h-32c-10.599 0-19.2-8.601-19.2-19.2zM252.8 384h25.6v-25.6h-25.6v25.6zM380.8 281.6h25.6v76.8c0 14.131-11.469 25.6-25.6 25.6h-64v-25.6h64v-76.8zM380.8 89.6h-32l-19.2-25.6h51.2c14.131 0 25.6 11.469 25.6 25.6v76.8l-25.6-34.137v-42.663zM150.4 89.6v268.8h64v25.6h-64c-14.131 0-25.6-11.469-25.6-25.6v-268.8c0-14.131 11.469-25.6 25.6-25.6h102.4l-12.8 25.6h-89.6zM432 268.8c-96.793-26.073-134.119-125.466-135.462-137.6l-43.738 48-51.2-25.6c0 0 54.003-53.606 102.4-89.6 69.197 136 128 140.8 128 140.8s-0.051 23.719 0 64z" />
<glyph unicode="&#xe611;" d="M136 104h240v-32l64 48-64 48v-32h-240v32l-64-48 64-48v32zM456 184v-128h-400v128h-32v-160h464v160h-32zM235.984 372.448c8.032 2.864 16.752 4.288 26.16 4.288 10.4 0 18.384-2.368 23.936-7.136 5.552-4.752 8.336-11.584 8.336-20.48 0-7.616-1.712-14.176-5.12-19.68-3.424-5.504-11.024-13.232-22.832-23.168-9.904-8.256-16.848-16.256-20.816-23.968-3.968-7.728-5.952-17.408-5.952-29.040v-10.16h29.136v7.136c0 8.576 1.568 15.392 4.688 20.48s9.296 11.488 18.496 19.216c10.816 8.992 18.416 16.304 22.832 21.904 4.4 5.6 7.696 11.504 9.888 17.696 2.176 6.16 3.264 13.216 3.264 21.152 0 17.888-5.696 31.904-17.088 42.064-11.408 10.176-26.816 15.248-46.24 15.248-23.008 0-44.56-5.984-64.672-17.936l12.48-27.936c7.632 4.016 15.472 7.456 23.504 10.32zM255.456 216.416c-14.576 0-21.856-8-21.856-23.984 0-7.712 1.872-13.712 5.648-18.016 3.76-4.288 9.168-6.416 16.208-6.416 7.024 0 12.448 2.208 16.288 6.592 3.808 4.384 5.712 10.336 5.712 17.84 0 7.632-1.888 13.536-5.648 17.696-3.776 4.192-9.216 6.288-16.352 6.288z" />
<glyph unicode="&#xe612;" d="M317.491 348.237l12.627 22.615h45.57l13.775-22.615zM348.728 329.45h10.903v-25.252h-10.903v25.252zM315.601 330.565l10.152-3.982-9.22-23.51-10.152 3.981 9.22 23.511zM386.51 325.011l9.425 5.484 12.699-21.828-9.425-5.483-12.699 21.828zM421.134 478.591c-50.247 0-91.016-41.364-91.016-92.351v-15.388c0-8.515 6.772-15.387 15.16-15.387h15.164c8.39 0 15.184 6.872 15.184 15.387v15.388c0 25.506 20.395 46.167 45.508 46.167 25.154 0 45.552-20.66 45.552-46.167v-138.536h-55.022c-35.046-17.243-97.032-28.703-167.668-28.703s-132.622 11.46-167.667 28.703h-65.282l-0.684-46.186 1.069-30.775c0-61.431 35.56-114.304 86.873-138.988l-25.461-25.83c-5.931-6.014-5.931-15.759 0-21.753l10.731-10.892c5.931-6.013 15.51-6.013 21.461 0l43.641 44.298c4.781-0.453 9.603-0.781 14.506-0.781h197.258c0.123 0 0.245 0.043 0.328 0.043l40.031-40.585c5.521-5.622 14.464-5.622 20.005 0l10.013 10.135c5.498 5.58 5.498 14.671 0 20.271l-19.125 19.351c58.558 21.356 100.497 77.986 100.497 144.731v61.574c0 2.872 0 12.496 0 15.388v138.535c0.001 50.987-40.788 92.351-91.056 92.351z" />
<glyph unicode="&#xe613;" d="M72.732 254.396c0 21.539 17.311 39.005 38.661 39.005h77.323c21.352 0 38.662-17.466 38.662-39.005 0-6.293-1.485-12.234-4.108-17.498h50.877c-2.623 5.264-4.108 11.204-4.108 17.498 0 21.539 17.31 39.005 38.662 39.005h77.322c21.351 0 38.661-17.466 38.661-39.005 0-6.293-1.485-12.234-4.108-17.498h36.105v96.862h-415.945v-96.862h36.104c-2.622 5.264-4.108 11.204-4.108 17.498zM415.22 228.836c-7.089-8.24-17.536-13.457-29.196-13.457h-77.322c-11.661 0-22.108 5.217-29.197 13.457h-61.59c-7.088-8.24-17.536-13.457-29.197-13.457h-77.323c-11.66 0-22.107 5.217-29.196 13.457h-81.457v-88.79h511.932v88.79h-97.454zM0.742 99.697h31.996v-24.215h47.994v24.215h351.952v-24.215h47.994v24.215h31.996v24.216h-511.932v-24.216zM456.682 363h-415.946v-24.793h415.945v24.793z" />
<glyph unicode="&#xe614;" d="M102.121 288.814h102.121c21.679 0 40.846-19.847 40.846-40.848h20.424c0 21.001 19.16 40.848 40.848 40.848h102.12c21.703 0 40.848-19.847 40.848-40.848h20.426v122.544c0 0-73.709 61.271-207.891 61.271-134.204 0-221.015-61.271-221.015-61.271v-122.544h20.423c0 21.001 19.159 40.848 40.85 40.848zM469.754 227.54h-428.906c-21.672 0-40.848-2.951-40.848-23.955v-37.314h510.602v37.314c0 21.004-19.166 23.955-40.848 23.955zM0 104.995h40.848v-40.848h40.848v40.848h347.21v-40.848h40.848v40.848h40.848v40.849h-510.602v-40.849zM220.25 253.5c0-6.627-5.373-12-12-12h-112.75c-6.627 0-12 5.373-12 12v9.25c0 6.627 5.373 12 12 12h112.75c6.627 0 12-5.373 12-12v-9.25zM426.74 253.5c0-6.627-5.373-12-12-12h-112.75c-6.628 0-12 5.373-12 12v9.25c0 6.627 5.372 12 12 12h112.75c6.627 0 12-5.373 12-12v-9.25z" />
<glyph unicode="&#xe615;" d="M140.197 159.579c45.734 0 82.81-16.619 82.81-37.123 0-20.502-37.075-37.123-82.81-37.123s-82.81 16.621-82.81 37.123c0.001 20.504 37.076 37.123 82.81 37.123zM401.923 143.631c24.724 0 44.766-9.554 44.766-22.919 0-13.364-20.042-24.199-44.766-24.199-24.722 0-44.764 10.835-44.764 24.199s20.042 22.919 44.764 22.919zM213.62 137.812c0 0 33.343-11.229 83.211-11.229 49.526 0 100.158 8.25 100.158 8.25v-30.439c0 0-49.87 12.090-99.654 12.090-49.61 0-83.715-9.391-83.715-9.391v30.719zM140.197 73.566c45.651 2.75 82.81-16.62 82.81-37.122s-37.075-37.124-82.81-37.124c-8.888 0 11.214 19.004 10.674 37.119-0.558 18.671-21.46 36.479-10.674 37.127zM401.923 57.618c24.724 0 44.766-9.554 44.766-22.919 0-13.364-20.042-24.199-44.766-24.199-24.722 0-44.764 10.835-44.764 24.199s20.042 22.919 44.764 22.919zM213.62 51.799c0 0 33.343-11.229 83.211-11.229 49.526 0 100.158 8.25 100.158 8.25v-30.439c0 0-49.87 12.090-99.654 12.090-49.61 0-83.715-9.391-83.715-9.391v30.719zM84.279 73.558h65.311c2.123 0 3.842-1.719 3.842-3.84v-2.561c0-2.12-1.719-3.84-3.842-3.84h-65.311c-2.121 0-3.842 1.72-3.842 3.84v2.561c0.001 2.121 1.721 3.84 3.842 3.84zM84.279 9.56h65.311c2.123 0 3.842-1.718 3.842-3.839v-2.561c0-2.121-1.719-3.84-3.842-3.84h-65.311c-2.121 0-3.842 1.719-3.842 3.84v2.561c0.001 2.121 1.721 3.839 3.842 3.839zM84.279 53.078h72.994c2.121 0 3.842-1.719 3.842-3.84v-2.56c0-2.121-1.721-3.841-3.842-3.841h-72.994c-2.121 0-3.842 1.72-3.842 3.841v2.56c0.001 2.121 1.721 3.84 3.842 3.84zM84.279 31.319h72.994c2.121 0 3.842-1.719 3.842-3.84v-2.561c0-2.121-1.721-3.84-3.842-3.84h-72.994c-2.121 0-3.842 1.719-3.842 3.84v2.561c0.001 2.122 1.721 3.84 3.842 3.84zM1.041 205.137h510.959v-21.502h-510.959v21.502zM267.229 456.348c0-7.166-5.822-12.974-13.004-12.974s-13.004 5.808-13.004 12.974c0 7.166 5.822 12.974 13.004 12.974s13.004-5.808 13.004-12.974zM254.225 435.742c-118.707 0-214.938-96.015-214.938-214.455 0-2.3 0.049-4.588 0.121-6.87h429.636c0.072 2.282 0.122 4.57 0.122 6.87-0.001 118.44-96.233 214.455-214.941 214.455zM183.307 243.024h-95.229c-0.057 1.763 0.162 3.924 0.162 5.7 0 91.49 74.314 165.658 165.984 165.658 1.117 0 2.223-0.062 3.334-0.084-42.458-29.457-72.366-94.928-74.251-171.274z" />
<glyph unicode="&#xe616;" d="M451 131.5h-388c-15.029 10.737-26.51 24.047-35 37h-28v49h512v-49h-25c-8.49-12.953-20.971-26.263-36-37zM84 142.5h349v-23h-349v23zM181.232 420.5c5.537 0 11.076 0 16.613 0 72.704-59.52-72.703-119.039 0-178.56-5.168-0.329-10.781-0.654-16.613 0-72.703 59.521 72.704 119.040 0 178.56zM254.078 420.5c5.537 0 11.075 0 16.613 0 72.704-59.52-72.703-119.039 0-178.56-5.468-0.423-10.98-0.579-16.613 0-72.704 59.521 72.703 119.040 0 178.56v0zM325.646 420.5c5.538 0 11.075 0 16.613 0 72.704-59.52-72.703-119.039 0-178.56-5.467-0.501-10.98-0.668-16.613 0-72.705 59.521 72.703 119.040 0 178.56v0z" />
<glyph unicode="&#xe617;" d="M8.274 446.5h496.449c4.57 0 8.274-3.706 8.274-8.277v-16.556c0-4.571-3.704-8.278-8.274-8.278h-496.449c-4.57 0-8.274 3.707-8.274 8.278v16.556c0 4.571 3.704 8.277 8.274 8.277zM66.192 49.166v380.779h380.612v-380.779h-380.612zM248.224 198.167h-33.096v33.111h33.096v132.445h-148.934v-298h148.934v132.444zM413.709 363.723h-132.387v-132.444h33.096v-33.111h-33.096v-132.444h132.387v297.999zM99.29 231.278l33.097-231.778-49.646 16.556-49.644-16.556 33.096 231.778h33.097zM413.709 231.278l-33.098-231.778 49.646 16.556 49.645-16.556-33.098 231.778h-33.095zM66.192 264.389h33.098l16.547 82.778 132.387 16.556h-182.032v-99.334zM446.805 264.389h-33.096l-16.548 82.778-132.388 16.556h182.031v-99.334z" />
<glyph unicode="&#xe618;" d="M308.5 371c0 13.091 9.876 24 23 24h57v84h-101.555c-45.932 0-83.445-41.181-83.445-87v-424h105v403zM151.5 314.074h240l-9.505-90.074h-230.495v90.074z" />
<glyph unicode="&#xe619;" d="M-0.25 480.25v-512h512v512h-512zM352.75 224.25h-65v-224h-91v224h-46v79h46v69c0 40.17 32.324 76 72.515 76h88.485v-74h-50c-11.483 0-20-9.523-20-21-0.208 0.227 0-50 0-50h73l-8-79z" />
<glyph unicode="&#xe61a;" d="M255.875 480c-141.454 0-256.125-114.671-256.125-256.125s114.671-256.125 256.125-256.125 256.125 114.671 256.125 256.125-114.671 256.125-256.125 256.125zM332.667 223.875h-51.459v-177.334h-72.042v177.334h-36.416v62.542h36.417v54.625c0 31.802 25.59 60.166 57.408 60.166h70.051v-58.583h-39.583c-9.092 0-15.834-7.539-15.834-16.625-0.164 0.18 0-39.583 0-39.583h57.791l-6.333-62.542z" />
<glyph unicode="&#xe61b;" d="M121.901 159.112c-6.732 0-12.19-5.457-12.19-12.189h24.38c0 6.732-5.458 12.189-12.19 12.189zM486.001 233.498h-18.001c-24.855 0-26.999-20.143-26.999-44.998v-63h-171.001v53.999h153.002v63h17.999c24.854 0 45 20.144 45 44.999 0 24.854-20.146 44.999-45 44.999h-369.001c-24.854 0-45-20.146-45-44.999 0-24.855 20.146-44.999 45-44.999h18v-63h153.001v-53.999h-171.001v63c0 24.855-2.145 44.998-27 44.998h-18c-24.854 0-27-20.143-27-44.998v-152.997h45v27h423v-27h45v152.997c0 24.855-2.146 44.998-26.999 44.998zM72.125 281.011c-4.628 0-8.533 2.913-8.533 7.542 0 4.628 3.904 7.695 8.533 7.695h360.623c4.628 0 8.253-3.067 8.253-7.695 0-4.629-3.625-7.542-8.253-7.542h-360.623zM182.852 159.112c-6.732 0-12.19-5.457-12.19-12.189h24.379c0 6.732-5.457 12.189-12.189 12.189zM307.292 146.923h24.38c0 6.732-5.457 12.189-12.189 12.189s-12.191-5.457-12.191-12.189zM368.242 146.923h24.381c0 6.732-5.458 12.189-12.19 12.189s-12.191-5.457-12.191-12.189z" />
<glyph unicode="&#xe61c;" d="M480.5 27.5h-41v276h-14v-276h-41c-2.425 0-4.266-2.259-4.266-4.648v-5.852c0-2.375 1.841-4.5 4.266-4.5h96c2.445 0 4.685 2.125 4.685 4.5v5.852c0 2.389-2.24 4.648-4.685 4.648zM381.732 435.354l-29.232-116.854h3.5l28.464 116.854zM414.201 435.354l-10.31-116.854h14.275l4.899 116.854zM401.335 435.354l-18.166-116.854h14.274l12.755 116.854zM388.468 435.354l-26.021-116.854h14.275l20.61 116.854zM452.803 435.354l13.254-116.854h14.274l-18.665 116.854zM465.669 435.354l21.109-116.854h14.275l-26.52 116.854zM482.242 435.354h-3.706l28.964-116.854h4zM427.068 435.354l-2.456-116.854h14.276l-2.955 116.854zM439.936 435.354l5.398-116.854h14.275l-10.809 116.854zM346 161h-20c-5.436 0-10-5.557-10-11v-118c0-5.437 4.564-9 10-9v-11h20v11c5.445 0 10 4.491 10 9.928v118.14c0 5.444-4.555 9.932-10 9.932zM30 161h-20c-5.44 0-10.002-4.714-10.002-10.157v-118.077c0-5.438 4.562-9.766 10.002-9.766v-11h19v11c5.44 0 11 4.563 11 10v117c0 5.443-4.56 11-10 11zM47.979 51.155c0-5.447 3.58-11.155 9.021-11.155h109c5.433 0 9 4.553 9 10v41h-127l-0.021-39.845zM166.325 199h-107.525c-5.435 0-10.8-4.569-10.8-10v-89h127v90c0 5.431-3.242 9-8.675 9zM72.325 142.968c-2.988 0-5.41 2.418-5.41 5.4s2.422 5.4 5.41 5.4 5.41-2.418 5.41-5.4-2.422-5.4-5.41-5.4zM111.548 142.968c-2.988 0-5.41 2.418-5.41 5.4s2.422 5.4 5.41 5.4c2.988 0 5.41-2.418 5.41-5.4s-2.422-5.4-5.41-5.4zM150.771 142.968c-2.988 0-5.41 2.418-5.41 5.4s2.422 5.4 5.41 5.4 5.41-2.418 5.41-5.4-2.423-5.4-5.41-5.4zM180.173 51.155c0-5.447 4.386-11.155 9.827-11.155h109c5.434 0 8.985 5.708 8.985 11.155l0.015 39.845h-128l0.173-39.845zM307.985 189.549c0 5.431-4.034 9.451-9.467 9.451h-107.525c-5.435 0-10.993-3.569-10.993-9v-90h128l-0.015 89.549zM204.519 142.968c-2.988 0-5.41 2.418-5.41 5.4s2.422 5.4 5.41 5.4 5.41-2.418 5.41-5.4-2.423-5.4-5.41-5.4zM243.741 142.968c-2.987 0-5.409 2.418-5.409 5.4s2.422 5.4 5.409 5.4c2.988 0 5.41-2.418 5.41-5.4s-2.422-5.4-5.41-5.4zM282.964 142.968c-2.987 0-5.409 2.418-5.409 5.4s2.422 5.4 5.409 5.4c2.988 0 5.41-2.418 5.41-5.4s-2.422-5.4-5.41-5.4z" />
<glyph unicode="&#xe61d;" d="M300 408.5l-31-23h-13.717c12.389-15.523 19.717-34.718 19.717-55.5 0-33.854-19.439-63.496-48.545-79.903-4.102-5.699-7.152-11.566-7.455-16.68-1-16.917 28-33.417 37-40.917s21.97-20.912 27-32c5.575-12.288 10.525-52.295 5.791-65.798-8.593-41.913-62.304-74.202-127.291-74.202-70.969 0-128.5 38.504-128.5 86s57.531 88 128.5 88c0.6 0 1.195-0.010 1.793-0.016-5.152 6.479-8.293 15.078-8.293 24.516 0 4.439 0.696 8.692 1.969 12.628-53.442 2.429-95.969 43.296-95.969 93.372 0 40.15 27.343 74.379 65.726 87.626 14.106 6.932 30.19 10.874 47.274 10.874 2.066 0 4.116-0.064 6.152-0.178 0.6 0.112 1.215 0.178 1.848 0.178h109c5.522 0 10-4.477 10-10l-1-5zM96 112.5c0-29.271 32.459-53 72.5-53s73.5 13.729 72.5 53c-0.745 29.262-32.459 53-72.5 53s-72.5-23.729-72.5-53zM145.16 385.527c-22.676-8.539-30.836-42.335-18.226-75.487s41.216-53.104 63.892-44.565 30.836 42.335 18.225 75.486c-12.61 33.152-41.215 53.105-63.891 44.566zM291 260.5h191v-38h-191v38zM406 336.5v-191h-38v191h38z" />
<glyph unicode="&#xe61e;" d="M194.672 263.989c20.857 7.854 28.363 38.941 16.764 69.435s-37.911 48.846-58.768 40.992c-20.858-7.854-28.364-38.941-16.764-69.435 11.598-30.493 37.91-48.845 58.768-40.992zM174.136 172.029c-36.831 0-66.687-21.825-66.687-48.75s29.856-48.751 66.687-48.751c36.831 0 67.606 12.628 66.687 48.751-0.685 26.915-29.856 48.75-66.687 48.75zM0 480v-512h512v512h-512zM284.782 106.908c-7.904-38.553-57.309-68.253-117.085-68.253-65.279 0-118.197 35.417-118.197 79.104s52.918 80.944 118.197 80.944c0.551 0 1.099-0.009 1.649-0.014-4.739 5.959-7.628 13.869-7.628 22.55 0 4.084 0.641 7.996 1.811 11.615-49.157 2.234-88.274 39.825-88.274 85.886 0 36.932 25.15 68.416 60.456 80.601 12.975 6.376 27.77 10.002 43.484 10.002 1.901 0 3.786-0.059 5.659-0.163 0.551 0.104 1.117 0.163 1.699 0.163h100.261c5.079 0 9.198-4.118 9.198-9.198l-0.92-4.599-28.515-21.156h-12.617c11.396-14.278 18.136-31.935 18.136-51.050 0-31.14-17.881-58.405-44.652-73.496-3.772-5.242-6.579-10.639-6.857-15.343-0.92-15.562 25.755-30.738 34.033-37.637s20.208-19.235 24.835-29.435c5.129-11.301 9.682-48.101 5.327-60.521zM462.5 224.46h-69.906v-70.827h-34.953v70.827h-70.826v34.953h70.826v69.906h34.953v-69.906h69.906v-34.953z" />
<glyph unicode="&#xe61f;" d="M223.215 260.619c17.271 6.504 23.487 32.25 13.882 57.504s-31.394 40.454-48.666 33.949-23.487-32.25-13.882-57.504c9.606-25.254 31.394-40.454 48.666-33.949zM206.209 184.459c-30.499 0-55.223-18.076-55.223-40.375s24.724-40.374 55.223-40.374 55.984 10.458 55.222 40.374c-0.567 22.291-24.723 40.375-55.222 40.375zM256.5 480c-141.109 0-255.5-114.391-255.5-255.5s114.391-255.5 255.5-255.5c141.108 0 255.5 114.392 255.5 255.5 0 141.109-114.392 255.5-255.5 255.5zM297.834 130.526c-6.545-31.928-47.456-56.526-96.957-56.526-54.056 0-97.877 29.331-97.877 65.514s43.821 67.037 97.877 67.037c0.457 0 0.911-0.008 1.366-0.012-3.925 4.936-6.317 11.486-6.317 18.676 0 3.381 0.531 6.621 1.5 9.619-40.707 1.851-73.099 32.983-73.099 71.13 0 30.586 20.826 56.661 50.063 66.753 10.745 5.28 22.996 8.283 36.009 8.283 1.574 0 3.135-0.049 4.686-0.135 0.457 0.085 0.926 0.135 1.408 0.135h83.024c4.207 0 7.617-3.411 7.617-7.618l-0.762-3.809-23.612-17.521h-10.448c9.437-11.826 15.019-26.448 15.019-42.279 0-25.789-14.808-48.371-36.977-60.869-3.124-4.342-5.448-8.811-5.679-12.707-0.762-12.887 21.327-25.457 28.183-31.17 6.855-5.714 16.733-15.931 20.565-24.377 4.247-9.361 8.017-39.838 4.411-50.124zM387 228v-59h-29v59h-58v29h58v58h29v-58h58v-29h-58z" />
<glyph unicode="&#xe620;" d="M169.344 352.884h16.592v-132.333h-16.592v132.333zM169.344 237.093h199.12v-16.542h-199.12v16.542zM351.87 352.884h16.594v-132.333h-16.594v132.333zM210.828 344.614c0 0-70.351 2.537-79.917 41.354-9.567 38.818 13.152 78.849 47.827 84.914s101.635-12.13 101.635-12.13 23.914 18.195 53.806 18.195c29.893 0 80.112-24.261 83.698-54.587 3.588-30.327-5.978-44.883-29.892-60.653-23.914-15.771-61.005-17.093-61.005-17.093v16.542c0 0 27.55 0.64 52.758 18.663 17.58 12.568 26.543 17.156 21.912 39.233-3.733 17.797-29.381 37.715-58.077 41.354s-63.2-19.85-63.2-19.85-82.107 21.284-102.732 11.579c-22.363-10.522-33.188-25.335-33.188-49.625 0-33.164 66.375-41.354 66.375-41.354v-16.542zM227.42 311.531h16.593v-49.625h-16.593v49.625zM260.606 311.531h16.594v-49.625h-16.594v49.625zM293.793 311.531h16.595v-49.625h-16.595v49.625zM73.531-13.609h392v-16.391h-392v16.391zM267.771 163.179c-91.070 0-164.898-73.647-164.898-164.495 0-1.763 0.038-3.518 0.092-5.268h329.611c0.056 1.75 0.093 3.505 0.093 5.268 0 90.847-73.827 164.495-164.898 164.495zM213.292 15.66h-72.79c-0.043 1.352-0.072 2.708-0.072 4.070 0 70.175 57.012 127.064 127.341 127.064 0.858 0 1.703-0.048 2.557-0.065-32.574-22.592-55.59-72.509-57.036-131.069zM277.748 178.985c0-5.497-4.467-9.952-9.977-9.952s-9.977 4.455-9.977 9.952c0 5.497 4.467 9.952 9.977 9.952s9.977-4.455 9.977-9.952z" />
<glyph unicode="&#xe621;" d="M0 479v-128h401v128h-401zM82.125 387.75c-15.119 0-27.375 12.256-27.375 27.375s12.256 27.375 27.375 27.375 27.375-12.256 27.375-27.375-12.256-27.375-27.375-27.375zM155.125 387.75c-15.119 0-27.375 12.256-27.375 27.375s12.256 27.375 27.375 27.375 27.375-12.256 27.375-27.375-12.256-27.375-27.375-27.375zM246.375 387.75c-15.119 0-27.375 12.256-27.375 27.375s12.256 27.375 27.375 27.375c15.119 0 27.375-12.256 27.375-27.375s-12.256-27.375-27.375-27.375zM319.375 387.75c-15.119 0-27.375 12.256-27.375 27.375s12.256 27.375 27.375 27.375 27.375-12.256 27.375-27.375-12.256-27.375-27.375-27.375zM420 479h91v-128h-91v128zM420 333h91v-365h-91v365zM0 333v-365h401v365h-401zM347 23h-292v182h292v-182zM347 260h-292v18h292v-18zM65 190h5v-158h-5v158zM89 190h5v-158h-5v158zM114 190h5v-158h-5v158zM138 190h5v-158h-5v158zM163 190h5v-158h-5v158zM187 190h5v-158h-5v158zM212 190h5v-158h-5v158zM236 190h5v-158h-5v158zM261 190h5v-158h-5v158zM285 190h5v-158h-5v158zM310 190h5v-158h-5v158zM334 190h5v-158h-5v158zM286 420h69v-11h-69v11zM214 420h69v-11h-69v11zM124 420h69v-11h-69v11zM48 420h69v-11h-69v11z" />
<glyph unicode="&#xe622;" d="M480.5 27.5h-41v276h-14v-276h-41c-2.425 0-4.266-2.259-4.266-4.648v-5.852c0-2.375 1.841-4.5 4.266-4.5h96c2.445 0 4.685 2.125 4.685 4.5v5.852c0 2.389-2.24 4.648-4.685 4.648zM323.5 233.5h-29c-8.037 0-15-7.938-15-16v-175c0-8.054 6.963-14 15-14v-16h29l-0.084 16.166c8.053 0 15.084 6.78 15.084 14.834v175c0 8.062-6.947 15-15 15zM44.5 233.5h-30c-8.044 0-13.909-7.271-13.909-15.334v-174.906c0-8.054 5.865-14.76 13.909-14.76v-16h29v16c8.044 0 16 6.946 16 15v174c0 8.062-6.956 16-15 16zM74.5 70.5c0-8.069 6.954-16 15-16h160c8.034 0 14 7.931 14 16v58h-189v-58zM381.732 435.354l-29.232-116.854h3.5l28.464 116.854zM414.201 435.354l-10.31-116.854h14.275l4.899 116.854zM401.335 435.354l-18.166-116.854h14.274l12.755 116.854zM388.468 435.354l-26.021-116.854h14.275l20.61 116.854zM452.803 435.354l13.254-116.854h14.274l-18.665 116.854zM465.669 435.354l21.109-116.854h14.275l-26.52 116.854zM482.242 435.354h-3.706l28.964-116.854h4zM427.068 435.354l-2.456-116.854h14.276l-2.955 116.854zM439.936 435.354l5.398-116.854h14.275l-10.809 116.854zM249.5 289.5h-159c-8.037 0-15-5.955-15-14v-132h188v132c0 8.045-5.966 14-14 14zM110.5 206.5c-4.418 0-8 3.582-8 8s3.582 8 8 8 8-3.582 8-8-3.582-8-8-8zM168.5 206.5c-4.418 0-8 3.582-8 8s3.582 8 8 8 8-3.582 8-8-3.582-8-8-8zM226.5 206.5c-4.418 0-8 3.582-8 8s3.582 8 8 8 8-3.582 8-8-3.582-8-8-8z" />
<glyph unicode="&#xe623;" d="M256.833 306.563c-68.811 0-124.593-55.782-124.593-124.593s55.782-124.593 124.593-124.593 124.594 55.782 124.594 124.593c0 68.811-55.783 124.593-124.594 124.593zM256.833 64.354c-64.957 0-117.616 52.657-117.616 117.615s52.659 117.616 117.616 117.616c64.958 0 117.616-52.659 117.616-117.616s-52.658-117.615-117.616-117.615zM364.485 171.592c0-34.376-31.777-76.349-62.132-76.349-30.353 0-55.063 41.69-20.502 76.066 41.442 41.223-16.945 118.309-16.945 118.309s99.579 0.382 99.579-118.026zM497.049 479h-480.431c-8.258 0-14.951-6.694-14.951-14.951v-481.926c0-8.258 6.694-14.951 14.951-14.951h480.431c8.257 0 14.951 6.693 14.951 14.951v481.926c0 8.257-6.694 14.951-14.951 14.951zM34.366 454.456h97.3v-32.785h-97.3v32.785zM256.833 45.416c-75.417 0-136.554 61.137-136.554 136.554s61.137 136.554 136.554 136.554c75.417 0 136.555-61.137 136.555-136.554s-61.138-136.554-136.555-136.554zM422.293 422.186c-8.809 0-15.948 7.14-15.948 15.948s7.14 15.948 15.948 15.948 15.948-7.141 15.948-15.948-7.139-15.948-15.948-15.948zM461.166 422.186c-8.809 0-15.948 7.14-15.948 15.948s7.14 15.948 15.948 15.948 15.948-7.141 15.948-15.948-7.139-15.948-15.948-15.948z" />
<glyph unicode="&#xe624;" d="M65.28 96.56c35.501 0 64.279-28.779 64.279-64.279s-28.778-64.28-64.279-64.28c-35.502-0.001-64.28 28.778-64.28 64.279s28.778 64.28 64.28 64.28zM418.324-30.25c0-0.878-0.012-1.754-0.017-2.631h94.676c0.005 0.877 0.017 1.753 0.017 2.631 0 281.803-228.447 510.25-510.25 510.25-0.998 0-1.993-0.013-2.99-0.019v-94.675c0.997 0.007 1.992 0.019 2.99 0.019 229.516 0 415.574-186.059 415.574-415.575zM234.967-30.758c0-0.71-0.021-1.415-0.027-2.123h94.674c0.002 0.379 0.015 0.756 0.015 1.136 0 181.355-147.017 328.374-328.374 328.374-0.419 0-0.836-0.014-1.255-0.016v-93.69c0.42 0.002 0.836 0.016 1.257 0.016 129.075-0.001 233.71-104.63 233.71-233.697z" />
<glyph unicode="&#xe625;" d="M1.75 386.206c-0.584 0-1.167-0.006-1.75-0.011v-88.688c0.085 0 0.17 0.003 0.255 0.003 181.356 0 328.374-147.019 328.374-328.374 0-0.38-0.013-0.757-0.015-1.136h88.693c0.005 0.877 0.017 1.753 0.017 2.631 0 229.515-186.058 415.575-415.574 415.575zM0.257 203.819c-0.086 0-0.171-0.002-0.257-0.003v-170.655c0 35.5 28.778 64.279 64.28 64.279 35.501 0 64.279-28.779 64.279-64.279s-28.778-64.28-64.279-64.28c-35.502 0-64.28 28.779-64.28 64.28v-65.161h233.94c0.007 0.708 0.026 1.413 0.026 2.123 0.001 129.066-104.634 233.696-233.709 233.696zM512-32v2.631c0-0.878-0.012-1.754-0.017-2.631h0.017zM31.811 480c267.809-15.56 480.189-237.658 480.189-509.369v509.369h-480.189z" />
<glyph unicode="&#xe626;" d="M65.28 96.56c35.501 0 64.279-28.779 64.279-64.279s-28.778-64.28-64.279-64.28c-35.502-0.001-64.28 28.778-64.28 64.279s28.778 64.28 64.28 64.28zM418.324 10.631c0-0.878-0.012-1.754-0.017-2.631 0 0 0-40 47.192-40 47.483 0 47.483 40 47.483 40 0.005 0.877 0.017 1.753 0.017 2.631 0.001 281.803-188.206 469.369-470.009 469.369-0.998 0-1.993-0.013-2.99-0.019 0 0-40 0-40-46.98 0-47.695 40-47.695 40-47.695 0.997 0.007 1.992 0.019 2.99 0.019 229.516 0 375.334-145.179 375.334-374.694zM234.967 10.123c0-0.71-0.021-1.415-0.027-2.123 0 0 3-40 47.060-40 47.614 0 47.614 40 47.614 40 0.002 0.379 0.015 0.756 0.015 1.136 0 181.355-105.017 287.493-286.374 287.493-0.419 0-0.836-0.014-1.255-0.016 0 0-42-0.007-42-45.613 0-48.062 42-48.077 42-48.077 0.42 0.002 0.836 0.016 1.257 0.016 129.075-0.001 191.71-63.75 191.71-192.816z" />
<glyph unicode="&#xe627;" d="M447 480h-447v-512h512v446l-65 66zM448 32h-384v384h384v-384zM96 448v-192h288v192h-288zM320 288h-64v128h64v-128z" />
<glyph unicode="&#xe628;" d="M0 66v-98h511.5v98h-511.5zM468.626-5c-11.014 0-19.942 8.954-19.942 20s8.929 20 19.942 20c11.013 0 19.941-8.954 19.941-20s-8.928-20-19.941-20zM100.705 163h311.087l99.708-87h-510.503l99.708 87zM231.321 402v-110h-27.918l52.845-98.988 52.846 98.988h-26.922v110h-50.851z" />
<glyph unicode="&#xe629;" d="M462.291 188.827h-411.052c-9.432 0-17.079-7.645-17.079-17.075v-69.435c0-9.43 9.866-16.306 19.298-16.306h410.519c9.433 0 15.13 6.709 15.13 16.139v69.596c-0.001 9.43-7.383 17.081-16.816 17.081zM14.233 235.496c-7.86 0-14.233-6.37-14.233-14.228v-239.039c0-7.859 6.373-14.229 14.233-14.229s14.233 6.37 14.233 14.229v239.039c0 7.858-6.372 14.228-14.233 14.228zM498.158 235.496c-7.86 0-14.233-6.37-14.233-14.229v-239.039c0-7.858 6.373-14.229 14.233-14.229s14.233 6.37 14.233 14.229v239.040c0.001 7.858-6.371 14.228-14.233 14.228zM462.968 236.299h-409.51c-9.433 0-18.16-7.309-18.16-16.738v-5.691c0-9.43 7.718-16.906 17.151-16.906h410.518c9.433 0 16.402 7.477 16.402 16.906v5.691c0.001 9.429-6.969 16.738-16.401 16.738zM345.5 254.5h-9.385c-0.821 2.567-1.888 6.459-1.888 9.363 0 5.189 2.817 10.637 2.817 10.637l-82.784-11.346-86.305 11.346c0 0 2.818-5.203 2.818-10.283 0-2.938-1.203-6.983-2.15-9.717h-9.123v-6h80.514c7.732-7.962 20.059-7.962 27.791 0h77.695v6zM242.5 252.29v2.21h-2.531c-0.049 0.051-0.103 0.093-0.151 0.144v-0.144h-68.318c0 0 2.091 6.359 2.091 9.819 0 3.628-2.818 7.345-2.818 7.345l82.74-11.346 80.715 11.346c0 0-2.818-3.892-2.818-7.598 0-3.369 2.091-9.565 2.091-9.565h-65.501v0.144c-0.049-0.051-0.102-0.093-0.15-0.144h-2.35l-0.028-2.090c-6.85-5.179-16.086-5.221-22.972-0.121z" />
<glyph unicode="&#xe62a;" d="M137.778 319.797v-32.853h372.33v32.853h-372.33zM479.993 24.123h30.115v260.084h-30.115v-260.084zM282.878 284.207v-260.084h194.378v260.084h-194.378zM192.533-11.467h12.32v-20.533h26.008v20.533h243.657v-20.533h26.010v20.533h9.581v32.853h-317.576v-32.853zM0.893-32h17.795v381.912h-17.795v-381.912zM147.361-32h17.794v150.574h-17.794v-150.574zM21.425 121.312h143.73v19.164h-143.73v-19.164z" />
<glyph unicode="&#xe62b;" d="M221.5 225v-24h272v24h-272zM471.5 9h22v190h-22v-190zM327.5 199v-190h142v190h-142zM261.5-17h9v-15h19v15h178v-15h19v15h7v24h-232v-24zM21.5 201h162v24h-162v-24zM21.5 397h162v24h-162v-24zM21.5-17h6v-15h19v15h113v-15h19v15h5v24h-162v-24zM43.5 199h-22v-190h22v190zM43.5 395h-22v-168h22v168zM161.5 227h22v168h-22v-168zM161.5 9h22v190h-22v-190zM46.5 302v-75h22v75h-22zM71.5 302v-75h22v75h-22zM117.419 303.569l-21.25-5.694 19.412-72.444 21.25 5.694-19.412 72.444z" />
<glyph unicode="&#xe62c;" d="M36.804 68.805c0 0 67-40 136-40s145.327 32.081 183 75c39.5 45 56.397 76.863 67.051 118.473 8.29 32.378 9.148 76.785 8.949 78.527 0 0 17 11.5 25 20s20 26 20 26-20.5-9-29-11-21-3-21-3 20 17.5 25 24 13 24 13 24-22-11-35-15-23-5-23-5-25.574 31.91-68 28c-48.833-4.5-64.891-28.278-78-49-15.5-24.5-7-62-7-62s-49.174 3.963-90 20c-52.006 20.427-99 74-99 74s-11.385-20.998-11-41c0.5-26 5.815-41.445 14-53 8.5-12 26-27 26-27s-11 1-20 3c-7.717 1.715-21 9-21 9s0.255-24.744 12-46c20.875-37.78 61-44 61-44s-7-2-22-3-19 1-19 1 8.989-29.796 30-44c26.1-17.644 54-19 54-19s-33.746-23.050-59-31c-27-8.5-73-8-73-8z" />
<glyph unicode="&#xe62d;" d="M0.402 480.485v-512h512v512h-512zM456.402 336.319c-8-8.5-25-20-25-20 0.199-1.742-0.66-46.149-8.949-78.527-10.654-41.609-27.551-73.473-67.051-118.473-37.674-42.919-114-75-183-75s-136 40-136 40 46-0.5 73 8c25.254 7.95 59 31 59 31s-27.9 1.356-54 19c-21.011 14.204-30 44-30 44s4-2 19-1 22 3 22 3-40.125 6.22-61 44c-11.745 21.256-12 46-12 46s13.283-7.285 21-9c9-2 20-3 20-3s-17.5 15-26 27c-8.185 11.555-13.5 27-14 53-0.385 20.002 11 41 11 41s46.994-53.573 99-74c40.826-16.037 90-20 90-20s-8.5 37.5 7 62c13.109 20.722 29.166 44.5 78 49 42.426 3.91 68-28 68-28s10 1 23 5 35 15 35 15-8-17.5-13-24-25-24-25-24 12.5 1 21 3 29 11 29 11-12-17.5-20-26z" />
<glyph unicode="&#xe62e;" d="M256.242 480.485c-141.518 0-256.242-114.724-256.242-256.243s114.724-256.242 256.242-256.242 256.242 114.724 256.242 256.242c0 141.519-114.723 256.243-256.242 256.243zM409.603 309.997c-6.135-6.518-19.17-15.336-19.17-15.336 0.152-1.336-0.507-35.388-6.862-60.215-8.17-31.907-21.126-56.339-51.415-90.845-28.888-32.91-87.415-57.51-140.324-57.51s-104.286 30.672-104.286 30.672 35.273-0.384 55.977 6.135c19.364 6.096 45.241 23.771 45.241 23.771s-21.394 1.040-41.407 14.569c-16.111 10.892-23.004 33.739-23.004 33.739s3.067-1.534 14.569-0.767c11.502 0.767 16.869 2.3 16.869 2.3s-30.768 4.77-46.774 33.74c-9.006 16.299-9.202 35.272-9.202 35.272s10.187-5.586 16.104-6.9c6.901-1.534 15.336-2.301 15.336-2.301s-13.419 11.502-19.937 20.703c-6.276 8.86-10.353 20.704-10.735 40.641-0.295 15.338 8.435 31.439 8.435 31.439s36.035-41.080 75.913-56.743c31.306-12.296 69.013-15.336 69.013-15.336s-6.519 28.755 5.367 47.542c10.053 15.889 22.364 34.123 59.811 37.573 32.532 2.998 52.143-21.471 52.143-21.471s7.668 0.767 17.636 3.834c9.969 3.067 26.839 11.502 26.839 11.502s-6.135-13.419-9.969-18.403c-3.834-4.984-19.17-18.403-19.17-18.403s9.585 0.767 16.103 2.3c6.518 1.534 22.237 8.435 22.237 8.435s-9.204-13.419-15.338-19.937z" />
<glyph unicode="&#xe62f;" d="M120 80h120v48h-120v-48zM183 115.504c5.52 0 10-4.48 10-10s-4.48-10-10-10-10 4.48-10 10 4.48 10 10 10zM120 160h120v48h-120v-48zM183 195.504c5.52 0 10-4.48 10-10s-4.48-10-10-10-10 4.48-10 10 4.48 10 10 10zM280 80h120v320h-120v-320zM303 259.504c5.52 0 10-4.48 10-10s-4.48-10-10-10-10 4.48-10 10 4.48 10 10 10zM120 240h120v160h-120v-160zM215 323.504c5.52 0 10-4.48 10-10s-4.48-10-10-10-10 4.48-10 10 4.48 10 10 10zM80 64v-48h24v24h144v-24h24v24h144v-24h24v416h-360v-368zM272 408h136v-336h-136v336zM112 408h136v-176h-136v176zM112 216h136v-64h-136v64zM112 136h136v-64h-136v64zM80 440h360l16 16h-392z" />
<glyph unicode="&#xe630;" d="M400 376h-120v-320h120v320zM303.2 215.6c-5.6 0-10 4.4-10 10s4.4 10 10 10 10-4.4 10-10c-0.4-5.6-4.8-10-10-10zM440-8v416h-360v-416h24v24h144v-24h24v24h144v-24h24zM248 48h-136v336h136v-336zM408 48h-136v336h136v-336zM440 416l16 16h-392l16-16z" />
<glyph unicode="&#xe631;" d="M238.769 226.255c0-13.257-10.748-24.005-24.005-24.005s-24.005 10.748-24.005 24.005c0 13.257 10.748 24.005 24.005 24.005s24.005-10.748 24.005-24.005zM327.385 226.255c0-13.257-10.748-24.005-24.005-24.005s-24.005 10.748-24.005 24.005c0 13.257 10.748 24.005 24.005 24.005s24.005-10.748 24.005-24.005zM453.376 442.26h-389.986c-13.253 0-24.005-10.752-24.005-24.005v-1.211c0-5.849 2.097-11.205 5.573-15.36 2.127-2.54 4.539-5.464 6.764-8.655 3.978-5.701 7.355-12.298 7.355-19.259v-374.587c0-5.445 11.234-9.846 24.615-9.846s24.615 4.401 24.615 9.846v29.538c0 10.87 8.822 19.692 19.692 19.692h265.846c10.87 0 19.692-8.822 19.692-19.692v-29.538c0-5.445 11.235-9.846 24.615-9.846s24.615 4.401 24.615 9.846v378.87c0 5.041 0.965 10.26 2.264 14.976 2.225 3.2 4.647 6.125 6.764 8.655 3.476 4.155 5.573 9.512 5.573 15.36v1.211c0.010 13.253-10.742 24.005-23.995 24.005zM246.154 97.644c0-10.88-8.822-19.692-19.692-19.692h-118.154c-10.87 0-19.692 8.813-19.692 19.692v265.846c0 10.87 8.822 19.692 19.692 19.692h118.154c10.87 0 19.692-8.822 19.692-19.692v-265.846zM433.231 97.644c0-10.88-8.822-19.692-19.692-19.692h-118.154c-10.87 0-19.692 8.813-19.692 19.692v265.846c0 10.87 8.822 19.692 19.692 19.692h118.154c10.87 0 19.692-8.822 19.692-19.692v-265.846z" />
<glyph unicode="&#xe632;" d="M89.749 432.057v-416.113h29.168v90.087h276.111v-90.091h27.218v416.118h-332.498zM395.029 121.59h-81.669v61.25h-22.359v-61.255h-8.75v61.255h-22.359v-61.255h-7.782v61.255h-22.359v-61.255h-9.242v61.255h-22.359v-61.255h-8.75v61.255h-22.359v-61.255h-7.782v61.255h-22.359v-61.255h-17.981v88.806h276.111v-88.802zM395.029 225.94h-15.769l4.68 1.065-14.351 63.207-21.801-4.951 13.461-59.32h-13.461v62.602h-22.359v-62.602h-104.428v62.878h-22.359v-62.873h-8.75v62.873h-22.359v-62.873h-7.782v62.873h-22.359v-62.873h-18.468v82.959h276.111v-82.964zM395.029 324.464h-9.231v64.814h-22.37v-64.814h-8.75v64.814h-22.359v-64.814h-7.783v64.814h-22.354v-64.814h-110.992l14.439 3.282-14.351 63.212-21.806-4.962 13.972-61.537h-13.972v64.819h-22.359v-64.814h-28.191v92.037h276.111v-92.037z" />
<glyph unicode="&#xe633;" d="M472.615 480h-433.231c-10.851 0-19.692-8.842-19.692-19.692v-19.692c0-10.851 8.842-19.692 19.692-19.692v-433.231c0-10.851 8.842-19.692 19.692-19.692h19.692c0 0 19.692 0.276 19.692 19.692s0 19.692 0 19.692c0 10.851 8.842 19.692 19.692 19.692h275.692c10.851 0 19.692-8.842 19.692-19.692 0 0 0-0.216 0-19.692s19.692-19.692 19.692-19.692h19.692c10.851 0 19.692 8.842 19.692 19.692v433.231c10.851 0 19.692 8.842 19.692 19.692v19.692c0 10.851-8.842 19.692-19.692 19.692zM236.308 420.923v-354.462h-157.538v354.462h157.538zM433.231 66.462h-157.538v354.462h157.538v-354.462zM315.077 184.615c10.89 0 19.692 8.803 19.692 19.692v39.385c0 10.89-8.803 19.692-19.692 19.692s-19.692-8.803-19.692-19.692v-39.385c0-10.89 8.803-19.692 19.692-19.692zM196.923 184.615c10.89 0 19.692 8.803 19.692 19.692v39.385c0 10.89-8.803 19.692-19.692 19.692s-19.692-8.803-19.692-19.692v-39.385c0-10.89 8.803-19.692 19.692-19.692z" />
<glyph unicode="&#xe634;" d="M243.296 350.49h-138.917v-306.315h138.917v306.315zM223.232 197.334h-16.752v76.582h16.752v-76.582zM407.622 350.49h-138.917v-306.315h138.912v306.315zM301.904 197.334h-16.752v76.582h16.752v-76.582zM10.181 455.11v-62.214h45.056v-400.005h400.197v400.005h46.389v62.214h-491.642zM426.714 21.606h-342.757v354.171h342.762v-354.171z" />
<glyph unicode="&#xe635;" d="M288.624 244.432h-288.624v-32.192h25.728v-244.24h212.704v244.24h50.192zM406.384 227.568c55.024 0 96.528 12.112 96.528 28.176 0 35.040 0 74.72-12.272 105.456-13.856 34.768-41.424 51.664-84.272 51.664-96.512 0-96.512-87.12-96.512-157.12-0.016-16.080 41.472-28.176 96.528-28.176zM391.28 216.992h35.232v-7.040h-35.232v7.040zM391.28 202.912h35.232v-7.072h-35.232v7.072zM391.28 188.784h35.232v-7.024h-35.232v7.024zM486.288 177.36c-8.528 0-18.528-1.008-30.128-2.144-14.448-1.44-30.8-3.088-48.16-3.088-18.416 0-35.616 2.32-50.768 4.352-11.744 1.568-21.904 2.928-30.336 2.928-16.688 0-22.912-5.472-22.912-20.24 0-9.712 39.568-23.28 104-23.28 64.448 0 104 13.568 104 23.28 0.016 13.264-6.944 18.192-25.696 18.192zM333.536-18.144c0-6.45-5.136-11.68-11.472-11.68s-11.472 5.229-11.472 11.68c0 6.45 5.136 11.68 11.472 11.68s11.472-5.229 11.472-11.68zM490.304 0.576c2.16 0 4.192-0.448 6.128-1.136-3.088 38.768-46.192 43.552-69.904 43.184-2.592-0.048-4.992-0.16-7.040-0.288v22.64c-3.808-0.080-7.632-0.144-11.472-0.144-3.232 0-6.448 0.032-9.68 0.112v-23.008c-1.696 0.16-4.096 0.352-7.024 0.512-21.76 1.072-72.016-1.024-75.344-43.008 1.92 0.688 3.984 1.136 6.128 1.136 3.28 0 6.304-0.944 8.976-2.448 0.464 10.832 8.656 30.368 60.256 32.912 2.288 0.128 4.624 0.192 7.024 0.24v-33.904c3.088 2.016 6.736 3.216 10.656 3.216 3.856 0 7.472-1.184 10.496-3.152v33.696c2.448-0.112 4.8-0.256 7.040-0.416 46.736-3.616 54.336-22.128 54.784-32.56 2.64 1.488 5.68 2.416 8.976 2.416zM501.744-18.144c0-6.45-5.122-11.68-11.44-11.68s-11.44 5.229-11.44 11.68c0 6.45 5.122 11.68 11.44 11.68s11.44-5.229 11.44-11.68zM421.504-19.232c0-7.051-5.609-12.768-12.528-12.768s-12.528 5.716-12.528 12.768c0 7.051 5.609 12.768 12.528 12.768s12.528-5.716 12.528-12.768zM400 128h16v-64h-16v64z" />
<glyph unicode="&#xe636;" d="M54.444 233.893v-93.494h152.111v93.494h-152.112zM132.667 167.981c-10.25 0-18.555 8.347-18.555 18.627 0 10.286 8.305 18.626 18.555 18.626s18.555-8.339 18.555-18.626c0-10.279-8.305-18.627-18.555-18.627zM512 51.2h-512v73.082h512v-73.082zM298.43 342.469c0 30.017 24 54.331 53.611 54.331s53.639-24.314 53.639-54.331c0-30.023-24.027-54.324-53.639-54.324s-53.611 24.301-53.611 54.324zM245.334 140.399c3.958 56.904 18.166 95.976 43.625 118.813 5.402 4.866 11.125 9.317 17.346 13.001 3.556 2.102 7.333 3.796 11.194 5.188 9.445 3.425 19.529 5.050 29.543 5.394l-16.75-142.397h-27.904c1.417 32.54 2.917 63.358 3.792 81.049-12.279-16.959-20.098-44.55-22.958-81.049h-37.888zM372.055 140.399l-13.375 142.186c9.181-0.633 18.361-2.343 27.070-5.408 9.389-3.291 17.486-8.522 25.277-14.646 28.418-22.269 43.931-63.479 46.514-122.133h-37.792c-1.805 36.464-9.277 63.963-21.861 81.021 1.598-19.814 4.112-52.628 5.653-81.021h-31.486z" />
<glyph unicode="&#xe637;" d="M304.576 311.040h-304.576v-34.048h27.152v-308.992h224.464v308.992h52.96zM500.48 222.512l11.52 118.816h-36.704l-11.472-118.816c-2.752-86.832-55.76-83.008-79.184-84.144l-64.336 0.064v-36.736h62.064c0.512-0.016 1.248-0.080 2.112-0.096v-89.232h-21.872c-24.432 0-44.32-19.904-44.32-44.368h24.464c0 10.976 8.88 19.888 19.84 19.888h80.304c10.96 0 19.888-8.928 19.888-19.888h24.432c0 24.448-19.888 44.368-44.336 44.368h-21.824v93.296c58.128 2.672 72.448 65.36 79.424 116.848z" />
<glyph unicode="&#xe638;" d="M49.632 181.328h-18.624v85.312c0 47.856 53.136 85.36 120.992 85.36s120.976-37.488 120.976-85.36v-85.312h-18.608v85.312c0 37.616-44.976 67.072-102.368 67.072s-102.368-29.456-102.368-67.072v-85.312zM12.4 156.944h279.2v-188.944h-18.624v109.712h-241.968v-109.712h-18.608v188.944zM37.216 89.904h229.552v48.752h-229.552v-48.752zM43.424 132.56h217.136v-36.576h-217.136v36.576zM140.368 115.44c0-4.208 3.472-7.664 7.76-7.664s7.76 3.456 7.76 7.664-3.488 7.6-7.76 7.6c-4.288 0-7.76-3.392-7.76-7.6zM279.184 175.216h-279.184l12.4-12.208h279.2l12.4 12.208h-24.816zM170.064 241.744c1.872 1.696-6.416 13.424-18.528 26.128-12.112 12.72-23.456 21.632-25.328 19.92-1.872-1.728 6.416-13.44 18.528-26.144 12.112-12.72 23.456-21.632 25.328-19.904zM113.792 269.504c-1.872-1.728 10.864-18.064 28.416-36.528 17.568-18.432 33.328-32 35.2-30.272 1.872 1.712-10.848 18.080-28.4 36.512-17.568 18.48-33.328 32.016-35.216 30.288zM378.64 109.12h-42.64v-141.12h24.592l11.152 87.36h104.368l7.888-87.36h28v141.12h-40.736zM498.448 122.544v181.456h-17.104l-0.624-13.44h-113.728l-0.944 13.44h-16.512v-181.456h29.008l-4.176 60.496h101.184l-2.928-60.496h25.824zM373.472 196.48l-0.944 13.44h104.304l-0.624-13.44h-102.736z" />
<glyph unicode="&#xe639;" d="M529.109 122.983c0 16.194-12.407 29.291-27.817 29.291-15.28-0.038-27.836-13.097-27.836-29.291v-60.635l-112.277 112.333c-10.858 10.877-28.433 10.877-39.291 0-10.858-10.858-10.858-28.489 0-39.347l111.736-111.698h-60.355c-16.437-0.038-29.683-12.481-29.683-27.817 0-15.373 13.247-27.798 29.683-27.798h126.139c16.437 0 29.664 12.407 29.721 27.798-0.056 0.411-0.112 0.728-0.168 1.138 0.056 0.522 0.168 1.082 0.168 1.623v124.404zM167.911 174.68l-112.221-112.333v60.635c0 16.194-12.538 29.254-27.855 29.291-15.373 0-27.799-13.097-27.799-29.291l-0.037-124.441c0-0.541 0.149-1.101 0.186-1.623-0.038-0.392-0.112-0.709-0.149-1.138 0.038-15.392 13.284-27.798 29.701-27.798h126.157c16.399 0 29.665 12.425 29.665 27.798 0 15.336-13.265 27.78-29.665 27.817h-60.355l111.736 111.698c10.821 10.858 10.821 28.489 0 39.347-10.877 10.914-28.471 10.914-39.366 0.038zM361.178 273.356l112.277 112.259v-60.635c0-16.138 12.556-29.198 27.836-29.254 15.411 0 27.818 13.116 27.818 29.254v124.46c0 0.541-0.112 1.101-0.168 1.586 0.056 0.392 0.112 0.765 0.168 1.156-0.056 15.411-13.284 27.817-29.702 27.817h-126.139c-16.437 0-29.683-12.407-29.683-27.817 0-15.317 13.247-27.798 29.683-27.836h60.355l-111.736-111.698c-10.858-10.839-10.858-28.433 0-39.273 10.858-10.933 28.433-10.933 39.291-0.018zM95.541 424.346h60.336c16.399 0.038 29.665 12.519 29.665 27.836 0 15.411-13.265 27.817-29.665 27.817h-126.139c-16.418 0-29.665-12.407-29.701-27.817 0.038-0.392 0.112-0.765 0.149-1.156-0.038-0.485-0.186-1.026-0.186-1.586l0.037-124.478c0-16.138 12.425-29.254 27.799-29.254 15.317 0.056 27.854 13.116 27.854 29.254v60.635l112.221-112.24c10.895-10.914 28.489-10.914 39.366 0 10.821 10.839 10.821 28.433 0 39.273l-111.736 111.717z" horiz-adv-x="529" />
<glyph unicode="&#xf00c;" d="M273.936 385.367c22.483-1.828 42.026 14.935 43.855 37.416 1.748 22.482-15.017 42.026-37.5 43.933-22.404 1.666-42.106-15.095-43.776-37.58-1.905-22.321 14.857-42.023 37.421-43.769zM393.322 243.315l-54.125 37.28-39.577 78.613c-6.736 10.181-17.837 18.524-31.311 19.596-10.411 0.918-19.828-2.68-27.637-8.114l-78.928-63.918c-2.528-2.295-4.363-5.281-5.435-8.572l-17.302-77.545c-0.153-0.918-0.306-1.683-0.306-2.449-0.764-9.875 6.431-18.373 16.306-19.137 9.109-0.689 16.917 6.276 18.833 14.849l14.623 66.52 27.56 22.276-42.181-186.777-50.525-84.74c-1.531-2.984-3.291-7.348-3.597-11.483-1.227-14.697 9.722-27.555 24.497-28.627 10.334-0.842 19.445 4.515 24.804 12.858l54.429 91.704c1.071 2.373 4.823 8.344 5.282 11.177l13.167 60.395 56.651-62.004 17.762-93.161c2.832-11.101 11.865-20.056 23.961-21.050 14.622-1.072 27.483 9.644 28.555 24.493 0.153 1.761-0.153 3.139 0 5.359l-18.833 99.438c-0.611 2.984-1.683 5.971-3.291 8.496l-69.664 82.365 17.76 78.387 14.776-29.471c1.224-1.913 2.757-3.751 4.517-5.204l59.023-40.647c2.757-1.226 5.129-2.45 8.115-2.603 9.723-0.841 18.219 6.431 18.986 16.151 0.608 6.28-2.224 12.020-6.894 15.541z" />
<glyph unicode="&#xf153;" d="M278.857 106.572l10-45.428q0.857-3.428-0.857-6.428t-4.857-4.143l-1.428-0.286q-1.143-0.572-3-1t-4.572-1.286-6.143-1.572-7.286-1.428-8.572-1.428-9.572-1.286-10.428-0.857-11-0.286q-66.857 0-116.857 37.286t-68 100.428h-27.143q-3.715 0-6.428 2.714t-2.715 6.428v32.286q0 3.714 2.715 6.428t6.428 2.714h18.857q-0.572 16.286 0.285 30h-19.143q-4 0-6.572 2.572t-2.571 6.571v32.572q0 4 2.571 6.572t6.572 2.571h28q19.143 60 69.572 96.572t114.429 36.572q29.143 0 55.428-6.572 3.143-0.857 5.714-4.285 1.714-3.143 0.857-6.857l-12.286-45.428q-0.857-3.714-4-5.572t-6.857-0.714l-1.143 0.285q-1.143 0.286-3.286 0.715l-5 1t-6.428 1-7.428 0.857-8.286 0.715-8.428 0.285q-36 0-64.572-18.285t-42.857-50.286h133.714q4.571 0 7.143-3.429 2.857-3.428 2-7.428l-6.857-32.572q-1.429-7.428-9.143-7.428h-139.429q-0.857-10.572 0-30h131.143q4.286 0 7.143-3.429 2.571-3.429 1.714-7.715l-6.857-32q-0.571-3.143-3.143-5.286t-5.714-2.143h-110.572q13.715-33.428 42.715-53t65.286-19.572q5.143 0 10.286 0.428t9.572 1 8.428 1.286 7 1.428 5.286 1.286l3.428 0.857 1.428 0.572q3.714 1.428 7.428-0.572 3.428-2 4.286-6z" horiz-adv-x="293" />
<glyph unicode="&#xf154;" d="M291.428 155.143v-104.857q0-4-2.572-6.572t-6.572-2.572h-273.143q-4 0-6.572 2.572t-2.571 6.572v42.857q0 3.714 2.715 6.428t6.428 2.714h27.715v109.428h-27.143q-4 0-6.572 2.714t-2.571 6.428v37.428q0 4 2.571 6.572t6.572 2.572h27.143v63.714q0 48.857 35.285 80.572t89.857 31.714q52.857 0 95.715-35.714 2.572-2.286 2.857-5.857t-2-6.428l-29.428-36.286q-2.571-3.143-6.286-3.428-3.714-0.572-6.572 2-1.429 1.428-7.428 5.428t-19.714 9.143-26.572 5.143q-24.286 0-39.143-13.428t-14.857-35.143v-61.428h87.143q3.714 0 6.429-2.572t2.714-6.571v-37.428q0-3.714-2.714-6.428t-6.428-2.714h-87.143v-108.286h118.285v51.714q0 3.714 2.571 6.428t6.571 2.714h46.286q4 0 6.572-2.714t2.572-6.428z" horiz-adv-x="293" />
</font>
</defs>
</svg>
