<?xml version="1.0" encoding="utf-8"?>
<!-- Generator: Adobe Illustrator 16.0.0, SVG Export Plug-In . SVG Version: 6.00 Build 0)  -->
<!DOCTYPE svg PUBLIC "-//W3C//DTD SVG 1.1//EN" "http://www.w3.org/Graphics/SVG/1.1/DTD/svg11.dtd" [
	<!ENTITY ns_extend "http://ns.adobe.com/Extensibility/1.0/">
	<!ENTITY ns_ai "http://ns.adobe.com/AdobeIllustrator/10.0/">
	<!ENTITY ns_graphs "http://ns.adobe.com/Graphs/1.0/">
	<!ENTITY ns_vars "http://ns.adobe.com/Variables/1.0/">
	<!ENTITY ns_imrep "http://ns.adobe.com/ImageReplacement/1.0/">
	<!ENTITY ns_sfw "http://ns.adobe.com/SaveForWeb/1.0/">
	<!ENTITY ns_custom "http://ns.adobe.com/GenericCustomNamespace/1.0/">
	<!ENTITY ns_adobe_xpath "http://ns.adobe.com/XPath/1.0/">
]>
<svg version="1.1" id="Layer_1" xmlns:x="&ns_extend;" xmlns:i="&ns_ai;" xmlns:graph="&ns_graphs;"
	 xmlns="http://www.w3.org/2000/svg" xmlns:xlink="http://www.w3.org/1999/xlink" x="0px" y="0px" width="64px" height="64px"
	 viewBox="0 0 64 64" enable-background="new 0 0 64 64" xml:space="preserve">
<metadata>
	<sfw  xmlns="&ns_sfw;">
		<slices></slices>
		<sliceSourceBounds  height="64" width="57.109" bottomLeftOrigin="true" y="-21.5" x="-20.055"></sliceSourceBounds>
	</sfw>
</metadata>
<g>
	<g>
		<path fill-rule="evenodd" clip-rule="evenodd" fill="#454545" d="M31.1,50.209c0.22,0.746,0.755,1.379,1.505,1.755l0.361,0.167
			c0.442,0.221,0.95,0.338,1.47,0.338c1.017,0,1.992-0.439,2.597-1.16l14.579-16.899c0.895-1.063,0.604-1.999,0.439-2.354
			c-0.163-0.351-0.7-1.173-2.102-1.188l-10.528-0.095c-1.341,0-2.817,0.819-3.457,1.872l-1.256,1.804
			c-0.827,1.341-0.438,3.155,0.864,4.05l0.655,0.45c0.121,0.086,0.251,0.307,0.286,0.445l-5.123,8.574
			C30.981,48.658,30.877,49.454,31.1,50.209z M39.134,40.771c0.86-1.432,0.07-3.338-1.209-4.223l-0.729-0.505l1.259-1.806
			c0.153-0.252,0.668-0.535,0.97-0.535l8.834,0.083L34.765,49.427c-0.038,0.047-0.171,0.115-0.329,0.115l-0.438-0.166L39.134,40.771
			z M9.018,45.678l17.098,3.861c0.231,0.054,0.473,0.08,0.717,0.08c1.242,0,2.483-0.684,3.088-1.699l2.721-4.555
			c0.77-1.295,0.479-3.083-0.666-4.071l-3.43-2.965c-0.296-0.255-0.608-0.938-0.608-1.324V30.5c0-0.296-0.046-0.582-0.129-0.852
			c-0.939,1.467-1.906,2.849-2.835,4.104v1.249c0,1.234,0.682,2.721,1.622,3.529l3.429,2.964c0.08,0.071,0.116,0.292,0.062,0.384
			l-2.72,4.554c-0.068,0.116-0.321,0.255-0.532,0.255L9.679,42.821c-0.126-0.03-0.294-0.236-0.294-0.365v-7.579
			c-0.95-1.238-1.963-2.631-2.965-4.131v11.715C6.42,43.958,7.537,45.346,9.018,45.678z M45.521,60.012l-10.345-5.186
			c-1.367-0.689-3.313-0.313-4.316,0.819l-3.756,4.227c-0.974,1.091-0.729,2.546-0.563,2.912C26.708,63.149,27.257,64,28.73,64
			h15.903c1.604,0,2.048-0.838,2.169-1.339C46.925,62.162,46.952,60.73,45.521,60.012z M30.379,61.069l2.709-3.49
			c0.115-0.13,0.551-0.241,0.746-0.142l6.229,3.632H30.379z M27.801,53.124c-0.284-0.755-0.958-1.29-1.85-1.477L10.135,48.4
			c-1.685-0.349-3.236,0.91-3.236,2.601V61.07c0,1.616,1.33,2.93,2.965,2.93h8.709c1.287,0,2.784-0.733,3.56-1.745l5.244-6.816
			C27.93,54.722,28.084,53.878,27.801,53.124z M19.771,60.484c-0.215,0.28-0.84,0.586-1.197,0.586H9.865v-9.734l14.63,3.008
			L19.771,60.484z M55.107,13.808H42.971c-0.205,0-0.606,0.059-0.606,0.059s-4.196-0.005-8.522-0.009
			c-0.023,0.816-0.112,1.646-0.256,2.483c4.461,0,9.179,0.001,9.385,0.001h12.138c0.819,0,1.483,0.658,1.483,1.464v4.422H56.59
			c-1.509-0.894-3.861-0.932-5.55-0.069l-9.077,4.899c-0.216,0.111-0.354,0.13-0.402,0.133c-0.029-0.06-0.068-0.196-0.068-0.415
			l-1.15-1.997c0,0-0.464-1.458-2.386-1.458h-6.647c-0.383,0.834-0.795,1.661-1.231,2.475l8.449,0.184
			c0,1.968,1.242,3.344,3.019,3.344c0.587,0,1.185-0.154,1.778-0.458l9.077-4.634c0.399-0.204,0.896-0.317,1.403-0.317
			c0.708,0,1.197,0.211,1.418,0.408c0.755,0.667,1.449,0.807,1.9,0.807c1.208,0,2.432-0.982,2.432-3.178v-3.75
			C59.555,15.78,57.56,13.808,55.107,13.808z M57.693,32.104c-0.432,0-1.079,0.154-1.677,0.858l-15.348,16.66
			c-0.554,0.643-0.773,1.456-0.605,2.23c0.168,0.773,0.708,1.426,1.428,1.759l14.604,10.115C56.481,63.907,56.872,64,57.263,64
			c1.307,0,2.292-1.044,2.292-2.431V34.292C59.554,32.787,58.589,32.104,57.693,32.104z M56.588,60.677L43.22,51.201l13.368-14.512
			V60.677z"/>
	</g>
</g>
<path fill="#30ACE1" d="M16.756,0C8.854,0,2.445,6.431,2.445,14.36c0,9.223,10.305,20.734,11.925,22.494
	c0.669,0.729,1.231,1.439,2.385,1.439c1.154,0,1.714-0.711,2.385-1.439c1.621-1.76,11.926-13.271,11.926-22.494
	C31.066,6.431,24.656,0,16.756,0z M16.756,23.934c-5.269,0-9.541-4.287-9.541-9.573c0-5.287,4.271-9.574,9.541-9.574
	c5.269,0,9.54,4.287,9.54,9.574C26.296,19.647,22.024,23.934,16.756,23.934z M16.756,9.574c-2.633,0-4.771,2.144-4.771,4.787
	c0,2.642,2.137,4.787,4.771,4.787c2.632,0,4.77-2.145,4.77-4.787C21.526,11.718,19.388,9.574,16.756,9.574z"/>
</svg>
