<?xml version="1.0" encoding="utf-8"?>
<!-- Generator: Adobe Illustrator 16.0.0, SVG Export Plug-In . SVG Version: 6.00 Build 0)  -->
<!DOCTYPE svg PUBLIC "-//W3C//DTD SVG 1.1//EN" "http://www.w3.org/Graphics/SVG/1.1/DTD/svg11.dtd">
<svg version="1.1" id="Layer_1" xmlns="http://www.w3.org/2000/svg" xmlns:xlink="http://www.w3.org/1999/xlink" x="0px" y="0px"
	 width="30px" height="30px" viewBox="0 0 30 30" enable-background="new 0 0 30 30" xml:space="preserve">
<g>
	<g opacity="0.75">
		<path fill-rule="evenodd" clip-rule="evenodd" d="M26.906,8.75c0.381,0,0.688-0.301,0.688-0.673c0-0.371-0.308-0.673-0.688-0.673
			h-3.69l0.445,1.346H26.906z M23.535,9.625l-1.242-3.134l-8.271,3.134H23.535z M28.576,17.62v-6.467
			c0-0.495-0.411-0.897-0.918-0.897H2.438C2.622,9.53,3.191,8.75,3.73,8.75h0.933c-0.299-0.35-0.285-0.882,0.05-1.209
			C4.76,7.495,4.807,7.45,4.854,7.404H3.73C2.218,7.404,1,9.208,1,10.702c0,0.098,0.007,0.196,0.018,0.292
			c-0.01,0.052-0.017,0.105-0.017,0.16v17.903c0,0.495,0.411,0.897,0.918,0.897h25.739c0.507,0,0.918-0.402,0.918-0.897v-5.896
			C29.399,22.896,30,22.146,30,21.253v-1.725C30,18.635,29.399,17.885,28.576,17.62z M29.541,21.253
			c0,0.719-0.499,1.319-1.175,1.504h-8.501c-1.354,0-2.453-1.074-2.453-2.398s1.099-2.399,2.453-2.399h8.071
			c0.885,0,1.604,0.704,1.604,1.569V21.253z M20.487,19.338c-0.528,0-0.957,0.419-0.957,0.935c0,0.517,0.429,0.936,0.957,0.936
			s0.956-0.419,0.956-0.936C21.443,19.757,21.016,19.338,20.487,19.338z M5.512,9.625H7.86l13.629-5.163l-0.778-1.967
			c-0.144-0.361-0.561-0.541-0.931-0.401L5.45,7.522C5.079,7.662,4.896,8.07,5.039,8.431L5.512,9.625z"/>
	</g>
	<g>
		<g>
			<linearGradient id="SVGID_1_" gradientUnits="userSpaceOnUse" x1="14.5005" y1="28.9541" x2="14.5005" y2="1.0469">
				<stop  offset="0" style="stop-color:#BABABA"/>
				<stop  offset="1" style="stop-color:#F1F2F2"/>
			</linearGradient>
			<path fill-rule="evenodd" clip-rule="evenodd" fill="url(#SVGID_1_)" d="M25.906,7.75c0.381,0,0.688-0.301,0.688-0.673
				c0-0.371-0.308-0.673-0.688-0.673h-3.69l0.445,1.346H25.906z M22.535,8.625l-1.242-3.134l-8.271,3.134H22.535z M27.576,16.62
				v-6.467c0-0.495-0.411-0.897-0.918-0.897H1.438C1.622,8.53,2.191,7.75,2.73,7.75h0.933c-0.299-0.35-0.285-0.882,0.05-1.209
				C3.76,6.495,3.807,6.45,3.854,6.404H2.73C1.218,6.404,0,8.208,0,9.702C0,9.8,0.007,9.898,0.018,9.994
				c-0.01,0.052-0.017,0.105-0.017,0.16v17.903c0,0.495,0.411,0.897,0.918,0.897h25.739c0.507,0,0.918-0.402,0.918-0.897v-5.896
				C28.399,21.896,29,21.146,29,20.253v-1.725C29,17.635,28.399,16.885,27.576,16.62z M28.541,20.253
				c0,0.719-0.499,1.319-1.175,1.504h-8.501c-1.354,0-2.453-1.074-2.453-2.398s1.099-2.399,2.453-2.399h8.071
				c0.885,0,1.604,0.704,1.604,1.569V20.253z M19.487,18.338c-0.528,0-0.957,0.419-0.957,0.935c0,0.517,0.429,0.936,0.957,0.936
				s0.956-0.419,0.956-0.936C20.443,18.757,20.016,18.338,19.487,18.338z M4.512,8.625H6.86l13.629-5.163l-0.778-1.967
				c-0.144-0.361-0.561-0.541-0.931-0.401L4.45,6.522C4.079,6.662,3.896,7.07,4.039,7.431L4.512,8.625z"/>
		</g>
	</g>
</g>
</svg>
