<?xml version="1.0" encoding="utf-8"?>
<!-- Generator: Adobe Illustrator 16.0.0, SVG Export Plug-In . SVG Version: 6.00 Build 0)  -->
<!DOCTYPE svg PUBLIC "-//W3C//DTD SVG 1.1//EN" "http://www.w3.org/Graphics/SVG/1.1/DTD/svg11.dtd">
<svg version="1.1" id="Layer_1" xmlns="http://www.w3.org/2000/svg" xmlns:xlink="http://www.w3.org/1999/xlink" x="0px" y="0px"
	 width="64px" height="64px" viewBox="0 0 64 64" enable-background="new 0 0 64 64" xml:space="preserve">
<g>
	<path fill="#444444" d="M27.751,28.082c-0.781,1.998-1.995,3.777-3.528,5.225h36.511v-5.225H27.751z"/>
	<g>
		<g>
			<path fill="#444444" d="M17.831,48.54h9.814c0.352,0,0.637-0.287,0.637-0.642v-1.953c0-0.354-0.285-0.643-0.637-0.643h-9.814
				c-0.352,0-0.637,0.287-0.637,0.643v1.953C17.193,48.253,17.479,48.54,17.831,48.54z M28.734,22.857
				c0-0.102-0.009-0.201-0.011-0.303h-0.004C28.721,22.656,28.734,22.755,28.734,22.857z M13.38,37.175v0.009
				c0.327,0.022,0.654,0.041,0.987,0.041C14.034,37.225,13.708,37.197,13.38,37.175z M57.521,18.939H28.18v-0.001
				c0.327,1.154,0.517,2.365,0.544,3.616h28.797c1.596,0,2.894,1.31,2.894,2.919v23.501c0,1.609-1.298,2.92-2.894,2.92H16.275
				c-1.596,0-2.895-1.311-2.895-2.92V37.184c-1.245-0.088-2.446-0.332-3.584-0.715v12.508c0,3.604,2.906,6.533,6.479,6.533H57.52
				c3.572,0,6.479-2.931,6.479-6.533V25.474C64,21.871,61.093,18.939,57.521,18.939z M52.566,48.54c1.686,0,3.051-1.377,3.051-3.076
				V42.52c0-1.699-1.365-3.076-3.051-3.076h-2.918c-1.686,0-3.053,1.377-3.053,3.076v2.944c0,1.699,1.367,3.076,3.053,3.076H52.566z
				"/>
		</g>
	</g>
	<path fill="#31aee2" d="M14.521,20.811c-1.033-0.502-2.051-0.752-2.051-1.575c0-0.738,0.433-0.958,1.119-0.958
		c0.486,0,0.909,0.18,1.299,0.486c0.296,0.251,0.637,0.417,1.048,0.417c0.768,0,1.325-0.724,1.325-1.41
		c0-0.517-0.267-0.958-0.753-1.299c-0.415-0.316-0.877-0.557-1.355-0.722v-0.657c0-0.637-0.515-1.154-1.152-1.154h-0.839
		c-0.634,0-1.152,0.518-1.152,1.154v0.722c-1.465,0.617-2.359,2.062-2.359,3.48c0,2.257,2.006,3.215,3.691,3.999
		c1.34,0.615,1.787,1.003,1.787,1.575c0,0.956-0.797,1.434-1.724,1.434c-0.533,0-1.019-0.061-1.606-0.487
		c-0.296-0.251-0.643-0.457-1.058-0.457c-0.768,0-1.324,0.723-1.324,1.411c0,0.501,0.25,0.906,0.713,1.262
		c0.509,0.392,1.283,0.729,1.881,0.89v0.501c0,0.637,0.518,1.152,1.152,1.152H14c0.637,0,1.152-0.516,1.152-1.152v-0.598
		c1.687-0.565,2.841-1.98,2.841-4.041C17.987,22.716,16.553,21.798,14.521,20.811z"/>
	<path fill="#31aee2" d="M13.714,8.49C6.136,8.49,0,14.626,0,22.204c0,7.579,6.136,13.715,13.714,13.715
		c7.578,0,13.714-6.136,13.714-13.715C27.429,14.626,21.293,8.49,13.714,8.49z M13.73,33.395c-6.175,0-11.185-5.006-11.185-11.186
		S7.551,11.025,13.73,11.025s11.183,5.005,11.183,11.184S19.903,33.395,13.73,33.395z"/>
</g>
</svg>
