<?xml version="1.0" encoding="utf-8"?>
<!-- Generator: Adobe Illustrator 16.0.0, SVG Export Plug-In . SVG Version: 6.00 Build 0)  -->
<!DOCTYPE svg PUBLIC "-//W3C//DTD SVG 1.1//EN" "http://www.w3.org/Graphics/SVG/1.1/DTD/svg11.dtd">
<svg version="1.1" id="Layer_1" xmlns="http://www.w3.org/2000/svg" xmlns:xlink="http://www.w3.org/1999/xlink" x="0px" y="0px"
	 width="30px" height="30px" viewBox="0 0 30 30" enable-background="new 0 0 30 30" xml:space="preserve">
<g>
	<g opacity="0.75">
		<path fill-rule="evenodd" clip-rule="evenodd" d="M27.441,25.883H3.559C2.146,25.883,1,24.737,1,23.323V9.676
			c0-1.413,1.146-2.559,2.559-2.559h23.883C28.854,7.118,30,8.263,30,9.676v13.647C30,24.737,28.854,25.883,27.441,25.883z
			 M7.173,14.125c-0.084-0.171-0.219-0.313-0.386-0.418C6.614,13.6,6.408,13.525,6.173,13.48c-0.239-0.043-0.516-0.063-0.834-0.066
			l-1.477,0c-0.153,0.003-0.303,0.122-0.34,0.271l-0.994,4.341c-0.036,0.146,0.06,0.27,0.213,0.27h0.707
			c0.153,0,0.306-0.12,0.34-0.27l0.243-1.055c0.032-0.147,0.184-0.269,0.339-0.269h0.202c0.865-0.002,1.534-0.178,2.015-0.533
			c0.484-0.355,0.723-0.825,0.723-1.407C7.31,14.509,7.268,14.295,7.173,14.125z M10.583,14.745
			c-0.266-0.151-0.688-0.226-1.263-0.226c-0.285,0-0.568,0.023-0.855,0.066c-0.212,0.033-0.232,0.039-0.362,0.067
			c-0.269,0.059-0.312,0.329-0.312,0.329l-0.086,0.357c-0.049,0.228,0.082,0.218,0.136,0.2c0.117-0.036,0.183-0.071,0.423-0.126
			c0.229-0.052,0.471-0.091,0.663-0.089c0.283,0,0.499,0.03,0.643,0.091c0.142,0.063,0.213,0.168,0.213,0.322l-0.013,0.1
			l-0.102,0.063c-0.402,0.025-0.691,0.063-1.043,0.113c-0.345,0.048-0.646,0.132-0.897,0.247c-0.27,0.119-0.469,0.278-0.608,0.48
			c-0.134,0.205-0.202,0.453-0.202,0.742c0,0.273,0.098,0.499,0.288,0.673c0.191,0.171,0.443,0.255,0.745,0.255
			c0.19-0.001,0.338-0.016,0.444-0.041l0.342-0.117l0.29-0.163l0.267-0.176l0.003,0.004L9.27,18.03l-0.001,0.005v0.002
			c-0.029,0.138,0.054,0.252,0.189,0.265l0.002,0.003h0.013h0.542h0.102l0.01-0.003c0.141-0.019,0.274-0.132,0.304-0.266
			l0.516-2.237l0.026-0.183l0.013-0.171C10.987,15.13,10.851,14.895,10.583,14.745z M15.388,14.571c-0.167,0.001-0.848,0-0.848,0
			c-0.152,0-0.348,0.124-0.444,0.271c0,0-1.013,1.743-1.111,1.917h-0.117l-0.315-1.905c-0.035-0.15-0.191-0.279-0.385-0.279
			l-0.634,0.002c-0.152,0-0.247,0.122-0.211,0.27c0,0,0.48,2.746,0.578,3.392c0.044,0.357-0.006,0.421-0.006,0.421l-0.626,1.094
			c-0.093,0.149-0.042,0.271,0.11,0.271h0.732c0.151,0,0.352-0.121,0.442-0.271l2.817-4.778
			C15.369,14.976,15.64,14.567,15.388,14.571z M20.013,14.141c-0.088-0.172-0.221-0.311-0.389-0.419
			c-0.172-0.107-0.377-0.182-0.615-0.226c-0.234-0.042-0.514-0.064-0.83-0.066l-1.479,0.002c-0.152,0.002-0.301,0.122-0.337,0.269
			l-0.995,4.342c-0.036,0.147,0.063,0.27,0.213,0.269l0.708-0.001c0.15,0.001,0.305-0.12,0.34-0.268l0.24-1.055
			c0.034-0.146,0.187-0.27,0.339-0.269h0.202c0.865,0,1.536-0.179,2.02-0.532c0.477-0.358,0.718-0.827,0.718-1.408
			C20.147,14.524,20.103,14.311,20.013,14.141z M23.426,14.749c-0.27-0.151-0.689-0.228-1.263-0.228
			c-0.285,0-0.571,0.022-0.855,0.069c-0.212,0.031-0.232,0.037-0.363,0.065c-0.271,0.059-0.311,0.329-0.311,0.329l-0.086,0.356
			c-0.049,0.228,0.078,0.217,0.138,0.2c0.117-0.035,0.181-0.069,0.419-0.125c0.229-0.052,0.472-0.09,0.664-0.089
			c0.282,0,0.498,0.03,0.642,0.091c0.145,0.062,0.213,0.169,0.213,0.322l-0.01,0.1l-0.102,0.064
			c-0.404,0.025-0.695,0.062-1.044,0.112c-0.343,0.049-0.646,0.132-0.898,0.247c-0.267,0.12-0.47,0.278-0.607,0.481
			c-0.135,0.203-0.202,0.45-0.202,0.74c0,0.275,0.099,0.5,0.29,0.672s0.442,0.258,0.744,0.258c0.189-0.002,0.338-0.014,0.442-0.042
			l0.342-0.117l0.292-0.16l0.266-0.179l0.004,0.006l-0.023,0.113l-0.003,0.003v0.001c-0.032,0.139,0.052,0.253,0.189,0.266
			l0.002,0.003h0.012c0.089,0,0.396,0,0.544,0h0.101l0.01-0.004c0.139-0.017,0.272-0.13,0.302-0.266l0.517-2.236l0.026-0.184
			l0.014-0.171C23.829,15.132,23.694,14.898,23.426,14.749z M26.076,13.735c0.032-0.148-0.06-0.269-0.214-0.269h-0.633
			c-0.13,0-0.247,0.096-0.304,0.215l-0.036,0.055l-0.03,0.14l-0.886,4.036l-0.028,0.125l0.001,0.003
			c-0.029,0.133,0.053,0.233,0.177,0.253l0.012,0.015h0.657c0.13,0,0.249-0.099,0.306-0.22l0.033-0.051l0.947-4.302L26.076,13.735z
			 M27.334,13.755h-0.006l-0.044,0.013l-0.06,0.008l-0.072-0.011l-0.037-0.037l-0.017-0.057l-0.002-0.085v-0.316h0.237v-0.098
			h-0.237v-0.197H26.98v0.197H26.9v0.098h0.08v0.367l0.055,0.182l0.16,0.057l0.067-0.005l0.071-0.014V13.755z M28.479,13.416
			l-0.055-0.193l-0.167-0.068l-0.124,0.025l-0.127,0.085l-0.074-0.083l-0.12-0.028l-0.113,0.025l-0.109,0.07v-0.076h-0.114v0.69
			h0.114V13.35l0.097-0.06l0.095-0.024l0.077,0.014l0.039,0.039l0.017,0.066l0.004,0.086v0.394h0.115v-0.441l-0.001-0.037
			l-0.001-0.034l0.098-0.063l0.096-0.025l0.078,0.014l0.04,0.04l0.015,0.066l0.008,0.084v0.394h0.114V13.416z M22.174,17.412
			l-0.276,0.145c-0.13,0.052-0.255,0.079-0.368,0.079c-0.179,0-0.313-0.024-0.402-0.077l-0.138-0.266
			c0-0.145,0.033-0.258,0.102-0.347c0.068-0.084,0.173-0.153,0.303-0.204c0.126-0.044,0.283-0.079,0.465-0.105
			c0.16-0.02,0.479-0.058,0.521-0.058l0.051,0.087c-0.009,0.048-0.1,0.426-0.142,0.599L22.174,17.412z M17.597,15.793h-0.176
			c-0.153,0.001-0.252-0.123-0.217-0.271l0.213-0.92c0.032-0.147,0.188-0.271,0.339-0.27l0.229-0.001
			c0.271,0.001,0.475,0.046,0.615,0.137c0.137,0.091,0.203,0.233,0.206,0.422c0.002,0.29-0.105,0.511-0.318,0.669
			C18.275,15.714,17.979,15.793,17.597,15.793z M9.333,17.408l-0.278,0.144c-0.13,0.053-0.255,0.081-0.369,0.081
			c-0.174,0-0.311-0.025-0.403-0.077L8.146,17.29c0-0.145,0.034-0.259,0.104-0.347l0.3-0.204c0.127-0.044,0.284-0.08,0.466-0.104
			c0.162-0.021,0.481-0.059,0.523-0.059l0.049,0.086c-0.011,0.048-0.101,0.428-0.144,0.6L9.333,17.408z M4.755,15.778H4.582
			c-0.153,0-0.248-0.122-0.215-0.271l0.214-0.921c0.029-0.148,0.185-0.271,0.336-0.269l0.231-0.001c0.271,0,0.477,0.047,0.615,0.137
			c0.136,0.09,0.205,0.233,0.203,0.423c0.005,0.288-0.104,0.51-0.317,0.667C5.436,15.7,5.139,15.778,4.755,15.778z"/>
	</g>
	<g>
		<linearGradient id="SVGID_1_" gradientUnits="userSpaceOnUse" x1="14.5005" y1="24.8828" x2="14.5005" y2="6.1182">
			<stop  offset="0" style="stop-color:#BABABA"/>
			<stop  offset="1" style="stop-color:#F1F2F2"/>
		</linearGradient>
		<path fill-rule="evenodd" clip-rule="evenodd" fill="url(#SVGID_1_)" d="M26.441,24.883H2.559C1.146,24.883,0,23.737,0,22.323
			V8.676c0-1.413,1.146-2.559,2.559-2.559h23.883C27.854,6.118,29,7.263,29,8.676v13.647C29,23.737,27.854,24.883,26.441,24.883z
			 M6.173,13.125c-0.084-0.171-0.219-0.313-0.386-0.418C5.614,12.6,5.408,12.525,5.173,12.48c-0.239-0.043-0.516-0.063-0.834-0.066
			l-1.477,0c-0.153,0.003-0.303,0.122-0.34,0.271l-0.994,4.341c-0.036,0.146,0.06,0.27,0.213,0.27h0.707
			c0.153,0,0.306-0.12,0.34-0.27l0.243-1.055c0.032-0.147,0.184-0.269,0.339-0.269h0.202c0.865-0.001,1.534-0.178,2.015-0.533
			c0.484-0.355,0.723-0.824,0.723-1.406C6.31,13.509,6.268,13.295,6.173,13.125z M9.583,13.745
			c-0.266-0.151-0.688-0.226-1.263-0.226c-0.285,0-0.568,0.023-0.855,0.066c-0.212,0.033-0.232,0.039-0.362,0.067
			c-0.269,0.059-0.312,0.329-0.312,0.329l-0.086,0.357c-0.049,0.228,0.082,0.218,0.136,0.2c0.117-0.036,0.183-0.071,0.423-0.126
			c0.229-0.052,0.471-0.091,0.663-0.089c0.283,0,0.499,0.03,0.643,0.091c0.142,0.063,0.213,0.168,0.213,0.322l-0.013,0.1
			l-0.102,0.063c-0.402,0.025-0.691,0.063-1.043,0.113c-0.345,0.048-0.646,0.132-0.897,0.248c-0.27,0.118-0.469,0.278-0.608,0.48
			c-0.134,0.205-0.202,0.453-0.202,0.742c0,0.273,0.098,0.499,0.288,0.673c0.191,0.171,0.443,0.255,0.745,0.255
			c0.19-0.001,0.338-0.016,0.444-0.041l0.342-0.117l0.29-0.163l0.267-0.176l0.003,0.004L8.27,17.03l-0.001,0.005v0.002
			c-0.029,0.138,0.054,0.252,0.189,0.265l0.002,0.003h0.013h0.542h0.102l0.01-0.003c0.141-0.019,0.274-0.132,0.304-0.266
			l0.516-2.237l0.026-0.183l0.013-0.171C9.987,14.13,9.851,13.895,9.583,13.745z M14.388,13.571c-0.167,0.001-0.848,0-0.848,0
			c-0.152,0-0.348,0.124-0.444,0.271c0,0-1.013,1.743-1.111,1.917l-0.117,0l-0.315-1.905c-0.035-0.15-0.191-0.279-0.385-0.279
			l-0.634,0.002c-0.152,0-0.247,0.122-0.211,0.27c0,0,0.48,2.746,0.578,3.392c0.044,0.357-0.006,0.421-0.006,0.421l-0.626,1.094
			c-0.093,0.149-0.042,0.271,0.11,0.271h0.732c0.151,0,0.352-0.121,0.442-0.271l2.817-4.778
			C14.369,13.976,14.64,13.567,14.388,13.571z M19.013,13.141c-0.088-0.172-0.221-0.311-0.389-0.419
			c-0.172-0.107-0.377-0.182-0.615-0.226c-0.234-0.042-0.514-0.064-0.83-0.066l-1.479,0.002c-0.152,0.002-0.301,0.122-0.337,0.269
			l-0.995,4.342c-0.036,0.147,0.063,0.27,0.213,0.269l0.708-0.001c0.15,0.001,0.305-0.12,0.34-0.268l0.24-1.054
			c0.034-0.147,0.187-0.271,0.339-0.269h0.202c0.865,0,1.536-0.178,2.02-0.532c0.477-0.358,0.718-0.827,0.718-1.408
			C19.147,13.524,19.103,13.311,19.013,13.141z M22.426,13.749c-0.27-0.151-0.689-0.228-1.263-0.228
			c-0.285,0-0.571,0.022-0.855,0.069c-0.212,0.031-0.232,0.037-0.363,0.065c-0.271,0.059-0.311,0.329-0.311,0.329l-0.086,0.356
			c-0.049,0.228,0.078,0.217,0.138,0.2c0.117-0.035,0.181-0.069,0.419-0.125c0.229-0.052,0.472-0.09,0.664-0.089
			c0.282,0,0.498,0.03,0.642,0.091c0.145,0.062,0.213,0.169,0.213,0.322l-0.01,0.1l-0.102,0.064
			c-0.404,0.025-0.695,0.062-1.044,0.113c-0.343,0.048-0.646,0.131-0.898,0.247c-0.267,0.12-0.47,0.279-0.607,0.481
			c-0.135,0.203-0.202,0.45-0.202,0.74c0,0.275,0.099,0.5,0.29,0.672s0.442,0.258,0.744,0.258c0.189-0.002,0.338-0.014,0.442-0.042
			l0.342-0.117l0.292-0.16l0.266-0.179l0.004,0.006l-0.023,0.113l-0.003,0.003v0.001c-0.032,0.139,0.052,0.253,0.189,0.266
			l0.002,0.003h0.012c0.089,0,0.396,0,0.544,0h0.101l0.01-0.004c0.139-0.017,0.272-0.13,0.302-0.266l0.517-2.236l0.026-0.184
			l0.014-0.171C22.829,14.132,22.694,13.898,22.426,13.749z M25.076,12.735c0.032-0.148-0.06-0.269-0.214-0.269h-0.633
			c-0.13,0-0.247,0.096-0.304,0.215l-0.036,0.055l-0.03,0.14l-0.886,4.036l-0.028,0.125l0.001,0.003
			c-0.029,0.133,0.053,0.233,0.177,0.253l0.012,0.015h0.657c0.13,0,0.249-0.099,0.306-0.22l0.033-0.051l0.947-4.302L25.076,12.735z
			 M26.334,12.755h-0.006l-0.044,0.013l-0.06,0.008l-0.072-0.011l-0.037-0.037l-0.017-0.057l-0.002-0.085v-0.316h0.237v-0.098
			h-0.237v-0.197H25.98v0.197H25.9v0.098h0.08v0.367l0.055,0.182l0.16,0.057l0.067-0.005l0.071-0.014V12.755z M27.479,12.416
			l-0.055-0.193l-0.167-0.068l-0.124,0.025l-0.127,0.085l-0.074-0.083l-0.12-0.028l-0.113,0.025l-0.109,0.07v-0.076h-0.114v0.69
			h0.114V12.35l0.097-0.06l0.095-0.024l0.077,0.014l0.039,0.039l0.017,0.066l0.004,0.086v0.394h0.115v-0.441l-0.001-0.037
			l-0.001-0.034l0.098-0.063l0.096-0.025l0.078,0.014l0.04,0.04l0.015,0.066l0.008,0.084v0.394h0.114V12.416z M21.174,16.412
			l-0.276,0.145c-0.13,0.052-0.255,0.079-0.368,0.079c-0.179,0-0.313-0.024-0.402-0.077l-0.138-0.266
			c0-0.145,0.033-0.258,0.102-0.347c0.068-0.084,0.173-0.153,0.303-0.204c0.126-0.044,0.283-0.079,0.465-0.105
			c0.16-0.021,0.479-0.058,0.521-0.058l0.051,0.087c-0.009,0.047-0.1,0.425-0.142,0.598L21.174,16.412z M16.597,14.793h-0.176
			c-0.153,0.001-0.252-0.123-0.217-0.271l0.213-0.92c0.032-0.147,0.188-0.271,0.339-0.27l0.229-0.001
			c0.271,0.001,0.475,0.046,0.615,0.137c0.137,0.091,0.203,0.233,0.206,0.422c0.002,0.29-0.105,0.511-0.318,0.669
			C17.275,14.714,16.979,14.793,16.597,14.793z M8.333,16.408l-0.278,0.144c-0.13,0.053-0.255,0.081-0.369,0.081
			c-0.174,0-0.311-0.025-0.403-0.077L7.146,16.29c0-0.145,0.034-0.259,0.104-0.347l0.3-0.204c0.127-0.043,0.284-0.08,0.466-0.105
			c0.162-0.021,0.481-0.058,0.523-0.059l0.049,0.087c-0.011,0.047-0.101,0.427-0.144,0.599L8.333,16.408z M3.755,14.778H3.582
			c-0.153,0-0.248-0.122-0.215-0.271l0.214-0.921c0.029-0.148,0.185-0.271,0.336-0.269l0.231-0.001c0.271,0,0.477,0.047,0.615,0.137
			c0.136,0.09,0.205,0.233,0.203,0.423c0.005,0.288-0.104,0.51-0.317,0.667C4.436,14.7,4.139,14.778,3.755,14.778z"/>
	</g>
</g>
</svg>
