<?xml version="1.0" encoding="utf-8"?>
<!-- Generator: Adobe Illustrator 16.0.0, SVG Export Plug-In . SVG Version: 6.00 Build 0)  -->
<!DOCTYPE svg PUBLIC "-//W3C//DTD SVG 1.1//EN" "http://www.w3.org/Graphics/SVG/1.1/DTD/svg11.dtd">
<svg version="1.1" id="Layer_1" xmlns="http://www.w3.org/2000/svg" xmlns:xlink="http://www.w3.org/1999/xlink" x="0px" y="0px"
	 width="48px" height="48px" viewBox="0 0 48 48" enable-background="new 0 0 48 48" xml:space="preserve">
<g display="none">
	<g display="inline" opacity="0.75">
		<path d="M30.884,10.862c-0.446,0-0.85,0.168-1.163,0.435l-0.019-0.016L15.458,25.506c-1.613,1.617-2.275,3.196-2.284,5.448
			c0,1.762,0.649,3.347,1.829,4.462c1.218,1.152,2.909,1.762,4.892,1.761h0.041c2.063-0.009,3.995-0.821,5.436-2.29l16.526-16.558
			c4.187-4.195,4.295-10.175,0.263-14.219C40.158,2.104,37.494,1,34.658,1c-2.838,0-5.5,1.104-7.5,3.11l-20.7,20.742
			c-5.277,5.289-5.277,13.896,0,19.186C9.011,46.593,12.409,48,16.028,48c3.618,0,7.018-1.407,9.57-3.965l21.43-21.552
			c0,0,0.474-0.465,0.474-1.25c0-1.005-0.813-1.821-1.815-1.821c-0.478,0-0.906,0.188-1.23,0.49l-0.005-0.005L23.017,41.449
			c-1.863,1.865-4.346,2.895-6.989,2.895s-5.125-1.027-6.988-2.895c-3.854-3.864-3.854-10.148,0-14.012L29.738,6.698
			c1.313-1.314,3.059-2.039,4.92-2.039c1.859,0,3.607,0.724,4.921,2.039c1.31,1.312,1.967,2.87,1.903,4.507
			c-0.063,1.612-0.813,3.18-2.166,4.536L22.756,32.335c-0.758,0.761-1.764,1.181-2.833,1.183c-2.034,0-3.099-1.283-3.099-2.55
			c0.005-1.071,0.424-2.079,1.181-2.839l14.278-14.261l-0.016-0.016c0.267-0.317,0.434-0.721,0.434-1.169
			C32.701,11.677,31.889,10.862,30.884,10.862z"/>
	</g>
	<g display="inline">
		<g>
			
				<linearGradient id="SVGID_1_" gradientUnits="userSpaceOnUse" x1="604.001" y1="743" x2="604.001" y2="790" gradientTransform="matrix(1 0 0 1 -580 -743)">
				<stop  offset="0" style="stop-color:#FFFFFF"/>
				<stop  offset="1" style="stop-color:#BABABA"/>
			</linearGradient>
			<path fill="url(#SVGID_1_)" d="M29.884,9.862c-0.446,0-0.85,0.168-1.163,0.435l-0.019-0.016L14.458,24.506
				c-1.613,1.617-2.275,3.196-2.284,5.448c0,1.762,0.649,3.347,1.829,4.462c1.218,1.152,2.909,1.762,4.892,1.761h0.041
				c2.063-0.009,3.995-0.821,5.436-2.29l16.526-16.558c4.187-4.195,4.295-10.175,0.263-14.219C39.158,1.104,36.494,0,33.658,0
				c-2.838,0-5.5,1.104-7.5,3.11l-20.7,20.742c-5.277,5.289-5.277,13.895,0,19.183C8.011,45.593,11.409,47,15.028,47
				c3.618,0,7.018-1.407,9.57-3.965l21.43-21.552c0,0,0.474-0.465,0.474-1.25c0-1.005-0.813-1.821-1.815-1.821
				c-0.478,0-0.906,0.188-1.23,0.49l-0.005-0.005L22.017,40.449c-1.863,1.865-4.346,2.895-6.989,2.895s-5.125-1.027-6.988-2.895
				c-3.854-3.864-3.854-10.148,0-14.012L28.738,5.698c1.313-1.314,3.059-2.039,4.92-2.039c1.859,0,3.607,0.724,4.921,2.039
				c1.31,1.312,1.967,2.87,1.903,4.507c-0.063,1.612-0.813,3.18-2.166,4.536L21.756,31.335c-0.758,0.761-1.764,1.181-2.833,1.183
				c-2.034,0-3.099-1.283-3.099-2.55c0.005-1.071,0.424-2.079,1.181-2.839l14.278-14.261l-0.016-0.016
				c0.267-0.317,0.434-0.721,0.434-1.169C31.701,10.677,30.889,9.862,29.884,9.862z"/>
		</g>
	</g>
</g>
<g>
	<g opacity="0.75">
		<path d="M42.563,6.347c-3.576-5.52-12.848-7.67-17.371-2.046c-0.109,0.139-0.183,0.285-0.226,0.432l-9.73-1.42l0.23,3.578
			c0.248-0.171,0.562-0.253,0.884-0.203l29.4,4.47v32.451c0,0.385-0.193,0.723-0.49,0.934l3.74,1.18V8.238l-6.33-0.923
			C42.793,7.031,42.787,6.693,42.563,6.347z M27.676,5.126c3.545-3.175,9.525-1.829,12.379,1.807L27.676,5.126z"/>
		<path d="M13.982,11.647c-0.089,0.529,0.281,1.027,0.826,1.114l24.108,3.824V43.18c0,0.535,0.449,0.971,1.002,0.971
			c0.551,0,1-0.436,1-0.971V14.938l-25.787-4.09C14.586,10.757,14.071,11.119,13.982,11.647z"/>
		<path d="M43.348,43.143c0.025,0.002,0.047,0.015,0.07,0.015c0.465,0,0.838-0.312,0.951-0.728c0.021-0.078,0.051-0.156,0.051-0.242
			V12.395l-25.787-4.09c-0.379-0.063-0.733,0.101-0.951,0.378c-0.095,0.123-0.172,0.26-0.199,0.421
			c-0.006,0.039,0.006,0.074,0.004,0.113c-0.021,0.484,0.316,0.921,0.822,1.001l24.107,3.824v28.146
			C42.416,42.697,42.83,43.105,43.348,43.143z"/>
		<path d="M27.934,46.523c4.119-4.156,8.969-25.545,9.174-26.454l0.213-0.945l-26.529-5.692l0.249,1.42
			c1.123,6.407-8.306,20.896-8.4,21.042L2,36.871L27.461,47L27.934,46.523z M4.955,35.951c2.026-3.248,8.175-13.63,8.172-20.03
			L34.936,20.6c-1.473,6.332-5.133,20.219-8.024,24.083L4.955,35.951z"/>
	</g>
	<g>
		<g>
			
				<linearGradient id="SVGID_2_" gradientUnits="userSpaceOnUse" x1="304.2363" y1="-353.3613" x2="338" y2="-353.3613" gradientTransform="matrix(1 0 0 -1 -290 -331)">
				<stop  offset="0" style="stop-color:#FFFFFF"/>
				<stop  offset="1" style="stop-color:#BABABA"/>
			</linearGradient>
			<path fill="url(#SVGID_2_)" d="M41.563,5.347c-3.576-5.52-12.848-7.67-17.371-2.046c-0.11,0.139-0.183,0.285-0.226,0.432
				l-9.73-1.42l0.23,3.578c0.248-0.171,0.562-0.253,0.884-0.203l29.4,4.47v32.451c0,0.385-0.193,0.723-0.49,0.934l3.74,1.18V7.238
				l-6.33-0.923C41.793,6.031,41.787,5.693,41.563,5.347z M26.676,4.126c3.545-3.175,9.525-1.829,12.379,1.807L26.676,4.126z"/>
			
				<linearGradient id="SVGID_3_" gradientUnits="userSpaceOnUse" x1="302.9688" y1="-357.4922" x2="329.918" y2="-357.4922" gradientTransform="matrix(1 0 0 -1 -290 -331)">
				<stop  offset="0" style="stop-color:#FFFFFF"/>
				<stop  offset="1" style="stop-color:#BABABA"/>
			</linearGradient>
			<path fill="url(#SVGID_3_)" d="M12.982,10.647c-0.089,0.529,0.281,1.027,0.826,1.114l24.108,3.824V42.18
				c0,0.535,0.449,0.971,1.002,0.971c0.551,0,1-0.436,1-0.971V13.938l-25.787-4.09C13.586,9.757,13.071,10.119,12.982,10.647z"/>
			
				<linearGradient id="SVGID_4_" gradientUnits="userSpaceOnUse" x1="306.4805" y1="-355.7246" x2="333.4199" y2="-355.7246" gradientTransform="matrix(1 0 0 -1 -290 -331)">
				<stop  offset="0" style="stop-color:#FFFFFF"/>
				<stop  offset="1" style="stop-color:#BABABA"/>
			</linearGradient>
			<path fill="url(#SVGID_4_)" d="M42.348,42.143c0.025,0.002,0.047,0.015,0.07,0.015c0.465,0,0.838-0.312,0.951-0.728
				c0.021-0.078,0.051-0.156,0.051-0.242V11.395l-25.787-4.09c-0.379-0.063-0.733,0.101-0.951,0.378
				c-0.095,0.123-0.172,0.26-0.199,0.421c-0.006,0.039,0.006,0.074,0.004,0.113c-0.021,0.484,0.316,0.921,0.822,1.001l24.107,3.824
				v28.146C41.416,41.697,41.83,42.105,42.348,42.143z"/>
			
				<linearGradient id="SVGID_5_" gradientUnits="userSpaceOnUse" x1="291" y1="-360.2168" x2="326.3203" y2="-360.2168" gradientTransform="matrix(1 0 0 -1 -290 -331)">
				<stop  offset="0" style="stop-color:#FFFFFF"/>
				<stop  offset="1" style="stop-color:#BABABA"/>
			</linearGradient>
			<path fill="url(#SVGID_5_)" d="M26.934,45.523c4.119-4.156,8.969-25.545,9.174-26.454l0.213-0.945L9.791,12.433l0.249,1.42
				c1.123,6.407-8.306,20.896-8.4,21.042L1,35.871L26.461,46L26.934,45.523z M3.955,34.951c2.026-3.248,8.175-13.63,8.172-20.03
				L33.936,19.6c-1.473,6.332-5.133,20.219-8.024,24.083L3.955,34.951z"/>
		</g>
	</g>
</g>
</svg>
